<svg width="17" height="17" viewBox="0 0 17 17" fill="none" xmlns="http://www.w3.org/2000/svg">
<path d="M10.4776 11.4801L8.49935 9.50182L6.52108 11.4801L5.51935 10.4783L7.49761 8.50008L5.51928 6.52175L6.52102 5.52001L8.49935 7.49835L10.4777 5.52001L11.4794 6.52175L9.50108 8.50008L11.4793 10.4783L10.4776 11.4801Z" fill="#828282"/>
<path fill-rule="evenodd" clip-rule="evenodd" d="M8.49935 1.41675C4.58733 1.41675 1.41602 4.58806 1.41602 8.50008C1.41602 12.4121 4.58733 15.5834 8.49935 15.5834C12.4114 15.5834 15.5827 12.4121 15.5827 8.50008C15.5827 4.58806 12.4114 1.41675 8.49935 1.41675ZM2.83268 8.50008C2.83268 5.37047 5.36974 2.83341 8.49935 2.83341C11.629 2.83341 14.166 5.37047 14.166 8.50008C14.166 11.6297 11.629 14.1667 8.49935 14.1667C5.36974 14.1667 2.83268 11.6297 2.83268 8.50008Z" fill="#828282"/>
</svg>
