<svg width="13" height="14" viewBox="0 0 13 14" fill="none" xmlns="http://www.w3.org/2000/svg">
<path d="M8.1839 8.92327L6.77247 7.4328L5.36105 8.92327L4.64634 8.16854L6.05777 6.67807L4.6463 5.18754L5.361 4.43281L6.77247 5.92334L8.18395 4.43281L8.89865 5.18754L7.48718 6.67807L8.89861 8.16854L8.1839 8.92327Z" fill="#828282"/>
<path fill-rule="evenodd" clip-rule="evenodd" d="M6.77247 1.34131C3.98138 1.34131 1.71875 3.73066 1.71875 6.67807C1.71875 9.62548 3.98138 12.0148 6.77247 12.0148C9.56357 12.0148 11.8262 9.62548 11.8262 6.67807C11.8262 3.73066 9.56357 1.34131 6.77247 1.34131ZM2.72949 6.67807C2.72949 4.32014 4.5396 2.40866 6.77247 2.40866C9.00535 2.40866 10.8155 4.32014 10.8155 6.67807C10.8155 9.03599 9.00535 10.9475 6.77247 10.9475C4.5396 10.9475 2.72949 9.03599 2.72949 6.67807Z" fill="#828282"/>
</svg>
