<svg width="275" height="260" viewBox="0 0 275 260" fill="none" xmlns="http://www.w3.org/2000/svg">
<g clip-path="url(#clip0_707_655)">
<g opacity="0.5">
<path d="M-62.5526 275.285C-51.0958 239.857 -40.0404 227.372 -13.5039 217.679C13.0326 207.985 30.6038 221.306 79.8902 186.799C129.177 152.292 96.0804 141.344 180.944 101.696C248.836 69.977 275.533 23.0225 280.395 3.51006" stroke="url(#paint0_linear_707_655)" stroke-opacity="0.4" stroke-width="1.25"/>
<path d="M-63.1463 270.554C-51.6896 235.126 -40.6342 222.641 -14.0977 212.947C12.4388 203.253 30.0101 216.575 79.2965 182.067C128.583 147.56 95.4867 136.612 180.351 96.964C248.242 65.2453 274.939 18.2908 279.801 -1.22163" stroke="url(#paint1_linear_707_655)" stroke-opacity="0.4" stroke-width="1.25"/>
<path d="M-63.742 265.822C-52.2853 230.394 -41.2299 217.909 -14.6934 208.215C11.8431 198.522 29.4144 211.843 78.7008 177.336C127.987 142.828 94.891 131.881 179.755 92.2325C247.646 60.5139 274.343 13.5594 279.206 -5.95308" stroke="url(#paint2_linear_707_655)" stroke-opacity="0.4" stroke-width="1.25"/>
<path d="M-64.3358 261.091C-52.879 225.663 -41.8236 213.178 -15.2871 203.484C11.2494 193.79 28.8206 207.112 78.107 172.604C127.393 138.097 94.2972 127.149 179.161 87.5011C247.052 55.7824 273.75 8.82791 278.612 -10.6845" stroke="url(#paint3_linear_707_655)" stroke-opacity="0.4" stroke-width="1.25"/>
<path d="M-64.9295 256.359C-53.4728 220.931 -42.4174 208.446 -15.8809 198.752C10.6556 189.059 28.2269 202.38 77.5133 167.873C126.8 133.365 93.7035 122.418 178.567 82.7694C246.459 51.0508 273.156 4.09623 278.018 -15.4162" stroke="url(#paint4_linear_707_655)" stroke-opacity="0.4" stroke-width="1.25"/>
<path d="M-65.5252 251.627C-54.0685 216.199 -43.0131 203.714 -16.4766 194.021C10.0599 184.327 27.6312 197.648 76.9176 163.141C126.204 128.634 93.1078 117.686 177.972 78.0377C245.863 46.3191 272.56 -0.635464 277.422 -20.1479" stroke="url(#paint5_linear_707_655)" stroke-opacity="0.4" stroke-width="1.25"/>
<path d="M-66.119 246.896C-54.6622 211.468 -43.6068 198.983 -17.0703 189.289C9.46615 179.595 27.0374 192.917 76.3238 158.409C125.61 123.902 92.514 112.954 177.378 73.306C245.269 41.5874 271.966 -5.36715 276.829 -24.8796" stroke="url(#paint6_linear_707_655)" stroke-opacity="0.4" stroke-width="1.25"/>
<path d="M-66.7147 242.164C-55.2579 206.736 -44.2025 194.251 -17.666 184.557C8.87045 174.864 26.4417 188.185 75.7281 153.678C125.015 119.17 91.9183 108.223 176.782 68.5746C244.674 36.8559 271.371 -10.0986 276.233 -29.611" stroke="url(#paint7_linear_707_655)" stroke-opacity="0.4" stroke-width="1.25"/>
<path d="M-67.3065 237.432C-55.8497 202.004 -44.7943 189.519 -18.2578 179.825C8.27865 170.132 25.8499 183.453 75.1363 148.946C124.423 114.439 91.3265 103.491 176.191 63.8426C244.082 32.124 270.779 -14.8305 275.641 -34.343" stroke="url(#paint8_linear_707_655)" stroke-opacity="0.4" stroke-width="1.25"/>
<path d="M-67.9002 232.701C-56.4435 197.273 -45.3881 184.788 -18.8516 175.094C7.6849 165.4 25.2562 178.722 74.5426 144.214C123.829 109.707 90.7328 98.7595 175.597 59.1112C243.488 27.3926 270.185 -19.562 275.047 -39.0744" stroke="url(#paint9_linear_707_655)" stroke-opacity="0.4" stroke-width="1.25"/>
<path d="M-68.4959 227.969C-57.0392 192.541 -45.9838 180.056 -19.4473 170.362C7.0892 160.669 24.6605 173.99 73.9469 139.483C123.233 104.975 90.1371 94.0278 175.001 54.3795C242.892 22.6609 269.589 -24.2937 274.452 -43.8061" stroke="url(#paint10_linear_707_655)" stroke-opacity="0.4" stroke-width="1.25"/>
<path d="M-69.0897 223.238C-57.6329 187.809 -46.5775 175.324 -20.041 165.631C6.49545 155.937 24.0667 169.258 73.3531 134.751C122.64 100.244 89.5433 89.2961 174.407 49.6478C242.299 17.9292 268.996 -29.0254 273.858 -48.5378" stroke="url(#paint11_linear_707_655)" stroke-opacity="0.4" stroke-width="1.25"/>
<path d="M-69.6834 218.506C-58.2267 183.078 -47.1713 170.593 -20.6348 160.899C5.9017 151.205 23.473 164.527 72.7594 130.019C122.046 95.512 88.9496 84.5644 173.814 44.9161C241.705 13.1975 268.402 -33.757 273.264 -53.2695" stroke="url(#paint12_linear_707_655)" stroke-opacity="0.4" stroke-width="1.25"/>
<path d="M-70.2772 213.774C-58.8204 178.346 -47.765 165.861 -21.2285 156.168C5.30795 146.474 22.8792 159.795 72.1656 125.288C121.452 90.7806 88.3558 79.8329 173.22 40.1847C241.111 8.46604 267.808 -38.4885 272.67 -58.0009" stroke="url(#paint13_linear_707_655)" stroke-opacity="0.4" stroke-width="1.25"/>
<path d="M-70.8709 209.043C-59.4142 173.615 -48.3588 161.13 -21.8223 151.436C4.7142 141.742 22.2855 155.064 71.5719 120.556C120.858 86.0489 87.7621 75.1013 172.626 35.453C240.517 3.73435 267.214 -43.2202 272.077 -62.7326" stroke="url(#paint14_linear_707_655)" stroke-opacity="0.4" stroke-width="1.25"/>
<path d="M-71.4647 204.311C-60.0079 168.883 -48.9525 156.398 -22.416 146.704C4.12045 137.01 21.6917 150.332 70.9781 115.825C120.265 81.3172 87.1683 70.3696 172.032 30.7213C239.924 -0.997342 266.621 -47.9519 271.483 -67.4643" stroke="url(#paint15_linear_707_655)" stroke-opacity="0.4" stroke-width="1.25"/>
<path d="M-72.0604 199.579C-60.6036 164.151 -49.5483 151.666 -23.0118 141.972C3.52474 132.279 21.096 145.6 70.3824 111.093C119.669 76.5855 86.5726 65.6379 171.437 25.9896C239.328 -5.72903 266.025 -52.6836 270.887 -72.196" stroke="url(#paint16_linear_707_655)" stroke-opacity="0.4" stroke-width="1.25"/>
<path d="M-72.6541 194.848C-61.1974 159.42 -50.142 146.935 -23.6055 137.241C2.93099 127.547 20.5023 140.869 69.7887 106.361C119.075 71.8541 85.9789 60.9064 170.843 21.2581C238.734 -10.4605 265.431 -57.415 270.293 -76.9274" stroke="url(#paint17_linear_707_655)" stroke-opacity="0.4" stroke-width="1.25"/>
<path d="M-73.2479 190.116C-61.7911 154.688 -50.7358 142.203 -24.1993 132.509C2.33724 122.816 19.9085 136.137 69.1949 101.63C118.481 67.1224 85.3851 56.1747 170.249 16.5265C238.14 -15.1922 264.837 -62.1467 269.7 -81.6591" stroke="url(#paint18_linear_707_655)" stroke-opacity="0.4" stroke-width="1.25"/>
<path d="M-73.8397 185.384C-62.3829 149.956 -51.3275 137.471 -24.791 127.778C1.74545 118.084 19.3167 131.405 68.6031 96.898C117.89 62.3907 84.7933 51.4431 169.657 11.7948C237.549 -19.9239 264.246 -66.8784 269.108 -86.3908" stroke="url(#paint19_linear_707_655)" stroke-opacity="0.4" stroke-width="1.25"/>
<path d="M-74.4373 180.653C-62.9806 145.225 -51.9252 132.74 -25.3887 123.046C1.14779 113.352 18.7191 126.674 68.0055 92.1666C117.292 57.6593 84.1957 46.7116 169.06 7.06333C236.951 -24.6553 263.648 -71.6098 268.51 -91.1223" stroke="url(#paint20_linear_707_655)" stroke-opacity="0.4" stroke-width="1.25"/>
<path d="M-75.0311 175.921C-63.5744 140.493 -52.519 128.008 -25.9825 118.314C0.554042 108.621 18.1253 121.942 67.4117 87.4346C116.698 52.9273 83.6019 41.9797 168.466 2.33139C236.357 -29.3872 263.054 -76.3418 267.916 -95.8542" stroke="url(#paint21_linear_707_655)" stroke-opacity="0.4" stroke-width="1.25"/>
<path d="M-75.6268 171.189C-64.1701 135.761 -53.1147 123.276 -26.5782 113.583C-0.0416613 103.889 17.5296 117.21 66.816 82.703C116.102 48.1956 83.0062 37.248 167.87 -2.4003C235.761 -34.1189 262.459 -81.0735 267.321 -100.586" stroke="url(#paint22_linear_707_655)" stroke-opacity="0.4" stroke-width="1.25"/>
<path d="M-76.2186 166.458C-64.7619 131.03 -53.7065 118.545 -27.17 108.851C-0.633458 99.1574 16.9378 112.479 66.2242 77.9715C115.511 43.4642 82.4144 32.5165 167.278 -7.13174C235.17 -38.8504 261.867 -85.8049 266.729 -105.317" stroke="url(#paint23_linear_707_655)" stroke-opacity="0.4" stroke-width="1.25"/>
<path d="M-76.8123 161.726C-65.3556 126.298 -54.3002 113.813 -27.7637 104.119C-1.22721 94.4257 16.3441 107.747 65.6305 73.2398C114.917 38.7325 81.8207 27.7848 166.685 -11.8634C234.576 -43.5821 261.273 -90.5366 266.135 -110.049" stroke="url(#paint24_linear_707_655)" stroke-opacity="0.4" stroke-width="1.25"/>
<path d="M-77.408 156.995C-65.9513 121.567 -54.8959 109.081 -28.3594 99.3877C-1.82291 89.694 15.7484 103.015 65.0348 68.5081C114.321 34.0008 81.225 23.0532 166.089 -16.5951C233.98 -48.3137 260.677 -95.2683 265.539 -114.781" stroke="url(#paint25_linear_707_655)" stroke-opacity="0.4" stroke-width="1.25"/>
<path d="M-78.0018 152.263C-66.5451 116.835 -55.4897 104.35 -28.9532 94.656C-2.41666 84.9623 15.1546 98.2838 64.441 63.7764C113.727 29.2691 80.6312 18.3215 165.495 -21.3268C233.386 -53.0454 260.084 -100 264.946 -119.512" stroke="url(#paint26_linear_707_655)" stroke-opacity="0.4" stroke-width="1.25"/>
<path d="M-78.5975 147.531C-67.1408 112.103 -56.0854 99.6178 -29.5489 89.9241C-3.01236 80.2304 14.5589 93.5518 63.8453 59.0445C113.132 24.5372 80.0355 13.5895 164.9 -26.0587C232.791 -57.7774 259.488 -104.732 264.35 -124.244" stroke="url(#paint27_linear_707_655)" stroke-opacity="0.4" stroke-width="1.25"/>
<path d="M-79.1893 142.799C-67.7326 107.371 -56.6772 94.8861 -30.1407 85.1924C-3.60416 75.4987 13.9671 88.8202 63.2535 54.3128C112.54 19.8055 79.4437 8.85785 164.308 -30.7904C232.199 -62.5091 258.896 -109.464 263.758 -128.976" stroke="url(#paint28_linear_707_655)" stroke-opacity="0.4" stroke-width="1.25"/>
<path d="M-79.783 138.068C-68.3263 102.64 -57.2709 90.1545 -30.7344 80.4607C-4.19791 70.767 13.3734 84.0885 62.6598 49.5811C111.946 15.0738 78.85 4.12616 163.714 -35.5221C231.605 -67.2407 258.302 -114.195 263.164 -133.708" stroke="url(#paint29_linear_707_655)" stroke-opacity="0.4" stroke-width="1.25"/>
<path d="M-80.3768 133.336C-68.9201 97.9079 -57.8647 85.4228 -31.3282 75.729C-4.79166 66.0353 12.7796 79.3568 62.066 44.8494C111.352 10.3421 78.2562 -0.605532 163.12 -40.2538C231.011 -71.9724 257.709 -118.927 262.571 -138.439" stroke="url(#paint30_linear_707_655)" stroke-opacity="0.4" stroke-width="1.25"/>
<path d="M-80.9725 128.604C-69.5158 93.1764 -58.4604 80.6913 -31.9239 70.9976C-5.38736 61.3039 12.1839 74.6253 61.4703 40.118C110.757 5.61067 77.6605 -5.33698 162.525 -44.9853C230.416 -76.7039 257.113 -123.658 261.975 -143.171" stroke="url(#paint31_linear_707_655)" stroke-opacity="0.4" stroke-width="1.25"/>
<path d="M-81.5682 123.873C-70.1115 88.4445 -59.0561 75.9594 -32.5196 66.2657C-5.98307 56.5719 11.5882 69.8934 60.8746 35.3861C110.161 0.878733 77.0648 -10.0689 161.929 -49.7172C229.82 -81.4358 256.517 -128.39 261.379 -147.903" stroke="url(#paint32_linear_707_655)" stroke-opacity="0.4" stroke-width="1.25"/>
<path d="M-82.16 119.141C-70.7033 83.713 -59.6479 71.2279 -33.1114 61.5342C-6.57486 51.8405 10.9964 65.162 60.2828 30.6546C109.569 -3.85271 76.473 -14.8004 161.337 -54.4486C229.228 -86.1673 255.925 -133.122 260.788 -152.634" stroke="url(#paint33_linear_707_655)" stroke-opacity="0.4" stroke-width="1.25"/>
<path d="M-82.7557 114.409C-71.299 78.9813 -60.2436 66.4962 -33.7071 56.8025C-7.17057 47.1088 10.4007 60.4303 59.6871 25.9229C108.974 -8.5844 75.8773 -19.532 160.741 -59.1803C228.633 -90.899 255.33 -137.853 260.192 -157.366" stroke="url(#paint34_linear_707_655)" stroke-opacity="0.4" stroke-width="1.25"/>
<path d="M-83.3494 109.678C-71.8927 74.2497 -60.8373 61.7646 -34.3008 52.0708C-7.76432 42.3771 9.80695 55.6986 59.0934 21.1912C108.38 -13.3161 75.2835 -24.2637 160.148 -63.912C228.039 -95.6306 254.736 -142.585 259.598 -162.098" stroke="url(#paint35_linear_707_655)" stroke-opacity="0.4" stroke-width="1.25"/>
<path d="M-83.9432 104.946C-72.4865 69.518 -61.4311 57.0329 -34.8946 47.3391C-8.35807 37.6454 9.2132 50.9669 58.4996 16.4596C107.786 -18.0478 74.6898 -28.9954 159.554 -68.6437C227.445 -100.362 254.142 -147.317 259.004 -166.829" stroke="url(#paint36_linear_707_655)" stroke-opacity="0.4" stroke-width="1.25"/>
<path d="M-84.5369 100.214C-73.0802 64.786 -62.0248 52.3009 -35.4883 42.6072C-8.95182 32.9135 8.61945 46.2349 57.9059 11.7276C107.192 -22.7797 74.096 -33.7274 158.96 -73.3756C226.851 -105.094 253.548 -152.049 258.411 -171.561" stroke="url(#paint37_linear_707_655)" stroke-opacity="0.4" stroke-width="1.25"/>
<path d="M-85.1307 95.4824C-73.674 60.0543 -62.6186 47.5692 -36.0821 37.8755C-9.54557 28.1818 8.0257 41.5033 57.3121 6.99593C106.599 -27.5114 73.5023 -38.459 158.366 -78.1073C226.258 -109.826 252.955 -156.78 257.817 -176.293" stroke="url(#paint38_linear_707_655)" stroke-opacity="0.4" stroke-width="1.25"/>
<path d="M-85.7264 90.7507C-74.2697 55.3227 -63.2143 42.8376 -36.6778 33.1438C-10.1413 23.4501 7.43 36.7716 56.7164 2.26424C106.003 -32.2431 72.9066 -43.1907 157.771 -82.839C225.662 -114.558 252.359 -161.512 257.221 -181.025" stroke="url(#paint39_linear_707_655)" stroke-opacity="0.4" stroke-width="1.25"/>
<path d="M-86.3202 86.019C-74.8634 50.591 -63.808 38.1059 -37.2715 28.4121C-10.735 18.7184 6.83625 32.0399 56.1227 -2.46745C105.409 -36.9748 72.3128 -47.9224 157.177 -87.5707C225.068 -119.289 251.765 -166.244 256.627 -185.756" stroke="url(#paint40_linear_707_655)" stroke-opacity="0.4" stroke-width="1.25"/>
<path d="M-86.9159 81.2876C-75.4591 45.8595 -64.4037 33.3744 -37.8672 23.6807C-11.3307 13.987 6.24055 27.3084 55.527 -7.1989C104.813 -41.7062 71.7171 -52.6539 156.581 -92.3022C224.472 -124.021 251.17 -170.975 256.032 -190.488" stroke="url(#paint41_linear_707_655)" stroke-opacity="0.4" stroke-width="1.25"/>
<path d="M-87.5096 76.5559C-76.0529 41.1278 -64.9975 28.6427 -38.461 18.949C-11.9245 9.25529 5.6468 22.5767 54.9332 -11.9306C104.22 -46.4379 71.1234 -57.3856 155.987 -97.0338C223.879 -128.752 250.576 -175.707 255.438 -195.219" stroke="url(#paint42_linear_707_655)" stroke-opacity="0.4" stroke-width="1.25"/>
<path d="M-88.1034 71.8239C-76.6466 36.3959 -65.5912 23.9108 -39.0547 14.2171C-12.5182 4.52335 5.05305 17.8448 54.3395 -16.6625C103.626 -51.1699 70.5296 -62.1175 155.394 -101.766C223.285 -133.484 249.982 -180.439 254.844 -199.951" stroke="url(#paint43_linear_707_655)" stroke-opacity="0.4" stroke-width="1.25"/>
<path d="M-88.6991 67.0923C-77.2423 31.6642 -66.1869 19.1791 -39.6504 9.48539C-13.1139 -0.208338 4.45734 13.1131 53.7437 -21.3942C103.03 -55.9015 69.9339 -66.8492 154.798 -106.497C222.689 -138.216 249.386 -185.171 254.248 -204.683" stroke="url(#paint44_linear_707_655)" stroke-opacity="0.4" stroke-width="1.25"/>
<path d="M-89.2909 62.3606C-77.8341 26.9325 -66.7787 14.4474 -40.2422 4.7537C-13.7057 -4.94003 3.86555 8.38143 53.152 -26.1259C102.438 -60.6332 69.3421 -71.5809 154.206 -111.229C222.097 -142.948 248.795 -189.902 253.657 -209.415" stroke="url(#paint45_linear_707_655)" stroke-opacity="0.4" stroke-width="1.25"/>
<path d="M-89.8846 57.6289C-78.4279 22.2008 -67.3725 9.71573 -40.836 0.0220065C-14.2995 -9.67172 3.2718 3.64974 52.5582 -30.8576C101.845 -65.3649 68.7484 -76.3126 153.612 -115.961C221.504 -147.679 248.201 -194.634 253.063 -214.146" stroke="url(#paint46_linear_707_655)" stroke-opacity="0.4" stroke-width="1.25"/>
<path d="M-90.4784 52.8972C-79.0216 17.4691 -67.9662 4.98404 -41.4297 -4.70968C-14.8932 -14.4034 2.67805 -1.08195 51.9645 -35.5893C101.251 -70.0966 68.1546 -81.0443 153.019 -120.693C220.91 -152.411 247.607 -199.366 252.469 -218.878" stroke="url(#paint47_linear_707_655)" stroke-opacity="0.4" stroke-width="1.25"/>
<path d="M-91.0741 48.1655C-79.6173 12.7375 -68.5619 0.252351 -42.0254 -9.44137C-15.4889 -19.1351 2.08234 -5.81363 51.3687 -40.321C100.655 -74.8283 67.5589 -85.7759 152.423 -125.424C220.314 -157.143 247.011 -204.097 251.873 -223.61" stroke="url(#paint48_linear_707_655)" stroke-opacity="0.4" stroke-width="1.25"/>
<path d="M-91.6678 43.4338C-80.2111 8.00576 -69.1557 -4.47934 -42.6192 -14.1731C-16.0827 -23.8668 1.48859 -10.5453 50.775 -45.0527C100.061 -79.56 66.9652 -90.5076 151.829 -130.156C219.72 -161.875 246.418 -208.829 251.28 -228.342" stroke="url(#paint49_linear_707_655)" stroke-opacity="0.4" stroke-width="1.25"/>
<path d="M-92.2635 38.7024C-80.8068 3.27432 -69.7514 -9.21078 -43.2149 -18.9045C-16.6784 -28.5982 0.892891 -15.2768 50.1793 -49.7841C99.4657 -84.2914 66.3695 -95.2391 151.233 -134.887C219.125 -166.606 245.822 -213.561 250.684 -233.073" stroke="url(#paint50_linear_707_655)" stroke-opacity="0.4" stroke-width="1.25"/>
<path d="M-92.8573 33.9704C-81.4005 -1.45762 -70.3451 -13.9427 -43.8086 -23.6364C-17.2721 -33.3302 0.299141 -20.0087 49.5855 -54.516C98.8719 -89.0234 65.7757 -99.971 150.64 -139.619C218.531 -171.338 245.228 -218.292 250.09 -237.805" stroke="url(#paint51_linear_707_655)" stroke-opacity="0.4" stroke-width="1.25"/>
<path d="M-93.4491 29.2387C-81.9923 -6.18931 -70.9369 -18.6744 -44.4004 -28.3681C-17.8639 -38.0619 -0.292656 -24.7404 48.9937 -59.2477C98.2801 -93.7551 65.1839 -104.703 150.048 -144.351C217.939 -176.07 244.636 -223.024 249.498 -242.537" stroke="url(#paint52_linear_707_655)" stroke-opacity="0.4" stroke-width="1.25"/>
<path d="M-94.0448 24.5073C-82.588 -10.9208 -71.5326 -23.4059 -44.9961 -33.0996C-18.4596 -42.7933 -0.888359 -29.4718 48.398 -63.9792C97.6844 -98.4865 64.5882 -109.434 149.452 -149.082C217.343 -180.801 244.041 -227.756 248.903 -247.268" stroke="url(#paint53_linear_707_655)" stroke-opacity="0.4" stroke-width="1.25"/>
<path d="M-94.6385 19.7754C-83.1818 -15.6527 -72.1264 -28.1378 -45.5899 -37.8315C-19.0534 -47.5252 -1.48211 -34.2038 47.8043 -68.7111C97.0907 -103.218 63.9945 -114.166 148.858 -153.814C216.75 -185.533 243.447 -232.488 248.309 -252" stroke="url(#paint54_linear_707_655)" stroke-opacity="0.4" stroke-width="1.25"/>
</g>
</g>
<defs>
<linearGradient id="paint0_linear_707_655" x1="96.217" y1="64.4062" x2="143.424" y2="207.182" gradientUnits="userSpaceOnUse">
<stop stop-color="#399780"/>
<stop offset="1" stop-color="#480E8B"/>
<stop offset="1" stop-color="#480E8B"/>
</linearGradient>
<linearGradient id="paint1_linear_707_655" x1="95.6233" y1="59.6745" x2="142.83" y2="202.45" gradientUnits="userSpaceOnUse">
<stop stop-color="#399780"/>
<stop offset="1" stop-color="#480E8B"/>
<stop offset="1" stop-color="#480E8B"/>
</linearGradient>
<linearGradient id="paint2_linear_707_655" x1="95.0276" y1="54.943" x2="142.235" y2="197.719" gradientUnits="userSpaceOnUse">
<stop stop-color="#399780"/>
<stop offset="1" stop-color="#480E8B"/>
<stop offset="1" stop-color="#480E8B"/>
</linearGradient>
<linearGradient id="paint3_linear_707_655" x1="94.4338" y1="50.2116" x2="141.641" y2="192.987" gradientUnits="userSpaceOnUse">
<stop stop-color="#399780"/>
<stop offset="1" stop-color="#480E8B"/>
<stop offset="1" stop-color="#480E8B"/>
</linearGradient>
<linearGradient id="paint4_linear_707_655" x1="93.8401" y1="45.4799" x2="141.047" y2="188.256" gradientUnits="userSpaceOnUse">
<stop stop-color="#399780"/>
<stop offset="1" stop-color="#480E8B"/>
<stop offset="1" stop-color="#480E8B"/>
</linearGradient>
<linearGradient id="paint5_linear_707_655" x1="93.2444" y1="40.7482" x2="140.451" y2="183.524" gradientUnits="userSpaceOnUse">
<stop stop-color="#399780"/>
<stop offset="1" stop-color="#480E8B"/>
<stop offset="1" stop-color="#480E8B"/>
</linearGradient>
<linearGradient id="paint6_linear_707_655" x1="92.6506" y1="36.0165" x2="139.858" y2="178.792" gradientUnits="userSpaceOnUse">
<stop stop-color="#399780"/>
<stop offset="1" stop-color="#480E8B"/>
<stop offset="1" stop-color="#480E8B"/>
</linearGradient>
<linearGradient id="paint7_linear_707_655" x1="92.0549" y1="31.2851" x2="139.262" y2="174.061" gradientUnits="userSpaceOnUse">
<stop stop-color="#399780"/>
<stop offset="1" stop-color="#480E8B"/>
<stop offset="1" stop-color="#480E8B"/>
</linearGradient>
<linearGradient id="paint8_linear_707_655" x1="91.4631" y1="26.5531" x2="138.67" y2="169.329" gradientUnits="userSpaceOnUse">
<stop stop-color="#399780"/>
<stop offset="1" stop-color="#480E8B"/>
<stop offset="1" stop-color="#480E8B"/>
</linearGradient>
<linearGradient id="paint9_linear_707_655" x1="90.8694" y1="21.8217" x2="138.076" y2="164.597" gradientUnits="userSpaceOnUse">
<stop stop-color="#399780"/>
<stop offset="1" stop-color="#480E8B"/>
<stop offset="1" stop-color="#480E8B"/>
</linearGradient>
<linearGradient id="paint10_linear_707_655" x1="90.2737" y1="17.09" x2="137.481" y2="159.866" gradientUnits="userSpaceOnUse">
<stop stop-color="#399780"/>
<stop offset="1" stop-color="#480E8B"/>
<stop offset="1" stop-color="#480E8B"/>
</linearGradient>
<linearGradient id="paint11_linear_707_655" x1="89.6799" y1="12.3583" x2="136.887" y2="155.134" gradientUnits="userSpaceOnUse">
<stop stop-color="#399780"/>
<stop offset="1" stop-color="#480E8B"/>
<stop offset="1" stop-color="#480E8B"/>
</linearGradient>
<linearGradient id="paint12_linear_707_655" x1="89.0862" y1="7.62661" x2="136.293" y2="150.402" gradientUnits="userSpaceOnUse">
<stop stop-color="#399780"/>
<stop offset="1" stop-color="#480E8B"/>
<stop offset="1" stop-color="#480E8B"/>
</linearGradient>
<linearGradient id="paint13_linear_707_655" x1="88.4924" y1="2.89516" x2="135.699" y2="145.671" gradientUnits="userSpaceOnUse">
<stop stop-color="#399780"/>
<stop offset="1" stop-color="#480E8B"/>
<stop offset="1" stop-color="#480E8B"/>
</linearGradient>
<linearGradient id="paint14_linear_707_655" x1="87.8987" y1="-1.83653" x2="135.106" y2="140.939" gradientUnits="userSpaceOnUse">
<stop stop-color="#399780"/>
<stop offset="1" stop-color="#480E8B"/>
<stop offset="1" stop-color="#480E8B"/>
</linearGradient>
<linearGradient id="paint15_linear_707_655" x1="87.3049" y1="-6.56822" x2="134.512" y2="136.207" gradientUnits="userSpaceOnUse">
<stop stop-color="#399780"/>
<stop offset="1" stop-color="#480E8B"/>
<stop offset="1" stop-color="#480E8B"/>
</linearGradient>
<linearGradient id="paint16_linear_707_655" x1="86.7092" y1="-11.2999" x2="133.916" y2="131.476" gradientUnits="userSpaceOnUse">
<stop stop-color="#399780"/>
<stop offset="1" stop-color="#480E8B"/>
<stop offset="1" stop-color="#480E8B"/>
</linearGradient>
<linearGradient id="paint17_linear_707_655" x1="86.1155" y1="-16.0313" x2="133.322" y2="126.744" gradientUnits="userSpaceOnUse">
<stop stop-color="#399780"/>
<stop offset="1" stop-color="#480E8B"/>
<stop offset="1" stop-color="#480E8B"/>
</linearGradient>
<linearGradient id="paint18_linear_707_655" x1="85.5217" y1="-20.763" x2="132.729" y2="122.013" gradientUnits="userSpaceOnUse">
<stop stop-color="#399780"/>
<stop offset="1" stop-color="#480E8B"/>
<stop offset="1" stop-color="#480E8B"/>
</linearGradient>
<linearGradient id="paint19_linear_707_655" x1="84.9299" y1="-25.4947" x2="132.137" y2="117.281" gradientUnits="userSpaceOnUse">
<stop stop-color="#399780"/>
<stop offset="1" stop-color="#480E8B"/>
<stop offset="1" stop-color="#480E8B"/>
</linearGradient>
<linearGradient id="paint20_linear_707_655" x1="84.3322" y1="-30.2262" x2="131.539" y2="112.55" gradientUnits="userSpaceOnUse">
<stop stop-color="#399780"/>
<stop offset="1" stop-color="#480E8B"/>
<stop offset="1" stop-color="#480E8B"/>
</linearGradient>
<linearGradient id="paint21_linear_707_655" x1="83.7385" y1="-34.9581" x2="130.945" y2="107.818" gradientUnits="userSpaceOnUse">
<stop stop-color="#399780"/>
<stop offset="1" stop-color="#480E8B"/>
<stop offset="1" stop-color="#480E8B"/>
</linearGradient>
<linearGradient id="paint22_linear_707_655" x1="83.1428" y1="-39.6898" x2="130.35" y2="103.086" gradientUnits="userSpaceOnUse">
<stop stop-color="#399780"/>
<stop offset="1" stop-color="#480E8B"/>
<stop offset="1" stop-color="#480E8B"/>
</linearGradient>
<linearGradient id="paint23_linear_707_655" x1="82.551" y1="-44.4212" x2="129.758" y2="98.3545" gradientUnits="userSpaceOnUse">
<stop stop-color="#399780"/>
<stop offset="1" stop-color="#480E8B"/>
<stop offset="1" stop-color="#480E8B"/>
</linearGradient>
<linearGradient id="paint24_linear_707_655" x1="81.9572" y1="-49.1529" x2="129.164" y2="93.6228" gradientUnits="userSpaceOnUse">
<stop stop-color="#399780"/>
<stop offset="1" stop-color="#480E8B"/>
<stop offset="1" stop-color="#480E8B"/>
</linearGradient>
<linearGradient id="paint25_linear_707_655" x1="81.3615" y1="-53.8846" x2="128.569" y2="88.8911" gradientUnits="userSpaceOnUse">
<stop stop-color="#399780"/>
<stop offset="1" stop-color="#480E8B"/>
<stop offset="1" stop-color="#480E8B"/>
</linearGradient>
<linearGradient id="paint26_linear_707_655" x1="80.7678" y1="-58.6163" x2="127.975" y2="84.1594" gradientUnits="userSpaceOnUse">
<stop stop-color="#399780"/>
<stop offset="1" stop-color="#480E8B"/>
<stop offset="1" stop-color="#480E8B"/>
</linearGradient>
<linearGradient id="paint27_linear_707_655" x1="80.1721" y1="-63.3482" x2="127.379" y2="79.4275" gradientUnits="userSpaceOnUse">
<stop stop-color="#399780"/>
<stop offset="1" stop-color="#480E8B"/>
<stop offset="1" stop-color="#480E8B"/>
</linearGradient>
<linearGradient id="paint28_linear_707_655" x1="79.5803" y1="-68.0799" x2="126.787" y2="74.6958" gradientUnits="userSpaceOnUse">
<stop stop-color="#399780"/>
<stop offset="1" stop-color="#480E8B"/>
<stop offset="1" stop-color="#480E8B"/>
</linearGradient>
<linearGradient id="paint29_linear_707_655" x1="78.9865" y1="-72.8116" x2="126.194" y2="69.9641" gradientUnits="userSpaceOnUse">
<stop stop-color="#399780"/>
<stop offset="1" stop-color="#480E8B"/>
<stop offset="1" stop-color="#480E8B"/>
</linearGradient>
<linearGradient id="paint30_linear_707_655" x1="78.3928" y1="-77.5433" x2="125.6" y2="65.2324" gradientUnits="userSpaceOnUse">
<stop stop-color="#399780"/>
<stop offset="1" stop-color="#480E8B"/>
<stop offset="1" stop-color="#480E8B"/>
</linearGradient>
<linearGradient id="paint31_linear_707_655" x1="77.7971" y1="-82.2748" x2="125.004" y2="60.5009" gradientUnits="userSpaceOnUse">
<stop stop-color="#399780"/>
<stop offset="1" stop-color="#480E8B"/>
<stop offset="1" stop-color="#480E8B"/>
</linearGradient>
<linearGradient id="paint32_linear_707_655" x1="77.2014" y1="-87.0067" x2="124.408" y2="55.769" gradientUnits="userSpaceOnUse">
<stop stop-color="#399780"/>
<stop offset="1" stop-color="#480E8B"/>
<stop offset="1" stop-color="#480E8B"/>
</linearGradient>
<linearGradient id="paint33_linear_707_655" x1="76.6096" y1="-91.7381" x2="123.817" y2="51.0376" gradientUnits="userSpaceOnUse">
<stop stop-color="#399780"/>
<stop offset="1" stop-color="#480E8B"/>
<stop offset="1" stop-color="#480E8B"/>
</linearGradient>
<linearGradient id="paint34_linear_707_655" x1="76.0139" y1="-96.4698" x2="123.221" y2="46.3059" gradientUnits="userSpaceOnUse">
<stop stop-color="#399780"/>
<stop offset="1" stop-color="#480E8B"/>
<stop offset="1" stop-color="#480E8B"/>
</linearGradient>
<linearGradient id="paint35_linear_707_655" x1="75.4201" y1="-101.202" x2="122.627" y2="41.5742" gradientUnits="userSpaceOnUse">
<stop stop-color="#399780"/>
<stop offset="1" stop-color="#480E8B"/>
<stop offset="1" stop-color="#480E8B"/>
</linearGradient>
<linearGradient id="paint36_linear_707_655" x1="74.8264" y1="-105.933" x2="122.033" y2="36.8425" gradientUnits="userSpaceOnUse">
<stop stop-color="#399780"/>
<stop offset="1" stop-color="#480E8B"/>
<stop offset="1" stop-color="#480E8B"/>
</linearGradient>
<linearGradient id="paint37_linear_707_655" x1="74.2326" y1="-110.665" x2="121.44" y2="32.1106" gradientUnits="userSpaceOnUse">
<stop stop-color="#399780"/>
<stop offset="1" stop-color="#480E8B"/>
<stop offset="1" stop-color="#480E8B"/>
</linearGradient>
<linearGradient id="paint38_linear_707_655" x1="73.6389" y1="-115.397" x2="120.846" y2="27.3789" gradientUnits="userSpaceOnUse">
<stop stop-color="#399780"/>
<stop offset="1" stop-color="#480E8B"/>
<stop offset="1" stop-color="#480E8B"/>
</linearGradient>
<linearGradient id="paint39_linear_707_655" x1="73.0432" y1="-120.129" x2="120.25" y2="22.6472" gradientUnits="userSpaceOnUse">
<stop stop-color="#399780"/>
<stop offset="1" stop-color="#480E8B"/>
<stop offset="1" stop-color="#480E8B"/>
</linearGradient>
<linearGradient id="paint40_linear_707_655" x1="72.4494" y1="-124.86" x2="119.656" y2="17.9155" gradientUnits="userSpaceOnUse">
<stop stop-color="#399780"/>
<stop offset="1" stop-color="#480E8B"/>
<stop offset="1" stop-color="#480E8B"/>
</linearGradient>
<linearGradient id="paint41_linear_707_655" x1="71.8537" y1="-129.592" x2="119.061" y2="13.184" gradientUnits="userSpaceOnUse">
<stop stop-color="#399780"/>
<stop offset="1" stop-color="#480E8B"/>
<stop offset="1" stop-color="#480E8B"/>
</linearGradient>
<linearGradient id="paint42_linear_707_655" x1="71.26" y1="-134.323" x2="118.467" y2="8.45235" gradientUnits="userSpaceOnUse">
<stop stop-color="#399780"/>
<stop offset="1" stop-color="#480E8B"/>
<stop offset="1" stop-color="#480E8B"/>
</linearGradient>
<linearGradient id="paint43_linear_707_655" x1="70.6662" y1="-139.055" x2="117.873" y2="3.72042" gradientUnits="userSpaceOnUse">
<stop stop-color="#399780"/>
<stop offset="1" stop-color="#480E8B"/>
<stop offset="1" stop-color="#480E8B"/>
</linearGradient>
<linearGradient id="paint44_linear_707_655" x1="70.0705" y1="-143.787" x2="117.277" y2="-1.01127" gradientUnits="userSpaceOnUse">
<stop stop-color="#399780"/>
<stop offset="1" stop-color="#480E8B"/>
<stop offset="1" stop-color="#480E8B"/>
</linearGradient>
<linearGradient id="paint45_linear_707_655" x1="69.4787" y1="-148.519" x2="116.686" y2="-5.74296" gradientUnits="userSpaceOnUse">
<stop stop-color="#399780"/>
<stop offset="1" stop-color="#480E8B"/>
<stop offset="1" stop-color="#480E8B"/>
</linearGradient>
<linearGradient id="paint46_linear_707_655" x1="68.885" y1="-153.25" x2="116.092" y2="-10.4746" gradientUnits="userSpaceOnUse">
<stop stop-color="#399780"/>
<stop offset="1" stop-color="#480E8B"/>
<stop offset="1" stop-color="#480E8B"/>
</linearGradient>
<linearGradient id="paint47_linear_707_655" x1="68.2912" y1="-157.982" x2="115.498" y2="-15.2063" gradientUnits="userSpaceOnUse">
<stop stop-color="#399780"/>
<stop offset="1" stop-color="#480E8B"/>
<stop offset="1" stop-color="#480E8B"/>
</linearGradient>
<linearGradient id="paint48_linear_707_655" x1="67.6955" y1="-162.714" x2="114.902" y2="-19.938" gradientUnits="userSpaceOnUse">
<stop stop-color="#399780"/>
<stop offset="1" stop-color="#480E8B"/>
<stop offset="1" stop-color="#480E8B"/>
</linearGradient>
<linearGradient id="paint49_linear_707_655" x1="67.1018" y1="-167.445" x2="114.309" y2="-24.6697" gradientUnits="userSpaceOnUse">
<stop stop-color="#399780"/>
<stop offset="1" stop-color="#480E8B"/>
<stop offset="1" stop-color="#480E8B"/>
</linearGradient>
<linearGradient id="paint50_linear_707_655" x1="66.5061" y1="-172.177" x2="113.713" y2="-29.4012" gradientUnits="userSpaceOnUse">
<stop stop-color="#399780"/>
<stop offset="1" stop-color="#480E8B"/>
<stop offset="1" stop-color="#480E8B"/>
</linearGradient>
<linearGradient id="paint51_linear_707_655" x1="65.9123" y1="-176.909" x2="113.119" y2="-34.1331" gradientUnits="userSpaceOnUse">
<stop stop-color="#399780"/>
<stop offset="1" stop-color="#480E8B"/>
<stop offset="1" stop-color="#480E8B"/>
</linearGradient>
<linearGradient id="paint52_linear_707_655" x1="65.3205" y1="-181.64" x2="112.527" y2="-38.8648" gradientUnits="userSpaceOnUse">
<stop stop-color="#399780"/>
<stop offset="1" stop-color="#480E8B"/>
<stop offset="1" stop-color="#480E8B"/>
</linearGradient>
<linearGradient id="paint53_linear_707_655" x1="64.7248" y1="-186.372" x2="111.932" y2="-43.5962" gradientUnits="userSpaceOnUse">
<stop stop-color="#399780"/>
<stop offset="1" stop-color="#480E8B"/>
<stop offset="1" stop-color="#480E8B"/>
</linearGradient>
<linearGradient id="paint54_linear_707_655" x1="64.1311" y1="-191.104" x2="111.338" y2="-48.3282" gradientUnits="userSpaceOnUse">
<stop stop-color="#399780"/>
<stop offset="1" stop-color="#480E8B"/>
<stop offset="1" stop-color="#480E8B"/>
</linearGradient>
<clipPath id="clip0_707_655">
<rect width="275" height="260" fill="white"/>
</clipPath>
</defs>
</svg>
