<svg width="259" height="242" viewBox="0 0 259 242" fill="none" xmlns="http://www.w3.org/2000/svg">
<g clip-path="url(#clip0_92_962)">
<g opacity="0.5">
<path d="M-75.0212 275.232C-64.6167 238.907 -53.7202 226.412 -26.7646 217.492C0.190973 208.573 18.8189 223.185 68.2322 189.465C117.646 155.745 83.1174 142.924 168.98 105.411C237.671 75.4007 263.321 27.7593 267.56 7.68984" stroke="url(#paint0_linear_92_962)" stroke-opacity="0.4" stroke-width="1.25"/>
<path d="M-75.82 270.288C-65.4156 233.963 -54.519 221.468 -27.5634 212.548C-0.607855 203.629 18.0201 218.241 67.4334 184.521C116.847 150.801 82.3186 137.98 168.181 100.467C236.872 70.4569 262.522 22.8154 266.761 2.74599" stroke="url(#paint1_linear_92_962)" stroke-opacity="0.4" stroke-width="1.25"/>
<path d="M-76.6189 265.344C-66.2144 229.019 -55.3178 216.524 -28.3622 207.604C-1.40668 198.685 17.2212 213.297 66.6346 179.577C116.048 145.857 81.5197 133.036 167.383 95.5233C236.073 65.5128 261.723 17.8713 265.962 -2.1981" stroke="url(#paint2_linear_92_962)" stroke-opacity="0.4" stroke-width="1.25"/>
<path d="M-77.4177 260.4C-67.0132 224.076 -56.1166 211.58 -29.1611 202.661C-2.20551 193.741 16.4224 208.353 65.8358 174.633C115.249 140.914 80.7209 128.093 166.584 90.5797C235.274 60.5692 260.924 12.9277 265.163 -7.14171" stroke="url(#paint3_linear_92_962)" stroke-opacity="0.4" stroke-width="1.25"/>
<path d="M-78.2165 255.456C-67.8121 219.131 -56.9155 206.636 -29.9599 197.717C-3.00434 188.797 15.6236 203.409 65.0369 169.689C114.45 135.97 79.9221 123.149 165.785 85.6356C234.475 55.6251 260.126 7.98363 264.364 -12.0858" stroke="url(#paint4_linear_92_962)" stroke-opacity="0.4" stroke-width="1.25"/>
<path d="M-79.0154 250.512C-68.6109 214.188 -57.7143 201.692 -30.7587 192.773C-3.80317 183.853 14.8248 198.465 64.2381 164.745C113.651 131.026 79.1232 118.205 164.986 80.6917C233.676 50.6813 259.327 3.03978 263.566 -17.0296" stroke="url(#paint5_linear_92_962)" stroke-opacity="0.4" stroke-width="1.25"/>
<path d="M-79.8142 245.568C-69.4097 209.244 -58.5131 196.748 -31.5576 187.829C-4.602 178.909 14.0259 193.521 63.4393 159.801C112.853 126.082 78.3244 113.261 164.187 75.7476C232.878 45.7372 258.528 -1.90431 262.767 -21.9737" stroke="url(#paint6_linear_92_962)" stroke-opacity="0.4" stroke-width="1.25"/>
<path d="M-80.613 240.624C-70.2085 204.3 -59.312 191.804 -32.3564 182.885C-5.40082 173.965 13.2271 188.577 62.6404 154.858C112.054 121.138 77.5256 108.317 163.388 70.8038C232.079 40.7933 257.729 -6.84816 261.968 -26.9176" stroke="url(#paint7_linear_92_962)" stroke-opacity="0.4" stroke-width="1.25"/>
<path d="M-81.4118 235.68C-71.0074 199.356 -60.1108 186.86 -33.1552 177.941C-6.19965 169.021 12.4283 183.633 61.8416 149.913C111.255 116.194 76.7268 103.373 162.59 65.8597C231.28 35.8492 256.93 -11.7923 261.169 -31.8617" stroke="url(#paint8_linear_92_962)" stroke-opacity="0.4" stroke-width="1.25"/>
<path d="M-82.2107 230.737C-71.8062 194.412 -60.9096 181.916 -33.954 172.997C-6.99848 164.077 11.6294 178.689 61.0428 144.97C110.456 111.25 75.9279 98.429 161.791 60.9159C230.481 30.9054 256.131 -16.7361 260.37 -36.8055" stroke="url(#paint9_linear_92_962)" stroke-opacity="0.4" stroke-width="1.25"/>
<path d="M-83.0095 225.792C-72.605 189.468 -61.7084 176.972 -34.7529 168.053C-7.79731 159.133 10.8306 173.745 60.244 140.025C109.657 106.306 75.1291 93.4849 160.992 55.9718C229.682 25.9613 255.333 -21.6802 259.571 -41.7496" stroke="url(#paint10_linear_92_962)" stroke-opacity="0.4" stroke-width="1.25"/>
<path d="M-83.8083 220.849C-73.4039 184.524 -62.5073 172.028 -35.5517 163.109C-8.59614 154.189 10.0318 168.801 59.4451 135.082C108.858 101.362 74.3303 88.541 160.193 51.0279C228.883 21.0174 254.534 -26.624 258.773 -46.6935" stroke="url(#paint11_linear_92_962)" stroke-opacity="0.4" stroke-width="1.25"/>
<path d="M-84.6072 215.905C-74.2027 179.58 -63.3061 167.084 -36.3505 158.165C-9.39496 149.245 9.23296 163.857 58.6463 130.138C108.06 96.4179 73.5315 83.5969 159.394 46.0838C228.085 16.0733 253.735 -31.5681 257.974 -51.6376" stroke="url(#paint12_linear_92_962)" stroke-opacity="0.4" stroke-width="1.25"/>
<path d="M-85.406 210.961C-75.0015 174.636 -64.1049 162.14 -37.1494 153.221C-10.1938 144.301 8.43413 158.913 57.8475 125.194C107.261 91.474 72.7326 78.6531 158.595 41.14C227.286 11.1295 252.936 -36.512 257.175 -56.5814" stroke="url(#paint13_linear_92_962)" stroke-opacity="0.4" stroke-width="1.25"/>
<path d="M-86.2048 206.017C-75.8003 169.692 -64.9037 157.197 -37.9482 148.277C-10.9926 139.358 7.63531 153.969 57.0486 120.25C106.462 86.5302 71.9338 73.7092 157.797 36.1961C226.487 6.18565 252.137 -41.4558 256.376 -61.5253" stroke="url(#paint14_linear_92_962)" stroke-opacity="0.4" stroke-width="1.25"/>
<path d="M-87.0036 201.073C-76.5992 164.748 -65.7026 152.253 -38.747 143.333C-11.7915 134.413 6.83647 149.025 56.2498 115.306C105.663 81.5861 71.135 68.7651 156.998 31.252C225.688 1.24155 251.338 -46.3999 255.577 -66.4693" stroke="url(#paint15_linear_92_962)" stroke-opacity="0.4" stroke-width="1.25"/>
<path d="M-87.8025 196.129C-77.398 159.804 -66.5014 147.309 -39.5458 138.389C-12.5903 129.47 6.03765 144.082 55.451 110.362C104.864 76.6422 70.3361 63.8213 156.199 26.3082C224.889 -3.70229 250.54 -51.3438 254.779 -71.4132" stroke="url(#paint16_linear_92_962)" stroke-opacity="0.4" stroke-width="1.25"/>
<path d="M-88.6032 191.185C-78.1988 154.86 -67.3022 142.365 -40.3466 133.445C-13.3911 124.526 5.23687 139.138 54.6502 105.418C104.064 71.6984 69.5354 58.8775 155.398 21.3643C224.089 -8.64614 249.739 -56.2876 253.978 -76.357" stroke="url(#paint17_linear_92_962)" stroke-opacity="0.4" stroke-width="1.25"/>
<path d="M-89.4001 186.241C-78.9957 149.916 -68.0991 137.421 -41.1435 128.501C-14.1879 119.582 4.43999 134.194 53.8533 100.474C103.267 66.7543 68.7385 53.9334 154.601 16.4203C223.292 -13.5902 248.942 -61.2317 253.181 -81.3011" stroke="url(#paint18_linear_92_962)" stroke-opacity="0.4" stroke-width="1.25"/>
<path d="M-90.1989 181.297C-79.7945 144.972 -68.8979 132.477 -41.9423 123.557C-14.9868 114.638 3.64117 129.25 53.0545 95.5299C102.468 61.8102 67.9397 48.9893 153.803 11.4762C222.493 -18.5343 248.143 -66.1758 252.382 -86.2452" stroke="url(#paint19_linear_92_962)" stroke-opacity="0.4" stroke-width="1.25"/>
<path d="M-90.9997 176.353C-80.5953 140.028 -69.6987 127.533 -42.7431 118.613C-15.7875 109.694 2.84038 124.306 52.2537 90.586C101.667 56.8664 67.1389 44.0454 153.002 6.53231C221.692 -23.4782 247.342 -71.1196 251.581 -91.1891" stroke="url(#paint20_linear_92_962)" stroke-opacity="0.4" stroke-width="1.25"/>
<path d="M-91.7966 171.409C-81.3921 135.084 -70.4955 122.589 -43.54 113.669C-16.5844 104.75 2.04351 119.362 51.4569 85.6419C100.87 51.9223 66.342 39.1013 152.205 1.58822C220.895 -28.4223 246.545 -76.0637 250.784 -96.1332" stroke="url(#paint21_linear_92_962)" stroke-opacity="0.4" stroke-width="1.25"/>
<path d="M-92.5954 166.465C-82.191 130.14 -71.2944 117.645 -44.3388 108.725C-17.3832 99.8056 1.24468 114.417 50.658 80.6978C100.071 46.9782 65.5432 34.1572 151.406 -3.35587C220.096 -33.3664 245.747 -81.0078 249.986 -101.077" stroke="url(#paint22_linear_92_962)" stroke-opacity="0.4" stroke-width="1.25"/>
<path d="M-93.3962 161.521C-82.9917 125.196 -72.0952 112.701 -45.1396 103.781C-18.184 94.8617 0.4439 109.474 49.8572 75.754C99.2706 42.0343 64.7424 29.2134 150.605 -8.29972C219.296 -38.3102 244.946 -85.9517 249.185 -106.021" stroke="url(#paint23_linear_92_962)" stroke-opacity="0.4" stroke-width="1.25"/>
<path d="M-94.195 156.577C-83.7906 120.252 -72.894 107.757 -45.9384 98.8372C-18.9829 89.9177 -0.354929 104.53 49.0584 70.8099C98.4718 37.0902 63.9436 24.2693 149.806 -13.2438C218.497 -43.2543 244.147 -90.8958 248.386 -110.965" stroke="url(#paint24_linear_92_962)" stroke-opacity="0.4" stroke-width="1.25"/>
<path d="M-94.9939 151.633C-84.5894 115.308 -73.6928 102.813 -46.7372 93.8933C-19.7817 84.9738 -1.15376 99.5857 48.2596 65.8661C97.6729 32.1464 63.1447 19.3254 149.008 -18.1877C217.698 -48.1981 243.348 -95.8396 247.587 -115.909" stroke="url(#paint25_linear_92_962)" stroke-opacity="0.4" stroke-width="1.25"/>
<path d="M-95.7927 146.689C-85.3882 110.364 -74.4916 97.8688 -47.5361 88.9492C-20.5805 80.0297 -1.95258 94.6416 47.4608 60.922C96.8741 27.2023 62.3459 14.3814 148.209 -23.1317C216.899 -53.1422 242.549 -100.784 246.788 -120.853" stroke="url(#paint26_linear_92_962)" stroke-opacity="0.4" stroke-width="1.25"/>
<path d="M-96.5915 141.745C-86.1871 105.42 -75.2905 92.9247 -48.3349 84.0051C-21.3793 75.0856 -2.75141 89.6975 46.6619 55.9779C96.0753 22.2582 61.5471 9.43726 147.41 -28.0758C216.1 -58.0863 241.751 -105.728 245.989 -125.797" stroke="url(#paint27_linear_92_962)" stroke-opacity="0.4" stroke-width="1.25"/>
<path d="M-97.3904 136.801C-86.9859 100.476 -76.0893 87.9806 -49.1337 79.061C-22.1782 70.1415 -3.55024 84.7534 45.8631 51.0338C95.2764 17.3141 60.7482 4.49317 146.611 -33.0199C215.301 -63.0304 240.952 -110.672 245.191 -130.741" stroke="url(#paint28_linear_92_962)" stroke-opacity="0.4" stroke-width="1.25"/>
<path d="M-98.1892 131.857C-87.7847 95.5318 -76.8881 83.0365 -49.9326 74.117C-22.977 65.1974 -4.34907 79.8093 45.0643 46.0897C94.4776 12.37 59.9494 -0.450919 145.812 -37.964C214.503 -67.9745 240.153 -115.616 244.392 -135.685" stroke="url(#paint29_linear_92_962)" stroke-opacity="0.4" stroke-width="1.25"/>
<path d="M-98.988 126.913C-88.5835 90.588 -77.687 78.0926 -50.7314 69.1731C-23.7758 60.2536 -5.1479 74.8655 44.2654 41.1458C93.6788 7.42618 59.1506 -5.39477 145.013 -42.9079C213.704 -72.9184 239.354 -120.56 243.593 -140.629" stroke="url(#paint30_linear_92_962)" stroke-opacity="0.4" stroke-width="1.25"/>
<path d="M-99.7868 121.969C-89.3824 85.6439 -78.4858 73.1485 -51.5302 64.229C-24.5747 55.3095 -5.94673 69.9214 43.4666 36.2017C92.88 2.48209 58.3518 -10.3389 144.215 -47.852C212.905 -77.8624 238.555 -125.504 242.794 -145.573" stroke="url(#paint31_linear_92_962)" stroke-opacity="0.4" stroke-width="1.25"/>
<path d="M-100.586 117.025C-90.1812 80.6998 -79.2846 68.2044 -52.329 59.2849C-25.3735 50.3654 -6.74555 64.9773 42.6678 31.2577C92.0811 -2.462 57.5529 -15.2829 143.416 -52.7961C212.106 -82.8065 237.756 -130.448 241.995 -150.517" stroke="url(#paint32_linear_92_962)" stroke-opacity="0.4" stroke-width="1.25"/>
<path d="M-101.384 112.081C-90.98 75.756 -80.0834 63.2606 -53.1279 54.3411C-26.1723 45.4216 -7.54438 60.0335 41.869 26.3138C91.2823 -7.40585 56.7541 -20.2268 142.617 -57.7399C211.307 -87.7504 236.958 -135.392 241.196 -155.461" stroke="url(#paint33_linear_92_962)" stroke-opacity="0.4" stroke-width="1.25"/>
<path d="M-102.183 107.137C-91.7789 70.8121 -80.8823 58.3167 -53.9267 49.3972C-26.9711 40.4777 -8.34321 55.0896 41.0701 21.37C90.4835 -12.3497 55.9553 -25.1706 141.818 -62.6838C210.508 -92.6942 236.159 -140.336 240.398 -160.405" stroke="url(#paint34_linear_92_962)" stroke-opacity="0.4" stroke-width="1.25"/>
<path d="M-102.982 102.193C-92.5777 65.868 -81.6811 53.3727 -54.7255 44.4531C-27.77 35.5336 -9.14204 50.1455 40.2713 16.4259C89.6846 -17.2938 55.1565 -30.1147 141.019 -67.6278C209.71 -97.6383 235.36 -145.28 239.599 -165.349" stroke="url(#paint35_linear_92_962)" stroke-opacity="0.4" stroke-width="1.25"/>
<path d="M-103.781 97.2488C-93.3765 60.9239 -82.4799 48.4286 -55.5244 39.509C-28.5688 30.5895 -9.94087 45.2014 39.4725 11.4818C88.8858 -22.2379 54.3576 -35.0588 140.22 -72.5719C208.911 -102.582 234.561 -150.224 238.8 -170.293" stroke="url(#paint36_linear_92_962)" stroke-opacity="0.4" stroke-width="1.25"/>
<path d="M-104.58 92.3047C-94.1753 55.9798 -83.2787 43.4845 -56.3232 34.565C-29.3676 25.6454 -10.7397 40.2573 38.6736 6.53768C88.087 -27.182 53.5588 -40.0029 139.422 -77.516C208.112 -107.527 233.762 -155.168 238.001 -175.237" stroke="url(#paint37_linear_92_962)" stroke-opacity="0.4" stroke-width="1.25"/>
<path d="M-105.379 87.3606C-94.9742 51.0358 -84.0776 38.5404 -57.122 29.6209C-30.1664 20.7013 -11.5385 35.3132 37.8748 1.59359C87.2882 -32.1261 52.76 -44.947 138.623 -82.4601C207.313 -112.471 232.963 -160.112 237.202 -180.182" stroke="url(#paint38_linear_92_962)" stroke-opacity="0.4" stroke-width="1.25"/>
<path d="M-106.177 82.4167C-95.773 46.0919 -84.8764 33.5965 -57.9208 24.677C-30.9653 15.7575 -12.3374 30.3694 37.076 -3.35026C86.4893 -37.0699 51.9611 -49.8909 137.824 -87.404C206.514 -117.414 232.165 -165.056 236.404 -185.125" stroke="url(#paint39_linear_92_962)" stroke-opacity="0.4" stroke-width="1.25"/>
<path d="M-106.976 77.4726C-96.5718 41.1478 -85.6752 28.6524 -58.7197 19.7329C-31.7641 10.8134 -13.1362 25.4253 36.2772 -8.29435C85.6905 -42.014 51.1623 -54.835 137.025 -92.3481C205.715 -122.359 231.366 -170 235.605 -190.069" stroke="url(#paint40_linear_92_962)" stroke-opacity="0.4" stroke-width="1.25"/>
<path d="M-107.775 72.5288C-97.3707 36.204 -86.4741 23.7086 -59.5185 14.7891C-32.5629 5.86955 -13.935 20.4815 35.4783 -13.2382C84.8917 -46.9578 50.3635 -59.7788 136.226 -97.2919C204.917 -127.302 230.567 -174.944 234.806 -195.013" stroke="url(#paint41_linear_92_962)" stroke-opacity="0.4" stroke-width="1.25"/>
<path d="M-108.574 67.5847C-98.1695 31.2599 -87.2729 18.7645 -60.3173 9.84498C-33.3618 0.925463 -14.7338 15.5374 34.6795 -18.1823C84.0928 -51.9019 49.5647 -64.7229 135.428 -102.236C204.118 -132.246 229.768 -179.888 234.007 -199.957" stroke="url(#paint42_linear_92_962)" stroke-opacity="0.4" stroke-width="1.25"/>
<path d="M-109.373 62.6406C-98.9683 26.3158 -88.0717 13.8204 -61.1162 4.90089C-34.1606 -4.01863 -15.5327 10.5933 33.8807 -23.1264C83.294 -56.846 48.7658 -69.667 134.629 -107.18C203.319 -137.191 228.969 -184.832 233.208 -204.901" stroke="url(#paint43_linear_92_962)" stroke-opacity="0.4" stroke-width="1.25"/>
<path d="M-110.172 57.6965C-99.7671 21.3717 -88.8705 8.87632 -61.915 -0.0432005C-34.9594 -8.96272 -16.3315 5.64918 33.0819 -28.0705C82.4952 -61.7901 47.967 -74.6111 133.83 -112.124C202.52 -142.135 228.17 -189.776 232.409 -209.846" stroke="url(#paint44_linear_92_962)" stroke-opacity="0.4" stroke-width="1.25"/>
<path d="M-110.97 52.7527C-100.566 16.4278 -89.6694 3.93247 -62.7138 -4.98705C-35.7582 -13.9066 -17.1303 0.705335 32.283 -33.0143C81.6964 -66.734 47.1682 -79.5549 133.031 -117.068C201.721 -147.079 227.372 -194.72 231.611 -214.789" stroke="url(#paint45_linear_92_962)" stroke-opacity="0.4" stroke-width="1.25"/>
<path d="M-111.771 47.8086C-101.367 11.4838 -90.4702 -1.01162 -63.5146 -9.93114C-36.559 -18.8507 -17.9311 -4.23876 31.4822 -37.9584C80.8956 -71.6781 46.3674 -84.499 132.23 -122.012C200.921 -152.023 226.571 -199.664 230.81 -219.734" stroke="url(#paint46_linear_92_962)" stroke-opacity="0.4" stroke-width="1.25"/>
<path d="M-112.568 42.8645C-102.164 6.53966 -91.267 -5.95571 -64.3115 -14.8752C-37.3559 -23.7948 -18.728 -9.18285 30.6854 -42.9025C80.0987 -76.6222 45.5705 -89.4431 131.433 -126.956C200.124 -156.967 225.774 -204.608 230.013 -224.678" stroke="url(#paint47_linear_92_962)" stroke-opacity="0.4" stroke-width="1.25"/>
<path d="M-113.367 37.9206C-102.962 1.59581 -92.0659 -10.8996 -65.1103 -19.8191C-38.1547 -28.7386 -19.5268 -14.1267 29.8865 -47.8463C79.2999 -81.566 44.7717 -94.387 130.635 -131.9C199.325 -161.911 224.975 -209.552 229.214 -229.621" stroke="url(#paint48_linear_92_962)" stroke-opacity="0.4" stroke-width="1.25"/>
<path d="M-114.166 32.9765C-103.761 -3.34828 -92.8647 -15.8437 -65.9091 -24.7632C-38.9536 -33.6827 -20.3256 -19.0708 29.0877 -52.7904C78.5011 -86.5101 43.9729 -99.331 129.836 -136.844C198.526 -166.855 224.176 -214.496 228.415 -234.566" stroke="url(#paint49_linear_92_962)" stroke-opacity="0.4" stroke-width="1.25"/>
<path d="M-114.967 28.0325C-104.562 -8.29237 -93.6655 -20.7877 -66.7099 -29.7073C-39.7543 -38.6268 -21.1264 -24.0149 28.2869 -57.7345C77.7003 -91.4542 43.1721 -104.275 129.035 -141.788C197.725 -171.799 223.376 -219.44 227.614 -239.51" stroke="url(#paint50_linear_92_962)" stroke-opacity="0.4" stroke-width="1.25"/>
<path d="M-115.763 23.0884C-105.359 -13.2365 -94.4623 -25.7318 -67.5068 -34.6514C-40.5512 -43.5709 -21.9233 -28.959 27.4901 -62.6786C76.9034 -96.3983 42.3752 -109.219 128.238 -146.732C196.928 -176.743 222.579 -224.384 226.818 -244.454" stroke="url(#paint51_linear_92_962)" stroke-opacity="0.4" stroke-width="1.25"/>
<path d="M-116.562 18.1445C-106.158 -18.1803 -95.2612 -30.6757 -68.3056 -39.5952C-41.35 -48.5147 -22.7221 -33.9028 26.6912 -67.6225C76.1046 -101.342 41.5764 -114.163 127.439 -151.676C196.13 -181.687 221.78 -229.328 226.019 -249.398" stroke="url(#paint52_linear_92_962)" stroke-opacity="0.4" stroke-width="1.25"/>
<path d="M-117.363 13.2004C-106.959 -23.1244 -96.062 -35.6198 -69.1064 -44.5393C-42.1508 -53.4588 -23.5229 -38.8469 25.8904 -72.5666C75.3038 -106.286 40.7756 -119.107 126.638 -156.62C195.329 -186.631 220.979 -234.272 225.218 -254.342" stroke="url(#paint53_linear_92_962)" stroke-opacity="0.4" stroke-width="1.25"/>
<path d="M-118.162 8.25633C-107.757 -28.0685 -96.8608 -40.5639 -69.9052 -49.4834C-42.9497 -58.4029 -24.3217 -43.791 25.0916 -77.5107C74.505 -111.23 39.9768 -124.051 125.84 -161.564C194.53 -191.575 220.18 -239.216 224.419 -259.286" stroke="url(#paint54_linear_92_962)" stroke-opacity="0.4" stroke-width="1.25"/>
</g>
</g>
<defs>
<linearGradient id="paint0_linear_92_962" x1="80.2213" y1="62.961" x2="125.402" y2="216.1" gradientUnits="userSpaceOnUse">
<stop stop-color="#399780"/>
<stop offset="1" stop-color="#480E8B"/>
<stop offset="1" stop-color="#480E8B"/>
</linearGradient>
<linearGradient id="paint1_linear_92_962" x1="79.4225" y1="58.0172" x2="124.604" y2="211.156" gradientUnits="userSpaceOnUse">
<stop stop-color="#399780"/>
<stop offset="1" stop-color="#480E8B"/>
<stop offset="1" stop-color="#480E8B"/>
</linearGradient>
<linearGradient id="paint2_linear_92_962" x1="78.6236" y1="53.0731" x2="123.805" y2="206.212" gradientUnits="userSpaceOnUse">
<stop stop-color="#399780"/>
<stop offset="1" stop-color="#480E8B"/>
<stop offset="1" stop-color="#480E8B"/>
</linearGradient>
<linearGradient id="paint3_linear_92_962" x1="77.8248" y1="48.1295" x2="123.006" y2="201.269" gradientUnits="userSpaceOnUse">
<stop stop-color="#399780"/>
<stop offset="1" stop-color="#480E8B"/>
<stop offset="1" stop-color="#480E8B"/>
</linearGradient>
<linearGradient id="paint4_linear_92_962" x1="77.026" y1="43.1854" x2="122.207" y2="196.325" gradientUnits="userSpaceOnUse">
<stop stop-color="#399780"/>
<stop offset="1" stop-color="#480E8B"/>
<stop offset="1" stop-color="#480E8B"/>
</linearGradient>
<linearGradient id="paint5_linear_92_962" x1="76.2271" y1="38.2415" x2="121.408" y2="191.381" gradientUnits="userSpaceOnUse">
<stop stop-color="#399780"/>
<stop offset="1" stop-color="#480E8B"/>
<stop offset="1" stop-color="#480E8B"/>
</linearGradient>
<linearGradient id="paint6_linear_92_962" x1="75.4283" y1="33.2974" x2="120.61" y2="186.437" gradientUnits="userSpaceOnUse">
<stop stop-color="#399780"/>
<stop offset="1" stop-color="#480E8B"/>
<stop offset="1" stop-color="#480E8B"/>
</linearGradient>
<linearGradient id="paint7_linear_92_962" x1="74.6295" y1="28.3536" x2="119.811" y2="181.493" gradientUnits="userSpaceOnUse">
<stop stop-color="#399780"/>
<stop offset="1" stop-color="#480E8B"/>
<stop offset="1" stop-color="#480E8B"/>
</linearGradient>
<linearGradient id="paint8_linear_92_962" x1="73.8307" y1="23.4095" x2="119.012" y2="176.549" gradientUnits="userSpaceOnUse">
<stop stop-color="#399780"/>
<stop offset="1" stop-color="#480E8B"/>
<stop offset="1" stop-color="#480E8B"/>
</linearGradient>
<linearGradient id="paint9_linear_92_962" x1="73.0318" y1="18.4656" x2="118.213" y2="171.605" gradientUnits="userSpaceOnUse">
<stop stop-color="#399780"/>
<stop offset="1" stop-color="#480E8B"/>
<stop offset="1" stop-color="#480E8B"/>
</linearGradient>
<linearGradient id="paint10_linear_92_962" x1="72.233" y1="13.5216" x2="117.414" y2="166.661" gradientUnits="userSpaceOnUse">
<stop stop-color="#399780"/>
<stop offset="1" stop-color="#480E8B"/>
<stop offset="1" stop-color="#480E8B"/>
</linearGradient>
<linearGradient id="paint11_linear_92_962" x1="71.4342" y1="8.57771" x2="116.615" y2="161.717" gradientUnits="userSpaceOnUse">
<stop stop-color="#399780"/>
<stop offset="1" stop-color="#480E8B"/>
<stop offset="1" stop-color="#480E8B"/>
</linearGradient>
<linearGradient id="paint12_linear_92_962" x1="70.6353" y1="3.63362" x2="115.817" y2="156.773" gradientUnits="userSpaceOnUse">
<stop stop-color="#399780"/>
<stop offset="1" stop-color="#480E8B"/>
<stop offset="1" stop-color="#480E8B"/>
</linearGradient>
<linearGradient id="paint13_linear_92_962" x1="69.8365" y1="-1.31023" x2="115.018" y2="151.829" gradientUnits="userSpaceOnUse">
<stop stop-color="#399780"/>
<stop offset="1" stop-color="#480E8B"/>
<stop offset="1" stop-color="#480E8B"/>
</linearGradient>
<linearGradient id="paint14_linear_92_962" x1="69.0377" y1="-6.25408" x2="114.219" y2="146.885" gradientUnits="userSpaceOnUse">
<stop stop-color="#399780"/>
<stop offset="1" stop-color="#480E8B"/>
<stop offset="1" stop-color="#480E8B"/>
</linearGradient>
<linearGradient id="paint15_linear_92_962" x1="68.2389" y1="-11.1982" x2="113.42" y2="141.941" gradientUnits="userSpaceOnUse">
<stop stop-color="#399780"/>
<stop offset="1" stop-color="#480E8B"/>
<stop offset="1" stop-color="#480E8B"/>
</linearGradient>
<linearGradient id="paint16_linear_92_962" x1="67.44" y1="-16.142" x2="112.621" y2="136.997" gradientUnits="userSpaceOnUse">
<stop stop-color="#399780"/>
<stop offset="1" stop-color="#480E8B"/>
<stop offset="1" stop-color="#480E8B"/>
</linearGradient>
<linearGradient id="paint17_linear_92_962" x1="66.6392" y1="-21.0859" x2="111.82" y2="132.053" gradientUnits="userSpaceOnUse">
<stop stop-color="#399780"/>
<stop offset="1" stop-color="#480E8B"/>
<stop offset="1" stop-color="#480E8B"/>
</linearGradient>
<linearGradient id="paint18_linear_92_962" x1="65.8424" y1="-26.03" x2="111.024" y2="127.109" gradientUnits="userSpaceOnUse">
<stop stop-color="#399780"/>
<stop offset="1" stop-color="#480E8B"/>
<stop offset="1" stop-color="#480E8B"/>
</linearGradient>
<linearGradient id="paint19_linear_92_962" x1="65.0435" y1="-30.974" x2="110.225" y2="122.165" gradientUnits="userSpaceOnUse">
<stop stop-color="#399780"/>
<stop offset="1" stop-color="#480E8B"/>
<stop offset="1" stop-color="#480E8B"/>
</linearGradient>
<linearGradient id="paint20_linear_92_962" x1="64.2428" y1="-35.9179" x2="109.424" y2="117.221" gradientUnits="userSpaceOnUse">
<stop stop-color="#399780"/>
<stop offset="1" stop-color="#480E8B"/>
<stop offset="1" stop-color="#480E8B"/>
</linearGradient>
<linearGradient id="paint21_linear_92_962" x1="63.4459" y1="-40.862" x2="108.627" y2="112.277" gradientUnits="userSpaceOnUse">
<stop stop-color="#399780"/>
<stop offset="1" stop-color="#480E8B"/>
<stop offset="1" stop-color="#480E8B"/>
</linearGradient>
<linearGradient id="paint22_linear_92_962" x1="62.6471" y1="-45.8061" x2="107.828" y2="107.333" gradientUnits="userSpaceOnUse">
<stop stop-color="#399780"/>
<stop offset="1" stop-color="#480E8B"/>
<stop offset="1" stop-color="#480E8B"/>
</linearGradient>
<linearGradient id="paint23_linear_92_962" x1="61.8463" y1="-50.7499" x2="107.027" y2="102.389" gradientUnits="userSpaceOnUse">
<stop stop-color="#399780"/>
<stop offset="1" stop-color="#480E8B"/>
<stop offset="1" stop-color="#480E8B"/>
</linearGradient>
<linearGradient id="paint24_linear_92_962" x1="61.0475" y1="-55.694" x2="106.229" y2="97.4451" gradientUnits="userSpaceOnUse">
<stop stop-color="#399780"/>
<stop offset="1" stop-color="#480E8B"/>
<stop offset="1" stop-color="#480E8B"/>
</linearGradient>
<linearGradient id="paint25_linear_92_962" x1="60.2486" y1="-60.6379" x2="105.43" y2="92.5013" gradientUnits="userSpaceOnUse">
<stop stop-color="#399780"/>
<stop offset="1" stop-color="#480E8B"/>
<stop offset="1" stop-color="#480E8B"/>
</linearGradient>
<linearGradient id="paint26_linear_92_962" x1="59.4498" y1="-65.582" x2="104.631" y2="87.5572" gradientUnits="userSpaceOnUse">
<stop stop-color="#399780"/>
<stop offset="1" stop-color="#480E8B"/>
<stop offset="1" stop-color="#480E8B"/>
</linearGradient>
<linearGradient id="paint27_linear_92_962" x1="58.651" y1="-70.5261" x2="103.832" y2="82.6131" gradientUnits="userSpaceOnUse">
<stop stop-color="#399780"/>
<stop offset="1" stop-color="#480E8B"/>
<stop offset="1" stop-color="#480E8B"/>
</linearGradient>
<linearGradient id="paint28_linear_92_962" x1="57.8521" y1="-75.4701" x2="103.033" y2="77.669" gradientUnits="userSpaceOnUse">
<stop stop-color="#399780"/>
<stop offset="1" stop-color="#480E8B"/>
<stop offset="1" stop-color="#480E8B"/>
</linearGradient>
<linearGradient id="paint29_linear_92_962" x1="57.0533" y1="-80.4142" x2="102.235" y2="72.7249" gradientUnits="userSpaceOnUse">
<stop stop-color="#399780"/>
<stop offset="1" stop-color="#480E8B"/>
<stop offset="1" stop-color="#480E8B"/>
</linearGradient>
<linearGradient id="paint30_linear_92_962" x1="56.2545" y1="-85.3581" x2="101.436" y2="67.7811" gradientUnits="userSpaceOnUse">
<stop stop-color="#399780"/>
<stop offset="1" stop-color="#480E8B"/>
<stop offset="1" stop-color="#480E8B"/>
</linearGradient>
<linearGradient id="paint31_linear_92_962" x1="55.4557" y1="-90.3022" x2="100.637" y2="62.837" gradientUnits="userSpaceOnUse">
<stop stop-color="#399780"/>
<stop offset="1" stop-color="#480E8B"/>
<stop offset="1" stop-color="#480E8B"/>
</linearGradient>
<linearGradient id="paint32_linear_92_962" x1="54.6568" y1="-95.2463" x2="99.838" y2="57.8929" gradientUnits="userSpaceOnUse">
<stop stop-color="#399780"/>
<stop offset="1" stop-color="#480E8B"/>
<stop offset="1" stop-color="#480E8B"/>
</linearGradient>
<linearGradient id="paint33_linear_92_962" x1="53.858" y1="-100.19" x2="99.0392" y2="52.949" gradientUnits="userSpaceOnUse">
<stop stop-color="#399780"/>
<stop offset="1" stop-color="#480E8B"/>
<stop offset="1" stop-color="#480E8B"/>
</linearGradient>
<linearGradient id="paint34_linear_92_962" x1="53.0592" y1="-105.134" x2="98.2404" y2="48.0052" gradientUnits="userSpaceOnUse">
<stop stop-color="#399780"/>
<stop offset="1" stop-color="#480E8B"/>
<stop offset="1" stop-color="#480E8B"/>
</linearGradient>
<linearGradient id="paint35_linear_92_962" x1="52.2603" y1="-110.078" x2="97.4416" y2="43.0611" gradientUnits="userSpaceOnUse">
<stop stop-color="#399780"/>
<stop offset="1" stop-color="#480E8B"/>
<stop offset="1" stop-color="#480E8B"/>
</linearGradient>
<linearGradient id="paint36_linear_92_962" x1="51.4615" y1="-115.022" x2="96.6427" y2="38.117" gradientUnits="userSpaceOnUse">
<stop stop-color="#399780"/>
<stop offset="1" stop-color="#480E8B"/>
<stop offset="1" stop-color="#480E8B"/>
</linearGradient>
<linearGradient id="paint37_linear_92_962" x1="50.6627" y1="-119.966" x2="95.8439" y2="33.1729" gradientUnits="userSpaceOnUse">
<stop stop-color="#399780"/>
<stop offset="1" stop-color="#480E8B"/>
<stop offset="1" stop-color="#480E8B"/>
</linearGradient>
<linearGradient id="paint38_linear_92_962" x1="49.8639" y1="-124.91" x2="95.0451" y2="28.2288" gradientUnits="userSpaceOnUse">
<stop stop-color="#399780"/>
<stop offset="1" stop-color="#480E8B"/>
<stop offset="1" stop-color="#480E8B"/>
</linearGradient>
<linearGradient id="paint39_linear_92_962" x1="49.065" y1="-129.854" x2="94.2462" y2="23.285" gradientUnits="userSpaceOnUse">
<stop stop-color="#399780"/>
<stop offset="1" stop-color="#480E8B"/>
<stop offset="1" stop-color="#480E8B"/>
</linearGradient>
<linearGradient id="paint40_linear_92_962" x1="48.2662" y1="-134.798" x2="93.4474" y2="18.3409" gradientUnits="userSpaceOnUse">
<stop stop-color="#399780"/>
<stop offset="1" stop-color="#480E8B"/>
<stop offset="1" stop-color="#480E8B"/>
</linearGradient>
<linearGradient id="paint41_linear_92_962" x1="47.4674" y1="-139.742" x2="92.6486" y2="13.397" gradientUnits="userSpaceOnUse">
<stop stop-color="#399780"/>
<stop offset="1" stop-color="#480E8B"/>
<stop offset="1" stop-color="#480E8B"/>
</linearGradient>
<linearGradient id="paint42_linear_92_962" x1="46.6685" y1="-144.686" x2="91.8498" y2="8.45294" gradientUnits="userSpaceOnUse">
<stop stop-color="#399780"/>
<stop offset="1" stop-color="#480E8B"/>
<stop offset="1" stop-color="#480E8B"/>
</linearGradient>
<linearGradient id="paint43_linear_92_962" x1="45.8697" y1="-149.63" x2="91.0509" y2="3.50885" gradientUnits="userSpaceOnUse">
<stop stop-color="#399780"/>
<stop offset="1" stop-color="#480E8B"/>
<stop offset="1" stop-color="#480E8B"/>
</linearGradient>
<linearGradient id="paint44_linear_92_962" x1="45.0709" y1="-154.574" x2="90.2521" y2="-1.43524" gradientUnits="userSpaceOnUse">
<stop stop-color="#399780"/>
<stop offset="1" stop-color="#480E8B"/>
<stop offset="1" stop-color="#480E8B"/>
</linearGradient>
<linearGradient id="paint45_linear_92_962" x1="44.2721" y1="-159.518" x2="89.4533" y2="-6.37909" gradientUnits="userSpaceOnUse">
<stop stop-color="#399780"/>
<stop offset="1" stop-color="#480E8B"/>
<stop offset="1" stop-color="#480E8B"/>
</linearGradient>
<linearGradient id="paint46_linear_92_962" x1="43.4713" y1="-164.462" x2="88.6525" y2="-11.3232" gradientUnits="userSpaceOnUse">
<stop stop-color="#399780"/>
<stop offset="1" stop-color="#480E8B"/>
<stop offset="1" stop-color="#480E8B"/>
</linearGradient>
<linearGradient id="paint47_linear_92_962" x1="42.6744" y1="-169.406" x2="87.8556" y2="-16.2673" gradientUnits="userSpaceOnUse">
<stop stop-color="#399780"/>
<stop offset="1" stop-color="#480E8B"/>
<stop offset="1" stop-color="#480E8B"/>
</linearGradient>
<linearGradient id="paint48_linear_92_962" x1="41.8756" y1="-174.35" x2="87.0568" y2="-21.2111" gradientUnits="userSpaceOnUse">
<stop stop-color="#399780"/>
<stop offset="1" stop-color="#480E8B"/>
<stop offset="1" stop-color="#480E8B"/>
</linearGradient>
<linearGradient id="paint49_linear_92_962" x1="41.0767" y1="-179.294" x2="86.258" y2="-26.1552" gradientUnits="userSpaceOnUse">
<stop stop-color="#399780"/>
<stop offset="1" stop-color="#480E8B"/>
<stop offset="1" stop-color="#480E8B"/>
</linearGradient>
<linearGradient id="paint50_linear_92_962" x1="40.276" y1="-184.238" x2="85.4572" y2="-31.0993" gradientUnits="userSpaceOnUse">
<stop stop-color="#399780"/>
<stop offset="1" stop-color="#480E8B"/>
<stop offset="1" stop-color="#480E8B"/>
</linearGradient>
<linearGradient id="paint51_linear_92_962" x1="39.4791" y1="-189.183" x2="84.6603" y2="-36.0434" gradientUnits="userSpaceOnUse">
<stop stop-color="#399780"/>
<stop offset="1" stop-color="#480E8B"/>
<stop offset="1" stop-color="#480E8B"/>
</linearGradient>
<linearGradient id="paint52_linear_92_962" x1="38.6803" y1="-194.126" x2="83.8615" y2="-40.9872" gradientUnits="userSpaceOnUse">
<stop stop-color="#399780"/>
<stop offset="1" stop-color="#480E8B"/>
<stop offset="1" stop-color="#480E8B"/>
</linearGradient>
<linearGradient id="paint53_linear_92_962" x1="37.8795" y1="-199.07" x2="83.0607" y2="-45.9313" gradientUnits="userSpaceOnUse">
<stop stop-color="#399780"/>
<stop offset="1" stop-color="#480E8B"/>
<stop offset="1" stop-color="#480E8B"/>
</linearGradient>
<linearGradient id="paint54_linear_92_962" x1="37.0807" y1="-204.015" x2="82.2619" y2="-50.8754" gradientUnits="userSpaceOnUse">
<stop stop-color="#399780"/>
<stop offset="1" stop-color="#480E8B"/>
<stop offset="1" stop-color="#480E8B"/>
</linearGradient>
<clipPath id="clip0_92_962">
<rect width="259" height="242" fill="white"/>
</clipPath>
</defs>
</svg>
