<svg width="3089" height="3371" viewBox="0 0 3089 3371" fill="none" xmlns="http://www.w3.org/2000/svg">
<g opacity="0.5">
<path d="M16.4975 2771.73C177.996 2557.19 273.503 2509.89 446.386 2545.58C619.269 2581.27 678.865 2750.19 1045.84 2695.01C1412.82 2639.84 1261.25 2425.76 1838.17 2476.25C2299.71 2516.64 2577.06 2278.74 2658.05 2154.74" stroke="url(#paint0_linear_94_1413)" stroke-opacity="0.4" stroke-width="1.25"/>
<path d="M24.1733 2742.92C185.672 2528.38 281.179 2481.08 454.062 2516.77C626.945 2552.46 686.54 2721.38 1053.52 2666.2C1420.49 2611.03 1268.92 2396.95 1845.85 2447.44C2307.38 2487.83 2584.74 2249.93 2665.73 2125.92" stroke="url(#paint1_linear_94_1413)" stroke-opacity="0.4" stroke-width="1.25"/>
<path d="M31.853 2714.11C193.351 2499.57 288.859 2452.27 461.742 2487.96C634.625 2523.65 694.22 2692.57 1061.2 2637.39C1428.17 2582.22 1276.6 2368.14 1853.53 2418.63C2315.06 2459.02 2592.42 2221.12 2673.41 2097.12" stroke="url(#paint2_linear_94_1413)" stroke-opacity="0.4" stroke-width="1.25"/>
<path d="M39.5268 2685.3C201.025 2470.76 296.533 2423.46 469.416 2459.15C642.299 2494.84 701.894 2663.76 1068.87 2608.58C1435.85 2553.4 1284.28 2339.33 1861.2 2389.82C2322.74 2430.21 2600.09 2192.31 2681.08 2068.3" stroke="url(#paint3_linear_94_1413)" stroke-opacity="0.4" stroke-width="1.25"/>
<path d="M47.2045 2656.49C208.703 2441.95 304.21 2394.65 477.093 2430.34C649.976 2466.03 709.572 2634.95 1076.55 2579.77C1443.53 2524.59 1291.95 2310.52 1868.88 2361.01C2330.42 2401.4 2607.77 2163.5 2688.76 2039.49" stroke="url(#paint4_linear_94_1413)" stroke-opacity="0.4" stroke-width="1.25"/>
<path d="M54.8823 2627.68C216.381 2413.14 311.888 2365.84 484.771 2401.53C657.654 2437.22 717.249 2606.14 1084.23 2550.96C1451.2 2495.78 1299.63 2281.71 1876.55 2332.2C2338.09 2372.59 2615.45 2134.69 2696.43 2010.68" stroke="url(#paint5_linear_94_1413)" stroke-opacity="0.4" stroke-width="1.25"/>
<path d="M62.56 2598.87C224.059 2384.33 319.566 2337.03 492.449 2372.72C665.332 2408.41 724.927 2577.33 1091.9 2522.15C1458.88 2466.97 1307.31 2252.9 1884.23 2303.39C2345.77 2343.78 2623.13 2105.88 2704.11 1981.87" stroke="url(#paint6_linear_94_1413)" stroke-opacity="0.4" stroke-width="1.25"/>
<path d="M70.2338 2570.06C231.732 2355.52 327.24 2308.22 500.123 2343.91C673.006 2379.6 732.601 2548.52 1099.58 2493.34C1466.56 2438.16 1314.98 2224.09 1891.91 2274.58C2353.44 2314.97 2630.8 2077.07 2711.79 1953.06" stroke="url(#paint7_linear_94_1413)" stroke-opacity="0.4" stroke-width="1.25"/>
<path d="M77.9135 2541.25C239.412 2326.71 334.919 2279.41 507.802 2315.1C680.685 2350.79 740.281 2519.71 1107.26 2464.53C1474.23 2409.35 1322.66 2195.28 1899.59 2245.77C2361.12 2286.16 2638.48 2048.26 2719.47 1924.25" stroke="url(#paint8_linear_94_1413)" stroke-opacity="0.4" stroke-width="1.25"/>
<path d="M85.5893 2512.44C247.088 2297.89 342.595 2250.6 515.478 2286.29C688.361 2321.98 747.956 2490.9 1114.93 2435.72C1481.91 2380.54 1330.34 2166.47 1907.26 2216.96C2368.8 2257.35 2646.16 2019.45 2727.14 1895.44" stroke="url(#paint9_linear_94_1413)" stroke-opacity="0.4" stroke-width="1.25"/>
<path d="M93.267 2483.63C254.766 2269.08 350.273 2221.79 523.156 2257.48C696.039 2293.17 755.634 2462.09 1122.61 2406.91C1489.59 2351.73 1338.02 2137.66 1914.94 2188.15C2376.48 2228.54 2653.83 1990.64 2734.82 1866.63" stroke="url(#paint10_linear_94_1413)" stroke-opacity="0.4" stroke-width="1.25"/>
<path d="M100.943 2454.82C262.441 2240.27 357.949 2192.98 530.832 2228.67C703.715 2264.36 763.31 2433.28 1130.29 2378.1C1497.26 2322.92 1345.69 2108.85 1922.62 2159.34C2384.15 2199.73 2661.51 1961.83 2742.49 1837.82" stroke="url(#paint11_linear_94_1413)" stroke-opacity="0.4" stroke-width="1.25"/>
<path d="M108.621 2426.01C270.119 2211.46 365.626 2164.17 538.509 2199.86C711.392 2235.55 770.988 2404.47 1137.96 2349.29C1504.94 2294.11 1353.37 2080.04 1930.29 2130.53C2391.83 2170.92 2669.19 1933.02 2750.17 1809.01" stroke="url(#paint12_linear_94_1413)" stroke-opacity="0.4" stroke-width="1.25"/>
<path d="M116.298 2397.2C277.797 2182.65 373.304 2135.36 546.187 2171.05C719.07 2206.74 778.665 2375.66 1145.64 2320.48C1512.62 2265.3 1361.05 2051.23 1937.97 2101.72C2399.51 2142.11 2676.86 1904.2 2757.85 1780.2" stroke="url(#paint13_linear_94_1413)" stroke-opacity="0.4" stroke-width="1.25"/>
<path d="M123.974 2368.39C285.473 2153.84 380.98 2106.54 553.863 2142.23C726.746 2177.92 786.341 2346.85 1153.32 2291.67C1520.3 2236.49 1368.72 2022.42 1945.65 2072.91C2407.18 2113.3 2684.54 1875.39 2765.53 1751.39" stroke="url(#paint14_linear_94_1413)" stroke-opacity="0.4" stroke-width="1.25"/>
<path d="M131.654 2339.58C293.152 2125.03 388.66 2077.73 561.543 2113.42C734.426 2149.11 794.021 2318.04 1161 2262.86C1527.97 2207.68 1376.4 1993.61 1953.33 2044.1C2414.86 2084.49 2692.22 1846.58 2773.21 1722.58" stroke="url(#paint15_linear_94_1413)" stroke-opacity="0.4" stroke-width="1.25"/>
<path d="M139.33 2310.77C300.828 2096.22 396.335 2048.92 569.218 2084.61C742.101 2120.3 801.697 2289.23 1168.67 2234.05C1535.65 2178.87 1384.08 1964.8 1961 2015.29C2422.54 2055.68 2699.9 1817.77 2780.88 1693.77" stroke="url(#paint16_linear_94_1413)" stroke-opacity="0.4" stroke-width="1.25"/>
<path d="M147.005 2281.96C308.504 2067.41 404.011 2020.11 576.894 2055.8C749.777 2091.49 809.372 2260.42 1176.35 2205.24C1543.33 2150.06 1391.75 1935.99 1968.68 1986.48C2430.22 2026.87 2707.57 1788.96 2788.56 1664.96" stroke="url(#paint17_linear_94_1413)" stroke-opacity="0.4" stroke-width="1.25"/>
<path d="M154.683 2253.15C316.182 2038.6 411.689 1991.3 584.572 2026.99C757.455 2062.68 817.05 2231.61 1184.03 2176.43C1551 2121.25 1399.43 1907.18 1976.36 1957.67C2437.89 1998.06 2715.25 1760.15 2796.24 1636.15" stroke="url(#paint18_linear_94_1413)" stroke-opacity="0.4" stroke-width="1.25"/>
<path d="M162.363 2224.34C323.861 2009.79 419.369 1962.49 592.252 1998.18C765.135 2033.87 824.73 2202.8 1191.71 2147.62C1558.68 2092.44 1407.11 1878.37 1984.04 1928.86C2445.57 1969.25 2722.93 1731.34 2803.91 1607.34" stroke="url(#paint19_linear_94_1413)" stroke-opacity="0.4" stroke-width="1.25"/>
<path d="M170.037 2195.53C331.535 1980.98 427.043 1933.68 599.925 1969.37C772.808 2005.06 832.404 2173.99 1199.38 2118.81C1566.36 2063.63 1414.79 1849.56 1991.71 1900.05C2453.25 1940.44 2730.6 1702.53 2811.59 1578.53" stroke="url(#paint20_linear_94_1413)" stroke-opacity="0.4" stroke-width="1.25"/>
<path d="M177.716 2166.72C339.215 1952.17 434.722 1904.87 607.605 1940.56C780.488 1976.25 840.083 2145.18 1207.06 2090C1574.04 2034.82 1422.47 1820.75 1999.39 1871.24C2460.93 1911.63 2738.28 1673.72 2819.27 1549.72" stroke="url(#paint21_linear_94_1413)" stroke-opacity="0.4" stroke-width="1.25"/>
<path d="M185.394 2137.91C346.893 1923.36 442.4 1876.06 615.283 1911.75C788.166 1947.44 847.761 2116.37 1214.74 2061.19C1581.72 2006.01 1430.14 1791.94 2007.07 1842.43C2468.6 1882.82 2745.96 1644.91 2826.95 1520.91" stroke="url(#paint22_linear_94_1413)" stroke-opacity="0.4" stroke-width="1.25"/>
<path d="M193.068 2109.1C354.566 1894.55 450.074 1847.25 622.957 1882.94C795.84 1918.63 855.435 2087.56 1222.41 2032.38C1589.39 1977.2 1437.82 1763.13 2014.74 1813.62C2476.28 1854.01 2753.63 1616.1 2834.62 1492.1" stroke="url(#paint23_linear_94_1413)" stroke-opacity="0.4" stroke-width="1.25"/>
<path d="M200.746 2080.29C362.244 1865.74 457.751 1818.44 630.634 1854.13C803.517 1889.82 863.113 2058.75 1230.09 2003.57C1597.07 1948.39 1445.5 1734.32 2022.42 1784.81C2483.96 1825.2 2761.31 1587.29 2842.3 1463.29" stroke="url(#paint24_linear_94_1413)" stroke-opacity="0.4" stroke-width="1.25"/>
<path d="M208.421 2051.48C369.92 1836.93 465.427 1789.63 638.31 1825.32C811.193 1861.01 870.788 2029.94 1237.77 1974.76C1604.74 1919.58 1453.17 1705.51 2030.09 1756C2491.63 1796.39 2768.99 1558.48 2849.97 1434.48" stroke="url(#paint25_linear_94_1413)" stroke-opacity="0.4" stroke-width="1.25"/>
<path d="M216.101 2022.67C377.6 1808.12 473.107 1760.82 645.99 1796.51C818.873 1832.2 878.468 2001.13 1245.45 1945.95C1612.42 1890.77 1460.85 1676.7 2037.77 1727.19C2499.31 1767.58 2776.67 1529.67 2857.65 1405.67" stroke="url(#paint26_linear_94_1413)" stroke-opacity="0.4" stroke-width="1.25"/>
<path d="M223.779 1993.86C385.277 1779.31 480.785 1732.01 653.668 1767.7C826.551 1803.39 886.146 1972.32 1253.12 1917.14C1620.1 1861.96 1468.53 1647.89 2045.45 1698.38C2506.99 1738.77 2784.35 1500.86 2865.33 1376.86" stroke="url(#paint27_linear_94_1413)" stroke-opacity="0.4" stroke-width="1.25"/>
<path d="M231.455 1965.04C392.953 1750.5 488.46 1703.2 661.343 1738.89C834.226 1774.58 893.822 1943.51 1260.8 1888.33C1627.78 1833.15 1476.2 1619.08 2053.13 1669.57C2514.67 1709.96 2792.02 1472.05 2873.01 1348.05" stroke="url(#paint28_linear_94_1413)" stroke-opacity="0.4" stroke-width="1.25"/>
<path d="M239.132 1936.23C400.631 1721.69 496.138 1674.39 669.021 1710.08C841.904 1745.77 901.499 1914.7 1268.48 1859.52C1635.45 1804.34 1483.88 1590.27 2060.8 1640.76C2522.34 1681.15 2799.7 1443.24 2880.68 1319.24" stroke="url(#paint29_linear_94_1413)" stroke-opacity="0.4" stroke-width="1.25"/>
<path d="M246.81 1907.42C408.309 1692.88 503.816 1645.58 676.699 1681.27C849.582 1716.96 909.177 1885.89 1276.15 1830.71C1643.13 1775.53 1491.56 1561.46 2068.48 1611.95C2530.02 1652.34 2807.38 1414.43 2888.36 1290.43" stroke="url(#paint30_linear_94_1413)" stroke-opacity="0.4" stroke-width="1.25"/>
<path d="M254.486 1878.61C415.984 1664.07 511.492 1616.77 684.375 1652.46C857.258 1688.15 916.853 1857.07 1283.83 1801.9C1650.81 1746.72 1499.24 1532.65 2076.16 1583.14C2537.7 1623.53 2815.05 1385.62 2896.04 1261.62" stroke="url(#paint31_linear_94_1413)" stroke-opacity="0.4" stroke-width="1.25"/>
<path d="M262.164 1849.8C423.662 1635.26 519.169 1587.96 692.052 1623.65C864.935 1659.34 924.531 1828.27 1291.51 1773.09C1658.48 1717.91 1506.91 1503.84 2083.84 1554.33C2545.37 1594.72 2822.73 1356.81 2903.72 1232.81" stroke="url(#paint32_linear_94_1413)" stroke-opacity="0.4" stroke-width="1.25"/>
<path d="M269.841 1821C431.34 1606.45 526.847 1559.15 699.73 1594.84C872.613 1630.53 932.208 1799.46 1299.19 1744.28C1666.16 1689.1 1514.59 1475.03 2091.51 1525.52C2553.05 1565.91 2830.41 1328 2911.39 1204" stroke="url(#paint33_linear_94_1413)" stroke-opacity="0.4" stroke-width="1.25"/>
<path d="M277.519 1792.18C439.018 1577.64 534.525 1530.34 707.408 1566.03C880.291 1601.72 939.886 1770.65 1306.86 1715.47C1673.84 1660.29 1522.27 1446.22 2099.19 1496.71C2560.73 1537.1 2838.09 1299.19 2919.07 1175.19" stroke="url(#paint34_linear_94_1413)" stroke-opacity="0.4" stroke-width="1.25"/>
<path d="M285.195 1763.37C446.693 1548.83 542.201 1501.53 715.084 1537.22C887.967 1572.91 947.562 1741.84 1314.54 1686.66C1681.52 1631.48 1529.94 1417.41 2106.87 1467.9C2568.41 1508.29 2845.76 1270.38 2926.75 1146.38" stroke="url(#paint35_linear_94_1413)" stroke-opacity="0.4" stroke-width="1.25"/>
<path d="M292.873 1734.56C454.371 1520.02 549.878 1472.72 722.761 1508.41C895.644 1544.1 955.24 1713.03 1322.22 1657.85C1689.19 1602.67 1537.62 1388.6 2114.55 1439.09C2576.08 1479.48 2853.44 1241.57 2934.42 1117.57" stroke="url(#paint36_linear_94_1413)" stroke-opacity="0.4" stroke-width="1.25"/>
<path d="M300.55 1705.75C462.049 1491.21 557.556 1443.91 730.439 1479.6C903.322 1515.29 962.917 1684.21 1329.89 1629.04C1696.87 1573.86 1545.3 1359.79 2122.22 1410.28C2583.76 1450.67 2861.12 1212.76 2942.1 1088.76" stroke="url(#paint37_linear_94_1413)" stroke-opacity="0.4" stroke-width="1.25"/>
<path d="M308.226 1676.94C469.725 1462.4 565.232 1415.1 738.115 1450.79C910.998 1486.48 970.593 1655.4 1337.57 1600.23C1704.55 1545.05 1552.98 1330.98 2129.9 1381.47C2591.44 1421.86 2868.79 1183.95 2949.78 1059.95" stroke="url(#paint38_linear_94_1413)" stroke-opacity="0.4" stroke-width="1.25"/>
<path d="M315.902 1648.13C477.4 1433.59 572.908 1386.29 745.791 1421.98C918.674 1457.67 978.269 1626.6 1345.25 1571.42C1712.22 1516.24 1560.65 1302.17 2137.57 1352.66C2599.11 1393.05 2876.47 1155.14 2957.45 1031.14" stroke="url(#paint39_linear_94_1413)" stroke-opacity="0.4" stroke-width="1.25"/>
<path d="M323.58 1619.32C485.078 1404.78 580.585 1357.48 753.468 1393.17C926.351 1428.86 985.947 1597.79 1352.92 1542.61C1719.9 1487.43 1568.33 1273.36 2145.25 1323.85C2606.79 1364.24 2884.15 1126.33 2965.13 1002.33" stroke="url(#paint40_linear_94_1413)" stroke-opacity="0.4" stroke-width="1.25"/>
<path d="M331.255 1590.51C492.754 1375.97 588.261 1328.67 761.144 1364.36C934.027 1400.05 993.622 1568.97 1360.6 1513.8C1727.58 1458.62 1576 1244.55 2152.93 1295.04C2614.47 1335.43 2891.82 1097.52 2972.81 973.519" stroke="url(#paint41_linear_94_1413)" stroke-opacity="0.4" stroke-width="1.25"/>
<path d="M338.931 1561.7C500.43 1347.16 595.937 1299.86 768.82 1335.55C941.703 1371.24 1001.3 1540.17 1368.28 1484.99C1735.25 1429.81 1583.68 1215.74 2160.6 1266.23C2622.14 1306.62 2899.5 1068.71 2980.48 944.71" stroke="url(#paint42_linear_94_1413)" stroke-opacity="0.4" stroke-width="1.25"/>
<path d="M346.613 1532.9C508.111 1318.35 603.619 1271.05 776.502 1306.74C949.385 1342.43 1008.98 1511.36 1375.96 1456.18C1742.93 1401 1591.36 1186.93 2168.29 1237.42C2629.82 1277.81 2907.18 1039.9 2988.16 915.9" stroke="url(#paint43_linear_94_1413)" stroke-opacity="0.4" stroke-width="1.25"/>
<path d="M354.287 1504.09C515.785 1289.54 611.293 1242.24 784.175 1277.93C957.058 1313.62 1016.65 1482.55 1383.63 1427.37C1750.61 1372.19 1599.04 1158.12 2175.96 1208.61C2637.5 1249 2914.85 1011.09 2995.84 887.09" stroke="url(#paint44_linear_94_1413)" stroke-opacity="0.4" stroke-width="1.25"/>
<path d="M361.964 1475.27C523.463 1260.73 618.97 1213.43 791.853 1249.12C964.736 1284.81 1024.33 1453.73 1391.31 1398.56C1758.29 1343.38 1606.71 1129.31 2183.64 1179.8C2645.18 1220.19 2922.53 982.282 3003.52 858.279" stroke="url(#paint45_linear_94_1413)" stroke-opacity="0.4" stroke-width="1.25"/>
<path d="M369.64 1446.46C531.139 1231.92 626.646 1184.62 799.529 1220.31C972.412 1256 1032.01 1424.92 1398.98 1369.75C1765.96 1314.57 1614.39 1100.5 2191.31 1150.99C2652.85 1191.38 2930.21 953.472 3011.19 829.469" stroke="url(#paint46_linear_94_1413)" stroke-opacity="0.4" stroke-width="1.25"/>
<path d="M377.322 1417.66C538.82 1203.11 634.328 1155.81 807.211 1191.5C980.094 1227.19 1039.69 1396.12 1406.67 1340.94C1773.64 1285.76 1622.07 1071.69 2198.99 1122.18C2660.53 1162.57 2937.89 924.662 3018.87 800.66" stroke="url(#paint47_linear_94_1413)" stroke-opacity="0.4" stroke-width="1.25"/>
<path d="M384.998 1388.84C546.496 1174.3 642.003 1127 814.886 1162.69C987.769 1198.38 1047.36 1367.31 1414.34 1312.13C1781.32 1256.95 1629.75 1042.88 2206.67 1093.37C2668.21 1133.76 2945.56 895.852 3026.55 771.85" stroke="url(#paint48_linear_94_1413)" stroke-opacity="0.4" stroke-width="1.25"/>
<path d="M392.675 1360.04C554.174 1145.49 649.681 1098.19 822.564 1133.88C995.447 1169.57 1055.04 1338.5 1422.02 1283.32C1789 1228.14 1637.42 1014.07 2214.35 1064.56C2675.89 1104.95 2953.24 867.042 3034.23 743.04" stroke="url(#paint49_linear_94_1413)" stroke-opacity="0.4" stroke-width="1.25"/>
<path d="M400.351 1331.22C561.85 1116.68 657.357 1069.38 830.24 1105.07C1003.12 1140.76 1062.72 1309.69 1429.7 1254.51C1796.67 1199.33 1645.1 985.257 2222.02 1035.75C2683.56 1076.14 2960.92 838.232 3041.9 714.23" stroke="url(#paint50_linear_94_1413)" stroke-opacity="0.4" stroke-width="1.25"/>
<path d="M408.031 1302.42C569.529 1087.87 665.037 1040.57 837.92 1076.26C1010.8 1111.95 1070.4 1280.88 1437.37 1225.7C1804.35 1170.52 1652.78 956.449 2229.7 1006.94C2691.24 1047.33 2968.6 809.423 3049.58 685.421" stroke="url(#paint51_linear_94_1413)" stroke-opacity="0.4" stroke-width="1.25"/>
<path d="M415.706 1273.6C577.205 1059.06 672.712 1011.76 845.595 1047.45C1018.48 1083.14 1078.07 1252.07 1445.05 1196.89C1812.03 1141.71 1660.46 927.637 2237.38 978.127C2698.92 1018.52 2976.27 780.612 3057.26 656.609" stroke="url(#paint52_linear_94_1413)" stroke-opacity="0.4" stroke-width="1.25"/>
<path d="M423.38 1244.79C584.879 1030.25 680.386 982.951 853.269 1018.64C1026.15 1054.33 1085.75 1223.25 1452.72 1168.08C1819.7 1112.9 1668.13 898.827 2245.05 949.316C2706.59 989.708 2983.95 751.801 3064.93 627.799" stroke="url(#paint53_linear_94_1413)" stroke-opacity="0.4" stroke-width="1.25"/>
<path d="M431.06 1215.98C592.559 1001.44 688.066 954.141 860.949 989.831C1033.83 1025.52 1093.43 1194.44 1460.4 1139.27C1827.38 1084.09 1675.81 870.016 2252.73 920.505C2714.27 960.897 2991.63 722.991 3072.61 598.988" stroke="url(#paint54_linear_94_1413)" stroke-opacity="0.4" stroke-width="1.25"/>
</g>
<defs>
<linearGradient id="paint0_linear_94_1413" x1="1475.89" y1="1860.04" x2="1176.54" y2="3060.91" gradientUnits="userSpaceOnUse">
<stop stop-color="#399780"/>
<stop offset="1" stop-color="#480E8B"/>
<stop offset="1" stop-color="#480E8B"/>
</linearGradient>
<linearGradient id="paint1_linear_94_1413" x1="1483.57" y1="1831.23" x2="1184.21" y2="3032.1" gradientUnits="userSpaceOnUse">
<stop stop-color="#399780"/>
<stop offset="1" stop-color="#480E8B"/>
<stop offset="1" stop-color="#480E8B"/>
</linearGradient>
<linearGradient id="paint2_linear_94_1413" x1="1491.25" y1="1802.42" x2="1191.89" y2="3003.29" gradientUnits="userSpaceOnUse">
<stop stop-color="#399780"/>
<stop offset="1" stop-color="#480E8B"/>
<stop offset="1" stop-color="#480E8B"/>
</linearGradient>
<linearGradient id="paint3_linear_94_1413" x1="1498.92" y1="1773.61" x2="1199.56" y2="2974.48" gradientUnits="userSpaceOnUse">
<stop stop-color="#399780"/>
<stop offset="1" stop-color="#480E8B"/>
<stop offset="1" stop-color="#480E8B"/>
</linearGradient>
<linearGradient id="paint4_linear_94_1413" x1="1506.6" y1="1744.8" x2="1207.24" y2="2945.67" gradientUnits="userSpaceOnUse">
<stop stop-color="#399780"/>
<stop offset="1" stop-color="#480E8B"/>
<stop offset="1" stop-color="#480E8B"/>
</linearGradient>
<linearGradient id="paint5_linear_94_1413" x1="1514.28" y1="1715.99" x2="1214.92" y2="2916.86" gradientUnits="userSpaceOnUse">
<stop stop-color="#399780"/>
<stop offset="1" stop-color="#480E8B"/>
<stop offset="1" stop-color="#480E8B"/>
</linearGradient>
<linearGradient id="paint6_linear_94_1413" x1="1521.96" y1="1687.18" x2="1222.6" y2="2888.05" gradientUnits="userSpaceOnUse">
<stop stop-color="#399780"/>
<stop offset="1" stop-color="#480E8B"/>
<stop offset="1" stop-color="#480E8B"/>
</linearGradient>
<linearGradient id="paint7_linear_94_1413" x1="1529.63" y1="1658.37" x2="1230.27" y2="2859.24" gradientUnits="userSpaceOnUse">
<stop stop-color="#399780"/>
<stop offset="1" stop-color="#480E8B"/>
<stop offset="1" stop-color="#480E8B"/>
</linearGradient>
<linearGradient id="paint8_linear_94_1413" x1="1537.31" y1="1629.56" x2="1237.95" y2="2830.43" gradientUnits="userSpaceOnUse">
<stop stop-color="#399780"/>
<stop offset="1" stop-color="#480E8B"/>
<stop offset="1" stop-color="#480E8B"/>
</linearGradient>
<linearGradient id="paint9_linear_94_1413" x1="1544.99" y1="1600.75" x2="1245.63" y2="2801.62" gradientUnits="userSpaceOnUse">
<stop stop-color="#399780"/>
<stop offset="1" stop-color="#480E8B"/>
<stop offset="1" stop-color="#480E8B"/>
</linearGradient>
<linearGradient id="paint10_linear_94_1413" x1="1552.66" y1="1571.94" x2="1253.3" y2="2772.81" gradientUnits="userSpaceOnUse">
<stop stop-color="#399780"/>
<stop offset="1" stop-color="#480E8B"/>
<stop offset="1" stop-color="#480E8B"/>
</linearGradient>
<linearGradient id="paint11_linear_94_1413" x1="1560.34" y1="1543.13" x2="1260.98" y2="2744" gradientUnits="userSpaceOnUse">
<stop stop-color="#399780"/>
<stop offset="1" stop-color="#480E8B"/>
<stop offset="1" stop-color="#480E8B"/>
</linearGradient>
<linearGradient id="paint12_linear_94_1413" x1="1568.02" y1="1514.32" x2="1268.66" y2="2715.19" gradientUnits="userSpaceOnUse">
<stop stop-color="#399780"/>
<stop offset="1" stop-color="#480E8B"/>
<stop offset="1" stop-color="#480E8B"/>
</linearGradient>
<linearGradient id="paint13_linear_94_1413" x1="1575.69" y1="1485.51" x2="1276.34" y2="2686.38" gradientUnits="userSpaceOnUse">
<stop stop-color="#399780"/>
<stop offset="1" stop-color="#480E8B"/>
<stop offset="1" stop-color="#480E8B"/>
</linearGradient>
<linearGradient id="paint14_linear_94_1413" x1="1583.37" y1="1456.7" x2="1284.01" y2="2657.57" gradientUnits="userSpaceOnUse">
<stop stop-color="#399780"/>
<stop offset="1" stop-color="#480E8B"/>
<stop offset="1" stop-color="#480E8B"/>
</linearGradient>
<linearGradient id="paint15_linear_94_1413" x1="1591.05" y1="1427.89" x2="1291.69" y2="2628.76" gradientUnits="userSpaceOnUse">
<stop stop-color="#399780"/>
<stop offset="1" stop-color="#480E8B"/>
<stop offset="1" stop-color="#480E8B"/>
</linearGradient>
<linearGradient id="paint16_linear_94_1413" x1="1598.73" y1="1399.08" x2="1299.37" y2="2599.95" gradientUnits="userSpaceOnUse">
<stop stop-color="#399780"/>
<stop offset="1" stop-color="#480E8B"/>
<stop offset="1" stop-color="#480E8B"/>
</linearGradient>
<linearGradient id="paint17_linear_94_1413" x1="1606.4" y1="1370.27" x2="1307.04" y2="2571.14" gradientUnits="userSpaceOnUse">
<stop stop-color="#399780"/>
<stop offset="1" stop-color="#480E8B"/>
<stop offset="1" stop-color="#480E8B"/>
</linearGradient>
<linearGradient id="paint18_linear_94_1413" x1="1614.08" y1="1341.46" x2="1314.72" y2="2542.33" gradientUnits="userSpaceOnUse">
<stop stop-color="#399780"/>
<stop offset="1" stop-color="#480E8B"/>
<stop offset="1" stop-color="#480E8B"/>
</linearGradient>
<linearGradient id="paint19_linear_94_1413" x1="1621.76" y1="1312.65" x2="1322.4" y2="2513.52" gradientUnits="userSpaceOnUse">
<stop stop-color="#399780"/>
<stop offset="1" stop-color="#480E8B"/>
<stop offset="1" stop-color="#480E8B"/>
</linearGradient>
<linearGradient id="paint20_linear_94_1413" x1="1629.43" y1="1283.84" x2="1330.07" y2="2484.71" gradientUnits="userSpaceOnUse">
<stop stop-color="#399780"/>
<stop offset="1" stop-color="#480E8B"/>
<stop offset="1" stop-color="#480E8B"/>
</linearGradient>
<linearGradient id="paint21_linear_94_1413" x1="1637.11" y1="1255.03" x2="1337.75" y2="2455.9" gradientUnits="userSpaceOnUse">
<stop stop-color="#399780"/>
<stop offset="1" stop-color="#480E8B"/>
<stop offset="1" stop-color="#480E8B"/>
</linearGradient>
<linearGradient id="paint22_linear_94_1413" x1="1644.79" y1="1226.22" x2="1345.43" y2="2427.09" gradientUnits="userSpaceOnUse">
<stop stop-color="#399780"/>
<stop offset="1" stop-color="#480E8B"/>
<stop offset="1" stop-color="#480E8B"/>
</linearGradient>
<linearGradient id="paint23_linear_94_1413" x1="1652.46" y1="1197.41" x2="1353.11" y2="2398.28" gradientUnits="userSpaceOnUse">
<stop stop-color="#399780"/>
<stop offset="1" stop-color="#480E8B"/>
<stop offset="1" stop-color="#480E8B"/>
</linearGradient>
<linearGradient id="paint24_linear_94_1413" x1="1660.14" y1="1168.6" x2="1360.78" y2="2369.47" gradientUnits="userSpaceOnUse">
<stop stop-color="#399780"/>
<stop offset="1" stop-color="#480E8B"/>
<stop offset="1" stop-color="#480E8B"/>
</linearGradient>
<linearGradient id="paint25_linear_94_1413" x1="1667.82" y1="1139.79" x2="1368.46" y2="2340.66" gradientUnits="userSpaceOnUse">
<stop stop-color="#399780"/>
<stop offset="1" stop-color="#480E8B"/>
<stop offset="1" stop-color="#480E8B"/>
</linearGradient>
<linearGradient id="paint26_linear_94_1413" x1="1675.5" y1="1110.98" x2="1376.14" y2="2311.85" gradientUnits="userSpaceOnUse">
<stop stop-color="#399780"/>
<stop offset="1" stop-color="#480E8B"/>
<stop offset="1" stop-color="#480E8B"/>
</linearGradient>
<linearGradient id="paint27_linear_94_1413" x1="1683.18" y1="1082.17" x2="1383.82" y2="2283.04" gradientUnits="userSpaceOnUse">
<stop stop-color="#399780"/>
<stop offset="1" stop-color="#480E8B"/>
<stop offset="1" stop-color="#480E8B"/>
</linearGradient>
<linearGradient id="paint28_linear_94_1413" x1="1690.85" y1="1053.36" x2="1391.49" y2="2254.23" gradientUnits="userSpaceOnUse">
<stop stop-color="#399780"/>
<stop offset="1" stop-color="#480E8B"/>
<stop offset="1" stop-color="#480E8B"/>
</linearGradient>
<linearGradient id="paint29_linear_94_1413" x1="1698.53" y1="1024.55" x2="1399.17" y2="2225.42" gradientUnits="userSpaceOnUse">
<stop stop-color="#399780"/>
<stop offset="1" stop-color="#480E8B"/>
<stop offset="1" stop-color="#480E8B"/>
</linearGradient>
<linearGradient id="paint30_linear_94_1413" x1="1706.21" y1="995.736" x2="1406.85" y2="2196.61" gradientUnits="userSpaceOnUse">
<stop stop-color="#399780"/>
<stop offset="1" stop-color="#480E8B"/>
<stop offset="1" stop-color="#480E8B"/>
</linearGradient>
<linearGradient id="paint31_linear_94_1413" x1="1713.88" y1="966.925" x2="1414.52" y2="2167.79" gradientUnits="userSpaceOnUse">
<stop stop-color="#399780"/>
<stop offset="1" stop-color="#480E8B"/>
<stop offset="1" stop-color="#480E8B"/>
</linearGradient>
<linearGradient id="paint32_linear_94_1413" x1="1721.56" y1="938.116" x2="1422.2" y2="2138.98" gradientUnits="userSpaceOnUse">
<stop stop-color="#399780"/>
<stop offset="1" stop-color="#480E8B"/>
<stop offset="1" stop-color="#480E8B"/>
</linearGradient>
<linearGradient id="paint33_linear_94_1413" x1="1729.24" y1="909.306" x2="1429.88" y2="2110.18" gradientUnits="userSpaceOnUse">
<stop stop-color="#399780"/>
<stop offset="1" stop-color="#480E8B"/>
<stop offset="1" stop-color="#480E8B"/>
</linearGradient>
<linearGradient id="paint34_linear_94_1413" x1="1736.92" y1="880.496" x2="1437.56" y2="2081.36" gradientUnits="userSpaceOnUse">
<stop stop-color="#399780"/>
<stop offset="1" stop-color="#480E8B"/>
<stop offset="1" stop-color="#480E8B"/>
</linearGradient>
<linearGradient id="paint35_linear_94_1413" x1="1744.59" y1="851.686" x2="1445.23" y2="2052.55" gradientUnits="userSpaceOnUse">
<stop stop-color="#399780"/>
<stop offset="1" stop-color="#480E8B"/>
<stop offset="1" stop-color="#480E8B"/>
</linearGradient>
<linearGradient id="paint36_linear_94_1413" x1="1752.27" y1="822.876" x2="1452.91" y2="2023.74" gradientUnits="userSpaceOnUse">
<stop stop-color="#399780"/>
<stop offset="1" stop-color="#480E8B"/>
<stop offset="1" stop-color="#480E8B"/>
</linearGradient>
<linearGradient id="paint37_linear_94_1413" x1="1759.95" y1="794.065" x2="1460.59" y2="1994.93" gradientUnits="userSpaceOnUse">
<stop stop-color="#399780"/>
<stop offset="1" stop-color="#480E8B"/>
<stop offset="1" stop-color="#480E8B"/>
</linearGradient>
<linearGradient id="paint38_linear_94_1413" x1="1767.62" y1="765.255" x2="1468.26" y2="1966.12" gradientUnits="userSpaceOnUse">
<stop stop-color="#399780"/>
<stop offset="1" stop-color="#480E8B"/>
<stop offset="1" stop-color="#480E8B"/>
</linearGradient>
<linearGradient id="paint39_linear_94_1413" x1="1775.3" y1="736.446" x2="1475.94" y2="1937.32" gradientUnits="userSpaceOnUse">
<stop stop-color="#399780"/>
<stop offset="1" stop-color="#480E8B"/>
<stop offset="1" stop-color="#480E8B"/>
</linearGradient>
<linearGradient id="paint40_linear_94_1413" x1="1782.98" y1="707.636" x2="1483.62" y2="1908.5" gradientUnits="userSpaceOnUse">
<stop stop-color="#399780"/>
<stop offset="1" stop-color="#480E8B"/>
<stop offset="1" stop-color="#480E8B"/>
</linearGradient>
<linearGradient id="paint41_linear_94_1413" x1="1790.65" y1="678.825" x2="1491.29" y2="1879.69" gradientUnits="userSpaceOnUse">
<stop stop-color="#399780"/>
<stop offset="1" stop-color="#480E8B"/>
<stop offset="1" stop-color="#480E8B"/>
</linearGradient>
<linearGradient id="paint42_linear_94_1413" x1="1798.33" y1="650.016" x2="1498.97" y2="1850.88" gradientUnits="userSpaceOnUse">
<stop stop-color="#399780"/>
<stop offset="1" stop-color="#480E8B"/>
<stop offset="1" stop-color="#480E8B"/>
</linearGradient>
<linearGradient id="paint43_linear_94_1413" x1="1806.01" y1="621.206" x2="1506.65" y2="1822.08" gradientUnits="userSpaceOnUse">
<stop stop-color="#399780"/>
<stop offset="1" stop-color="#480E8B"/>
<stop offset="1" stop-color="#480E8B"/>
</linearGradient>
<linearGradient id="paint44_linear_94_1413" x1="1813.68" y1="592.396" x2="1514.32" y2="1793.27" gradientUnits="userSpaceOnUse">
<stop stop-color="#399780"/>
<stop offset="1" stop-color="#480E8B"/>
<stop offset="1" stop-color="#480E8B"/>
</linearGradient>
<linearGradient id="paint45_linear_94_1413" x1="1821.36" y1="563.585" x2="1522" y2="1764.45" gradientUnits="userSpaceOnUse">
<stop stop-color="#399780"/>
<stop offset="1" stop-color="#480E8B"/>
<stop offset="1" stop-color="#480E8B"/>
</linearGradient>
<linearGradient id="paint46_linear_94_1413" x1="1829.04" y1="534.775" x2="1529.68" y2="1735.64" gradientUnits="userSpaceOnUse">
<stop stop-color="#399780"/>
<stop offset="1" stop-color="#480E8B"/>
<stop offset="1" stop-color="#480E8B"/>
</linearGradient>
<linearGradient id="paint47_linear_94_1413" x1="1836.72" y1="505.966" x2="1537.36" y2="1706.84" gradientUnits="userSpaceOnUse">
<stop stop-color="#399780"/>
<stop offset="1" stop-color="#480E8B"/>
<stop offset="1" stop-color="#480E8B"/>
</linearGradient>
<linearGradient id="paint48_linear_94_1413" x1="1844.39" y1="477.156" x2="1545.04" y2="1678.02" gradientUnits="userSpaceOnUse">
<stop stop-color="#399780"/>
<stop offset="1" stop-color="#480E8B"/>
<stop offset="1" stop-color="#480E8B"/>
</linearGradient>
<linearGradient id="paint49_linear_94_1413" x1="1852.07" y1="448.346" x2="1552.71" y2="1649.22" gradientUnits="userSpaceOnUse">
<stop stop-color="#399780"/>
<stop offset="1" stop-color="#480E8B"/>
<stop offset="1" stop-color="#480E8B"/>
</linearGradient>
<linearGradient id="paint50_linear_94_1413" x1="1859.75" y1="419.536" x2="1560.39" y2="1620.4" gradientUnits="userSpaceOnUse">
<stop stop-color="#399780"/>
<stop offset="1" stop-color="#480E8B"/>
<stop offset="1" stop-color="#480E8B"/>
</linearGradient>
<linearGradient id="paint51_linear_94_1413" x1="1867.43" y1="390.727" x2="1568.07" y2="1591.6" gradientUnits="userSpaceOnUse">
<stop stop-color="#399780"/>
<stop offset="1" stop-color="#480E8B"/>
<stop offset="1" stop-color="#480E8B"/>
</linearGradient>
<linearGradient id="paint52_linear_94_1413" x1="1875.1" y1="361.916" x2="1575.74" y2="1562.78" gradientUnits="userSpaceOnUse">
<stop stop-color="#399780"/>
<stop offset="1" stop-color="#480E8B"/>
<stop offset="1" stop-color="#480E8B"/>
</linearGradient>
<linearGradient id="paint53_linear_94_1413" x1="1882.78" y1="333.105" x2="1583.42" y2="1533.97" gradientUnits="userSpaceOnUse">
<stop stop-color="#399780"/>
<stop offset="1" stop-color="#480E8B"/>
<stop offset="1" stop-color="#480E8B"/>
</linearGradient>
<linearGradient id="paint54_linear_94_1413" x1="1890.46" y1="304.294" x2="1591.1" y2="1505.16" gradientUnits="userSpaceOnUse">
<stop stop-color="#399780"/>
<stop offset="1" stop-color="#480E8B"/>
<stop offset="1" stop-color="#480E8B"/>
</linearGradient>
</defs>
</svg>
