<svg width="3090" height="3375" viewBox="0 0 3090 3375" fill="none" xmlns="http://www.w3.org/2000/svg">
<g opacity="0.5">
<path d="M16.6499 2774.56C178.148 2559.79 273.656 2512.45 446.539 2548.17C619.422 2583.9 679.017 2753 1045.99 2697.77C1412.97 2642.53 1261.4 2428.23 1838.32 2478.78C2299.86 2519.21 2577.22 2281.05 2658.2 2156.92" stroke="url(#paint0_linear_99_2647)" stroke-opacity="0.4" stroke-width="1.25"/>
<path d="M24.3256 2745.72C185.824 2530.95 281.332 2483.6 454.215 2519.33C627.097 2555.06 686.693 2724.16 1053.67 2668.93C1420.65 2613.69 1269.08 2399.39 1846 2449.93C2307.54 2490.37 2584.89 2252.21 2665.88 2128.08" stroke="url(#paint1_linear_99_2647)" stroke-opacity="0.4" stroke-width="1.25"/>
<path d="M32.0053 2716.88C193.504 2502.11 289.011 2454.77 461.894 2490.49C634.777 2526.22 694.372 2695.32 1061.35 2640.09C1428.33 2584.85 1276.75 2370.55 1853.68 2421.09C2315.22 2461.53 2592.57 2223.37 2673.56 2099.24" stroke="url(#paint2_linear_99_2647)" stroke-opacity="0.4" stroke-width="1.25"/>
<path d="M39.6811 2688.04C201.18 2473.27 296.687 2425.92 469.57 2461.65C642.453 2497.38 702.048 2666.48 1069.03 2611.24C1436 2556.01 1284.43 2341.71 1861.35 2392.25C2322.89 2432.69 2600.25 2194.53 2681.23 2070.4" stroke="url(#paint3_linear_99_2647)" stroke-opacity="0.4" stroke-width="1.25"/>
<path d="M47.3569 2659.2C208.855 2444.43 304.363 2397.08 477.246 2432.81C650.129 2468.54 709.724 2637.64 1076.7 2582.4C1443.68 2527.17 1292.11 2312.87 1869.03 2363.41C2330.57 2403.85 2607.92 2165.69 2688.91 2041.56" stroke="url(#paint4_linear_99_2647)" stroke-opacity="0.4" stroke-width="1.25"/>
<path d="M55.0366 2630.36C216.535 2415.59 312.043 2368.24 484.925 2403.97C657.808 2439.7 717.404 2608.8 1084.38 2553.56C1451.36 2498.33 1299.79 2284.03 1876.71 2334.57C2338.25 2375.01 2615.6 2136.85 2696.59 2012.72" stroke="url(#paint5_linear_99_2647)" stroke-opacity="0.4" stroke-width="1.25"/>
<path d="M62.7124 2601.52C224.211 2386.75 319.718 2339.4 492.601 2375.13C665.484 2410.86 725.079 2579.96 1092.06 2524.72C1459.03 2469.49 1307.46 2255.19 1884.38 2305.73C2345.92 2346.17 2623.28 2108.01 2704.26 1983.88" stroke="url(#paint6_linear_99_2647)" stroke-opacity="0.4" stroke-width="1.25"/>
<path d="M70.3881 2572.68C231.887 2357.91 327.394 2310.56 500.277 2346.29C673.16 2382.02 732.755 2551.12 1099.73 2495.88C1466.71 2440.65 1315.14 2226.35 1892.06 2276.89C2353.6 2317.33 2630.95 2079.17 2711.94 1955.04" stroke="url(#paint7_linear_99_2647)" stroke-opacity="0.4" stroke-width="1.25"/>
<path d="M78.0678 2543.84C239.566 2329.07 335.074 2281.72 507.957 2317.45C680.84 2353.18 740.435 2522.28 1107.41 2467.04C1474.39 2411.81 1322.82 2197.51 1899.74 2248.05C2361.28 2288.49 2638.63 2050.33 2719.62 1926.2" stroke="url(#paint8_linear_99_2647)" stroke-opacity="0.4" stroke-width="1.25"/>
<path d="M85.7436 2515C247.242 2300.23 342.75 2252.88 515.632 2288.61C688.515 2324.34 748.111 2493.44 1115.09 2438.2C1482.06 2382.97 1330.49 2168.67 1907.42 2219.21C2368.95 2259.64 2646.31 2021.49 2727.3 1897.35" stroke="url(#paint9_linear_99_2647)" stroke-opacity="0.4" stroke-width="1.25"/>
<path d="M93.4194 2486.16C254.918 2271.39 350.425 2224.04 523.308 2259.77C696.191 2295.5 755.786 2464.6 1122.76 2409.36C1489.74 2354.12 1338.17 2139.83 1915.09 2190.37C2376.63 2230.8 2653.99 1992.65 2734.97 1868.51" stroke="url(#paint10_linear_99_2647)" stroke-opacity="0.4" stroke-width="1.25"/>
<path d="M101.099 2457.32C262.598 2242.55 358.105 2195.2 530.988 2230.93C703.871 2266.66 763.466 2435.76 1130.44 2380.52C1497.42 2325.28 1345.85 2110.99 1922.77 2161.53C2384.31 2201.96 2661.67 1963.81 2742.65 1839.67" stroke="url(#paint11_linear_99_2647)" stroke-opacity="0.4" stroke-width="1.25"/>
<path d="M108.775 2428.48C270.273 2213.71 365.781 2166.36 538.664 2202.09C711.547 2237.82 771.142 2406.92 1138.12 2351.68C1505.1 2296.44 1353.52 2082.15 1930.45 2132.69C2391.99 2173.12 2669.34 1934.97 2750.33 1810.83" stroke="url(#paint12_linear_99_2647)" stroke-opacity="0.4" stroke-width="1.25"/>
<path d="M116.455 2399.64C277.953 2184.87 373.46 2137.52 546.343 2173.25C719.226 2208.97 778.822 2378.08 1145.8 2322.84C1512.78 2267.6 1361.2 2053.31 1938.13 2103.85C2399.67 2144.28 2677.02 1906.13 2758.01 1781.99" stroke="url(#paint13_linear_99_2647)" stroke-opacity="0.4" stroke-width="1.25"/>
<path d="M124.13 2370.8C285.629 2156.03 381.136 2108.68 554.019 2144.41C726.902 2180.13 786.497 2349.23 1153.47 2294C1520.45 2238.76 1368.88 2024.46 1945.8 2075.01C2407.34 2115.44 2684.7 1877.28 2765.68 1753.15" stroke="url(#paint14_linear_99_2647)" stroke-opacity="0.4" stroke-width="1.25"/>
<path d="M131.806 2341.96C293.305 2127.19 388.812 2079.84 561.695 2115.57C734.578 2151.29 794.173 2320.39 1161.15 2265.16C1528.13 2209.92 1376.56 1995.62 1953.48 2046.17C2415.02 2086.6 2692.37 1848.44 2773.36 1724.31" stroke="url(#paint15_linear_99_2647)" stroke-opacity="0.4" stroke-width="1.25"/>
<path d="M139.482 2313.12C300.98 2098.35 396.488 2051 569.371 2086.73C742.254 2122.45 801.849 2291.55 1168.83 2236.32C1535.8 2181.08 1384.23 1966.78 1961.15 2017.33C2422.69 2057.76 2700.05 1819.6 2781.03 1695.47" stroke="url(#paint16_linear_99_2647)" stroke-opacity="0.4" stroke-width="1.25"/>
<path d="M147.162 2284.28C308.66 2069.51 404.168 2022.16 577.05 2057.88C749.933 2093.61 809.529 2262.71 1176.51 2207.48C1543.48 2152.24 1391.91 1937.94 1968.83 1988.49C2430.37 2028.92 2707.73 1790.76 2788.71 1666.63" stroke="url(#paint17_linear_99_2647)" stroke-opacity="0.4" stroke-width="1.25"/>
<path d="M154.837 2255.43C316.336 2040.67 411.843 1993.32 584.726 2029.04C757.609 2064.77 817.204 2233.87 1184.18 2178.64C1551.16 2123.4 1399.59 1909.1 1976.51 1959.65C2438.05 2000.08 2715.4 1761.92 2796.39 1637.79" stroke="url(#paint18_linear_99_2647)" stroke-opacity="0.4" stroke-width="1.25"/>
<path d="M162.517 2226.59C324.016 2011.83 419.523 1964.48 592.406 2000.2C765.289 2035.93 824.884 2205.03 1191.86 2149.8C1558.84 2094.56 1407.27 1880.26 1984.19 1930.81C2445.73 1971.24 2723.08 1733.08 2804.07 1608.95" stroke="url(#paint19_linear_99_2647)" stroke-opacity="0.4" stroke-width="1.25"/>
<path d="M170.189 2197.75C331.687 1982.98 427.195 1935.63 600.078 1971.36C772.961 2007.09 832.556 2176.19 1199.53 2120.96C1566.51 2065.72 1414.94 1851.42 1991.86 1901.96C2453.4 1942.4 2730.76 1704.24 2811.74 1580.11" stroke="url(#paint20_linear_99_2647)" stroke-opacity="0.4" stroke-width="1.25"/>
<path d="M177.869 2168.91C339.367 1954.14 434.875 1906.8 607.757 1942.52C780.64 1978.25 840.236 2147.35 1207.21 2092.12C1574.19 2036.88 1422.62 1822.58 1999.54 1873.12C2461.08 1913.56 2738.44 1675.4 2819.42 1551.27" stroke="url(#paint21_linear_99_2647)" stroke-opacity="0.4" stroke-width="1.25"/>
<path d="M185.548 2140.07C347.047 1925.3 442.554 1877.95 615.437 1913.68C788.32 1949.41 847.915 2118.51 1214.89 2063.27C1581.87 2008.04 1430.3 1793.74 2007.22 1844.28C2468.76 1884.72 2746.11 1646.56 2827.1 1522.43" stroke="url(#paint22_linear_99_2647)" stroke-opacity="0.4" stroke-width="1.25"/>
<path d="M193.224 2111.23C354.723 1896.46 450.23 1849.11 623.113 1884.84C795.996 1920.57 855.591 2089.67 1222.57 2034.43C1589.55 1979.2 1437.97 1764.9 2014.9 1815.44C2476.44 1855.88 2753.79 1617.72 2834.78 1493.59" stroke="url(#paint23_linear_99_2647)" stroke-opacity="0.4" stroke-width="1.25"/>
<path d="M200.9 2082.39C362.398 1867.62 457.906 1820.27 630.789 1856C803.672 1891.73 863.267 2060.83 1230.24 2005.59C1597.22 1950.36 1445.65 1736.06 2022.57 1786.6C2484.11 1827.04 2761.47 1588.88 2842.45 1464.75" stroke="url(#paint24_linear_99_2647)" stroke-opacity="0.4" stroke-width="1.25"/>
<path d="M208.576 2053.55C370.074 1838.78 465.582 1791.43 638.465 1827.16C811.347 1862.89 870.943 2031.99 1237.92 1976.75C1604.9 1921.52 1453.33 1707.22 2030.25 1757.76C2491.79 1798.2 2769.14 1560.04 2850.13 1435.91" stroke="url(#paint25_linear_99_2647)" stroke-opacity="0.4" stroke-width="1.25"/>
<path d="M216.255 2024.71C377.754 1809.94 473.261 1762.59 646.144 1798.32C819.027 1834.05 878.622 2003.15 1245.6 1947.91C1612.58 1892.68 1461 1678.38 2037.93 1728.92C2499.47 1769.36 2776.82 1531.2 2857.81 1407.07" stroke="url(#paint26_linear_99_2647)" stroke-opacity="0.4" stroke-width="1.25"/>
<path d="M223.931 1995.87C385.43 1781.1 480.937 1733.75 653.82 1769.48C826.703 1805.21 886.298 1974.31 1253.28 1919.07C1620.25 1863.84 1468.68 1649.54 2045.6 1700.08C2507.14 1740.51 2784.5 1502.36 2865.48 1378.23" stroke="url(#paint27_linear_99_2647)" stroke-opacity="0.4" stroke-width="1.25"/>
<path d="M231.611 1967.03C393.109 1752.26 488.617 1704.91 661.5 1740.64C834.383 1776.37 893.978 1945.47 1260.95 1890.23C1627.93 1835 1476.36 1620.7 2053.28 1671.24C2514.82 1711.67 2792.18 1473.52 2873.16 1349.39" stroke="url(#paint28_linear_99_2647)" stroke-opacity="0.4" stroke-width="1.25"/>
<path d="M239.287 1938.19C400.785 1723.42 496.293 1676.07 669.175 1711.8C842.058 1747.53 901.654 1916.63 1268.63 1861.39C1635.61 1806.16 1484.04 1591.86 2060.96 1642.4C2522.5 1682.83 2799.85 1444.68 2880.84 1320.54" stroke="url(#paint29_linear_99_2647)" stroke-opacity="0.4" stroke-width="1.25"/>
<path d="M246.962 1909.35C408.461 1694.58 503.968 1647.23 676.851 1682.96C849.734 1718.69 909.329 1887.79 1276.31 1832.55C1643.28 1777.31 1491.71 1563.02 2068.63 1613.56C2530.17 1653.99 2807.53 1415.84 2888.51 1291.7" stroke="url(#paint30_linear_99_2647)" stroke-opacity="0.4" stroke-width="1.25"/>
<path d="M254.638 1880.51C416.137 1665.74 511.644 1618.39 684.527 1654.12C857.41 1689.85 917.005 1858.95 1283.98 1803.71C1650.96 1748.47 1499.39 1534.18 2076.31 1584.72C2537.85 1625.15 2815.2 1387 2896.19 1262.86" stroke="url(#paint31_linear_99_2647)" stroke-opacity="0.4" stroke-width="1.25"/>
<path d="M262.318 1851.67C423.816 1636.9 519.324 1589.55 692.207 1625.28C865.09 1661.01 924.685 1830.11 1291.66 1774.87C1658.64 1719.63 1507.07 1505.34 2083.99 1555.88C2545.53 1596.31 2822.88 1358.16 2903.87 1234.02" stroke="url(#paint32_linear_99_2647)" stroke-opacity="0.4" stroke-width="1.25"/>
<path d="M269.998 1822.83C431.496 1608.06 527.003 1560.71 699.886 1596.44C872.769 1632.16 932.365 1801.27 1299.34 1746.03C1666.32 1690.79 1514.75 1476.5 2091.67 1527.04C2553.21 1567.47 2830.56 1329.32 2911.55 1205.18" stroke="url(#paint33_linear_99_2647)" stroke-opacity="0.4" stroke-width="1.25"/>
<path d="M277.673 1793.99C439.172 1579.22 534.679 1531.87 707.562 1567.6C880.445 1603.32 940.04 1772.42 1307.02 1717.19C1673.99 1661.95 1522.42 1447.66 2099.35 1498.2C2560.88 1538.63 2838.24 1300.48 2919.23 1176.34" stroke="url(#paint34_linear_99_2647)" stroke-opacity="0.4" stroke-width="1.25"/>
<path d="M285.349 1765.15C446.848 1550.38 542.355 1503.03 715.238 1538.76C888.121 1574.48 947.716 1743.58 1314.69 1688.35C1681.67 1633.11 1530.1 1418.82 2107.02 1469.36C2568.56 1509.79 2845.92 1271.64 2926.9 1147.5" stroke="url(#paint35_linear_99_2647)" stroke-opacity="0.4" stroke-width="1.25"/>
<path d="M293.025 1736.31C454.523 1521.54 550.031 1474.19 722.914 1509.92C895.797 1545.64 955.392 1714.74 1322.37 1659.51C1689.35 1604.27 1537.77 1389.97 2114.7 1440.52C2576.24 1480.95 2853.59 1242.79 2934.58 1118.66" stroke="url(#paint36_linear_99_2647)" stroke-opacity="0.4" stroke-width="1.25"/>
<path d="M300.705 1707.47C462.203 1492.7 557.71 1445.35 730.593 1481.08C903.476 1516.8 963.072 1685.9 1330.05 1630.67C1697.03 1575.43 1545.45 1361.13 2122.38 1411.68C2583.92 1452.11 2861.27 1213.95 2942.26 1089.82" stroke="url(#paint37_linear_99_2647)" stroke-opacity="0.4" stroke-width="1.25"/>
<path d="M308.38 1678.63C469.879 1463.86 565.386 1416.51 738.269 1452.23C911.152 1487.96 970.747 1657.06 1337.72 1601.83C1704.7 1546.59 1553.13 1332.29 2130.05 1382.84C2591.59 1423.27 2868.95 1185.11 2949.93 1060.98" stroke="url(#paint38_linear_99_2647)" stroke-opacity="0.4" stroke-width="1.25"/>
<path d="M316.056 1649.79C477.555 1435.02 573.062 1387.67 745.945 1423.4C918.828 1459.12 978.423 1628.22 1345.4 1572.99C1712.38 1517.75 1560.81 1303.45 2137.73 1354C2599.27 1394.43 2876.62 1156.27 2957.61 1032.14" stroke="url(#paint39_linear_99_2647)" stroke-opacity="0.4" stroke-width="1.25"/>
<path d="M323.736 1620.95C485.234 1406.18 580.742 1358.83 753.625 1394.55C926.508 1430.28 986.103 1599.38 1353.08 1544.15C1720.06 1488.91 1568.49 1274.61 2145.41 1325.16C2606.95 1365.59 2884.3 1127.43 2965.29 1003.3" stroke="url(#paint40_linear_99_2647)" stroke-opacity="0.4" stroke-width="1.25"/>
<path d="M331.412 1592.1C492.91 1377.34 588.418 1329.99 761.3 1365.71C934.183 1401.44 993.779 1570.54 1360.76 1515.31C1727.73 1460.07 1576.16 1245.77 2153.08 1296.32C2614.62 1336.75 2891.98 1098.59 2972.96 974.46" stroke="url(#paint41_linear_99_2647)" stroke-opacity="0.4" stroke-width="1.25"/>
<path d="M339.087 1563.26C500.586 1348.5 596.093 1301.15 768.976 1336.87C941.859 1372.6 1001.45 1541.7 1368.43 1486.47C1735.41 1431.23 1583.84 1216.93 2160.76 1267.48C2622.3 1307.91 2899.65 1069.75 2980.64 945.62" stroke="url(#paint42_linear_99_2647)" stroke-opacity="0.4" stroke-width="1.25"/>
<path d="M346.767 1534.42C508.266 1319.66 603.773 1272.31 776.656 1308.03C949.539 1343.76 1009.13 1512.86 1376.11 1457.63C1743.09 1402.39 1591.52 1188.09 2168.44 1238.64C2629.98 1279.07 2907.33 1040.91 2988.32 916.78" stroke="url(#paint43_linear_99_2647)" stroke-opacity="0.4" stroke-width="1.25"/>
<path d="M354.443 1505.58C515.941 1290.81 611.449 1243.47 784.332 1279.19C957.215 1314.92 1016.81 1484.02 1383.79 1428.79C1750.76 1373.55 1599.19 1159.25 2176.12 1209.8C2637.65 1250.23 2915.01 1012.07 2995.99 887.939" stroke="url(#paint44_linear_99_2647)" stroke-opacity="0.4" stroke-width="1.25"/>
<path d="M362.119 1476.74C523.617 1261.97 619.125 1214.63 792.007 1250.35C964.89 1286.08 1024.49 1455.18 1391.46 1399.95C1758.44 1344.71 1606.87 1130.41 2183.79 1180.95C2645.33 1221.39 2922.69 983.231 3003.67 859.099" stroke="url(#paint45_linear_99_2647)" stroke-opacity="0.4" stroke-width="1.25"/>
<path d="M369.794 1447.9C531.293 1233.13 626.8 1185.78 799.683 1221.51C972.566 1257.24 1032.16 1426.34 1399.14 1371.11C1766.12 1315.87 1614.54 1101.57 2191.47 1152.11C2653.01 1192.55 2930.36 954.391 3011.35 830.258" stroke="url(#paint46_linear_99_2647)" stroke-opacity="0.4" stroke-width="1.25"/>
<path d="M377.474 1419.06C538.973 1204.29 634.48 1156.95 807.363 1192.67C980.246 1228.4 1039.84 1397.5 1406.82 1342.27C1773.8 1287.03 1622.22 1072.73 2199.15 1123.27C2660.69 1163.71 2938.04 925.552 3019.03 801.419" stroke="url(#paint47_linear_99_2647)" stroke-opacity="0.4" stroke-width="1.25"/>
<path d="M385.15 1390.22C546.648 1175.45 642.156 1128.1 815.039 1163.83C987.922 1199.56 1047.52 1368.66 1414.49 1313.42C1781.47 1258.19 1629.9 1043.89 2206.82 1094.43C2668.36 1134.87 2945.72 896.711 3026.7 772.578" stroke="url(#paint48_linear_99_2647)" stroke-opacity="0.4" stroke-width="1.25"/>
<path d="M392.83 1361.38C554.328 1146.61 649.835 1099.26 822.718 1134.99C995.601 1170.72 1055.2 1339.82 1422.17 1284.59C1789.15 1229.35 1637.58 1015.05 2214.5 1065.59C2676.04 1106.03 2953.4 867.871 3034.38 743.738" stroke="url(#paint49_linear_99_2647)" stroke-opacity="0.4" stroke-width="1.25"/>
<path d="M400.505 1332.54C562.004 1117.77 657.511 1070.42 830.394 1106.15C1003.28 1141.88 1062.87 1310.98 1429.85 1255.74C1796.83 1200.51 1645.25 986.21 2222.18 1036.75C2683.72 1077.19 2961.07 839.03 3042.06 714.897" stroke="url(#paint50_linear_99_2647)" stroke-opacity="0.4" stroke-width="1.25"/>
<path d="M408.185 1303.7C569.684 1088.93 665.191 1041.58 838.074 1077.31C1010.96 1113.04 1070.55 1282.14 1437.53 1226.9C1804.51 1171.67 1652.93 957.371 2229.86 1007.91C2691.4 1048.35 2968.75 810.191 3049.74 686.058" stroke="url(#paint51_linear_99_2647)" stroke-opacity="0.4" stroke-width="1.25"/>
<path d="M415.861 1274.86C577.359 1060.09 672.867 1012.74 845.75 1048.47C1018.63 1084.2 1078.23 1253.3 1445.2 1198.06C1812.18 1142.83 1660.61 928.529 2237.53 979.072C2699.07 1019.51 2976.43 781.349 3057.41 657.216" stroke="url(#paint52_linear_99_2647)" stroke-opacity="0.4" stroke-width="1.25"/>
<path d="M423.537 1246.02C585.035 1031.25 680.543 983.902 853.425 1019.63C1026.31 1055.36 1085.9 1224.46 1452.88 1169.22C1819.86 1113.99 1668.29 899.688 2245.21 950.231C2706.75 990.665 2984.1 752.508 3065.09 628.376" stroke="url(#paint53_linear_99_2647)" stroke-opacity="0.4" stroke-width="1.25"/>
<path d="M431.212 1217.18C592.711 1002.41 688.218 955.061 861.101 990.789C1033.98 1026.52 1093.58 1195.62 1460.56 1140.38C1827.53 1085.15 1675.96 870.848 2252.88 921.39C2714.42 961.824 2991.78 723.667 3072.76 599.535" stroke="url(#paint54_linear_99_2647)" stroke-opacity="0.4" stroke-width="1.25"/>
</g>
<defs>
<linearGradient id="paint0_linear_99_2647" x1="1476.05" y1="1861.92" x2="1176.09" y2="3063.9" gradientUnits="userSpaceOnUse">
<stop stop-color="#399780"/>
<stop offset="1" stop-color="#480E8B"/>
<stop offset="1" stop-color="#480E8B"/>
</linearGradient>
<linearGradient id="paint1_linear_99_2647" x1="1483.72" y1="1833.07" x2="1183.77" y2="3035.06" gradientUnits="userSpaceOnUse">
<stop stop-color="#399780"/>
<stop offset="1" stop-color="#480E8B"/>
<stop offset="1" stop-color="#480E8B"/>
</linearGradient>
<linearGradient id="paint2_linear_99_2647" x1="1491.4" y1="1804.24" x2="1191.45" y2="3006.22" gradientUnits="userSpaceOnUse">
<stop stop-color="#399780"/>
<stop offset="1" stop-color="#480E8B"/>
<stop offset="1" stop-color="#480E8B"/>
</linearGradient>
<linearGradient id="paint3_linear_99_2647" x1="1499.08" y1="1775.39" x2="1199.12" y2="2977.38" gradientUnits="userSpaceOnUse">
<stop stop-color="#399780"/>
<stop offset="1" stop-color="#480E8B"/>
<stop offset="1" stop-color="#480E8B"/>
</linearGradient>
<linearGradient id="paint4_linear_99_2647" x1="1506.75" y1="1746.55" x2="1206.8" y2="2948.54" gradientUnits="userSpaceOnUse">
<stop stop-color="#399780"/>
<stop offset="1" stop-color="#480E8B"/>
<stop offset="1" stop-color="#480E8B"/>
</linearGradient>
<linearGradient id="paint5_linear_99_2647" x1="1514.43" y1="1717.71" x2="1214.48" y2="2919.7" gradientUnits="userSpaceOnUse">
<stop stop-color="#399780"/>
<stop offset="1" stop-color="#480E8B"/>
<stop offset="1" stop-color="#480E8B"/>
</linearGradient>
<linearGradient id="paint6_linear_99_2647" x1="1522.11" y1="1688.87" x2="1222.16" y2="2890.86" gradientUnits="userSpaceOnUse">
<stop stop-color="#399780"/>
<stop offset="1" stop-color="#480E8B"/>
<stop offset="1" stop-color="#480E8B"/>
</linearGradient>
<linearGradient id="paint7_linear_99_2647" x1="1529.78" y1="1660.03" x2="1229.83" y2="2862.02" gradientUnits="userSpaceOnUse">
<stop stop-color="#399780"/>
<stop offset="1" stop-color="#480E8B"/>
<stop offset="1" stop-color="#480E8B"/>
</linearGradient>
<linearGradient id="paint8_linear_99_2647" x1="1537.46" y1="1631.19" x2="1237.51" y2="2833.18" gradientUnits="userSpaceOnUse">
<stop stop-color="#399780"/>
<stop offset="1" stop-color="#480E8B"/>
<stop offset="1" stop-color="#480E8B"/>
</linearGradient>
<linearGradient id="paint9_linear_99_2647" x1="1545.14" y1="1602.35" x2="1245.19" y2="2804.34" gradientUnits="userSpaceOnUse">
<stop stop-color="#399780"/>
<stop offset="1" stop-color="#480E8B"/>
<stop offset="1" stop-color="#480E8B"/>
</linearGradient>
<linearGradient id="paint10_linear_99_2647" x1="1552.82" y1="1573.51" x2="1252.86" y2="2775.49" gradientUnits="userSpaceOnUse">
<stop stop-color="#399780"/>
<stop offset="1" stop-color="#480E8B"/>
<stop offset="1" stop-color="#480E8B"/>
</linearGradient>
<linearGradient id="paint11_linear_99_2647" x1="1560.5" y1="1544.67" x2="1260.54" y2="2746.65" gradientUnits="userSpaceOnUse">
<stop stop-color="#399780"/>
<stop offset="1" stop-color="#480E8B"/>
<stop offset="1" stop-color="#480E8B"/>
</linearGradient>
<linearGradient id="paint12_linear_99_2647" x1="1568.17" y1="1515.83" x2="1268.22" y2="2717.81" gradientUnits="userSpaceOnUse">
<stop stop-color="#399780"/>
<stop offset="1" stop-color="#480E8B"/>
<stop offset="1" stop-color="#480E8B"/>
</linearGradient>
<linearGradient id="paint13_linear_99_2647" x1="1575.85" y1="1486.99" x2="1275.9" y2="2688.97" gradientUnits="userSpaceOnUse">
<stop stop-color="#399780"/>
<stop offset="1" stop-color="#480E8B"/>
<stop offset="1" stop-color="#480E8B"/>
</linearGradient>
<linearGradient id="paint14_linear_99_2647" x1="1583.53" y1="1458.15" x2="1283.57" y2="2660.13" gradientUnits="userSpaceOnUse">
<stop stop-color="#399780"/>
<stop offset="1" stop-color="#480E8B"/>
<stop offset="1" stop-color="#480E8B"/>
</linearGradient>
<linearGradient id="paint15_linear_99_2647" x1="1591.2" y1="1429.31" x2="1291.25" y2="2631.29" gradientUnits="userSpaceOnUse">
<stop stop-color="#399780"/>
<stop offset="1" stop-color="#480E8B"/>
<stop offset="1" stop-color="#480E8B"/>
</linearGradient>
<linearGradient id="paint16_linear_99_2647" x1="1598.88" y1="1400.47" x2="1298.93" y2="2602.45" gradientUnits="userSpaceOnUse">
<stop stop-color="#399780"/>
<stop offset="1" stop-color="#480E8B"/>
<stop offset="1" stop-color="#480E8B"/>
</linearGradient>
<linearGradient id="paint17_linear_99_2647" x1="1606.56" y1="1371.63" x2="1306.61" y2="2573.61" gradientUnits="userSpaceOnUse">
<stop stop-color="#399780"/>
<stop offset="1" stop-color="#480E8B"/>
<stop offset="1" stop-color="#480E8B"/>
</linearGradient>
<linearGradient id="paint18_linear_99_2647" x1="1614.23" y1="1342.79" x2="1314.28" y2="2544.77" gradientUnits="userSpaceOnUse">
<stop stop-color="#399780"/>
<stop offset="1" stop-color="#480E8B"/>
<stop offset="1" stop-color="#480E8B"/>
</linearGradient>
<linearGradient id="paint19_linear_99_2647" x1="1621.91" y1="1313.95" x2="1321.96" y2="2515.93" gradientUnits="userSpaceOnUse">
<stop stop-color="#399780"/>
<stop offset="1" stop-color="#480E8B"/>
<stop offset="1" stop-color="#480E8B"/>
</linearGradient>
<linearGradient id="paint20_linear_99_2647" x1="1629.59" y1="1285.1" x2="1329.63" y2="2487.09" gradientUnits="userSpaceOnUse">
<stop stop-color="#399780"/>
<stop offset="1" stop-color="#480E8B"/>
<stop offset="1" stop-color="#480E8B"/>
</linearGradient>
<linearGradient id="paint21_linear_99_2647" x1="1637.27" y1="1256.26" x2="1337.31" y2="2458.25" gradientUnits="userSpaceOnUse">
<stop stop-color="#399780"/>
<stop offset="1" stop-color="#480E8B"/>
<stop offset="1" stop-color="#480E8B"/>
</linearGradient>
<linearGradient id="paint22_linear_99_2647" x1="1644.94" y1="1227.42" x2="1344.99" y2="2429.41" gradientUnits="userSpaceOnUse">
<stop stop-color="#399780"/>
<stop offset="1" stop-color="#480E8B"/>
<stop offset="1" stop-color="#480E8B"/>
</linearGradient>
<linearGradient id="paint23_linear_99_2647" x1="1652.62" y1="1198.58" x2="1352.67" y2="2400.57" gradientUnits="userSpaceOnUse">
<stop stop-color="#399780"/>
<stop offset="1" stop-color="#480E8B"/>
<stop offset="1" stop-color="#480E8B"/>
</linearGradient>
<linearGradient id="paint24_linear_99_2647" x1="1660.3" y1="1169.74" x2="1360.34" y2="2371.73" gradientUnits="userSpaceOnUse">
<stop stop-color="#399780"/>
<stop offset="1" stop-color="#480E8B"/>
<stop offset="1" stop-color="#480E8B"/>
</linearGradient>
<linearGradient id="paint25_linear_99_2647" x1="1667.97" y1="1140.9" x2="1368.02" y2="2342.89" gradientUnits="userSpaceOnUse">
<stop stop-color="#399780"/>
<stop offset="1" stop-color="#480E8B"/>
<stop offset="1" stop-color="#480E8B"/>
</linearGradient>
<linearGradient id="paint26_linear_99_2647" x1="1675.65" y1="1112.06" x2="1375.7" y2="2314.05" gradientUnits="userSpaceOnUse">
<stop stop-color="#399780"/>
<stop offset="1" stop-color="#480E8B"/>
<stop offset="1" stop-color="#480E8B"/>
</linearGradient>
<linearGradient id="paint27_linear_99_2647" x1="1683.33" y1="1083.22" x2="1383.37" y2="2285.21" gradientUnits="userSpaceOnUse">
<stop stop-color="#399780"/>
<stop offset="1" stop-color="#480E8B"/>
<stop offset="1" stop-color="#480E8B"/>
</linearGradient>
<linearGradient id="paint28_linear_99_2647" x1="1691.01" y1="1054.38" x2="1391.05" y2="2256.37" gradientUnits="userSpaceOnUse">
<stop stop-color="#399780"/>
<stop offset="1" stop-color="#480E8B"/>
<stop offset="1" stop-color="#480E8B"/>
</linearGradient>
<linearGradient id="paint29_linear_99_2647" x1="1698.68" y1="1025.54" x2="1398.73" y2="2227.53" gradientUnits="userSpaceOnUse">
<stop stop-color="#399780"/>
<stop offset="1" stop-color="#480E8B"/>
<stop offset="1" stop-color="#480E8B"/>
</linearGradient>
<linearGradient id="paint30_linear_99_2647" x1="1706.36" y1="996.7" x2="1406.41" y2="2198.69" gradientUnits="userSpaceOnUse">
<stop stop-color="#399780"/>
<stop offset="1" stop-color="#480E8B"/>
<stop offset="1" stop-color="#480E8B"/>
</linearGradient>
<linearGradient id="paint31_linear_99_2647" x1="1714.03" y1="967.859" x2="1414.08" y2="2169.84" gradientUnits="userSpaceOnUse">
<stop stop-color="#399780"/>
<stop offset="1" stop-color="#480E8B"/>
<stop offset="1" stop-color="#480E8B"/>
</linearGradient>
<linearGradient id="paint32_linear_99_2647" x1="1721.71" y1="939.019" x2="1421.76" y2="2141" gradientUnits="userSpaceOnUse">
<stop stop-color="#399780"/>
<stop offset="1" stop-color="#480E8B"/>
<stop offset="1" stop-color="#480E8B"/>
</linearGradient>
<linearGradient id="paint33_linear_99_2647" x1="1729.39" y1="910.179" x2="1429.44" y2="2112.16" gradientUnits="userSpaceOnUse">
<stop stop-color="#399780"/>
<stop offset="1" stop-color="#480E8B"/>
<stop offset="1" stop-color="#480E8B"/>
</linearGradient>
<linearGradient id="paint34_linear_99_2647" x1="1737.07" y1="881.338" x2="1437.12" y2="2083.32" gradientUnits="userSpaceOnUse">
<stop stop-color="#399780"/>
<stop offset="1" stop-color="#480E8B"/>
<stop offset="1" stop-color="#480E8B"/>
</linearGradient>
<linearGradient id="paint35_linear_99_2647" x1="1744.75" y1="852.498" x2="1444.79" y2="2054.48" gradientUnits="userSpaceOnUse">
<stop stop-color="#399780"/>
<stop offset="1" stop-color="#480E8B"/>
<stop offset="1" stop-color="#480E8B"/>
</linearGradient>
<linearGradient id="paint36_linear_99_2647" x1="1752.42" y1="823.657" x2="1452.47" y2="2025.64" gradientUnits="userSpaceOnUse">
<stop stop-color="#399780"/>
<stop offset="1" stop-color="#480E8B"/>
<stop offset="1" stop-color="#480E8B"/>
</linearGradient>
<linearGradient id="paint37_linear_99_2647" x1="1760.1" y1="794.817" x2="1460.15" y2="1996.8" gradientUnits="userSpaceOnUse">
<stop stop-color="#399780"/>
<stop offset="1" stop-color="#480E8B"/>
<stop offset="1" stop-color="#480E8B"/>
</linearGradient>
<linearGradient id="paint38_linear_99_2647" x1="1767.78" y1="765.976" x2="1467.82" y2="1967.96" gradientUnits="userSpaceOnUse">
<stop stop-color="#399780"/>
<stop offset="1" stop-color="#480E8B"/>
<stop offset="1" stop-color="#480E8B"/>
</linearGradient>
<linearGradient id="paint39_linear_99_2647" x1="1775.45" y1="737.137" x2="1475.5" y2="1939.12" gradientUnits="userSpaceOnUse">
<stop stop-color="#399780"/>
<stop offset="1" stop-color="#480E8B"/>
<stop offset="1" stop-color="#480E8B"/>
</linearGradient>
<linearGradient id="paint40_linear_99_2647" x1="1783.13" y1="708.297" x2="1483.18" y2="1910.28" gradientUnits="userSpaceOnUse">
<stop stop-color="#399780"/>
<stop offset="1" stop-color="#480E8B"/>
<stop offset="1" stop-color="#480E8B"/>
</linearGradient>
<linearGradient id="paint41_linear_99_2647" x1="1790.81" y1="679.456" x2="1490.86" y2="1881.44" gradientUnits="userSpaceOnUse">
<stop stop-color="#399780"/>
<stop offset="1" stop-color="#480E8B"/>
<stop offset="1" stop-color="#480E8B"/>
</linearGradient>
<linearGradient id="paint42_linear_99_2647" x1="1798.48" y1="650.616" x2="1498.53" y2="1852.6" gradientUnits="userSpaceOnUse">
<stop stop-color="#399780"/>
<stop offset="1" stop-color="#480E8B"/>
<stop offset="1" stop-color="#480E8B"/>
</linearGradient>
<linearGradient id="paint43_linear_99_2647" x1="1806.16" y1="621.776" x2="1506.21" y2="1823.76" gradientUnits="userSpaceOnUse">
<stop stop-color="#399780"/>
<stop offset="1" stop-color="#480E8B"/>
<stop offset="1" stop-color="#480E8B"/>
</linearGradient>
<linearGradient id="paint44_linear_99_2647" x1="1813.84" y1="592.935" x2="1513.89" y2="1794.92" gradientUnits="userSpaceOnUse">
<stop stop-color="#399780"/>
<stop offset="1" stop-color="#480E8B"/>
<stop offset="1" stop-color="#480E8B"/>
</linearGradient>
<linearGradient id="paint45_linear_99_2647" x1="1821.52" y1="564.094" x2="1521.56" y2="1766.08" gradientUnits="userSpaceOnUse">
<stop stop-color="#399780"/>
<stop offset="1" stop-color="#480E8B"/>
<stop offset="1" stop-color="#480E8B"/>
</linearGradient>
<linearGradient id="paint46_linear_99_2647" x1="1829.19" y1="535.254" x2="1529.24" y2="1737.24" gradientUnits="userSpaceOnUse">
<stop stop-color="#399780"/>
<stop offset="1" stop-color="#480E8B"/>
<stop offset="1" stop-color="#480E8B"/>
</linearGradient>
<linearGradient id="paint47_linear_99_2647" x1="1836.87" y1="506.415" x2="1536.92" y2="1708.4" gradientUnits="userSpaceOnUse">
<stop stop-color="#399780"/>
<stop offset="1" stop-color="#480E8B"/>
<stop offset="1" stop-color="#480E8B"/>
</linearGradient>
<linearGradient id="paint48_linear_99_2647" x1="1844.55" y1="477.574" x2="1544.59" y2="1679.56" gradientUnits="userSpaceOnUse">
<stop stop-color="#399780"/>
<stop offset="1" stop-color="#480E8B"/>
<stop offset="1" stop-color="#480E8B"/>
</linearGradient>
<linearGradient id="paint49_linear_99_2647" x1="1852.23" y1="448.734" x2="1552.27" y2="1650.72" gradientUnits="userSpaceOnUse">
<stop stop-color="#399780"/>
<stop offset="1" stop-color="#480E8B"/>
<stop offset="1" stop-color="#480E8B"/>
</linearGradient>
<linearGradient id="paint50_linear_99_2647" x1="1859.9" y1="419.893" x2="1559.95" y2="1621.88" gradientUnits="userSpaceOnUse">
<stop stop-color="#399780"/>
<stop offset="1" stop-color="#480E8B"/>
<stop offset="1" stop-color="#480E8B"/>
</linearGradient>
<linearGradient id="paint51_linear_99_2647" x1="1867.58" y1="391.054" x2="1567.63" y2="1593.04" gradientUnits="userSpaceOnUse">
<stop stop-color="#399780"/>
<stop offset="1" stop-color="#480E8B"/>
<stop offset="1" stop-color="#480E8B"/>
</linearGradient>
<linearGradient id="paint52_linear_99_2647" x1="1875.26" y1="362.212" x2="1575.3" y2="1564.2" gradientUnits="userSpaceOnUse">
<stop stop-color="#399780"/>
<stop offset="1" stop-color="#480E8B"/>
<stop offset="1" stop-color="#480E8B"/>
</linearGradient>
<linearGradient id="paint53_linear_99_2647" x1="1882.93" y1="333.371" x2="1582.98" y2="1535.36" gradientUnits="userSpaceOnUse">
<stop stop-color="#399780"/>
<stop offset="1" stop-color="#480E8B"/>
<stop offset="1" stop-color="#480E8B"/>
</linearGradient>
<linearGradient id="paint54_linear_99_2647" x1="1890.61" y1="304.531" x2="1590.66" y2="1506.52" gradientUnits="userSpaceOnUse">
<stop stop-color="#399780"/>
<stop offset="1" stop-color="#480E8B"/>
<stop offset="1" stop-color="#480E8B"/>
</linearGradient>
</defs>
</svg>
