<svg width="3090" height="3375" viewBox="0 0 3090 3375" fill="none" xmlns="http://www.w3.org/2000/svg">
<g opacity="0.5">
<path d="M16.7651 2774.98C178.264 2560.21 273.771 2512.86 446.654 2548.59C619.537 2584.32 679.132 2753.42 1046.11 2698.18C1413.09 2642.94 1261.51 2428.65 1838.44 2479.19C2299.98 2519.62 2577.33 2281.47 2658.32 2157.33" stroke="url(#paint0_linear_99_2715)" stroke-opacity="0.4" stroke-width="1.25"/>
<path d="M24.4409 2746.14C185.939 2531.37 281.447 2484.02 454.33 2519.75C627.213 2555.47 686.808 2724.57 1053.79 2669.34C1420.76 2614.1 1269.19 2399.8 1846.11 2450.35C2307.65 2490.78 2585.01 2252.62 2665.99 2128.49" stroke="url(#paint1_linear_99_2715)" stroke-opacity="0.4" stroke-width="1.25"/>
<path d="M32.1206 2717.3C193.619 2502.53 289.126 2455.18 462.009 2490.91C634.892 2526.63 694.488 2695.73 1061.46 2640.5C1428.44 2585.26 1276.87 2370.96 1853.79 2421.51C2315.33 2461.94 2592.69 2223.78 2673.67 2099.65" stroke="url(#paint2_linear_99_2715)" stroke-opacity="0.4" stroke-width="1.25"/>
<path d="M39.7944 2688.46C201.293 2473.69 296.8 2426.34 469.683 2462.07C642.566 2497.79 702.161 2666.89 1069.14 2611.66C1436.12 2556.42 1284.54 2342.12 1861.47 2392.67C2323.01 2433.1 2600.36 2194.94 2681.35 2070.81" stroke="url(#paint3_linear_99_2715)" stroke-opacity="0.4" stroke-width="1.25"/>
<path d="M47.4721 2659.62C208.971 2444.85 304.478 2397.5 477.361 2433.23C650.244 2468.95 709.839 2638.05 1076.82 2582.82C1443.79 2527.58 1292.22 2313.28 1869.14 2363.83C2330.68 2404.26 2608.04 2166.1 2689.02 2041.97" stroke="url(#paint4_linear_99_2715)" stroke-opacity="0.4" stroke-width="1.25"/>
<path d="M55.1499 2630.78C216.648 2416.01 312.156 2368.66 485.039 2404.38C657.922 2440.11 717.517 2609.21 1084.49 2553.98C1451.47 2498.74 1299.9 2284.44 1876.82 2334.99C2338.36 2375.42 2615.72 2137.26 2696.7 2013.13" stroke="url(#paint5_linear_99_2715)" stroke-opacity="0.4" stroke-width="1.25"/>
<path d="M62.8276 2601.93C224.326 2387.16 319.834 2339.82 492.716 2375.54C665.599 2411.27 725.195 2580.37 1092.17 2525.14C1459.15 2469.9 1307.58 2255.6 1884.5 2306.15C2346.04 2346.58 2623.39 2108.42 2704.38 1984.29" stroke="url(#paint6_linear_99_2715)" stroke-opacity="0.4" stroke-width="1.25"/>
<path d="M70.5034 2573.09C232.002 2358.32 327.509 2310.98 500.392 2346.7C673.275 2382.43 732.87 2551.53 1099.85 2496.3C1466.82 2441.06 1315.25 2226.76 1892.18 2277.3C2353.71 2317.74 2631.07 2079.58 2712.06 1955.45" stroke="url(#paint7_linear_99_2715)" stroke-opacity="0.4" stroke-width="1.25"/>
<path d="M78.1811 2544.25C239.68 2329.48 335.187 2282.14 508.07 2317.86C680.953 2353.59 740.548 2522.69 1107.53 2467.46C1474.5 2412.22 1322.93 2197.92 1899.85 2248.46C2361.39 2288.9 2638.75 2050.74 2719.73 1926.61" stroke="url(#paint8_linear_99_2715)" stroke-opacity="0.4" stroke-width="1.25"/>
<path d="M85.8569 2515.41C247.355 2300.64 342.863 2253.29 515.746 2289.02C688.629 2324.75 748.224 2493.85 1115.2 2438.61C1482.18 2383.38 1330.61 2169.08 1907.53 2219.62C2369.07 2260.06 2646.42 2021.9 2727.41 1897.77" stroke="url(#paint9_linear_99_2715)" stroke-opacity="0.4" stroke-width="1.25"/>
<path d="M93.5327 2486.57C255.031 2271.8 350.539 2224.45 523.422 2260.18C696.304 2295.91 755.9 2465.01 1122.88 2409.77C1489.85 2354.54 1338.28 2140.24 1915.21 2190.78C2376.74 2231.22 2654.1 1993.06 2735.08 1868.93" stroke="url(#paint10_linear_99_2715)" stroke-opacity="0.4" stroke-width="1.25"/>
<path d="M101.212 2457.73C262.711 2242.96 358.218 2195.61 531.101 2231.34C703.984 2267.07 763.579 2436.17 1130.56 2380.93C1497.53 2325.7 1345.96 2111.4 1922.88 2161.94C2384.42 2202.38 2661.78 1964.22 2742.76 1840.09" stroke="url(#paint11_linear_99_2715)" stroke-opacity="0.4" stroke-width="1.25"/>
<path d="M108.888 2428.89C270.387 2214.12 365.894 2166.77 538.777 2202.5C711.66 2238.23 771.255 2407.33 1138.23 2352.09C1505.21 2296.86 1353.64 2082.56 1930.56 2133.1C2392.1 2173.54 2669.45 1935.38 2750.44 1811.25" stroke="url(#paint12_linear_99_2715)" stroke-opacity="0.4" stroke-width="1.25"/>
<path d="M116.568 2400.05C278.066 2185.28 373.574 2137.93 546.457 2173.66C719.34 2209.39 778.935 2378.49 1145.91 2323.25C1512.89 2268.02 1361.32 2053.72 1938.24 2104.26C2399.78 2144.7 2677.13 1906.54 2758.12 1782.41" stroke="url(#paint13_linear_99_2715)" stroke-opacity="0.4" stroke-width="1.25"/>
<path d="M124.244 2371.21C285.742 2156.44 381.25 2109.09 554.132 2144.82C727.015 2180.55 786.611 2349.65 1153.59 2294.41C1520.56 2239.18 1368.99 2024.88 1945.92 2075.42C2407.45 2115.85 2684.81 1877.7 2765.8 1753.56" stroke="url(#paint14_linear_99_2715)" stroke-opacity="0.4" stroke-width="1.25"/>
<path d="M131.919 2342.37C293.418 2127.6 388.925 2080.25 561.808 2115.98C734.691 2151.71 794.286 2320.81 1161.26 2265.57C1528.24 2210.34 1376.67 1996.04 1953.59 2046.58C2415.13 2087.01 2692.49 1848.86 2773.47 1724.73" stroke="url(#paint15_linear_99_2715)" stroke-opacity="0.4" stroke-width="1.25"/>
<path d="M139.595 2313.53C301.094 2098.76 396.601 2051.41 569.484 2087.14C742.367 2122.87 801.962 2291.97 1168.94 2236.73C1535.92 2181.5 1384.34 1967.2 1961.27 2017.74C2422.81 2058.17 2700.16 1820.02 2781.15 1695.88" stroke="url(#paint16_linear_99_2715)" stroke-opacity="0.4" stroke-width="1.25"/>
<path d="M147.275 2284.69C308.773 2069.92 404.281 2022.57 577.164 2058.3C750.047 2094.03 809.642 2263.13 1176.62 2207.89C1543.6 2152.66 1392.02 1938.36 1968.95 1988.9C2430.49 2029.33 2707.84 1791.18 2788.83 1667.04" stroke="url(#paint17_linear_99_2715)" stroke-opacity="0.4" stroke-width="1.25"/>
<path d="M154.951 2255.85C316.449 2041.08 411.957 1993.73 584.84 2029.46C757.722 2065.19 817.318 2234.29 1184.29 2179.05C1551.27 2123.81 1399.7 1909.52 1976.62 1960.06C2438.16 2000.49 2715.52 1762.34 2796.5 1638.2" stroke="url(#paint18_linear_99_2715)" stroke-opacity="0.4" stroke-width="1.25"/>
<path d="M162.63 2227.01C324.129 2012.24 419.636 1964.89 592.519 2000.62C765.402 2036.34 824.997 2205.45 1191.97 2150.21C1558.95 2094.97 1407.38 1880.68 1984.3 1931.22C2445.84 1971.65 2723.2 1733.5 2804.18 1609.36" stroke="url(#paint19_linear_99_2715)" stroke-opacity="0.4" stroke-width="1.25"/>
<path d="M170.302 2198.17C331.801 1983.4 427.308 1936.05 600.191 1971.78C773.074 2007.5 832.669 2176.6 1199.65 2121.37C1566.62 2066.13 1415.05 1851.83 1991.97 1902.38C2453.51 1942.81 2730.87 1704.65 2811.85 1580.52" stroke="url(#paint20_linear_99_2715)" stroke-opacity="0.4" stroke-width="1.25"/>
<path d="M177.982 2169.33C339.48 1954.56 434.988 1907.21 607.871 1942.94C780.754 1978.66 840.349 2147.76 1207.33 2092.53C1574.3 2037.29 1422.73 1823 1999.65 1873.54C2461.19 1913.97 2738.55 1675.81 2819.53 1551.68" stroke="url(#paint21_linear_99_2715)" stroke-opacity="0.4" stroke-width="1.25"/>
<path d="M185.662 2140.49C347.16 1925.72 442.668 1878.37 615.55 1914.1C788.433 1949.82 848.029 2118.92 1215.01 2063.69C1581.98 2008.45 1430.41 1794.15 2007.33 1844.7C2468.87 1885.13 2746.23 1646.97 2827.21 1522.84" stroke="url(#paint22_linear_99_2715)" stroke-opacity="0.4" stroke-width="1.25"/>
<path d="M193.337 2111.65C354.836 1896.88 450.343 1849.53 623.226 1885.25C796.109 1920.98 855.704 2090.08 1222.68 2034.85C1589.66 1979.61 1438.09 1765.31 2015.01 1815.86C2476.55 1856.29 2753.9 1618.13 2834.89 1494" stroke="url(#paint23_linear_99_2715)" stroke-opacity="0.4" stroke-width="1.25"/>
<path d="M201.013 2082.81C362.512 1868.04 458.019 1820.69 630.902 1856.41C803.785 1892.14 863.38 2061.24 1230.36 2006.01C1597.33 1950.77 1445.76 1736.47 2022.69 1787.02C2484.22 1827.45 2761.58 1589.29 2842.57 1465.16" stroke="url(#paint24_linear_99_2715)" stroke-opacity="0.4" stroke-width="1.25"/>
<path d="M208.689 2053.96C370.187 1839.19 465.695 1791.85 638.578 1827.57C811.461 1863.3 871.056 2032.4 1238.03 1977.17C1605.01 1921.93 1453.44 1707.63 2030.36 1758.17C2491.9 1798.61 2769.26 1560.45 2850.24 1436.32" stroke="url(#paint25_linear_99_2715)" stroke-opacity="0.4" stroke-width="1.25"/>
<path d="M216.369 2025.12C377.867 1810.36 473.375 1763.01 646.257 1798.73C819.14 1834.46 878.736 2003.56 1245.71 1948.33C1612.69 1893.09 1461.12 1678.79 2038.04 1729.34C2499.58 1769.77 2776.94 1531.61 2857.92 1407.48" stroke="url(#paint26_linear_99_2715)" stroke-opacity="0.4" stroke-width="1.25"/>
<path d="M224.044 1996.28C385.543 1781.51 481.05 1734.17 653.933 1769.89C826.816 1805.62 886.411 1974.72 1253.39 1919.49C1620.37 1864.25 1468.79 1649.95 2045.72 1700.49C2507.26 1740.93 2784.61 1502.77 2865.6 1378.64" stroke="url(#paint27_linear_99_2715)" stroke-opacity="0.4" stroke-width="1.25"/>
<path d="M231.724 1967.44C393.223 1752.67 488.73 1705.32 661.613 1741.05C834.496 1776.78 894.091 1945.88 1261.07 1890.65C1628.05 1835.41 1476.47 1621.11 2053.4 1671.65C2514.94 1712.09 2792.29 1473.93 2873.28 1349.8" stroke="url(#paint28_linear_99_2715)" stroke-opacity="0.4" stroke-width="1.25"/>
<path d="M239.4 1938.6C400.898 1723.83 496.406 1676.48 669.289 1712.21C842.172 1747.94 901.767 1917.04 1268.74 1861.8C1635.72 1806.57 1484.15 1592.27 2061.07 1642.81C2522.61 1683.25 2799.97 1445.09 2880.95 1320.96" stroke="url(#paint29_linear_99_2715)" stroke-opacity="0.4" stroke-width="1.25"/>
<path d="M247.076 1909.76C408.574 1694.99 504.082 1647.64 676.965 1683.37C849.847 1719.1 909.443 1888.2 1276.42 1832.96C1643.4 1777.73 1491.83 1563.43 2068.75 1613.97C2530.29 1654.41 2807.64 1416.25 2888.63 1292.12" stroke="url(#paint30_linear_99_2715)" stroke-opacity="0.4" stroke-width="1.25"/>
<path d="M254.751 1880.92C416.25 1666.15 511.757 1618.8 684.64 1654.53C857.523 1690.26 917.119 1859.36 1284.1 1804.12C1651.07 1748.89 1499.5 1534.59 2076.42 1585.13C2537.96 1625.57 2815.32 1387.41 2896.3 1263.28" stroke="url(#paint31_linear_99_2715)" stroke-opacity="0.4" stroke-width="1.25"/>
<path d="M262.431 1852.08C423.93 1637.31 519.437 1589.96 692.32 1625.69C865.203 1661.42 924.798 1830.52 1291.78 1775.28C1658.75 1720.05 1507.18 1505.75 2084.1 1556.29C2545.64 1596.73 2823 1358.57 2903.98 1234.44" stroke="url(#paint32_linear_99_2715)" stroke-opacity="0.4" stroke-width="1.25"/>
<path d="M270.111 1823.24C431.609 1608.47 527.117 1561.12 700 1596.85C872.883 1632.58 932.478 1801.68 1299.45 1746.44C1666.43 1691.21 1514.86 1476.91 2091.78 1527.45C2553.32 1567.89 2830.68 1329.73 2911.66 1205.6" stroke="url(#paint33_linear_99_2715)" stroke-opacity="0.4" stroke-width="1.25"/>
<path d="M277.787 1794.4C439.285 1579.63 534.793 1532.28 707.675 1568.01C880.558 1603.74 940.154 1772.84 1307.13 1717.6C1674.11 1662.37 1522.54 1448.07 2099.46 1498.61C2561 1539.05 2838.35 1300.89 2919.34 1176.76" stroke="url(#paint34_linear_99_2715)" stroke-opacity="0.4" stroke-width="1.25"/>
<path d="M285.462 1765.56C446.961 1550.79 542.468 1503.44 715.351 1539.17C888.234 1574.9 947.829 1744 1314.81 1688.76C1681.78 1633.53 1530.21 1419.23 2107.13 1469.77C2568.67 1510.21 2846.03 1272.05 2927.01 1147.92" stroke="url(#paint35_linear_99_2715)" stroke-opacity="0.4" stroke-width="1.25"/>
<path d="M293.138 1736.72C454.637 1521.95 550.144 1474.6 723.027 1510.33C895.91 1546.06 955.505 1715.16 1322.48 1659.92C1689.46 1604.69 1537.89 1390.39 2114.81 1440.93C2576.35 1481.36 2853.7 1243.21 2934.69 1119.07" stroke="url(#paint36_linear_99_2715)" stroke-opacity="0.4" stroke-width="1.25"/>
<path d="M300.818 1707.88C462.316 1493.11 557.824 1445.76 730.707 1481.49C903.59 1517.22 963.185 1686.32 1330.16 1631.08C1697.14 1575.85 1545.57 1361.55 2122.49 1412.09C2584.03 1452.52 2861.38 1214.37 2942.37 1090.23" stroke="url(#paint37_linear_99_2715)" stroke-opacity="0.4" stroke-width="1.25"/>
<path d="M308.494 1679.04C469.992 1464.27 565.5 1416.92 738.382 1452.65C911.265 1488.38 970.861 1657.48 1337.84 1602.24C1704.81 1547 1553.24 1332.71 2130.17 1383.25C2591.7 1423.68 2869.06 1185.53 2950.05 1061.39" stroke="url(#paint38_linear_99_2715)" stroke-opacity="0.4" stroke-width="1.25"/>
<path d="M316.169 1650.2C477.668 1435.43 573.175 1388.08 746.058 1423.81C918.941 1459.54 978.536 1628.64 1345.51 1573.4C1712.49 1518.17 1560.92 1303.87 2137.84 1354.41C2599.38 1394.84 2876.74 1156.69 2957.72 1032.55" stroke="url(#paint39_linear_99_2715)" stroke-opacity="0.4" stroke-width="1.25"/>
<path d="M323.849 1621.36C485.348 1406.59 580.855 1359.24 753.738 1394.97C926.621 1430.7 986.216 1599.8 1353.19 1544.56C1720.17 1489.33 1568.6 1275.03 2145.52 1325.57C2607.06 1366 2884.42 1127.85 2965.4 1003.71" stroke="url(#paint40_linear_99_2715)" stroke-opacity="0.4" stroke-width="1.25"/>
<path d="M331.525 1592.52C493.023 1377.75 588.531 1330.4 761.414 1366.13C934.297 1401.86 993.892 1570.96 1360.87 1515.72C1727.85 1460.48 1576.27 1246.19 2153.2 1296.73C2614.74 1337.16 2892.09 1099.01 2973.08 974.874" stroke="url(#paint41_linear_99_2715)" stroke-opacity="0.4" stroke-width="1.25"/>
<path d="M339.201 1563.68C500.699 1348.91 596.207 1301.56 769.09 1337.29C941.972 1373.01 1001.57 1542.12 1368.54 1486.88C1735.52 1431.64 1583.95 1217.35 2160.87 1267.89C2622.41 1308.32 2899.77 1070.17 2980.75 946.033" stroke="url(#paint42_linear_99_2715)" stroke-opacity="0.4" stroke-width="1.25"/>
<path d="M346.88 1534.84C508.379 1320.07 603.886 1272.72 776.769 1308.45C949.652 1344.17 1009.25 1513.28 1376.22 1458.04C1743.2 1402.8 1591.63 1188.51 2168.55 1239.05C2630.09 1279.48 2907.45 1041.33 2988.43 917.193" stroke="url(#paint43_linear_99_2715)" stroke-opacity="0.4" stroke-width="1.25"/>
<path d="M354.556 1506C516.055 1291.23 611.562 1243.88 784.445 1279.61C957.328 1315.33 1016.92 1484.44 1383.9 1429.2C1750.88 1373.96 1599.31 1159.67 2176.23 1210.21C2637.77 1250.64 2915.12 1012.49 2996.11 888.353" stroke="url(#paint44_linear_99_2715)" stroke-opacity="0.4" stroke-width="1.25"/>
<path d="M362.232 1477.16C523.73 1262.39 619.238 1215.04 792.121 1250.77C965.004 1286.49 1024.6 1455.59 1391.58 1400.36C1758.55 1345.12 1606.98 1130.82 2183.9 1181.37C2645.44 1221.8 2922.8 983.644 3003.78 859.511" stroke="url(#paint45_linear_99_2715)" stroke-opacity="0.4" stroke-width="1.25"/>
<path d="M369.908 1448.32C531.406 1233.55 626.914 1186.2 799.797 1221.93C972.679 1257.65 1032.27 1426.75 1399.25 1371.52C1766.23 1316.28 1614.66 1101.98 2191.58 1152.53C2653.12 1192.96 2930.47 954.804 3011.46 830.671" stroke="url(#paint46_linear_99_2715)" stroke-opacity="0.4" stroke-width="1.25"/>
<path d="M377.587 1419.48C539.086 1204.71 634.593 1157.36 807.476 1193.09C980.359 1228.81 1039.95 1397.92 1406.93 1342.68C1773.91 1287.44 1622.34 1073.15 2199.26 1123.69C2660.8 1164.12 2938.15 925.965 3019.14 801.833" stroke="url(#paint47_linear_99_2715)" stroke-opacity="0.4" stroke-width="1.25"/>
<path d="M385.263 1390.64C546.762 1175.87 642.269 1128.52 815.152 1164.25C988.035 1199.97 1047.63 1369.07 1414.61 1313.84C1781.58 1258.6 1630.01 1044.3 2206.94 1094.85C2668.47 1135.28 2945.83 897.124 3026.82 772.992" stroke="url(#paint48_linear_99_2715)" stroke-opacity="0.4" stroke-width="1.25"/>
<path d="M392.943 1361.8C554.441 1147.03 649.949 1099.68 822.832 1135.41C995.715 1171.13 1055.31 1340.23 1422.29 1285C1789.26 1229.76 1637.69 1015.46 2214.62 1066.01C2676.15 1106.44 2953.51 868.285 3034.49 744.152" stroke="url(#paint49_linear_99_2715)" stroke-opacity="0.4" stroke-width="1.25"/>
<path d="M400.619 1332.95C562.117 1118.19 657.625 1070.84 830.507 1106.56C1003.39 1142.29 1062.99 1311.39 1429.96 1256.16C1796.94 1200.92 1645.37 986.623 2222.29 1037.17C2683.83 1077.6 2961.19 839.443 3042.17 715.31" stroke="url(#paint50_linear_99_2715)" stroke-opacity="0.4" stroke-width="1.25"/>
<path d="M408.298 1304.12C569.797 1089.35 665.304 1042 838.187 1077.73C1011.07 1113.45 1070.67 1282.55 1437.64 1227.32C1804.62 1172.08 1653.05 957.784 2229.97 1008.33C2691.51 1048.76 2968.86 810.604 3049.85 686.471" stroke="url(#paint51_linear_99_2715)" stroke-opacity="0.4" stroke-width="1.25"/>
<path d="M415.974 1275.27C577.473 1060.5 672.98 1013.16 845.863 1048.88C1018.75 1084.61 1078.34 1253.71 1445.32 1198.48C1812.3 1143.24 1660.72 928.942 2237.65 979.485C2699.19 1019.92 2976.54 781.762 3057.53 657.629" stroke="url(#paint52_linear_99_2715)" stroke-opacity="0.4" stroke-width="1.25"/>
<path d="M423.65 1246.43C585.148 1031.66 680.656 984.316 853.539 1020.04C1026.42 1055.77 1086.02 1224.87 1452.99 1169.64C1819.97 1114.4 1668.4 900.103 2245.32 950.645C2706.86 991.079 2984.22 752.922 3065.2 628.79" stroke="url(#paint53_linear_99_2715)" stroke-opacity="0.4" stroke-width="1.25"/>
<path d="M431.326 1217.59C592.824 1002.82 688.332 955.474 861.215 991.202C1034.1 1026.93 1093.69 1196.03 1460.67 1140.79C1827.65 1085.56 1676.08 871.261 2253 921.803C2714.54 962.237 2991.89 724.081 3072.88 599.948" stroke="url(#paint54_linear_99_2715)" stroke-opacity="0.4" stroke-width="1.25"/>
</g>
<defs>
<linearGradient id="paint0_linear_99_2715" x1="1476.16" y1="1862.33" x2="1176.21" y2="3064.31" gradientUnits="userSpaceOnUse">
<stop stop-color="#399780"/>
<stop offset="1" stop-color="#480E8B"/>
<stop offset="1" stop-color="#480E8B"/>
</linearGradient>
<linearGradient id="paint1_linear_99_2715" x1="1483.84" y1="1833.49" x2="1183.88" y2="3035.47" gradientUnits="userSpaceOnUse">
<stop stop-color="#399780"/>
<stop offset="1" stop-color="#480E8B"/>
<stop offset="1" stop-color="#480E8B"/>
</linearGradient>
<linearGradient id="paint2_linear_99_2715" x1="1491.52" y1="1804.65" x2="1191.56" y2="3006.63" gradientUnits="userSpaceOnUse">
<stop stop-color="#399780"/>
<stop offset="1" stop-color="#480E8B"/>
<stop offset="1" stop-color="#480E8B"/>
</linearGradient>
<linearGradient id="paint3_linear_99_2715" x1="1499.19" y1="1775.81" x2="1199.24" y2="2977.79" gradientUnits="userSpaceOnUse">
<stop stop-color="#399780"/>
<stop offset="1" stop-color="#480E8B"/>
<stop offset="1" stop-color="#480E8B"/>
</linearGradient>
<linearGradient id="paint4_linear_99_2715" x1="1506.87" y1="1746.97" x2="1206.92" y2="2948.95" gradientUnits="userSpaceOnUse">
<stop stop-color="#399780"/>
<stop offset="1" stop-color="#480E8B"/>
<stop offset="1" stop-color="#480E8B"/>
</linearGradient>
<linearGradient id="paint5_linear_99_2715" x1="1514.55" y1="1718.13" x2="1214.59" y2="2920.11" gradientUnits="userSpaceOnUse">
<stop stop-color="#399780"/>
<stop offset="1" stop-color="#480E8B"/>
<stop offset="1" stop-color="#480E8B"/>
</linearGradient>
<linearGradient id="paint6_linear_99_2715" x1="1522.22" y1="1689.29" x2="1222.27" y2="2891.27" gradientUnits="userSpaceOnUse">
<stop stop-color="#399780"/>
<stop offset="1" stop-color="#480E8B"/>
<stop offset="1" stop-color="#480E8B"/>
</linearGradient>
<linearGradient id="paint7_linear_99_2715" x1="1529.9" y1="1660.44" x2="1229.95" y2="2862.43" gradientUnits="userSpaceOnUse">
<stop stop-color="#399780"/>
<stop offset="1" stop-color="#480E8B"/>
<stop offset="1" stop-color="#480E8B"/>
</linearGradient>
<linearGradient id="paint8_linear_99_2715" x1="1537.58" y1="1631.6" x2="1237.62" y2="2833.59" gradientUnits="userSpaceOnUse">
<stop stop-color="#399780"/>
<stop offset="1" stop-color="#480E8B"/>
<stop offset="1" stop-color="#480E8B"/>
</linearGradient>
<linearGradient id="paint9_linear_99_2715" x1="1545.25" y1="1602.76" x2="1245.3" y2="2804.75" gradientUnits="userSpaceOnUse">
<stop stop-color="#399780"/>
<stop offset="1" stop-color="#480E8B"/>
<stop offset="1" stop-color="#480E8B"/>
</linearGradient>
<linearGradient id="paint10_linear_99_2715" x1="1552.93" y1="1573.92" x2="1252.98" y2="2775.91" gradientUnits="userSpaceOnUse">
<stop stop-color="#399780"/>
<stop offset="1" stop-color="#480E8B"/>
<stop offset="1" stop-color="#480E8B"/>
</linearGradient>
<linearGradient id="paint11_linear_99_2715" x1="1560.61" y1="1545.08" x2="1260.66" y2="2747.07" gradientUnits="userSpaceOnUse">
<stop stop-color="#399780"/>
<stop offset="1" stop-color="#480E8B"/>
<stop offset="1" stop-color="#480E8B"/>
</linearGradient>
<linearGradient id="paint12_linear_99_2715" x1="1568.28" y1="1516.24" x2="1268.33" y2="2718.23" gradientUnits="userSpaceOnUse">
<stop stop-color="#399780"/>
<stop offset="1" stop-color="#480E8B"/>
<stop offset="1" stop-color="#480E8B"/>
</linearGradient>
<linearGradient id="paint13_linear_99_2715" x1="1575.96" y1="1487.4" x2="1276.01" y2="2689.39" gradientUnits="userSpaceOnUse">
<stop stop-color="#399780"/>
<stop offset="1" stop-color="#480E8B"/>
<stop offset="1" stop-color="#480E8B"/>
</linearGradient>
<linearGradient id="paint14_linear_99_2715" x1="1583.64" y1="1458.56" x2="1283.69" y2="2660.55" gradientUnits="userSpaceOnUse">
<stop stop-color="#399780"/>
<stop offset="1" stop-color="#480E8B"/>
<stop offset="1" stop-color="#480E8B"/>
</linearGradient>
<linearGradient id="paint15_linear_99_2715" x1="1591.32" y1="1429.72" x2="1291.36" y2="2631.71" gradientUnits="userSpaceOnUse">
<stop stop-color="#399780"/>
<stop offset="1" stop-color="#480E8B"/>
<stop offset="1" stop-color="#480E8B"/>
</linearGradient>
<linearGradient id="paint16_linear_99_2715" x1="1598.99" y1="1400.88" x2="1299.04" y2="2602.87" gradientUnits="userSpaceOnUse">
<stop stop-color="#399780"/>
<stop offset="1" stop-color="#480E8B"/>
<stop offset="1" stop-color="#480E8B"/>
</linearGradient>
<linearGradient id="paint17_linear_99_2715" x1="1606.67" y1="1372.04" x2="1306.72" y2="2574.03" gradientUnits="userSpaceOnUse">
<stop stop-color="#399780"/>
<stop offset="1" stop-color="#480E8B"/>
<stop offset="1" stop-color="#480E8B"/>
</linearGradient>
<linearGradient id="paint18_linear_99_2715" x1="1614.35" y1="1343.2" x2="1314.39" y2="2545.18" gradientUnits="userSpaceOnUse">
<stop stop-color="#399780"/>
<stop offset="1" stop-color="#480E8B"/>
<stop offset="1" stop-color="#480E8B"/>
</linearGradient>
<linearGradient id="paint19_linear_99_2715" x1="1622.03" y1="1314.36" x2="1322.07" y2="2516.34" gradientUnits="userSpaceOnUse">
<stop stop-color="#399780"/>
<stop offset="1" stop-color="#480E8B"/>
<stop offset="1" stop-color="#480E8B"/>
</linearGradient>
<linearGradient id="paint20_linear_99_2715" x1="1629.7" y1="1285.52" x2="1329.75" y2="2487.5" gradientUnits="userSpaceOnUse">
<stop stop-color="#399780"/>
<stop offset="1" stop-color="#480E8B"/>
<stop offset="1" stop-color="#480E8B"/>
</linearGradient>
<linearGradient id="paint21_linear_99_2715" x1="1637.38" y1="1256.68" x2="1337.43" y2="2458.66" gradientUnits="userSpaceOnUse">
<stop stop-color="#399780"/>
<stop offset="1" stop-color="#480E8B"/>
<stop offset="1" stop-color="#480E8B"/>
</linearGradient>
<linearGradient id="paint22_linear_99_2715" x1="1645.06" y1="1227.84" x2="1345.11" y2="2429.82" gradientUnits="userSpaceOnUse">
<stop stop-color="#399780"/>
<stop offset="1" stop-color="#480E8B"/>
<stop offset="1" stop-color="#480E8B"/>
</linearGradient>
<linearGradient id="paint23_linear_99_2715" x1="1652.73" y1="1199" x2="1352.78" y2="2400.98" gradientUnits="userSpaceOnUse">
<stop stop-color="#399780"/>
<stop offset="1" stop-color="#480E8B"/>
<stop offset="1" stop-color="#480E8B"/>
</linearGradient>
<linearGradient id="paint24_linear_99_2715" x1="1660.41" y1="1170.16" x2="1360.46" y2="2372.14" gradientUnits="userSpaceOnUse">
<stop stop-color="#399780"/>
<stop offset="1" stop-color="#480E8B"/>
<stop offset="1" stop-color="#480E8B"/>
</linearGradient>
<linearGradient id="paint25_linear_99_2715" x1="1668.09" y1="1141.31" x2="1368.13" y2="2343.3" gradientUnits="userSpaceOnUse">
<stop stop-color="#399780"/>
<stop offset="1" stop-color="#480E8B"/>
<stop offset="1" stop-color="#480E8B"/>
</linearGradient>
<linearGradient id="paint26_linear_99_2715" x1="1675.77" y1="1112.48" x2="1375.81" y2="2314.46" gradientUnits="userSpaceOnUse">
<stop stop-color="#399780"/>
<stop offset="1" stop-color="#480E8B"/>
<stop offset="1" stop-color="#480E8B"/>
</linearGradient>
<linearGradient id="paint27_linear_99_2715" x1="1683.44" y1="1083.64" x2="1383.49" y2="2285.62" gradientUnits="userSpaceOnUse">
<stop stop-color="#399780"/>
<stop offset="1" stop-color="#480E8B"/>
<stop offset="1" stop-color="#480E8B"/>
</linearGradient>
<linearGradient id="paint28_linear_99_2715" x1="1691.12" y1="1054.79" x2="1391.17" y2="2256.78" gradientUnits="userSpaceOnUse">
<stop stop-color="#399780"/>
<stop offset="1" stop-color="#480E8B"/>
<stop offset="1" stop-color="#480E8B"/>
</linearGradient>
<linearGradient id="paint29_linear_99_2715" x1="1698.8" y1="1025.95" x2="1398.84" y2="2227.94" gradientUnits="userSpaceOnUse">
<stop stop-color="#399780"/>
<stop offset="1" stop-color="#480E8B"/>
<stop offset="1" stop-color="#480E8B"/>
</linearGradient>
<linearGradient id="paint30_linear_99_2715" x1="1706.47" y1="997.114" x2="1406.52" y2="2199.1" gradientUnits="userSpaceOnUse">
<stop stop-color="#399780"/>
<stop offset="1" stop-color="#480E8B"/>
<stop offset="1" stop-color="#480E8B"/>
</linearGradient>
<linearGradient id="paint31_linear_99_2715" x1="1714.15" y1="968.273" x2="1414.2" y2="2170.26" gradientUnits="userSpaceOnUse">
<stop stop-color="#399780"/>
<stop offset="1" stop-color="#480E8B"/>
<stop offset="1" stop-color="#480E8B"/>
</linearGradient>
<linearGradient id="paint32_linear_99_2715" x1="1721.83" y1="939.432" x2="1421.87" y2="2141.42" gradientUnits="userSpaceOnUse">
<stop stop-color="#399780"/>
<stop offset="1" stop-color="#480E8B"/>
<stop offset="1" stop-color="#480E8B"/>
</linearGradient>
<linearGradient id="paint33_linear_99_2715" x1="1729.51" y1="910.593" x2="1429.55" y2="2112.58" gradientUnits="userSpaceOnUse">
<stop stop-color="#399780"/>
<stop offset="1" stop-color="#480E8B"/>
<stop offset="1" stop-color="#480E8B"/>
</linearGradient>
<linearGradient id="paint34_linear_99_2715" x1="1737.18" y1="881.751" x2="1437.23" y2="2083.74" gradientUnits="userSpaceOnUse">
<stop stop-color="#399780"/>
<stop offset="1" stop-color="#480E8B"/>
<stop offset="1" stop-color="#480E8B"/>
</linearGradient>
<linearGradient id="paint35_linear_99_2715" x1="1744.86" y1="852.911" x2="1444.91" y2="2054.9" gradientUnits="userSpaceOnUse">
<stop stop-color="#399780"/>
<stop offset="1" stop-color="#480E8B"/>
<stop offset="1" stop-color="#480E8B"/>
</linearGradient>
<linearGradient id="paint36_linear_99_2715" x1="1752.53" y1="824.071" x2="1452.58" y2="2026.06" gradientUnits="userSpaceOnUse">
<stop stop-color="#399780"/>
<stop offset="1" stop-color="#480E8B"/>
<stop offset="1" stop-color="#480E8B"/>
</linearGradient>
<linearGradient id="paint37_linear_99_2715" x1="1760.21" y1="795.231" x2="1460.26" y2="1997.22" gradientUnits="userSpaceOnUse">
<stop stop-color="#399780"/>
<stop offset="1" stop-color="#480E8B"/>
<stop offset="1" stop-color="#480E8B"/>
</linearGradient>
<linearGradient id="paint38_linear_99_2715" x1="1767.89" y1="766.39" x2="1467.94" y2="1968.38" gradientUnits="userSpaceOnUse">
<stop stop-color="#399780"/>
<stop offset="1" stop-color="#480E8B"/>
<stop offset="1" stop-color="#480E8B"/>
</linearGradient>
<linearGradient id="paint39_linear_99_2715" x1="1775.57" y1="737.55" x2="1475.61" y2="1939.54" gradientUnits="userSpaceOnUse">
<stop stop-color="#399780"/>
<stop offset="1" stop-color="#480E8B"/>
<stop offset="1" stop-color="#480E8B"/>
</linearGradient>
<linearGradient id="paint40_linear_99_2715" x1="1783.25" y1="708.71" x2="1483.29" y2="1910.7" gradientUnits="userSpaceOnUse">
<stop stop-color="#399780"/>
<stop offset="1" stop-color="#480E8B"/>
<stop offset="1" stop-color="#480E8B"/>
</linearGradient>
<linearGradient id="paint41_linear_99_2715" x1="1790.92" y1="679.869" x2="1490.97" y2="1881.85" gradientUnits="userSpaceOnUse">
<stop stop-color="#399780"/>
<stop offset="1" stop-color="#480E8B"/>
<stop offset="1" stop-color="#480E8B"/>
</linearGradient>
<linearGradient id="paint42_linear_99_2715" x1="1798.6" y1="651.029" x2="1498.64" y2="1853.01" gradientUnits="userSpaceOnUse">
<stop stop-color="#399780"/>
<stop offset="1" stop-color="#480E8B"/>
<stop offset="1" stop-color="#480E8B"/>
</linearGradient>
<linearGradient id="paint43_linear_99_2715" x1="1806.28" y1="622.189" x2="1506.32" y2="1824.17" gradientUnits="userSpaceOnUse">
<stop stop-color="#399780"/>
<stop offset="1" stop-color="#480E8B"/>
<stop offset="1" stop-color="#480E8B"/>
</linearGradient>
<linearGradient id="paint44_linear_99_2715" x1="1813.95" y1="593.349" x2="1514" y2="1795.33" gradientUnits="userSpaceOnUse">
<stop stop-color="#399780"/>
<stop offset="1" stop-color="#480E8B"/>
<stop offset="1" stop-color="#480E8B"/>
</linearGradient>
<linearGradient id="paint45_linear_99_2715" x1="1821.63" y1="564.507" x2="1521.68" y2="1766.49" gradientUnits="userSpaceOnUse">
<stop stop-color="#399780"/>
<stop offset="1" stop-color="#480E8B"/>
<stop offset="1" stop-color="#480E8B"/>
</linearGradient>
<linearGradient id="paint46_linear_99_2715" x1="1829.3" y1="535.667" x2="1529.35" y2="1737.65" gradientUnits="userSpaceOnUse">
<stop stop-color="#399780"/>
<stop offset="1" stop-color="#480E8B"/>
<stop offset="1" stop-color="#480E8B"/>
</linearGradient>
<linearGradient id="paint47_linear_99_2715" x1="1836.98" y1="506.828" x2="1537.03" y2="1708.81" gradientUnits="userSpaceOnUse">
<stop stop-color="#399780"/>
<stop offset="1" stop-color="#480E8B"/>
<stop offset="1" stop-color="#480E8B"/>
</linearGradient>
<linearGradient id="paint48_linear_99_2715" x1="1844.66" y1="477.988" x2="1544.71" y2="1679.97" gradientUnits="userSpaceOnUse">
<stop stop-color="#399780"/>
<stop offset="1" stop-color="#480E8B"/>
<stop offset="1" stop-color="#480E8B"/>
</linearGradient>
<linearGradient id="paint49_linear_99_2715" x1="1852.34" y1="449.148" x2="1552.39" y2="1651.13" gradientUnits="userSpaceOnUse">
<stop stop-color="#399780"/>
<stop offset="1" stop-color="#480E8B"/>
<stop offset="1" stop-color="#480E8B"/>
</linearGradient>
<linearGradient id="paint50_linear_99_2715" x1="1860.02" y1="420.306" x2="1560.06" y2="1622.29" gradientUnits="userSpaceOnUse">
<stop stop-color="#399780"/>
<stop offset="1" stop-color="#480E8B"/>
<stop offset="1" stop-color="#480E8B"/>
</linearGradient>
<linearGradient id="paint51_linear_99_2715" x1="1867.69" y1="391.467" x2="1567.74" y2="1593.45" gradientUnits="userSpaceOnUse">
<stop stop-color="#399780"/>
<stop offset="1" stop-color="#480E8B"/>
<stop offset="1" stop-color="#480E8B"/>
</linearGradient>
<linearGradient id="paint52_linear_99_2715" x1="1875.37" y1="362.625" x2="1575.42" y2="1564.61" gradientUnits="userSpaceOnUse">
<stop stop-color="#399780"/>
<stop offset="1" stop-color="#480E8B"/>
<stop offset="1" stop-color="#480E8B"/>
</linearGradient>
<linearGradient id="paint53_linear_99_2715" x1="1883.05" y1="333.785" x2="1583.09" y2="1535.77" gradientUnits="userSpaceOnUse">
<stop stop-color="#399780"/>
<stop offset="1" stop-color="#480E8B"/>
<stop offset="1" stop-color="#480E8B"/>
</linearGradient>
<linearGradient id="paint54_linear_99_2715" x1="1890.72" y1="304.944" x2="1590.77" y2="1506.93" gradientUnits="userSpaceOnUse">
<stop stop-color="#399780"/>
<stop offset="1" stop-color="#480E8B"/>
<stop offset="1" stop-color="#480E8B"/>
</linearGradient>
</defs>
</svg>
