<svg width="3098" height="3406" viewBox="0 0 3098 3406" fill="none" xmlns="http://www.w3.org/2000/svg">
<g opacity="0.5">
<path d="M21.062 2801.52C182.56 2584.64 278.068 2536.83 450.951 2572.91C623.834 2608.98 683.429 2779.74 1050.41 2723.97C1417.38 2668.19 1265.81 2451.79 1842.73 2502.83C2304.27 2543.66 2581.63 2303.17 2662.61 2177.81" stroke="url(#paint0_linear_707_420)" stroke-opacity="0.4" stroke-width="1.25"/>
<path d="M28.7378 2772.39C190.236 2555.52 285.744 2507.7 458.627 2543.78C631.51 2579.86 691.105 2750.62 1058.08 2694.84C1425.06 2639.06 1273.49 2422.66 1850.41 2473.7C2311.95 2514.53 2589.3 2274.04 2670.29 2148.69" stroke="url(#paint1_linear_707_420)" stroke-opacity="0.4" stroke-width="1.25"/>
<path d="M36.4175 2743.27C197.916 2526.39 293.423 2478.58 466.306 2514.66C639.189 2550.74 698.785 2721.5 1065.76 2665.72C1432.74 2609.94 1281.17 2393.54 1858.09 2444.58C2319.63 2485.41 2596.98 2244.92 2677.97 2119.57" stroke="url(#paint2_linear_707_420)" stroke-opacity="0.4" stroke-width="1.25"/>
<path d="M44.0913 2714.15C205.59 2497.27 301.097 2449.46 473.98 2485.54C646.863 2521.61 706.458 2692.37 1073.44 2636.6C1440.41 2580.82 1288.84 2364.42 1865.76 2415.46C2327.3 2456.29 2604.66 2215.79 2685.64 2090.44" stroke="url(#paint3_linear_707_420)" stroke-opacity="0.4" stroke-width="1.25"/>
<path d="M51.769 2685.02C213.268 2468.15 308.775 2420.33 481.658 2456.41C654.541 2492.49 714.136 2663.25 1081.11 2607.47C1448.09 2551.69 1296.52 2335.29 1873.44 2386.33C2334.98 2427.16 2612.34 2186.67 2693.32 2061.32" stroke="url(#paint4_linear_707_420)" stroke-opacity="0.4" stroke-width="1.25"/>
<path d="M59.4468 2655.9C220.945 2439.02 316.453 2391.21 489.336 2427.29C662.219 2463.37 721.814 2634.13 1088.79 2578.35C1455.77 2522.57 1304.2 2306.17 1881.12 2357.21C2342.66 2398.04 2620.01 2157.55 2701 2032.2" stroke="url(#paint5_linear_707_420)" stroke-opacity="0.4" stroke-width="1.25"/>
<path d="M67.1245 2626.78C228.623 2409.9 324.13 2362.09 497.013 2398.16C669.896 2434.24 729.492 2605 1096.47 2549.22C1463.45 2493.45 1311.87 2277.05 1888.8 2328.09C2350.34 2368.92 2627.69 2128.42 2708.68 2003.07" stroke="url(#paint6_linear_707_420)" stroke-opacity="0.4" stroke-width="1.25"/>
<path d="M74.8003 2597.65C236.299 2380.78 331.806 2332.96 504.689 2369.04C677.572 2405.12 737.167 2575.88 1104.14 2520.1C1471.12 2464.32 1319.55 2247.92 1896.47 2298.96C2358.01 2339.79 2635.37 2099.3 2716.35 1973.95" stroke="url(#paint7_linear_707_420)" stroke-opacity="0.4" stroke-width="1.25"/>
<path d="M82.478 2568.53C243.977 2351.65 339.484 2303.84 512.367 2339.92C685.25 2376 744.845 2546.76 1111.82 2490.98C1478.8 2435.2 1327.23 2218.8 1904.15 2269.84C2365.69 2310.67 2643.04 2070.18 2724.03 1944.83" stroke="url(#paint8_linear_707_420)" stroke-opacity="0.4" stroke-width="1.25"/>
<path d="M90.1538 2539.41C251.652 2322.53 347.16 2274.72 520.043 2310.79C692.926 2346.87 752.521 2517.63 1119.5 2461.85C1486.48 2406.08 1334.9 2189.68 1911.83 2240.72C2373.36 2281.55 2650.72 2041.05 2731.71 1915.7" stroke="url(#paint9_linear_707_420)" stroke-opacity="0.4" stroke-width="1.25"/>
<path d="M97.8335 2510.28C259.332 2293.41 354.839 2245.59 527.722 2281.67C700.605 2317.75 760.201 2488.51 1127.18 2432.73C1494.15 2376.95 1342.58 2160.55 1919.51 2211.59C2381.04 2252.42 2658.4 2011.93 2739.39 1886.58" stroke="url(#paint10_linear_707_420)" stroke-opacity="0.4" stroke-width="1.25"/>
<path d="M105.509 2481.16C267.008 2264.28 362.515 2216.47 535.398 2252.55C708.281 2288.63 767.876 2459.39 1134.85 2403.61C1501.83 2347.83 1350.26 2131.43 1927.18 2182.47C2388.72 2223.3 2666.08 1982.81 2747.06 1857.46" stroke="url(#paint11_linear_707_420)" stroke-opacity="0.4" stroke-width="1.25"/>
<path d="M113.187 2452.04C274.686 2235.16 370.193 2187.35 543.076 2223.43C715.959 2259.5 775.554 2430.26 1142.53 2374.49C1509.51 2318.71 1357.94 2102.31 1934.86 2153.35C2396.4 2194.18 2673.75 1953.68 2754.74 1828.33" stroke="url(#paint12_linear_707_420)" stroke-opacity="0.4" stroke-width="1.25"/>
<path d="M120.865 2422.91C282.363 2206.04 377.871 2158.22 550.754 2194.3C723.637 2230.38 783.232 2401.14 1150.21 2345.36C1517.19 2289.58 1365.61 2073.18 1942.54 2124.22C2404.08 2165.05 2681.43 1924.56 2762.42 1799.21" stroke="url(#paint13_linear_707_420)" stroke-opacity="0.4" stroke-width="1.25"/>
<path d="M128.541 2393.79C290.039 2176.91 385.546 2129.1 558.429 2165.18C731.312 2201.26 790.908 2372.01 1157.88 2316.24C1524.86 2260.46 1373.29 2044.06 1950.21 2095.1C2411.75 2135.93 2689.11 1895.44 2770.09 1770.09" stroke="url(#paint14_linear_707_420)" stroke-opacity="0.4" stroke-width="1.25"/>
<path d="M136.218 2364.67C297.717 2147.79 393.224 2099.98 566.107 2136.05C738.99 2172.13 798.585 2342.89 1165.56 2287.11C1532.54 2231.34 1380.97 2014.94 1957.89 2065.97C2419.43 2106.81 2696.78 1866.31 2777.77 1740.96" stroke="url(#paint15_linear_707_420)" stroke-opacity="0.4" stroke-width="1.25"/>
<path d="M143.894 2335.54C305.393 2118.67 400.9 2070.85 573.783 2106.93C746.666 2143.01 806.261 2313.77 1173.24 2257.99C1540.22 2202.21 1388.64 1985.81 1965.57 2036.85C2427.1 2077.68 2704.46 1837.19 2785.45 1711.84" stroke="url(#paint16_linear_707_420)" stroke-opacity="0.4" stroke-width="1.25"/>
<path d="M151.572 2306.42C313.07 2089.54 408.578 2041.73 581.461 2077.81C754.344 2113.89 813.939 2284.65 1180.92 2228.87C1547.89 2173.09 1396.32 1956.69 1973.24 2007.73C2434.78 2048.56 2712.14 1808.07 2793.12 1682.72" stroke="url(#paint17_linear_707_420)" stroke-opacity="0.4" stroke-width="1.25"/>
<path d="M159.249 2277.3C320.748 2060.42 416.255 2012.61 589.138 2048.68C762.021 2084.76 821.617 2255.52 1188.59 2199.74C1555.57 2143.97 1404 1927.57 1980.92 1978.6C2442.46 2019.44 2719.82 1778.94 2800.8 1653.59" stroke="url(#paint18_linear_707_420)" stroke-opacity="0.4" stroke-width="1.25"/>
<path d="M166.927 2248.17C328.426 2031.3 423.933 1983.48 596.816 2019.56C769.699 2055.64 829.294 2226.4 1196.27 2170.62C1563.25 2114.84 1411.68 1898.44 1988.6 1949.48C2450.14 1990.31 2727.49 1749.82 2808.48 1624.47" stroke="url(#paint19_linear_707_420)" stroke-opacity="0.4" stroke-width="1.25"/>
<path d="M174.601 2219.05C336.1 2002.17 431.607 1954.36 604.49 1990.44C777.373 2026.51 836.968 2197.27 1203.95 2141.5C1570.92 2085.72 1419.35 1869.32 1996.27 1920.36C2457.81 1961.19 2735.17 1720.69 2816.15 1595.34" stroke="url(#paint20_linear_707_420)" stroke-opacity="0.4" stroke-width="1.25"/>
<path d="M182.283 2189.93C343.781 1973.05 439.289 1925.24 612.172 1961.31C785.054 1997.39 844.65 2168.15 1211.63 2112.37C1578.6 2056.6 1427.03 1840.2 2003.96 1891.23C2465.49 1932.07 2742.85 1691.57 2823.83 1566.22" stroke="url(#paint21_linear_707_420)" stroke-opacity="0.4" stroke-width="1.25"/>
<path d="M189.958 2160.8C351.457 1943.93 446.964 1896.11 619.847 1932.19C792.73 1968.27 852.326 2139.03 1219.3 2083.25C1586.28 2027.47 1434.71 1811.07 2011.63 1862.11C2473.17 1902.94 2750.52 1662.45 2831.51 1537.1" stroke="url(#paint22_linear_707_420)" stroke-opacity="0.4" stroke-width="1.25"/>
<path d="M197.634 2131.68C359.133 1914.8 454.64 1866.99 627.523 1903.07C800.406 1939.14 860.001 2109.9 1226.98 2054.13C1593.96 1998.35 1442.38 1781.95 2019.31 1832.99C2480.85 1873.82 2758.2 1633.32 2839.19 1507.97" stroke="url(#paint23_linear_707_420)" stroke-opacity="0.4" stroke-width="1.25"/>
<path d="M205.31 2102.55C366.809 1885.68 462.316 1837.86 635.199 1873.94C808.082 1910.02 867.677 2080.78 1234.65 2025C1601.63 1969.23 1450.06 1752.83 2026.98 1803.86C2488.52 1844.69 2765.88 1604.2 2846.86 1478.85" stroke="url(#paint24_linear_707_420)" stroke-opacity="0.4" stroke-width="1.25"/>
<path d="M212.988 2073.43C374.486 1856.55 469.994 1808.74 642.877 1844.82C815.76 1880.9 875.355 2051.66 1242.33 1995.88C1609.31 1940.1 1457.74 1723.7 2034.66 1774.74C2496.2 1815.57 2773.55 1575.08 2854.54 1449.73" stroke="url(#paint25_linear_707_420)" stroke-opacity="0.4" stroke-width="1.25"/>
<path d="M220.667 2044.31C382.166 1827.43 477.673 1779.62 650.556 1815.7C823.439 1851.77 883.035 2022.53 1250.01 1966.76C1616.99 1910.98 1465.42 1694.58 2042.34 1745.62C2503.88 1786.45 2781.23 1545.96 2862.22 1420.6" stroke="url(#paint26_linear_707_420)" stroke-opacity="0.4" stroke-width="1.25"/>
<path d="M228.343 2015.18C389.842 1798.31 485.349 1750.49 658.232 1786.57C831.115 1822.65 890.71 1993.41 1257.69 1937.63C1624.66 1881.86 1473.09 1665.46 2050.02 1716.49C2511.55 1757.32 2788.91 1516.83 2869.9 1391.48" stroke="url(#paint27_linear_707_420)" stroke-opacity="0.4" stroke-width="1.25"/>
<path d="M236.021 1986.06C397.519 1769.18 493.027 1721.37 665.91 1757.45C838.793 1793.53 898.388 1964.29 1265.37 1908.51C1632.34 1852.73 1480.77 1636.33 2057.69 1687.37C2519.23 1728.2 2796.59 1487.71 2877.57 1362.36" stroke="url(#paint28_linear_707_420)" stroke-opacity="0.4" stroke-width="1.25"/>
<path d="M243.699 1956.94C405.197 1740.06 500.705 1692.25 673.588 1728.33C846.471 1764.4 906.066 1935.16 1273.04 1879.39C1640.02 1823.61 1488.45 1607.21 2065.37 1658.25C2526.91 1699.08 2804.27 1458.58 2885.25 1333.23" stroke="url(#paint29_linear_707_420)" stroke-opacity="0.4" stroke-width="1.25"/>
<path d="M251.375 1927.81C412.873 1710.94 508.38 1663.12 681.263 1699.2C854.146 1735.28 913.742 1906.04 1280.72 1850.26C1647.7 1794.49 1496.12 1578.08 2073.05 1629.12C2534.59 1669.95 2811.94 1429.46 2892.93 1304.11" stroke="url(#paint30_linear_707_420)" stroke-opacity="0.4" stroke-width="1.25"/>
<path d="M259.052 1898.69C420.551 1681.81 516.058 1634 688.941 1670.08C861.824 1706.16 921.419 1876.92 1288.4 1821.14C1655.37 1765.36 1503.8 1548.96 2080.72 1600C2542.26 1640.83 2819.62 1400.34 2900.6 1274.99" stroke="url(#paint31_linear_707_420)" stroke-opacity="0.4" stroke-width="1.25"/>
<path d="M266.73 1869.57C428.228 1652.69 523.736 1604.88 696.619 1640.96C869.502 1677.03 929.097 1847.79 1296.07 1792.02C1663.05 1736.24 1511.48 1519.84 2088.4 1570.88C2549.94 1611.71 2827.3 1371.21 2908.28 1245.86" stroke="url(#paint32_linear_707_420)" stroke-opacity="0.4" stroke-width="1.25"/>
<path d="M274.408 1840.44C435.906 1623.57 531.414 1575.76 704.297 1611.83C877.179 1647.91 936.775 1818.67 1303.75 1762.89C1670.73 1707.12 1519.16 1490.72 2096.08 1541.75C2557.62 1582.59 2834.97 1342.09 2915.96 1216.74" stroke="url(#paint33_linear_707_420)" stroke-opacity="0.4" stroke-width="1.25"/>
<path d="M282.083 1811.32C443.582 1594.44 539.089 1546.63 711.972 1582.71C884.855 1618.79 944.451 1789.55 1311.43 1733.77C1678.4 1677.99 1526.83 1461.59 2103.76 1512.63C2565.29 1553.46 2842.65 1312.97 2923.64 1187.62" stroke="url(#paint34_linear_707_420)" stroke-opacity="0.4" stroke-width="1.25"/>
<path d="M289.761 1782.2C451.26 1565.32 546.767 1517.51 719.65 1553.59C892.533 1589.66 952.128 1760.42 1319.11 1704.65C1686.08 1648.87 1534.51 1432.47 2111.43 1483.51C2572.97 1524.34 2850.33 1283.84 2931.31 1158.49" stroke="url(#paint35_linear_707_420)" stroke-opacity="0.4" stroke-width="1.25"/>
<path d="M297.437 1753.07C458.935 1536.2 554.443 1488.38 727.326 1524.46C900.209 1560.54 959.804 1731.3 1326.78 1675.52C1693.76 1619.74 1542.19 1403.34 2119.11 1454.38C2580.65 1495.21 2858 1254.72 2938.99 1129.37" stroke="url(#paint36_linear_707_420)" stroke-opacity="0.4" stroke-width="1.25"/>
<path d="M305.115 1723.95C466.613 1507.07 562.121 1459.26 735.004 1495.34C907.887 1531.42 967.482 1702.18 1334.46 1646.4C1701.44 1590.62 1549.86 1374.22 2126.79 1425.26C2588.33 1466.09 2865.68 1225.6 2946.67 1100.25" stroke="url(#paint37_linear_707_420)" stroke-opacity="0.4" stroke-width="1.25"/>
<path d="M312.792 1694.83C474.291 1477.95 569.798 1430.14 742.681 1466.22C915.564 1502.29 975.16 1673.05 1342.14 1617.28C1709.11 1561.5 1557.54 1345.1 2134.46 1396.14C2596 1436.97 2873.36 1196.47 2954.34 1071.12" stroke="url(#paint38_linear_707_420)" stroke-opacity="0.4" stroke-width="1.25"/>
<path d="M320.468 1665.7C481.967 1448.83 577.474 1401.02 750.357 1437.09C923.24 1473.17 982.835 1643.93 1349.81 1588.15C1716.79 1532.38 1565.22 1315.98 2142.14 1367.01C2603.68 1407.84 2881.03 1167.35 2962.02 1042" stroke="url(#paint39_linear_707_420)" stroke-opacity="0.4" stroke-width="1.25"/>
<path d="M328.146 1636.58C489.644 1419.71 585.152 1371.89 758.035 1407.97C930.918 1444.05 990.513 1614.81 1357.49 1559.03C1724.47 1503.25 1572.9 1286.85 2149.82 1337.89C2611.36 1378.72 2888.71 1138.23 2969.7 1012.88" stroke="url(#paint40_linear_707_420)" stroke-opacity="0.4" stroke-width="1.25"/>
<path d="M335.822 1607.46C497.32 1390.58 592.828 1342.77 765.711 1378.85C938.594 1414.92 998.189 1585.68 1365.17 1529.91C1732.14 1474.13 1580.57 1257.73 2157.49 1308.77C2619.03 1349.6 2896.39 1109.1 2977.37 983.754" stroke="url(#paint41_linear_707_420)" stroke-opacity="0.4" stroke-width="1.25"/>
<path d="M343.498 1578.33C504.996 1361.46 600.503 1313.64 773.386 1349.72C946.269 1385.8 1005.86 1556.56 1372.84 1500.78C1739.82 1445.01 1588.25 1228.61 2165.17 1279.64C2626.71 1320.47 2904.06 1079.98 2985.05 954.631" stroke="url(#paint42_linear_707_420)" stroke-opacity="0.4" stroke-width="1.25"/>
<path d="M351.177 1549.21C512.676 1332.34 608.183 1284.52 781.066 1320.6C953.949 1356.68 1013.54 1527.44 1380.52 1471.66C1747.5 1415.88 1595.93 1199.48 2172.85 1250.52C2634.39 1291.35 2911.74 1050.86 2992.73 925.509" stroke="url(#paint43_linear_707_420)" stroke-opacity="0.4" stroke-width="1.25"/>
<path d="M358.853 1520.09C520.352 1303.21 615.859 1255.4 788.742 1291.48C961.625 1327.56 1021.22 1498.31 1388.2 1442.54C1755.17 1386.76 1603.6 1170.36 2180.53 1221.4C2642.06 1262.23 2919.42 1021.74 3000.4 896.385" stroke="url(#paint44_linear_707_420)" stroke-opacity="0.4" stroke-width="1.25"/>
<path d="M366.531 1490.97C528.029 1274.09 623.537 1226.28 796.42 1262.35C969.303 1298.43 1028.9 1469.19 1395.87 1413.41C1762.85 1357.64 1611.28 1141.24 2188.2 1192.27C2649.74 1233.11 2927.1 992.612 3008.08 867.262" stroke="url(#paint45_linear_707_420)" stroke-opacity="0.4" stroke-width="1.25"/>
<path d="M374.207 1461.84C535.705 1244.97 631.212 1197.15 804.095 1233.23C976.978 1269.31 1036.57 1440.07 1403.55 1384.29C1770.53 1328.51 1618.96 1112.11 2195.88 1163.15C2657.42 1203.98 2934.77 963.488 3015.76 838.138" stroke="url(#paint46_linear_707_420)" stroke-opacity="0.4" stroke-width="1.25"/>
<path d="M381.886 1432.72C543.385 1215.84 638.892 1168.03 811.775 1204.11C984.658 1240.19 1044.25 1410.95 1411.23 1355.17C1778.21 1299.39 1626.64 1082.99 2203.56 1134.03C2665.1 1174.86 2942.45 934.366 3023.44 809.016" stroke="url(#paint47_linear_707_420)" stroke-opacity="0.4" stroke-width="1.25"/>
<path d="M389.562 1403.6C551.061 1186.72 646.568 1138.91 819.451 1174.98C992.334 1211.06 1051.93 1381.82 1418.91 1326.04C1785.88 1270.27 1634.31 1053.87 2211.23 1104.9C2672.77 1145.74 2950.13 905.242 3031.11 779.892" stroke="url(#paint48_linear_707_420)" stroke-opacity="0.4" stroke-width="1.25"/>
<path d="M397.24 1374.47C558.738 1157.6 654.246 1109.78 827.129 1145.86C1000.01 1181.94 1059.61 1352.7 1426.58 1296.92C1793.56 1241.14 1641.99 1024.74 2218.91 1075.78C2680.45 1116.61 2957.81 876.12 3038.79 750.77" stroke="url(#paint49_linear_707_420)" stroke-opacity="0.4" stroke-width="1.25"/>
<path d="M404.916 1345.35C566.414 1128.47 661.921 1080.66 834.804 1116.74C1007.69 1152.82 1067.28 1323.58 1434.26 1267.8C1801.24 1212.02 1649.66 995.62 2226.59 1046.66C2688.13 1087.49 2965.48 846.996 3046.47 721.646" stroke="url(#paint50_linear_707_420)" stroke-opacity="0.4" stroke-width="1.25"/>
<path d="M412.595 1316.23C574.094 1099.35 669.601 1051.54 842.484 1087.62C1015.37 1123.69 1074.96 1294.45 1441.94 1238.68C1808.92 1182.9 1657.34 966.498 2234.27 1017.54C2695.81 1058.37 2973.16 817.874 3054.15 692.524" stroke="url(#paint51_linear_707_420)" stroke-opacity="0.4" stroke-width="1.25"/>
<path d="M420.271 1287.1C581.769 1070.23 677.277 1022.41 850.16 1058.49C1023.04 1094.57 1082.64 1265.33 1449.62 1209.55C1816.59 1153.77 1665.02 937.373 2241.94 988.411C2703.48 1029.24 2980.84 788.749 3061.82 663.399" stroke="url(#paint52_linear_707_420)" stroke-opacity="0.4" stroke-width="1.25"/>
<path d="M427.947 1257.98C589.445 1041.1 684.953 993.289 857.836 1029.37C1030.72 1065.45 1090.31 1236.21 1457.29 1180.43C1824.27 1124.65 1672.7 908.25 2249.62 959.288C2711.16 1000.12 2988.51 759.626 3069.5 634.276" stroke="url(#paint53_linear_707_420)" stroke-opacity="0.4" stroke-width="1.25"/>
<path d="M435.624 1228.86C597.123 1011.98 692.63 964.165 865.513 1000.24C1038.4 1036.32 1097.99 1207.08 1464.97 1151.3C1831.95 1095.53 1680.37 879.126 2257.3 930.164C2718.84 970.995 2996.19 730.502 3077.18 605.152" stroke="url(#paint54_linear_707_420)" stroke-opacity="0.4" stroke-width="1.25"/>
</g>
<defs>
<linearGradient id="paint0_linear_707_420" x1="1480.46" y1="1879.92" x2="1174.95" y2="3092.29" gradientUnits="userSpaceOnUse">
<stop stop-color="#399780"/>
<stop offset="1" stop-color="#480E8B"/>
<stop offset="1" stop-color="#480E8B"/>
</linearGradient>
<linearGradient id="paint1_linear_707_420" x1="1488.13" y1="1850.79" x2="1182.62" y2="3063.17" gradientUnits="userSpaceOnUse">
<stop stop-color="#399780"/>
<stop offset="1" stop-color="#480E8B"/>
<stop offset="1" stop-color="#480E8B"/>
</linearGradient>
<linearGradient id="paint2_linear_707_420" x1="1495.81" y1="1821.67" x2="1190.3" y2="3034.04" gradientUnits="userSpaceOnUse">
<stop stop-color="#399780"/>
<stop offset="1" stop-color="#480E8B"/>
<stop offset="1" stop-color="#480E8B"/>
</linearGradient>
<linearGradient id="paint3_linear_707_420" x1="1503.49" y1="1792.55" x2="1197.97" y2="3004.92" gradientUnits="userSpaceOnUse">
<stop stop-color="#399780"/>
<stop offset="1" stop-color="#480E8B"/>
<stop offset="1" stop-color="#480E8B"/>
</linearGradient>
<linearGradient id="paint4_linear_707_420" x1="1511.17" y1="1763.42" x2="1205.65" y2="2975.8" gradientUnits="userSpaceOnUse">
<stop stop-color="#399780"/>
<stop offset="1" stop-color="#480E8B"/>
<stop offset="1" stop-color="#480E8B"/>
</linearGradient>
<linearGradient id="paint5_linear_707_420" x1="1518.84" y1="1734.3" x2="1213.33" y2="2946.67" gradientUnits="userSpaceOnUse">
<stop stop-color="#399780"/>
<stop offset="1" stop-color="#480E8B"/>
<stop offset="1" stop-color="#480E8B"/>
</linearGradient>
<linearGradient id="paint6_linear_707_420" x1="1526.52" y1="1705.17" x2="1221.01" y2="2917.55" gradientUnits="userSpaceOnUse">
<stop stop-color="#399780"/>
<stop offset="1" stop-color="#480E8B"/>
<stop offset="1" stop-color="#480E8B"/>
</linearGradient>
<linearGradient id="paint7_linear_707_420" x1="1534.2" y1="1676.05" x2="1228.68" y2="2888.43" gradientUnits="userSpaceOnUse">
<stop stop-color="#399780"/>
<stop offset="1" stop-color="#480E8B"/>
<stop offset="1" stop-color="#480E8B"/>
</linearGradient>
<linearGradient id="paint8_linear_707_420" x1="1541.87" y1="1646.93" x2="1236.36" y2="2859.3" gradientUnits="userSpaceOnUse">
<stop stop-color="#399780"/>
<stop offset="1" stop-color="#480E8B"/>
<stop offset="1" stop-color="#480E8B"/>
</linearGradient>
<linearGradient id="paint9_linear_707_420" x1="1549.55" y1="1617.8" x2="1244.04" y2="2830.18" gradientUnits="userSpaceOnUse">
<stop stop-color="#399780"/>
<stop offset="1" stop-color="#480E8B"/>
<stop offset="1" stop-color="#480E8B"/>
</linearGradient>
<linearGradient id="paint10_linear_707_420" x1="1557.23" y1="1588.68" x2="1251.72" y2="2801.06" gradientUnits="userSpaceOnUse">
<stop stop-color="#399780"/>
<stop offset="1" stop-color="#480E8B"/>
<stop offset="1" stop-color="#480E8B"/>
</linearGradient>
<linearGradient id="paint11_linear_707_420" x1="1564.91" y1="1559.56" x2="1259.39" y2="2771.93" gradientUnits="userSpaceOnUse">
<stop stop-color="#399780"/>
<stop offset="1" stop-color="#480E8B"/>
<stop offset="1" stop-color="#480E8B"/>
</linearGradient>
<linearGradient id="paint12_linear_707_420" x1="1572.58" y1="1530.44" x2="1267.07" y2="2742.81" gradientUnits="userSpaceOnUse">
<stop stop-color="#399780"/>
<stop offset="1" stop-color="#480E8B"/>
<stop offset="1" stop-color="#480E8B"/>
</linearGradient>
<linearGradient id="paint13_linear_707_420" x1="1580.26" y1="1501.31" x2="1274.75" y2="2713.69" gradientUnits="userSpaceOnUse">
<stop stop-color="#399780"/>
<stop offset="1" stop-color="#480E8B"/>
<stop offset="1" stop-color="#480E8B"/>
</linearGradient>
<linearGradient id="paint14_linear_707_420" x1="1587.94" y1="1472.19" x2="1282.42" y2="2684.56" gradientUnits="userSpaceOnUse">
<stop stop-color="#399780"/>
<stop offset="1" stop-color="#480E8B"/>
<stop offset="1" stop-color="#480E8B"/>
</linearGradient>
<linearGradient id="paint15_linear_707_420" x1="1595.61" y1="1443.06" x2="1290.1" y2="2655.44" gradientUnits="userSpaceOnUse">
<stop stop-color="#399780"/>
<stop offset="1" stop-color="#480E8B"/>
<stop offset="1" stop-color="#480E8B"/>
</linearGradient>
<linearGradient id="paint16_linear_707_420" x1="1603.29" y1="1413.94" x2="1297.78" y2="2626.32" gradientUnits="userSpaceOnUse">
<stop stop-color="#399780"/>
<stop offset="1" stop-color="#480E8B"/>
<stop offset="1" stop-color="#480E8B"/>
</linearGradient>
<linearGradient id="paint17_linear_707_420" x1="1610.97" y1="1384.82" x2="1305.45" y2="2597.19" gradientUnits="userSpaceOnUse">
<stop stop-color="#399780"/>
<stop offset="1" stop-color="#480E8B"/>
<stop offset="1" stop-color="#480E8B"/>
</linearGradient>
<linearGradient id="paint18_linear_707_420" x1="1618.65" y1="1355.69" x2="1313.13" y2="2568.07" gradientUnits="userSpaceOnUse">
<stop stop-color="#399780"/>
<stop offset="1" stop-color="#480E8B"/>
<stop offset="1" stop-color="#480E8B"/>
</linearGradient>
<linearGradient id="paint19_linear_707_420" x1="1626.32" y1="1326.57" x2="1320.81" y2="2538.95" gradientUnits="userSpaceOnUse">
<stop stop-color="#399780"/>
<stop offset="1" stop-color="#480E8B"/>
<stop offset="1" stop-color="#480E8B"/>
</linearGradient>
<linearGradient id="paint20_linear_707_420" x1="1634" y1="1297.45" x2="1328.48" y2="2509.82" gradientUnits="userSpaceOnUse">
<stop stop-color="#399780"/>
<stop offset="1" stop-color="#480E8B"/>
<stop offset="1" stop-color="#480E8B"/>
</linearGradient>
<linearGradient id="paint21_linear_707_420" x1="1641.68" y1="1268.32" x2="1336.17" y2="2480.7" gradientUnits="userSpaceOnUse">
<stop stop-color="#399780"/>
<stop offset="1" stop-color="#480E8B"/>
<stop offset="1" stop-color="#480E8B"/>
</linearGradient>
<linearGradient id="paint22_linear_707_420" x1="1649.35" y1="1239.2" x2="1343.84" y2="2451.57" gradientUnits="userSpaceOnUse">
<stop stop-color="#399780"/>
<stop offset="1" stop-color="#480E8B"/>
<stop offset="1" stop-color="#480E8B"/>
</linearGradient>
<linearGradient id="paint23_linear_707_420" x1="1657.03" y1="1210.08" x2="1351.52" y2="2422.45" gradientUnits="userSpaceOnUse">
<stop stop-color="#399780"/>
<stop offset="1" stop-color="#480E8B"/>
<stop offset="1" stop-color="#480E8B"/>
</linearGradient>
<linearGradient id="paint24_linear_707_420" x1="1664.71" y1="1180.95" x2="1359.19" y2="2393.33" gradientUnits="userSpaceOnUse">
<stop stop-color="#399780"/>
<stop offset="1" stop-color="#480E8B"/>
<stop offset="1" stop-color="#480E8B"/>
</linearGradient>
<linearGradient id="paint25_linear_707_420" x1="1672.38" y1="1151.83" x2="1366.87" y2="2364.2" gradientUnits="userSpaceOnUse">
<stop stop-color="#399780"/>
<stop offset="1" stop-color="#480E8B"/>
<stop offset="1" stop-color="#480E8B"/>
</linearGradient>
<linearGradient id="paint26_linear_707_420" x1="1680.06" y1="1122.71" x2="1374.55" y2="2335.08" gradientUnits="userSpaceOnUse">
<stop stop-color="#399780"/>
<stop offset="1" stop-color="#480E8B"/>
<stop offset="1" stop-color="#480E8B"/>
</linearGradient>
<linearGradient id="paint27_linear_707_420" x1="1687.74" y1="1093.58" x2="1382.23" y2="2305.96" gradientUnits="userSpaceOnUse">
<stop stop-color="#399780"/>
<stop offset="1" stop-color="#480E8B"/>
<stop offset="1" stop-color="#480E8B"/>
</linearGradient>
<linearGradient id="paint28_linear_707_420" x1="1695.42" y1="1064.46" x2="1389.9" y2="2276.83" gradientUnits="userSpaceOnUse">
<stop stop-color="#399780"/>
<stop offset="1" stop-color="#480E8B"/>
<stop offset="1" stop-color="#480E8B"/>
</linearGradient>
<linearGradient id="paint29_linear_707_420" x1="1703.1" y1="1035.34" x2="1397.58" y2="2247.71" gradientUnits="userSpaceOnUse">
<stop stop-color="#399780"/>
<stop offset="1" stop-color="#480E8B"/>
<stop offset="1" stop-color="#480E8B"/>
</linearGradient>
<linearGradient id="paint30_linear_707_420" x1="1710.77" y1="1006.21" x2="1405.26" y2="2218.59" gradientUnits="userSpaceOnUse">
<stop stop-color="#399780"/>
<stop offset="1" stop-color="#480E8B"/>
<stop offset="1" stop-color="#480E8B"/>
</linearGradient>
<linearGradient id="paint31_linear_707_420" x1="1718.45" y1="977.088" x2="1412.94" y2="2189.46" gradientUnits="userSpaceOnUse">
<stop stop-color="#399780"/>
<stop offset="1" stop-color="#480E8B"/>
<stop offset="1" stop-color="#480E8B"/>
</linearGradient>
<linearGradient id="paint32_linear_707_420" x1="1726.13" y1="947.965" x2="1420.61" y2="2160.34" gradientUnits="userSpaceOnUse">
<stop stop-color="#399780"/>
<stop offset="1" stop-color="#480E8B"/>
<stop offset="1" stop-color="#480E8B"/>
</linearGradient>
<linearGradient id="paint33_linear_707_420" x1="1733.8" y1="918.843" x2="1428.29" y2="2131.22" gradientUnits="userSpaceOnUse">
<stop stop-color="#399780"/>
<stop offset="1" stop-color="#480E8B"/>
<stop offset="1" stop-color="#480E8B"/>
</linearGradient>
<linearGradient id="paint34_linear_707_420" x1="1741.48" y1="889.719" x2="1435.97" y2="2102.09" gradientUnits="userSpaceOnUse">
<stop stop-color="#399780"/>
<stop offset="1" stop-color="#480E8B"/>
<stop offset="1" stop-color="#480E8B"/>
</linearGradient>
<linearGradient id="paint35_linear_707_420" x1="1749.16" y1="860.596" x2="1443.64" y2="2072.97" gradientUnits="userSpaceOnUse">
<stop stop-color="#399780"/>
<stop offset="1" stop-color="#480E8B"/>
<stop offset="1" stop-color="#480E8B"/>
</linearGradient>
<linearGradient id="paint36_linear_707_420" x1="1756.83" y1="831.472" x2="1451.32" y2="2043.85" gradientUnits="userSpaceOnUse">
<stop stop-color="#399780"/>
<stop offset="1" stop-color="#480E8B"/>
<stop offset="1" stop-color="#480E8B"/>
</linearGradient>
<linearGradient id="paint37_linear_707_420" x1="1764.51" y1="802.349" x2="1459" y2="2014.72" gradientUnits="userSpaceOnUse">
<stop stop-color="#399780"/>
<stop offset="1" stop-color="#480E8B"/>
<stop offset="1" stop-color="#480E8B"/>
</linearGradient>
<linearGradient id="paint38_linear_707_420" x1="1772.19" y1="773.226" x2="1466.68" y2="1985.6" gradientUnits="userSpaceOnUse">
<stop stop-color="#399780"/>
<stop offset="1" stop-color="#480E8B"/>
<stop offset="1" stop-color="#480E8B"/>
</linearGradient>
<linearGradient id="paint39_linear_707_420" x1="1779.86" y1="744.103" x2="1474.35" y2="1956.48" gradientUnits="userSpaceOnUse">
<stop stop-color="#399780"/>
<stop offset="1" stop-color="#480E8B"/>
<stop offset="1" stop-color="#480E8B"/>
</linearGradient>
<linearGradient id="paint40_linear_707_420" x1="1787.54" y1="714.98" x2="1482.03" y2="1927.36" gradientUnits="userSpaceOnUse">
<stop stop-color="#399780"/>
<stop offset="1" stop-color="#480E8B"/>
<stop offset="1" stop-color="#480E8B"/>
</linearGradient>
<linearGradient id="paint41_linear_707_420" x1="1795.22" y1="685.856" x2="1489.7" y2="1898.23" gradientUnits="userSpaceOnUse">
<stop stop-color="#399780"/>
<stop offset="1" stop-color="#480E8B"/>
<stop offset="1" stop-color="#480E8B"/>
</linearGradient>
<linearGradient id="paint42_linear_707_420" x1="1802.89" y1="656.733" x2="1497.38" y2="1869.11" gradientUnits="userSpaceOnUse">
<stop stop-color="#399780"/>
<stop offset="1" stop-color="#480E8B"/>
<stop offset="1" stop-color="#480E8B"/>
</linearGradient>
<linearGradient id="paint43_linear_707_420" x1="1810.57" y1="627.611" x2="1505.06" y2="1839.99" gradientUnits="userSpaceOnUse">
<stop stop-color="#399780"/>
<stop offset="1" stop-color="#480E8B"/>
<stop offset="1" stop-color="#480E8B"/>
</linearGradient>
<linearGradient id="paint44_linear_707_420" x1="1818.25" y1="598.487" x2="1512.74" y2="1810.86" gradientUnits="userSpaceOnUse">
<stop stop-color="#399780"/>
<stop offset="1" stop-color="#480E8B"/>
<stop offset="1" stop-color="#480E8B"/>
</linearGradient>
<linearGradient id="paint45_linear_707_420" x1="1825.93" y1="569.364" x2="1520.41" y2="1781.74" gradientUnits="userSpaceOnUse">
<stop stop-color="#399780"/>
<stop offset="1" stop-color="#480E8B"/>
<stop offset="1" stop-color="#480E8B"/>
</linearGradient>
<linearGradient id="paint46_linear_707_420" x1="1833.6" y1="540.24" x2="1528.09" y2="1752.61" gradientUnits="userSpaceOnUse">
<stop stop-color="#399780"/>
<stop offset="1" stop-color="#480E8B"/>
<stop offset="1" stop-color="#480E8B"/>
</linearGradient>
<linearGradient id="paint47_linear_707_420" x1="1841.28" y1="511.118" x2="1535.77" y2="1723.49" gradientUnits="userSpaceOnUse">
<stop stop-color="#399780"/>
<stop offset="1" stop-color="#480E8B"/>
<stop offset="1" stop-color="#480E8B"/>
</linearGradient>
<linearGradient id="paint48_linear_707_420" x1="1848.96" y1="481.994" x2="1543.45" y2="1694.37" gradientUnits="userSpaceOnUse">
<stop stop-color="#399780"/>
<stop offset="1" stop-color="#480E8B"/>
<stop offset="1" stop-color="#480E8B"/>
</linearGradient>
<linearGradient id="paint49_linear_707_420" x1="1856.64" y1="452.872" x2="1551.12" y2="1665.25" gradientUnits="userSpaceOnUse">
<stop stop-color="#399780"/>
<stop offset="1" stop-color="#480E8B"/>
<stop offset="1" stop-color="#480E8B"/>
</linearGradient>
<linearGradient id="paint50_linear_707_420" x1="1864.31" y1="423.748" x2="1558.8" y2="1636.12" gradientUnits="userSpaceOnUse">
<stop stop-color="#399780"/>
<stop offset="1" stop-color="#480E8B"/>
<stop offset="1" stop-color="#480E8B"/>
</linearGradient>
<linearGradient id="paint51_linear_707_420" x1="1871.99" y1="394.626" x2="1566.48" y2="1607" gradientUnits="userSpaceOnUse">
<stop stop-color="#399780"/>
<stop offset="1" stop-color="#480E8B"/>
<stop offset="1" stop-color="#480E8B"/>
</linearGradient>
<linearGradient id="paint52_linear_707_420" x1="1879.67" y1="365.501" x2="1574.15" y2="1577.88" gradientUnits="userSpaceOnUse">
<stop stop-color="#399780"/>
<stop offset="1" stop-color="#480E8B"/>
<stop offset="1" stop-color="#480E8B"/>
</linearGradient>
<linearGradient id="paint53_linear_707_420" x1="1887.34" y1="336.378" x2="1581.83" y2="1548.75" gradientUnits="userSpaceOnUse">
<stop stop-color="#399780"/>
<stop offset="1" stop-color="#480E8B"/>
<stop offset="1" stop-color="#480E8B"/>
</linearGradient>
<linearGradient id="paint54_linear_707_420" x1="1895.02" y1="307.254" x2="1589.51" y2="1519.63" gradientUnits="userSpaceOnUse">
<stop stop-color="#399780"/>
<stop offset="1" stop-color="#480E8B"/>
<stop offset="1" stop-color="#480E8B"/>
</linearGradient>
</defs>
</svg>
