<svg width="3063" height="3266" viewBox="0 0 3063 3266" fill="none" xmlns="http://www.w3.org/2000/svg">
<g opacity="0.5">
<path d="M3.49754 2683.3C164.996 2475.84 260.503 2430.1 433.386 2464.62C606.269 2499.13 665.865 2662.47 1032.84 2609.11C1399.82 2555.76 1248.25 2348.76 1825.17 2397.58C2286.71 2436.64 2564.06 2206.59 2645.05 2086.68" stroke="url(#paint0_linear_707_1440)" stroke-opacity="0.4" stroke-width="1.25"/>
<path d="M11.1753 2655.44C172.674 2447.98 268.181 2402.25 441.064 2436.76C613.947 2471.27 673.542 2634.61 1040.52 2581.26C1407.5 2527.9 1255.92 2320.9 1832.85 2369.72C2294.39 2408.78 2571.74 2178.73 2652.73 2058.83" stroke="url(#paint1_linear_707_1440)" stroke-opacity="0.4" stroke-width="1.25"/>
<path d="M18.853 2627.58C180.351 2420.12 275.859 2374.39 448.742 2408.9C621.625 2443.41 681.22 2606.75 1048.2 2553.4C1415.17 2500.04 1263.6 2293.04 1840.53 2341.86C2302.06 2380.92 2579.42 2150.87 2660.4 2030.97" stroke="url(#paint2_linear_707_1440)" stroke-opacity="0.4" stroke-width="1.25"/>
<path d="M26.5288 2599.72C188.027 2392.27 283.535 2346.53 456.418 2381.04C629.3 2415.55 688.896 2578.89 1055.87 2525.54C1422.85 2472.18 1271.28 2265.18 1848.2 2314C2309.74 2353.06 2587.09 2123.01 2668.08 2003.11" stroke="url(#paint3_linear_707_1440)" stroke-opacity="0.4" stroke-width="1.25"/>
<path d="M34.2065 2571.86C195.705 2364.41 291.212 2318.67 464.095 2353.18C636.978 2387.69 696.573 2551.04 1063.55 2497.68C1430.53 2444.33 1278.96 2237.33 1855.88 2286.15C2317.42 2325.2 2594.77 2095.16 2675.76 1975.25" stroke="url(#paint4_linear_707_1440)" stroke-opacity="0.4" stroke-width="1.25"/>
<path d="M41.8843 2544.01C203.383 2336.55 298.89 2290.81 471.773 2325.32C644.656 2359.83 704.251 2523.18 1071.23 2469.82C1438.21 2416.47 1286.63 2209.47 1863.56 2258.29C2325.09 2297.35 2602.45 2067.3 2683.44 1947.39" stroke="url(#paint5_linear_707_1440)" stroke-opacity="0.4" stroke-width="1.25"/>
<path d="M49.562 2516.15C211.06 2308.69 306.568 2262.95 479.451 2297.47C652.334 2331.98 711.929 2495.32 1078.91 2441.96C1445.88 2388.61 1294.31 2181.61 1871.23 2230.43C2332.77 2269.49 2610.13 2039.44 2691.11 1919.53" stroke="url(#paint6_linear_707_1440)" stroke-opacity="0.4" stroke-width="1.25"/>
<path d="M57.2358 2488.29C218.734 2280.83 314.242 2235.1 487.125 2269.61C660.008 2304.12 719.603 2467.46 1086.58 2414.11C1453.56 2360.75 1301.99 2153.75 1878.91 2202.57C2340.45 2241.63 2617.8 2011.58 2698.79 1891.68" stroke="url(#paint7_linear_707_1440)" stroke-opacity="0.4" stroke-width="1.25"/>
<path d="M64.9155 2460.43C226.414 2252.97 321.921 2207.24 494.804 2241.75C667.687 2276.26 727.282 2439.6 1094.26 2386.25C1461.24 2332.89 1309.66 2125.89 1886.59 2174.71C2348.13 2213.77 2625.48 1983.72 2706.47 1863.82" stroke="url(#paint8_linear_707_1440)" stroke-opacity="0.4" stroke-width="1.25"/>
<path d="M72.5913 2432.57C234.09 2225.11 329.597 2179.38 502.48 2213.89C675.363 2248.4 734.958 2411.74 1101.94 2358.39C1468.91 2305.03 1317.34 2098.03 1894.26 2146.85C2355.8 2185.91 2633.16 1955.86 2714.14 1835.96" stroke="url(#paint9_linear_707_1440)" stroke-opacity="0.4" stroke-width="1.25"/>
<path d="M80.269 2404.71C241.768 2197.26 337.275 2151.52 510.158 2186.03C683.041 2220.54 742.636 2383.88 1109.61 2330.53C1476.59 2277.17 1325.02 2070.17 1901.94 2119C2363.48 2158.05 2640.84 1928 2721.82 1808.1" stroke="url(#paint10_linear_707_1440)" stroke-opacity="0.4" stroke-width="1.25"/>
<path d="M87.9448 2376.85C249.443 2169.4 344.951 2123.66 517.834 2158.17C690.717 2192.68 750.312 2356.03 1117.29 2302.67C1484.27 2249.32 1332.69 2042.32 1909.62 2091.14C2371.16 2130.19 2648.51 1900.15 2729.5 1780.24" stroke="url(#paint11_linear_707_1440)" stroke-opacity="0.4" stroke-width="1.25"/>
<path d="M95.6225 2349C257.121 2141.54 352.628 2095.8 525.511 2130.31C698.394 2164.83 757.99 2328.17 1124.97 2274.81C1491.94 2221.46 1340.37 2014.46 1917.29 2063.28C2378.83 2102.34 2656.19 1872.29 2737.17 1752.38" stroke="url(#paint12_linear_707_1440)" stroke-opacity="0.4" stroke-width="1.25"/>
<path d="M103.3 2321.14C264.799 2113.68 360.306 2067.94 533.189 2102.46C706.072 2136.97 765.667 2300.31 1132.64 2246.95C1499.62 2193.6 1348.05 1986.6 1924.97 2035.42C2386.51 2074.48 2663.87 1844.43 2744.85 1724.52" stroke="url(#paint13_linear_707_1440)" stroke-opacity="0.4" stroke-width="1.25"/>
<path d="M110.976 2293.28C272.475 2085.82 367.982 2040.09 540.865 2074.6C713.748 2109.11 773.343 2272.45 1140.32 2219.1C1507.3 2165.74 1355.73 1958.74 1932.65 2007.56C2394.19 2046.62 2671.54 1816.57 2752.53 1696.66" stroke="url(#paint14_linear_707_1440)" stroke-opacity="0.4" stroke-width="1.25"/>
<path d="M118.656 2265.42C280.154 2057.96 375.662 2012.23 548.545 2046.74C721.427 2081.25 781.023 2244.59 1148 2191.24C1514.98 2137.88 1363.41 1930.88 1940.33 1979.7C2401.87 2018.76 2679.22 1788.71 2760.21 1668.81" stroke="url(#paint15_linear_707_1440)" stroke-opacity="0.4" stroke-width="1.25"/>
<path d="M126.33 2237.56C287.828 2030.11 383.335 1984.37 556.218 2018.88C729.101 2053.39 788.697 2216.73 1155.67 2163.38C1522.65 2110.02 1371.08 1903.02 1948 1951.84C2409.54 1990.9 2686.9 1760.85 2767.88 1640.95" stroke="url(#paint16_linear_707_1440)" stroke-opacity="0.4" stroke-width="1.25"/>
<path d="M134.007 2209.7C295.506 2002.25 391.013 1956.51 563.896 1991.02C736.779 2025.53 796.374 2188.88 1163.35 2135.52C1530.33 2082.17 1378.76 1875.16 1955.68 1923.99C2417.22 1963.04 2694.57 1733 2775.56 1613.09" stroke="url(#paint17_linear_707_1440)" stroke-opacity="0.4" stroke-width="1.25"/>
<path d="M141.685 2181.84C303.184 1974.39 398.691 1928.65 571.574 1963.16C744.457 1997.67 804.052 2161.02 1171.03 2107.66C1538.01 2054.31 1386.43 1847.31 1963.36 1896.13C2424.9 1935.18 2702.25 1705.14 2783.24 1585.23" stroke="url(#paint18_linear_707_1440)" stroke-opacity="0.4" stroke-width="1.25"/>
<path d="M149.365 2153.99C310.863 1946.53 406.371 1900.79 579.254 1935.3C752.136 1969.82 811.732 2133.16 1178.71 2079.8C1545.69 2026.45 1394.11 1819.45 1971.04 1868.27C2432.58 1907.33 2709.93 1677.28 2790.92 1557.37" stroke="url(#paint19_linear_707_1440)" stroke-opacity="0.4" stroke-width="1.25"/>
<path d="M157.039 2126.13C318.537 1918.67 414.044 1872.93 586.927 1907.45C759.81 1941.96 819.406 2105.3 1186.38 2051.94C1553.36 1998.59 1401.79 1791.59 1978.71 1840.41C2440.25 1879.47 2717.6 1649.42 2798.59 1529.51" stroke="url(#paint20_linear_707_1440)" stroke-opacity="0.4" stroke-width="1.25"/>
<path d="M164.718 2098.27C326.217 1890.81 421.724 1845.08 594.607 1879.59C767.49 1914.1 827.085 2077.44 1194.06 2024.09C1561.04 1970.73 1409.47 1763.73 1986.39 1812.55C2447.93 1851.61 2725.28 1621.56 2806.27 1501.66" stroke="url(#paint21_linear_707_1440)" stroke-opacity="0.4" stroke-width="1.25"/>
<path d="M172.394 2070.41C333.893 1862.95 429.4 1817.22 602.283 1851.73C775.166 1886.24 834.761 2049.58 1201.74 1996.23C1568.72 1942.87 1417.14 1735.87 1994.07 1784.69C2455.6 1823.75 2732.96 1593.7 2813.95 1473.8" stroke="url(#paint22_linear_707_1440)" stroke-opacity="0.4" stroke-width="1.25"/>
<path d="M180.07 2042.55C341.568 1835.1 437.076 1789.36 609.959 1823.87C782.842 1858.38 842.437 2021.72 1209.41 1968.37C1576.39 1915.01 1424.82 1708.01 2001.74 1756.83C2463.28 1795.89 2740.64 1565.84 2821.62 1445.94" stroke="url(#paint23_linear_707_1440)" stroke-opacity="0.4" stroke-width="1.25"/>
<path d="M187.748 2014.69C349.246 1807.24 444.753 1761.5 617.636 1796.01C790.519 1830.52 850.115 1993.87 1217.09 1940.51C1584.07 1887.16 1432.5 1680.16 2009.42 1728.98C2470.96 1768.03 2748.31 1537.99 2829.3 1418.08" stroke="url(#paint24_linear_707_1440)" stroke-opacity="0.4" stroke-width="1.25"/>
<path d="M195.425 1986.83C356.924 1779.38 452.431 1733.64 625.314 1768.15C798.197 1802.66 857.792 1966.01 1224.77 1912.65C1591.75 1859.3 1440.17 1652.3 2017.1 1701.12C2478.64 1740.17 2755.99 1510.13 2836.98 1390.22" stroke="url(#paint25_linear_707_1440)" stroke-opacity="0.4" stroke-width="1.25"/>
<path d="M203.103 1958.98C364.601 1751.52 460.109 1705.78 632.992 1740.3C805.875 1774.81 865.47 1938.15 1232.45 1884.79C1599.42 1831.44 1447.85 1624.44 2024.78 1673.26C2486.31 1712.32 2763.67 1482.27 2844.65 1362.36" stroke="url(#paint26_linear_707_1440)" stroke-opacity="0.4" stroke-width="1.25"/>
<path d="M210.781 1931.12C372.279 1723.66 467.787 1677.93 640.67 1712.44C813.552 1746.95 873.148 1910.29 1240.12 1856.94C1607.1 1803.58 1455.53 1596.58 2032.45 1645.4C2493.99 1684.46 2771.35 1454.41 2852.33 1334.51" stroke="url(#paint27_linear_707_1440)" stroke-opacity="0.4" stroke-width="1.25"/>
<path d="M218.457 1903.26C379.955 1695.8 475.462 1650.07 648.345 1684.58C821.228 1719.09 880.823 1882.43 1247.8 1829.08C1614.78 1775.72 1463.21 1568.72 2040.13 1617.54C2501.67 1656.6 2779.02 1426.55 2860.01 1306.65" stroke="url(#paint28_linear_707_1440)" stroke-opacity="0.4" stroke-width="1.25"/>
<path d="M226.134 1875.4C387.633 1667.95 483.14 1622.21 656.023 1656.72C828.906 1691.23 888.501 1854.57 1255.48 1801.22C1622.46 1747.86 1470.88 1540.86 2047.81 1589.69C2509.34 1628.74 2786.7 1398.69 2867.69 1278.79" stroke="url(#paint29_linear_707_1440)" stroke-opacity="0.4" stroke-width="1.25"/>
<path d="M233.812 1847.54C395.31 1640.09 490.818 1594.35 663.701 1628.86C836.584 1663.37 896.179 1826.72 1263.16 1773.36C1630.13 1720.01 1478.56 1513.01 2055.48 1561.83C2517.02 1600.88 2794.38 1370.84 2875.36 1250.93" stroke="url(#paint30_linear_707_1440)" stroke-opacity="0.4" stroke-width="1.25"/>
<path d="M241.488 1819.68C402.986 1612.23 498.494 1566.49 671.377 1601C844.259 1635.51 903.855 1798.86 1270.83 1745.5C1637.81 1692.15 1486.24 1485.15 2063.16 1533.97C2524.7 1573.02 2802.05 1342.98 2883.04 1223.07" stroke="url(#paint31_linear_707_1440)" stroke-opacity="0.4" stroke-width="1.25"/>
<path d="M249.166 1791.83C410.664 1584.37 506.171 1538.63 679.054 1573.15C851.937 1607.66 911.532 1771 1278.51 1717.64C1645.49 1664.29 1493.91 1457.29 2070.84 1506.11C2532.38 1545.17 2809.73 1315.12 2890.72 1195.21" stroke="url(#paint32_linear_707_1440)" stroke-opacity="0.4" stroke-width="1.25"/>
<path d="M256.843 1763.97C418.342 1556.51 513.849 1510.78 686.732 1545.29C859.615 1579.8 919.21 1743.14 1286.19 1689.79C1653.16 1636.43 1501.59 1429.43 2078.52 1478.25C2540.05 1517.31 2817.41 1287.26 2898.39 1167.36" stroke="url(#paint33_linear_707_1440)" stroke-opacity="0.4" stroke-width="1.25"/>
<path d="M264.521 1736.11C426.019 1528.65 521.527 1482.92 694.41 1517.43C867.293 1551.94 926.888 1715.28 1293.86 1661.93C1660.84 1608.57 1509.27 1401.57 2086.19 1450.39C2547.73 1489.45 2825.09 1259.4 2906.07 1139.5" stroke="url(#paint34_linear_707_1440)" stroke-opacity="0.4" stroke-width="1.25"/>
<path d="M272.197 1708.25C433.695 1500.8 529.203 1455.06 702.086 1489.57C874.968 1524.08 934.564 1687.42 1301.54 1634.07C1668.52 1580.71 1516.95 1373.71 2093.87 1422.53C2555.41 1461.59 2832.76 1231.54 2913.75 1111.64" stroke="url(#paint35_linear_707_1440)" stroke-opacity="0.4" stroke-width="1.25"/>
<path d="M279.874 1680.39C441.373 1472.94 536.88 1427.2 709.763 1461.71C882.646 1496.22 942.241 1659.57 1309.22 1606.21C1676.2 1552.86 1524.62 1345.85 2101.55 1394.68C2563.09 1433.73 2840.44 1203.69 2921.43 1083.78" stroke="url(#paint36_linear_707_1440)" stroke-opacity="0.4" stroke-width="1.25"/>
<path d="M287.552 1652.54C449.051 1445.08 544.558 1399.34 717.441 1433.85C890.324 1468.36 949.919 1631.71 1316.9 1578.35C1683.87 1525 1532.3 1318 2109.22 1366.82C2570.76 1405.88 2848.12 1175.83 2929.1 1055.92" stroke="url(#paint37_linear_707_1440)" stroke-opacity="0.4" stroke-width="1.25"/>
<path d="M295.228 1624.68C456.726 1417.22 552.234 1371.48 725.117 1405.99C898 1440.51 957.595 1603.85 1324.57 1550.49C1691.55 1497.14 1539.98 1290.14 2116.9 1338.96C2578.44 1378.02 2855.79 1147.97 2936.78 1028.06" stroke="url(#paint38_linear_707_1440)" stroke-opacity="0.4" stroke-width="1.25"/>
<path d="M302.904 1596.82C464.402 1389.36 559.91 1343.63 732.793 1378.14C905.675 1412.65 965.271 1575.99 1332.25 1522.64C1699.22 1469.28 1547.65 1262.28 2124.58 1311.1C2586.11 1350.16 2863.47 1120.11 2944.46 1000.21" stroke="url(#paint39_linear_707_1440)" stroke-opacity="0.4" stroke-width="1.25"/>
<path d="M310.582 1568.96C472.08 1361.5 567.587 1315.77 740.47 1350.28C913.353 1384.79 972.948 1548.13 1339.93 1494.78C1706.9 1441.42 1555.33 1234.42 2132.25 1283.24C2593.79 1322.3 2871.15 1092.25 2952.13 972.348" stroke="url(#paint40_linear_707_1440)" stroke-opacity="0.4" stroke-width="1.25"/>
<path d="M318.257 1541.1C479.756 1333.65 575.263 1287.91 748.146 1322.42C921.029 1356.93 980.624 1520.27 1347.6 1466.92C1714.58 1413.56 1563.01 1206.56 2139.93 1255.38C2601.47 1294.44 2878.82 1064.39 2959.81 944.488" stroke="url(#paint41_linear_707_1440)" stroke-opacity="0.4" stroke-width="1.25"/>
<path d="M325.933 1513.24C487.432 1305.79 582.939 1260.05 755.822 1294.56C928.705 1329.07 988.3 1492.42 1355.28 1439.06C1722.25 1385.71 1570.68 1178.71 2147.61 1227.53C2609.14 1266.58 2886.5 1036.54 2967.48 916.631" stroke="url(#paint42_linear_707_1440)" stroke-opacity="0.4" stroke-width="1.25"/>
<path d="M333.613 1485.39C495.111 1277.93 590.619 1232.19 763.502 1266.7C936.384 1301.22 995.98 1464.56 1362.96 1411.2C1729.93 1357.85 1578.36 1150.85 2155.28 1199.67C2616.82 1238.73 2894.18 1008.68 2975.16 888.773" stroke="url(#paint43_linear_707_1440)" stroke-opacity="0.4" stroke-width="1.25"/>
<path d="M341.289 1457.53C502.787 1250.07 598.294 1204.33 771.177 1238.85C944.06 1273.36 1003.66 1436.7 1370.63 1383.34C1737.61 1329.99 1586.04 1122.99 2162.96 1171.81C2624.5 1210.87 2901.85 980.82 2982.84 860.914" stroke="url(#paint44_linear_707_1440)" stroke-opacity="0.4" stroke-width="1.25"/>
<path d="M348.966 1429.67C510.465 1222.21 605.972 1176.48 778.855 1210.99C951.738 1245.5 1011.33 1408.84 1378.31 1355.49C1745.29 1302.13 1593.72 1095.13 2170.64 1143.95C2632.18 1183.01 2909.53 952.961 2990.52 833.056" stroke="url(#paint45_linear_707_1440)" stroke-opacity="0.4" stroke-width="1.25"/>
<path d="M356.642 1401.81C518.141 1194.35 613.648 1148.62 786.531 1183.13C959.414 1217.64 1019.01 1380.98 1385.99 1327.63C1752.96 1274.27 1601.39 1067.27 2178.31 1116.09C2639.85 1155.15 2917.21 925.103 2998.19 805.197" stroke="url(#paint46_linear_707_1440)" stroke-opacity="0.4" stroke-width="1.25"/>
<path d="M364.322 1373.95C525.82 1166.5 621.328 1120.76 794.211 1155.27C967.093 1189.78 1026.69 1353.13 1393.67 1299.77C1760.64 1246.42 1609.07 1039.41 2185.99 1088.24C2647.53 1127.29 2924.89 897.246 3005.87 777.34" stroke="url(#paint47_linear_707_1440)" stroke-opacity="0.4" stroke-width="1.25"/>
<path d="M371.998 1346.09C533.496 1138.64 629.003 1092.9 801.886 1127.41C974.769 1161.92 1034.36 1325.27 1401.34 1271.91C1768.32 1218.56 1616.75 1011.56 2193.67 1060.38C2655.21 1099.43 2932.56 869.387 3013.55 749.481" stroke="url(#paint48_linear_707_1440)" stroke-opacity="0.4" stroke-width="1.25"/>
<path d="M379.677 1318.24C541.176 1110.78 636.683 1065.04 809.566 1099.55C982.449 1134.07 1042.04 1297.41 1409.02 1244.05C1776 1190.7 1624.43 983.697 2201.35 1032.52C2662.89 1071.58 2940.24 841.529 3021.23 721.623" stroke="url(#paint49_linear_707_1440)" stroke-opacity="0.4" stroke-width="1.25"/>
<path d="M387.353 1290.38C548.851 1082.92 644.359 1037.18 817.242 1071.7C990.125 1106.21 1049.72 1269.55 1416.7 1216.19C1783.67 1162.84 1632.1 955.839 2209.03 1004.66C2670.56 1043.72 2947.92 813.67 3028.9 693.764" stroke="url(#paint50_linear_707_1440)" stroke-opacity="0.4" stroke-width="1.25"/>
<path d="M395.033 1262.52C556.531 1055.06 652.039 1009.33 824.921 1043.84C997.804 1078.35 1057.4 1241.69 1424.38 1188.34C1791.35 1134.98 1639.78 927.982 2216.7 976.803C2678.24 1015.86 2955.6 785.813 3036.58 665.907" stroke="url(#paint51_linear_707_1440)" stroke-opacity="0.4" stroke-width="1.25"/>
<path d="M402.707 1234.66C564.205 1027.2 659.712 981.468 832.595 1015.98C1005.48 1050.49 1065.07 1213.83 1432.05 1160.48C1799.03 1107.12 1647.46 900.122 2224.38 948.943C2685.92 988.001 2963.27 757.953 3044.26 638.047" stroke="url(#paint52_linear_707_1440)" stroke-opacity="0.4" stroke-width="1.25"/>
<path d="M410.382 1206.8C571.881 999.346 667.388 953.609 840.271 988.12C1013.15 1022.63 1072.75 1185.97 1439.73 1132.62C1806.7 1079.26 1655.13 872.263 2232.05 921.085C2693.59 960.142 2970.95 730.095 3051.93 610.189" stroke="url(#paint53_linear_707_1440)" stroke-opacity="0.4" stroke-width="1.25"/>
<path d="M418.062 1178.94C579.56 971.487 675.068 925.75 847.951 960.261C1020.83 994.773 1080.43 1158.12 1447.41 1104.76C1814.38 1051.41 1662.81 844.404 2239.73 893.226C2701.27 932.283 2978.63 702.236 3059.61 582.33" stroke="url(#paint54_linear_707_1440)" stroke-opacity="0.4" stroke-width="1.25"/>
</g>
<defs>
<linearGradient id="paint0_linear_707_1440" x1="1462.89" y1="1801.73" x2="1181.92" y2="2967.36" gradientUnits="userSpaceOnUse">
<stop stop-color="#399780"/>
<stop offset="1" stop-color="#480E8B"/>
<stop offset="1" stop-color="#480E8B"/>
</linearGradient>
<linearGradient id="paint1_linear_707_1440" x1="1470.57" y1="1773.87" x2="1189.6" y2="2939.5" gradientUnits="userSpaceOnUse">
<stop stop-color="#399780"/>
<stop offset="1" stop-color="#480E8B"/>
<stop offset="1" stop-color="#480E8B"/>
</linearGradient>
<linearGradient id="paint2_linear_707_1440" x1="1478.25" y1="1746.01" x2="1197.27" y2="2911.64" gradientUnits="userSpaceOnUse">
<stop stop-color="#399780"/>
<stop offset="1" stop-color="#480E8B"/>
<stop offset="1" stop-color="#480E8B"/>
</linearGradient>
<linearGradient id="paint3_linear_707_1440" x1="1485.92" y1="1718.15" x2="1204.95" y2="2883.78" gradientUnits="userSpaceOnUse">
<stop stop-color="#399780"/>
<stop offset="1" stop-color="#480E8B"/>
<stop offset="1" stop-color="#480E8B"/>
</linearGradient>
<linearGradient id="paint4_linear_707_1440" x1="1493.6" y1="1690.29" x2="1212.63" y2="2855.92" gradientUnits="userSpaceOnUse">
<stop stop-color="#399780"/>
<stop offset="1" stop-color="#480E8B"/>
<stop offset="1" stop-color="#480E8B"/>
</linearGradient>
<linearGradient id="paint5_linear_707_1440" x1="1501.28" y1="1662.43" x2="1220.3" y2="2828.06" gradientUnits="userSpaceOnUse">
<stop stop-color="#399780"/>
<stop offset="1" stop-color="#480E8B"/>
<stop offset="1" stop-color="#480E8B"/>
</linearGradient>
<linearGradient id="paint6_linear_707_1440" x1="1508.96" y1="1634.57" x2="1227.98" y2="2800.21" gradientUnits="userSpaceOnUse">
<stop stop-color="#399780"/>
<stop offset="1" stop-color="#480E8B"/>
<stop offset="1" stop-color="#480E8B"/>
</linearGradient>
<linearGradient id="paint7_linear_707_1440" x1="1516.63" y1="1606.72" x2="1235.66" y2="2772.35" gradientUnits="userSpaceOnUse">
<stop stop-color="#399780"/>
<stop offset="1" stop-color="#480E8B"/>
<stop offset="1" stop-color="#480E8B"/>
</linearGradient>
<linearGradient id="paint8_linear_707_1440" x1="1524.31" y1="1578.86" x2="1243.34" y2="2744.49" gradientUnits="userSpaceOnUse">
<stop stop-color="#399780"/>
<stop offset="1" stop-color="#480E8B"/>
<stop offset="1" stop-color="#480E8B"/>
</linearGradient>
<linearGradient id="paint9_linear_707_1440" x1="1531.99" y1="1551" x2="1251.01" y2="2716.63" gradientUnits="userSpaceOnUse">
<stop stop-color="#399780"/>
<stop offset="1" stop-color="#480E8B"/>
<stop offset="1" stop-color="#480E8B"/>
</linearGradient>
<linearGradient id="paint10_linear_707_1440" x1="1539.67" y1="1523.14" x2="1258.69" y2="2688.77" gradientUnits="userSpaceOnUse">
<stop stop-color="#399780"/>
<stop offset="1" stop-color="#480E8B"/>
<stop offset="1" stop-color="#480E8B"/>
</linearGradient>
<linearGradient id="paint11_linear_707_1440" x1="1547.34" y1="1495.28" x2="1266.37" y2="2660.91" gradientUnits="userSpaceOnUse">
<stop stop-color="#399780"/>
<stop offset="1" stop-color="#480E8B"/>
<stop offset="1" stop-color="#480E8B"/>
</linearGradient>
<linearGradient id="paint12_linear_707_1440" x1="1555.02" y1="1467.42" x2="1274.04" y2="2633.06" gradientUnits="userSpaceOnUse">
<stop stop-color="#399780"/>
<stop offset="1" stop-color="#480E8B"/>
<stop offset="1" stop-color="#480E8B"/>
</linearGradient>
<linearGradient id="paint13_linear_707_1440" x1="1562.7" y1="1439.57" x2="1281.72" y2="2605.2" gradientUnits="userSpaceOnUse">
<stop stop-color="#399780"/>
<stop offset="1" stop-color="#480E8B"/>
<stop offset="1" stop-color="#480E8B"/>
</linearGradient>
<linearGradient id="paint14_linear_707_1440" x1="1570.37" y1="1411.71" x2="1289.4" y2="2577.34" gradientUnits="userSpaceOnUse">
<stop stop-color="#399780"/>
<stop offset="1" stop-color="#480E8B"/>
<stop offset="1" stop-color="#480E8B"/>
</linearGradient>
<linearGradient id="paint15_linear_707_1440" x1="1578.05" y1="1383.85" x2="1297.08" y2="2549.48" gradientUnits="userSpaceOnUse">
<stop stop-color="#399780"/>
<stop offset="1" stop-color="#480E8B"/>
<stop offset="1" stop-color="#480E8B"/>
</linearGradient>
<linearGradient id="paint16_linear_707_1440" x1="1585.73" y1="1355.99" x2="1304.75" y2="2521.62" gradientUnits="userSpaceOnUse">
<stop stop-color="#399780"/>
<stop offset="1" stop-color="#480E8B"/>
<stop offset="1" stop-color="#480E8B"/>
</linearGradient>
<linearGradient id="paint17_linear_707_1440" x1="1593.4" y1="1328.13" x2="1312.43" y2="2493.76" gradientUnits="userSpaceOnUse">
<stop stop-color="#399780"/>
<stop offset="1" stop-color="#480E8B"/>
<stop offset="1" stop-color="#480E8B"/>
</linearGradient>
<linearGradient id="paint18_linear_707_1440" x1="1601.08" y1="1300.27" x2="1320.11" y2="2465.9" gradientUnits="userSpaceOnUse">
<stop stop-color="#399780"/>
<stop offset="1" stop-color="#480E8B"/>
<stop offset="1" stop-color="#480E8B"/>
</linearGradient>
<linearGradient id="paint19_linear_707_1440" x1="1608.76" y1="1272.41" x2="1327.79" y2="2438.05" gradientUnits="userSpaceOnUse">
<stop stop-color="#399780"/>
<stop offset="1" stop-color="#480E8B"/>
<stop offset="1" stop-color="#480E8B"/>
</linearGradient>
<linearGradient id="paint20_linear_707_1440" x1="1616.43" y1="1244.56" x2="1335.46" y2="2410.19" gradientUnits="userSpaceOnUse">
<stop stop-color="#399780"/>
<stop offset="1" stop-color="#480E8B"/>
<stop offset="1" stop-color="#480E8B"/>
</linearGradient>
<linearGradient id="paint21_linear_707_1440" x1="1624.11" y1="1216.7" x2="1343.14" y2="2382.33" gradientUnits="userSpaceOnUse">
<stop stop-color="#399780"/>
<stop offset="1" stop-color="#480E8B"/>
<stop offset="1" stop-color="#480E8B"/>
</linearGradient>
<linearGradient id="paint22_linear_707_1440" x1="1631.79" y1="1188.84" x2="1350.81" y2="2354.47" gradientUnits="userSpaceOnUse">
<stop stop-color="#399780"/>
<stop offset="1" stop-color="#480E8B"/>
<stop offset="1" stop-color="#480E8B"/>
</linearGradient>
<linearGradient id="paint23_linear_707_1440" x1="1639.47" y1="1160.98" x2="1358.49" y2="2326.61" gradientUnits="userSpaceOnUse">
<stop stop-color="#399780"/>
<stop offset="1" stop-color="#480E8B"/>
<stop offset="1" stop-color="#480E8B"/>
</linearGradient>
<linearGradient id="paint24_linear_707_1440" x1="1647.14" y1="1133.12" x2="1366.17" y2="2298.75" gradientUnits="userSpaceOnUse">
<stop stop-color="#399780"/>
<stop offset="1" stop-color="#480E8B"/>
<stop offset="1" stop-color="#480E8B"/>
</linearGradient>
<linearGradient id="paint25_linear_707_1440" x1="1654.82" y1="1105.26" x2="1373.85" y2="2270.89" gradientUnits="userSpaceOnUse">
<stop stop-color="#399780"/>
<stop offset="1" stop-color="#480E8B"/>
<stop offset="1" stop-color="#480E8B"/>
</linearGradient>
<linearGradient id="paint26_linear_707_1440" x1="1662.5" y1="1077.41" x2="1381.52" y2="2243.04" gradientUnits="userSpaceOnUse">
<stop stop-color="#399780"/>
<stop offset="1" stop-color="#480E8B"/>
<stop offset="1" stop-color="#480E8B"/>
</linearGradient>
<linearGradient id="paint27_linear_707_1440" x1="1670.18" y1="1049.55" x2="1389.2" y2="2215.18" gradientUnits="userSpaceOnUse">
<stop stop-color="#399780"/>
<stop offset="1" stop-color="#480E8B"/>
<stop offset="1" stop-color="#480E8B"/>
</linearGradient>
<linearGradient id="paint28_linear_707_1440" x1="1677.85" y1="1021.69" x2="1396.88" y2="2187.32" gradientUnits="userSpaceOnUse">
<stop stop-color="#399780"/>
<stop offset="1" stop-color="#480E8B"/>
<stop offset="1" stop-color="#480E8B"/>
</linearGradient>
<linearGradient id="paint29_linear_707_1440" x1="1685.53" y1="993.83" x2="1404.55" y2="2159.46" gradientUnits="userSpaceOnUse">
<stop stop-color="#399780"/>
<stop offset="1" stop-color="#480E8B"/>
<stop offset="1" stop-color="#480E8B"/>
</linearGradient>
<linearGradient id="paint30_linear_707_1440" x1="1693.21" y1="965.972" x2="1412.23" y2="2131.6" gradientUnits="userSpaceOnUse">
<stop stop-color="#399780"/>
<stop offset="1" stop-color="#480E8B"/>
<stop offset="1" stop-color="#480E8B"/>
</linearGradient>
<linearGradient id="paint31_linear_707_1440" x1="1700.88" y1="938.112" x2="1419.91" y2="2103.74" gradientUnits="userSpaceOnUse">
<stop stop-color="#399780"/>
<stop offset="1" stop-color="#480E8B"/>
<stop offset="1" stop-color="#480E8B"/>
</linearGradient>
<linearGradient id="paint32_linear_707_1440" x1="1708.56" y1="910.255" x2="1427.59" y2="2075.89" gradientUnits="userSpaceOnUse">
<stop stop-color="#399780"/>
<stop offset="1" stop-color="#480E8B"/>
<stop offset="1" stop-color="#480E8B"/>
</linearGradient>
<linearGradient id="paint33_linear_707_1440" x1="1716.24" y1="882.397" x2="1435.26" y2="2048.03" gradientUnits="userSpaceOnUse">
<stop stop-color="#399780"/>
<stop offset="1" stop-color="#480E8B"/>
<stop offset="1" stop-color="#480E8B"/>
</linearGradient>
<linearGradient id="paint34_linear_707_1440" x1="1723.92" y1="854.538" x2="1442.94" y2="2020.17" gradientUnits="userSpaceOnUse">
<stop stop-color="#399780"/>
<stop offset="1" stop-color="#480E8B"/>
<stop offset="1" stop-color="#480E8B"/>
</linearGradient>
<linearGradient id="paint35_linear_707_1440" x1="1731.59" y1="826.68" x2="1450.62" y2="1992.31" gradientUnits="userSpaceOnUse">
<stop stop-color="#399780"/>
<stop offset="1" stop-color="#480E8B"/>
<stop offset="1" stop-color="#480E8B"/>
</linearGradient>
<linearGradient id="paint36_linear_707_1440" x1="1739.27" y1="798.821" x2="1458.29" y2="1964.45" gradientUnits="userSpaceOnUse">
<stop stop-color="#399780"/>
<stop offset="1" stop-color="#480E8B"/>
<stop offset="1" stop-color="#480E8B"/>
</linearGradient>
<linearGradient id="paint37_linear_707_1440" x1="1746.95" y1="770.963" x2="1465.97" y2="1936.59" gradientUnits="userSpaceOnUse">
<stop stop-color="#399780"/>
<stop offset="1" stop-color="#480E8B"/>
<stop offset="1" stop-color="#480E8B"/>
</linearGradient>
<linearGradient id="paint38_linear_707_1440" x1="1754.62" y1="743.104" x2="1473.65" y2="1908.74" gradientUnits="userSpaceOnUse">
<stop stop-color="#399780"/>
<stop offset="1" stop-color="#480E8B"/>
<stop offset="1" stop-color="#480E8B"/>
</linearGradient>
<linearGradient id="paint39_linear_707_1440" x1="1762.3" y1="715.247" x2="1481.32" y2="1880.88" gradientUnits="userSpaceOnUse">
<stop stop-color="#399780"/>
<stop offset="1" stop-color="#480E8B"/>
<stop offset="1" stop-color="#480E8B"/>
</linearGradient>
<linearGradient id="paint40_linear_707_1440" x1="1769.98" y1="687.389" x2="1489" y2="1853.02" gradientUnits="userSpaceOnUse">
<stop stop-color="#399780"/>
<stop offset="1" stop-color="#480E8B"/>
<stop offset="1" stop-color="#480E8B"/>
</linearGradient>
<linearGradient id="paint41_linear_707_1440" x1="1777.65" y1="659.529" x2="1496.68" y2="1825.16" gradientUnits="userSpaceOnUse">
<stop stop-color="#399780"/>
<stop offset="1" stop-color="#480E8B"/>
<stop offset="1" stop-color="#480E8B"/>
</linearGradient>
<linearGradient id="paint42_linear_707_1440" x1="1785.33" y1="631.672" x2="1504.35" y2="1797.3" gradientUnits="userSpaceOnUse">
<stop stop-color="#399780"/>
<stop offset="1" stop-color="#480E8B"/>
<stop offset="1" stop-color="#480E8B"/>
</linearGradient>
<linearGradient id="paint43_linear_707_1440" x1="1793.01" y1="603.814" x2="1512.03" y2="1769.44" gradientUnits="userSpaceOnUse">
<stop stop-color="#399780"/>
<stop offset="1" stop-color="#480E8B"/>
<stop offset="1" stop-color="#480E8B"/>
</linearGradient>
<linearGradient id="paint44_linear_707_1440" x1="1800.68" y1="575.956" x2="1519.71" y2="1741.59" gradientUnits="userSpaceOnUse">
<stop stop-color="#399780"/>
<stop offset="1" stop-color="#480E8B"/>
<stop offset="1" stop-color="#480E8B"/>
</linearGradient>
<linearGradient id="paint45_linear_707_1440" x1="1808.36" y1="548.097" x2="1527.39" y2="1713.73" gradientUnits="userSpaceOnUse">
<stop stop-color="#399780"/>
<stop offset="1" stop-color="#480E8B"/>
<stop offset="1" stop-color="#480E8B"/>
</linearGradient>
<linearGradient id="paint46_linear_707_1440" x1="1816.04" y1="520.238" x2="1535.06" y2="1685.87" gradientUnits="userSpaceOnUse">
<stop stop-color="#399780"/>
<stop offset="1" stop-color="#480E8B"/>
<stop offset="1" stop-color="#480E8B"/>
</linearGradient>
<linearGradient id="paint47_linear_707_1440" x1="1823.72" y1="492.381" x2="1542.74" y2="1658.01" gradientUnits="userSpaceOnUse">
<stop stop-color="#399780"/>
<stop offset="1" stop-color="#480E8B"/>
<stop offset="1" stop-color="#480E8B"/>
</linearGradient>
<linearGradient id="paint48_linear_707_1440" x1="1831.39" y1="464.522" x2="1550.42" y2="1630.15" gradientUnits="userSpaceOnUse">
<stop stop-color="#399780"/>
<stop offset="1" stop-color="#480E8B"/>
<stop offset="1" stop-color="#480E8B"/>
</linearGradient>
<linearGradient id="paint49_linear_707_1440" x1="1839.07" y1="436.664" x2="1558.1" y2="1602.29" gradientUnits="userSpaceOnUse">
<stop stop-color="#399780"/>
<stop offset="1" stop-color="#480E8B"/>
<stop offset="1" stop-color="#480E8B"/>
</linearGradient>
<linearGradient id="paint50_linear_707_1440" x1="1846.75" y1="408.805" x2="1565.77" y2="1574.44" gradientUnits="userSpaceOnUse">
<stop stop-color="#399780"/>
<stop offset="1" stop-color="#480E8B"/>
<stop offset="1" stop-color="#480E8B"/>
</linearGradient>
<linearGradient id="paint51_linear_707_1440" x1="1854.43" y1="380.948" x2="1573.45" y2="1546.58" gradientUnits="userSpaceOnUse">
<stop stop-color="#399780"/>
<stop offset="1" stop-color="#480E8B"/>
<stop offset="1" stop-color="#480E8B"/>
</linearGradient>
<linearGradient id="paint52_linear_707_1440" x1="1862.1" y1="353.088" x2="1581.13" y2="1518.72" gradientUnits="userSpaceOnUse">
<stop stop-color="#399780"/>
<stop offset="1" stop-color="#480E8B"/>
<stop offset="1" stop-color="#480E8B"/>
</linearGradient>
<linearGradient id="paint53_linear_707_1440" x1="1869.78" y1="325.23" x2="1588.8" y2="1490.86" gradientUnits="userSpaceOnUse">
<stop stop-color="#399780"/>
<stop offset="1" stop-color="#480E8B"/>
<stop offset="1" stop-color="#480E8B"/>
</linearGradient>
<linearGradient id="paint54_linear_707_1440" x1="1877.46" y1="297.371" x2="1596.48" y2="1463" gradientUnits="userSpaceOnUse">
<stop stop-color="#399780"/>
<stop offset="1" stop-color="#480E8B"/>
<stop offset="1" stop-color="#480E8B"/>
</linearGradient>
</defs>
</svg>
