<svg width="3089" height="3371" viewBox="0 0 3089 3371" fill="none" xmlns="http://www.w3.org/2000/svg">
<g opacity="0.5">
<path d="M16.6127 2771.97C178.111 2557.42 273.619 2510.12 446.502 2545.81C619.385 2581.5 678.98 2750.43 1045.96 2695.25C1412.93 2640.07 1261.36 2426 1838.29 2476.49C2299.82 2516.88 2577.18 2278.97 2658.16 2154.97" stroke="url(#paint0_linear_94_1481)" stroke-opacity="0.4" stroke-width="1.25"/>
<path d="M24.2885 2743.16C185.787 2528.61 281.294 2481.31 454.177 2517C627.06 2552.69 686.656 2721.62 1053.63 2666.44C1420.61 2611.26 1269.04 2397.19 1845.96 2447.68C2307.5 2488.07 2584.86 2250.16 2665.84 2126.16" stroke="url(#paint1_linear_94_1481)" stroke-opacity="0.4" stroke-width="1.25"/>
<path d="M31.9682 2714.35C193.467 2499.8 288.974 2452.5 461.857 2488.19C634.74 2523.88 694.335 2692.81 1061.31 2637.63C1428.29 2582.45 1276.72 2368.38 1853.64 2418.87C2315.18 2459.26 2592.53 2221.35 2673.52 2097.35" stroke="url(#paint2_linear_94_1481)" stroke-opacity="0.4" stroke-width="1.25"/>
<path d="M39.642 2685.54C201.141 2470.99 296.648 2423.69 469.531 2459.38C642.414 2495.07 702.009 2664 1068.99 2608.82C1435.96 2553.64 1284.39 2339.57 1861.31 2390.06C2322.85 2430.45 2600.21 2192.54 2681.19 2068.54" stroke="url(#paint3_linear_94_1481)" stroke-opacity="0.4" stroke-width="1.25"/>
<path d="M47.3198 2656.73C208.818 2442.18 304.326 2394.88 477.209 2430.57C650.092 2466.26 709.687 2635.19 1076.66 2580.01C1443.64 2524.83 1292.07 2310.76 1868.99 2361.25C2330.53 2401.64 2607.89 2163.73 2688.87 2039.73" stroke="url(#paint4_linear_94_1481)" stroke-opacity="0.4" stroke-width="1.25"/>
<path d="M54.9975 2627.92C216.496 2413.37 312.003 2366.07 484.886 2401.76C657.769 2437.45 717.365 2606.38 1084.34 2551.2C1451.32 2496.02 1299.75 2281.95 1876.67 2332.44C2338.21 2372.83 2615.56 2134.92 2696.55 2010.92" stroke="url(#paint5_linear_94_1481)" stroke-opacity="0.4" stroke-width="1.25"/>
<path d="M62.6752 2599.11C224.174 2384.56 319.681 2337.26 492.564 2372.95C665.447 2408.64 725.042 2577.57 1092.02 2522.39C1459 2467.21 1307.42 2253.14 1884.35 2303.63C2345.89 2344.02 2623.24 2106.11 2704.23 1982.11" stroke="url(#paint6_linear_94_1481)" stroke-opacity="0.4" stroke-width="1.25"/>
<path d="M70.3491 2570.29C231.848 2355.75 327.355 2308.45 500.238 2344.14C673.121 2379.83 732.716 2548.76 1099.69 2493.58C1466.67 2438.4 1315.1 2224.33 1892.02 2274.82C2353.56 2315.21 2630.92 2077.3 2711.9 1953.3" stroke="url(#paint7_linear_94_1481)" stroke-opacity="0.4" stroke-width="1.25"/>
<path d="M78.0288 2541.48C239.527 2326.94 335.035 2279.64 507.918 2315.33C680.801 2351.02 740.396 2519.94 1107.37 2464.77C1474.35 2409.59 1322.78 2195.52 1899.7 2246.01C2361.24 2286.4 2638.6 2048.49 2719.58 1924.49" stroke="url(#paint8_linear_94_1481)" stroke-opacity="0.4" stroke-width="1.25"/>
<path d="M85.7045 2512.67C247.203 2298.13 342.71 2250.83 515.593 2286.52C688.476 2322.21 748.072 2491.13 1115.05 2435.96C1482.03 2380.78 1330.45 2166.71 1907.38 2217.2C2368.92 2257.59 2646.27 2019.68 2727.26 1895.68" stroke="url(#paint9_linear_94_1481)" stroke-opacity="0.4" stroke-width="1.25"/>
<path d="M93.3823 2483.86C254.881 2269.32 350.388 2222.02 523.271 2257.71C696.154 2293.4 755.749 2462.32 1122.73 2407.15C1489.7 2351.97 1338.13 2137.9 1915.05 2188.39C2376.59 2228.78 2653.95 1990.87 2734.93 1866.87" stroke="url(#paint10_linear_94_1481)" stroke-opacity="0.4" stroke-width="1.25"/>
<path d="M101.058 2455.05C262.557 2240.51 358.064 2193.21 530.947 2228.9C703.83 2264.59 763.425 2433.52 1130.4 2378.34C1497.38 2323.16 1345.81 2109.09 1922.73 2159.58C2384.27 2199.97 2661.62 1962.06 2742.61 1838.06" stroke="url(#paint11_linear_94_1481)" stroke-opacity="0.4" stroke-width="1.25"/>
<path d="M108.736 2426.24C270.234 2211.7 365.742 2164.4 538.625 2200.09C711.508 2235.78 771.103 2404.7 1138.08 2349.53C1505.06 2294.35 1353.49 2080.28 1930.41 2130.77C2391.95 2171.16 2669.3 1933.25 2750.29 1809.25" stroke="url(#paint12_linear_94_1481)" stroke-opacity="0.4" stroke-width="1.25"/>
<path d="M116.414 2397.43C277.912 2182.89 373.419 2135.59 546.302 2171.28C719.185 2206.97 778.781 2375.89 1145.76 2320.72C1512.73 2265.54 1361.16 2051.47 1938.09 2101.96C2399.62 2142.35 2676.98 1904.44 2757.97 1780.44" stroke="url(#paint13_linear_94_1481)" stroke-opacity="0.4" stroke-width="1.25"/>
<path d="M124.089 2368.62C285.588 2154.08 381.095 2106.78 553.978 2142.47C726.861 2178.16 786.456 2347.08 1153.43 2291.91C1520.41 2236.73 1368.84 2022.66 1945.76 2073.15C2407.3 2113.54 2684.66 1875.63 2765.64 1751.63" stroke="url(#paint14_linear_94_1481)" stroke-opacity="0.4" stroke-width="1.25"/>
<path d="M131.769 2339.81C293.267 2125.27 388.775 2077.97 561.658 2113.66C734.541 2149.35 794.136 2318.27 1161.11 2263.1C1528.09 2207.92 1376.52 1993.85 1953.44 2044.34C2414.98 2084.73 2692.34 1846.82 2773.32 1722.82" stroke="url(#paint15_linear_94_1481)" stroke-opacity="0.4" stroke-width="1.25"/>
<path d="M139.445 2311C300.943 2096.46 396.451 2049.16 569.334 2084.85C742.217 2120.54 801.812 2289.46 1168.79 2234.29C1535.77 2179.11 1384.19 1965.04 1961.12 2015.52C2422.66 2055.92 2700.01 1818.01 2781 1694.01" stroke="url(#paint16_linear_94_1481)" stroke-opacity="0.4" stroke-width="1.25"/>
<path d="M147.121 2282.19C308.619 2067.65 404.126 2020.35 577.009 2056.04C749.892 2091.73 809.488 2260.65 1176.46 2205.48C1543.44 2150.3 1391.87 1936.23 1968.79 1986.72C2430.33 2027.11 2707.69 1789.2 2788.67 1665.2" stroke="url(#paint17_linear_94_1481)" stroke-opacity="0.4" stroke-width="1.25"/>
<path d="M154.798 2253.38C316.297 2038.84 411.804 1991.54 584.687 2027.23C757.57 2062.92 817.165 2231.84 1184.14 2176.67C1551.12 2121.49 1399.55 1907.42 1976.47 1957.9C2438.01 1998.3 2715.36 1760.39 2796.35 1636.39" stroke="url(#paint18_linear_94_1481)" stroke-opacity="0.4" stroke-width="1.25"/>
<path d="M162.478 2224.57C323.976 2010.03 419.484 1962.73 592.367 1998.42C765.25 2034.11 824.845 2203.03 1191.82 2147.86C1558.8 2092.68 1407.23 1878.61 1984.15 1929.1C2445.69 1969.49 2723.04 1731.58 2804.03 1607.58" stroke="url(#paint19_linear_94_1481)" stroke-opacity="0.4" stroke-width="1.25"/>
<path d="M170.152 2195.76C331.65 1981.22 427.158 1933.92 600.041 1969.61C772.924 2005.3 832.519 2174.22 1199.5 2119.05C1566.47 2063.87 1414.9 1849.8 1991.82 1900.28C2453.36 1940.68 2730.72 1702.77 2811.7 1578.77" stroke="url(#paint20_linear_94_1481)" stroke-opacity="0.4" stroke-width="1.25"/>
<path d="M177.831 2166.95C339.33 1952.41 434.837 1905.11 607.72 1940.8C780.603 1976.49 840.199 2145.41 1207.18 2090.24C1574.15 2035.06 1422.58 1820.99 1999.5 1871.47C2461.04 1911.87 2738.4 1673.96 2819.38 1549.96" stroke="url(#paint21_linear_94_1481)" stroke-opacity="0.4" stroke-width="1.25"/>
<path d="M185.509 2138.14C347.008 1923.6 442.515 1876.3 615.398 1911.99C788.281 1947.68 847.876 2116.6 1214.85 2061.42C1581.83 2006.25 1430.26 1792.17 2007.18 1842.66C2468.72 1883.06 2746.08 1645.15 2827.06 1521.15" stroke="url(#paint22_linear_94_1481)" stroke-opacity="0.4" stroke-width="1.25"/>
<path d="M193.183 2109.33C354.682 1894.79 450.189 1847.49 623.072 1883.18C795.955 1918.87 855.55 2087.79 1222.53 2032.61C1589.5 1977.44 1437.93 1763.36 2014.86 1813.85C2476.39 1854.24 2753.75 1616.34 2834.74 1492.34" stroke="url(#paint23_linear_94_1481)" stroke-opacity="0.4" stroke-width="1.25"/>
<path d="M200.861 2080.52C362.359 1865.98 457.867 1818.68 630.75 1854.37C803.633 1890.06 863.228 2058.98 1230.2 2003.8C1597.18 1948.63 1445.61 1734.55 2022.53 1785.04C2484.07 1825.44 2761.43 1587.53 2842.41 1463.53" stroke="url(#paint24_linear_94_1481)" stroke-opacity="0.4" stroke-width="1.25"/>
<path d="M208.537 2051.71C370.035 1837.17 465.543 1789.87 638.425 1825.56C811.308 1861.25 870.904 2030.17 1237.88 1974.99C1604.86 1919.82 1453.29 1705.74 2030.21 1756.23C2491.75 1796.62 2769.1 1558.72 2850.09 1434.72" stroke="url(#paint25_linear_94_1481)" stroke-opacity="0.4" stroke-width="1.25"/>
<path d="M216.216 2022.9C377.715 1808.36 473.222 1761.06 646.105 1796.75C818.988 1832.44 878.583 2001.36 1245.56 1946.18C1612.54 1891.01 1460.97 1676.93 2037.89 1727.42C2499.43 1767.82 2776.78 1529.91 2857.77 1405.91" stroke="url(#paint26_linear_94_1481)" stroke-opacity="0.4" stroke-width="1.25"/>
<path d="M223.894 1994.09C385.393 1779.55 480.9 1732.25 653.783 1767.94C826.666 1803.63 886.261 1972.55 1253.24 1917.37C1620.22 1862.2 1468.64 1648.12 2045.57 1698.61C2507.1 1739 2784.46 1501.1 2865.45 1377.1" stroke="url(#paint27_linear_94_1481)" stroke-opacity="0.4" stroke-width="1.25"/>
<path d="M231.57 1965.28C393.068 1750.74 488.576 1703.44 661.459 1739.13C834.342 1774.82 893.937 1943.74 1260.91 1888.56C1627.89 1833.39 1476.32 1619.31 2053.24 1669.8C2514.78 1710.19 2792.14 1472.29 2873.12 1348.29" stroke="url(#paint28_linear_94_1481)" stroke-opacity="0.4" stroke-width="1.25"/>
<path d="M239.248 1936.47C400.746 1721.93 496.253 1674.63 669.136 1710.32C842.019 1746.01 901.615 1914.93 1268.59 1859.75C1635.57 1804.58 1484 1590.5 2060.92 1640.99C2522.46 1681.38 2799.81 1443.48 2880.8 1319.48" stroke="url(#paint29_linear_94_1481)" stroke-opacity="0.4" stroke-width="1.25"/>
<path d="M246.925 1907.66C408.424 1693.12 503.931 1645.82 676.814 1681.51C849.697 1717.2 909.292 1886.12 1276.27 1830.94C1643.25 1775.77 1491.67 1561.69 2068.6 1612.18C2530.14 1652.57 2807.49 1414.67 2888.48 1290.67" stroke="url(#paint30_linear_94_1481)" stroke-opacity="0.4" stroke-width="1.25"/>
<path d="M254.601 1878.85C416.1 1664.31 511.607 1617.01 684.49 1652.7C857.373 1688.39 916.968 1857.31 1283.95 1802.13C1650.92 1746.96 1499.35 1532.88 2076.27 1583.37C2537.81 1623.76 2815.17 1385.86 2896.15 1261.86" stroke="url(#paint31_linear_94_1481)" stroke-opacity="0.4" stroke-width="1.25"/>
<path d="M262.279 1850.04C423.777 1635.5 519.285 1588.2 692.168 1623.89C865.051 1659.58 924.646 1828.5 1291.62 1773.32C1658.6 1718.15 1507.03 1504.07 2083.95 1554.56C2545.49 1594.95 2822.85 1357.05 2903.83 1233.05" stroke="url(#paint32_linear_94_1481)" stroke-opacity="0.4" stroke-width="1.25"/>
<path d="M269.956 1821.23C431.455 1606.69 526.962 1559.39 699.845 1595.08C872.728 1630.77 932.324 1799.69 1299.3 1744.51C1666.28 1689.34 1514.71 1475.26 2091.63 1525.75C2553.17 1566.14 2830.52 1328.24 2911.51 1204.24" stroke="url(#paint33_linear_94_1481)" stroke-opacity="0.4" stroke-width="1.25"/>
<path d="M277.634 1792.42C439.133 1577.88 534.64 1530.58 707.523 1566.27C880.406 1601.96 940.001 1770.88 1306.98 1715.7C1673.96 1660.53 1522.38 1446.45 2099.31 1496.94C2560.85 1537.33 2838.2 1299.43 2919.19 1175.42" stroke="url(#paint34_linear_94_1481)" stroke-opacity="0.4" stroke-width="1.25"/>
<path d="M285.31 1763.61C446.809 1549.07 542.316 1501.77 715.199 1537.46C888.082 1573.15 947.677 1742.07 1314.65 1686.89C1681.63 1631.72 1530.06 1417.64 2106.98 1468.13C2568.52 1508.52 2845.88 1270.62 2926.86 1146.62" stroke="url(#paint35_linear_94_1481)" stroke-opacity="0.4" stroke-width="1.25"/>
<path d="M292.988 1734.8C454.486 1520.26 549.994 1472.96 722.877 1508.65C895.76 1544.34 955.355 1713.26 1322.33 1658.08C1689.31 1602.91 1537.74 1388.83 2114.66 1439.32C2576.2 1479.71 2853.55 1241.81 2934.54 1117.81" stroke="url(#paint36_linear_94_1481)" stroke-opacity="0.4" stroke-width="1.25"/>
<path d="M300.665 1705.99C462.164 1491.45 557.671 1444.15 730.554 1479.84C903.437 1515.53 963.033 1684.45 1330.01 1629.27C1696.99 1574.1 1545.42 1360.02 2122.34 1410.51C2583.88 1450.9 2861.23 1213 2942.22 1089" stroke="url(#paint37_linear_94_1481)" stroke-opacity="0.4" stroke-width="1.25"/>
<path d="M308.341 1677.18C469.84 1462.64 565.347 1415.34 738.23 1451.03C911.113 1486.72 970.708 1655.64 1337.69 1600.46C1704.66 1545.29 1553.09 1331.21 2130.01 1381.7C2591.55 1422.09 2868.91 1184.19 2949.89 1060.19" stroke="url(#paint38_linear_94_1481)" stroke-opacity="0.4" stroke-width="1.25"/>
<path d="M316.017 1648.37C477.516 1433.83 573.023 1386.53 745.906 1422.22C918.789 1457.91 978.384 1626.83 1345.36 1571.65C1712.34 1516.48 1560.77 1302.4 2137.69 1352.89C2599.23 1393.28 2876.58 1155.38 2957.57 1031.38" stroke="url(#paint39_linear_94_1481)" stroke-opacity="0.4" stroke-width="1.25"/>
<path d="M323.695 1619.56C485.193 1405.02 580.701 1357.72 753.584 1393.41C926.467 1429.1 986.062 1598.02 1353.04 1542.84C1720.02 1487.67 1568.44 1273.59 2145.37 1324.08C2606.91 1364.47 2884.26 1126.57 2965.25 1002.57" stroke="url(#paint40_linear_94_1481)" stroke-opacity="0.4" stroke-width="1.25"/>
<path d="M331.371 1590.75C492.869 1376.21 588.376 1328.91 761.259 1364.6C934.142 1400.29 993.738 1569.21 1360.71 1514.03C1727.69 1458.86 1576.12 1244.78 2153.04 1295.27C2614.58 1335.66 2891.94 1097.76 2972.92 973.755" stroke="url(#paint41_linear_94_1481)" stroke-opacity="0.4" stroke-width="1.25"/>
<path d="M339.046 1561.94C500.545 1347.4 596.052 1300.1 768.935 1335.79C941.818 1371.48 1001.41 1540.4 1368.39 1485.22C1735.37 1430.05 1583.8 1215.97 2160.72 1266.46C2622.26 1306.85 2899.61 1068.95 2980.6 944.945" stroke="url(#paint42_linear_94_1481)" stroke-opacity="0.4" stroke-width="1.25"/>
<path d="M346.728 1533.13C508.226 1318.59 603.734 1271.29 776.617 1306.98C949.5 1342.67 1009.1 1511.59 1376.07 1456.41C1743.05 1401.24 1591.48 1187.16 2168.4 1237.65C2629.94 1278.04 2907.29 1040.14 2988.28 916.136" stroke="url(#paint43_linear_94_1481)" stroke-opacity="0.4" stroke-width="1.25"/>
<path d="M354.402 1504.32C515.9 1289.78 611.408 1242.48 784.291 1278.17C957.174 1313.86 1016.77 1482.78 1383.75 1427.6C1750.72 1372.43 1599.15 1158.35 2176.07 1208.84C2637.61 1249.23 2914.97 1011.33 2995.95 887.326" stroke="url(#paint44_linear_94_1481)" stroke-opacity="0.4" stroke-width="1.25"/>
<path d="M362.08 1475.51C523.578 1260.97 619.085 1213.67 791.968 1249.36C964.851 1285.05 1024.45 1453.97 1391.42 1398.79C1758.4 1343.62 1606.83 1129.54 2183.75 1180.03C2645.29 1220.42 2922.65 982.517 3003.63 858.515" stroke="url(#paint45_linear_94_1481)" stroke-opacity="0.4" stroke-width="1.25"/>
<path d="M369.755 1446.7C531.254 1232.16 626.761 1184.86 799.644 1220.55C972.527 1256.24 1032.12 1425.16 1399.1 1369.98C1766.08 1314.81 1614.5 1100.73 2191.43 1151.22C2652.97 1191.61 2930.32 953.707 3011.31 829.705" stroke="url(#paint46_linear_94_1481)" stroke-opacity="0.4" stroke-width="1.25"/>
<path d="M377.437 1417.89C538.935 1203.35 634.443 1156.05 807.326 1191.74C980.209 1227.43 1039.8 1396.35 1406.78 1341.17C1773.76 1286 1622.19 1071.92 2199.11 1122.41C2660.65 1162.8 2938 924.898 3018.99 800.896" stroke="url(#paint47_linear_94_1481)" stroke-opacity="0.4" stroke-width="1.25"/>
<path d="M385.113 1389.08C546.611 1174.54 642.119 1127.24 815.002 1162.93C987.885 1198.62 1047.48 1367.54 1414.46 1312.36C1781.43 1257.19 1629.86 1043.11 2206.79 1093.6C2668.32 1133.99 2945.68 896.088 3026.66 772.086" stroke="url(#paint48_linear_94_1481)" stroke-opacity="0.4" stroke-width="1.25"/>
<path d="M392.79 1360.27C554.289 1145.73 649.796 1098.43 822.679 1134.12C995.562 1169.81 1055.16 1338.73 1422.13 1283.55C1789.11 1228.38 1637.54 1014.3 2214.46 1064.79C2676 1105.18 2953.36 867.278 3034.34 743.276" stroke="url(#paint49_linear_94_1481)" stroke-opacity="0.4" stroke-width="1.25"/>
<path d="M400.466 1331.46C561.965 1116.92 657.472 1069.62 830.355 1105.31C1003.24 1141 1062.83 1309.92 1429.81 1254.74C1796.79 1199.57 1645.22 985.493 2222.14 1035.98C2683.68 1076.37 2961.03 838.468 3042.02 714.465" stroke="url(#paint50_linear_94_1481)" stroke-opacity="0.4" stroke-width="1.25"/>
<path d="M408.146 1302.65C569.644 1088.11 665.152 1040.81 838.035 1076.5C1010.92 1112.19 1070.51 1281.11 1437.49 1225.93C1804.47 1170.76 1652.9 956.684 2229.82 1007.17C2691.36 1047.57 2968.71 809.659 3049.7 685.656" stroke="url(#paint51_linear_94_1481)" stroke-opacity="0.4" stroke-width="1.25"/>
<path d="M415.822 1273.84C577.32 1059.3 672.828 1012 845.711 1047.69C1018.59 1083.38 1078.19 1252.3 1445.17 1197.12C1812.14 1141.95 1660.57 927.873 2237.49 978.362C2699.03 1018.75 2976.39 780.847 3057.37 656.845" stroke="url(#paint52_linear_94_1481)" stroke-opacity="0.4" stroke-width="1.25"/>
<path d="M423.496 1245.03C584.994 1030.49 680.501 983.187 853.384 1018.88C1026.27 1054.57 1085.86 1223.49 1452.84 1168.31C1819.82 1113.13 1668.25 899.062 2245.17 949.552C2706.71 989.943 2984.06 752.037 3065.05 628.035" stroke="url(#paint53_linear_94_1481)" stroke-opacity="0.4" stroke-width="1.25"/>
<path d="M431.175 1216.22C592.674 1001.68 688.181 954.377 861.064 990.067C1033.95 1025.76 1093.54 1194.68 1460.52 1139.5C1827.5 1084.32 1675.92 870.252 2252.85 920.741C2714.39 961.133 2991.74 723.226 3072.73 599.224" stroke="url(#paint54_linear_94_1481)" stroke-opacity="0.4" stroke-width="1.25"/>
</g>
<defs>
<linearGradient id="paint0_linear_94_1481" x1="1476.01" y1="1860.28" x2="1176.65" y2="3061.15" gradientUnits="userSpaceOnUse">
<stop stop-color="#399780"/>
<stop offset="1" stop-color="#480E8B"/>
<stop offset="1" stop-color="#480E8B"/>
</linearGradient>
<linearGradient id="paint1_linear_94_1481" x1="1483.68" y1="1831.47" x2="1184.33" y2="3032.34" gradientUnits="userSpaceOnUse">
<stop stop-color="#399780"/>
<stop offset="1" stop-color="#480E8B"/>
<stop offset="1" stop-color="#480E8B"/>
</linearGradient>
<linearGradient id="paint2_linear_94_1481" x1="1491.36" y1="1802.66" x2="1192.01" y2="3003.53" gradientUnits="userSpaceOnUse">
<stop stop-color="#399780"/>
<stop offset="1" stop-color="#480E8B"/>
<stop offset="1" stop-color="#480E8B"/>
</linearGradient>
<linearGradient id="paint3_linear_94_1481" x1="1499.04" y1="1773.85" x2="1199.68" y2="2974.72" gradientUnits="userSpaceOnUse">
<stop stop-color="#399780"/>
<stop offset="1" stop-color="#480E8B"/>
<stop offset="1" stop-color="#480E8B"/>
</linearGradient>
<linearGradient id="paint4_linear_94_1481" x1="1506.72" y1="1745.04" x2="1207.36" y2="2945.91" gradientUnits="userSpaceOnUse">
<stop stop-color="#399780"/>
<stop offset="1" stop-color="#480E8B"/>
<stop offset="1" stop-color="#480E8B"/>
</linearGradient>
<linearGradient id="paint5_linear_94_1481" x1="1514.39" y1="1716.23" x2="1215.04" y2="2917.1" gradientUnits="userSpaceOnUse">
<stop stop-color="#399780"/>
<stop offset="1" stop-color="#480E8B"/>
<stop offset="1" stop-color="#480E8B"/>
</linearGradient>
<linearGradient id="paint6_linear_94_1481" x1="1522.07" y1="1687.42" x2="1222.71" y2="2888.29" gradientUnits="userSpaceOnUse">
<stop stop-color="#399780"/>
<stop offset="1" stop-color="#480E8B"/>
<stop offset="1" stop-color="#480E8B"/>
</linearGradient>
<linearGradient id="paint7_linear_94_1481" x1="1529.75" y1="1658.61" x2="1230.39" y2="2859.48" gradientUnits="userSpaceOnUse">
<stop stop-color="#399780"/>
<stop offset="1" stop-color="#480E8B"/>
<stop offset="1" stop-color="#480E8B"/>
</linearGradient>
<linearGradient id="paint8_linear_94_1481" x1="1537.43" y1="1629.8" x2="1238.07" y2="2830.66" gradientUnits="userSpaceOnUse">
<stop stop-color="#399780"/>
<stop offset="1" stop-color="#480E8B"/>
<stop offset="1" stop-color="#480E8B"/>
</linearGradient>
<linearGradient id="paint9_linear_94_1481" x1="1545.1" y1="1600.98" x2="1245.74" y2="2801.85" gradientUnits="userSpaceOnUse">
<stop stop-color="#399780"/>
<stop offset="1" stop-color="#480E8B"/>
<stop offset="1" stop-color="#480E8B"/>
</linearGradient>
<linearGradient id="paint10_linear_94_1481" x1="1552.78" y1="1572.18" x2="1253.42" y2="2773.04" gradientUnits="userSpaceOnUse">
<stop stop-color="#399780"/>
<stop offset="1" stop-color="#480E8B"/>
<stop offset="1" stop-color="#480E8B"/>
</linearGradient>
<linearGradient id="paint11_linear_94_1481" x1="1560.45" y1="1543.37" x2="1261.1" y2="2744.23" gradientUnits="userSpaceOnUse">
<stop stop-color="#399780"/>
<stop offset="1" stop-color="#480E8B"/>
<stop offset="1" stop-color="#480E8B"/>
</linearGradient>
<linearGradient id="paint12_linear_94_1481" x1="1568.13" y1="1514.56" x2="1268.77" y2="2715.42" gradientUnits="userSpaceOnUse">
<stop stop-color="#399780"/>
<stop offset="1" stop-color="#480E8B"/>
<stop offset="1" stop-color="#480E8B"/>
</linearGradient>
<linearGradient id="paint13_linear_94_1481" x1="1575.81" y1="1485.74" x2="1276.45" y2="2686.61" gradientUnits="userSpaceOnUse">
<stop stop-color="#399780"/>
<stop offset="1" stop-color="#480E8B"/>
<stop offset="1" stop-color="#480E8B"/>
</linearGradient>
<linearGradient id="paint14_linear_94_1481" x1="1583.49" y1="1456.93" x2="1284.13" y2="2657.8" gradientUnits="userSpaceOnUse">
<stop stop-color="#399780"/>
<stop offset="1" stop-color="#480E8B"/>
<stop offset="1" stop-color="#480E8B"/>
</linearGradient>
<linearGradient id="paint15_linear_94_1481" x1="1591.17" y1="1428.12" x2="1291.81" y2="2628.99" gradientUnits="userSpaceOnUse">
<stop stop-color="#399780"/>
<stop offset="1" stop-color="#480E8B"/>
<stop offset="1" stop-color="#480E8B"/>
</linearGradient>
<linearGradient id="paint16_linear_94_1481" x1="1598.84" y1="1399.31" x2="1299.48" y2="2600.18" gradientUnits="userSpaceOnUse">
<stop stop-color="#399780"/>
<stop offset="1" stop-color="#480E8B"/>
<stop offset="1" stop-color="#480E8B"/>
</linearGradient>
<linearGradient id="paint17_linear_94_1481" x1="1606.52" y1="1370.5" x2="1307.16" y2="2571.37" gradientUnits="userSpaceOnUse">
<stop stop-color="#399780"/>
<stop offset="1" stop-color="#480E8B"/>
<stop offset="1" stop-color="#480E8B"/>
</linearGradient>
<linearGradient id="paint18_linear_94_1481" x1="1614.19" y1="1341.69" x2="1314.84" y2="2542.56" gradientUnits="userSpaceOnUse">
<stop stop-color="#399780"/>
<stop offset="1" stop-color="#480E8B"/>
<stop offset="1" stop-color="#480E8B"/>
</linearGradient>
<linearGradient id="paint19_linear_94_1481" x1="1621.87" y1="1312.88" x2="1322.52" y2="2513.75" gradientUnits="userSpaceOnUse">
<stop stop-color="#399780"/>
<stop offset="1" stop-color="#480E8B"/>
<stop offset="1" stop-color="#480E8B"/>
</linearGradient>
<linearGradient id="paint20_linear_94_1481" x1="1629.55" y1="1284.07" x2="1330.19" y2="2484.94" gradientUnits="userSpaceOnUse">
<stop stop-color="#399780"/>
<stop offset="1" stop-color="#480E8B"/>
<stop offset="1" stop-color="#480E8B"/>
</linearGradient>
<linearGradient id="paint21_linear_94_1481" x1="1637.23" y1="1255.26" x2="1337.87" y2="2456.13" gradientUnits="userSpaceOnUse">
<stop stop-color="#399780"/>
<stop offset="1" stop-color="#480E8B"/>
<stop offset="1" stop-color="#480E8B"/>
</linearGradient>
<linearGradient id="paint22_linear_94_1481" x1="1644.91" y1="1226.45" x2="1345.55" y2="2427.32" gradientUnits="userSpaceOnUse">
<stop stop-color="#399780"/>
<stop offset="1" stop-color="#480E8B"/>
<stop offset="1" stop-color="#480E8B"/>
</linearGradient>
<linearGradient id="paint23_linear_94_1481" x1="1652.58" y1="1197.64" x2="1353.22" y2="2398.51" gradientUnits="userSpaceOnUse">
<stop stop-color="#399780"/>
<stop offset="1" stop-color="#480E8B"/>
<stop offset="1" stop-color="#480E8B"/>
</linearGradient>
<linearGradient id="paint24_linear_94_1481" x1="1660.26" y1="1168.83" x2="1360.9" y2="2369.7" gradientUnits="userSpaceOnUse">
<stop stop-color="#399780"/>
<stop offset="1" stop-color="#480E8B"/>
<stop offset="1" stop-color="#480E8B"/>
</linearGradient>
<linearGradient id="paint25_linear_94_1481" x1="1667.93" y1="1140.02" x2="1368.57" y2="2340.89" gradientUnits="userSpaceOnUse">
<stop stop-color="#399780"/>
<stop offset="1" stop-color="#480E8B"/>
<stop offset="1" stop-color="#480E8B"/>
</linearGradient>
<linearGradient id="paint26_linear_94_1481" x1="1675.61" y1="1111.21" x2="1376.25" y2="2312.08" gradientUnits="userSpaceOnUse">
<stop stop-color="#399780"/>
<stop offset="1" stop-color="#480E8B"/>
<stop offset="1" stop-color="#480E8B"/>
</linearGradient>
<linearGradient id="paint27_linear_94_1481" x1="1683.29" y1="1082.4" x2="1383.93" y2="2283.27" gradientUnits="userSpaceOnUse">
<stop stop-color="#399780"/>
<stop offset="1" stop-color="#480E8B"/>
<stop offset="1" stop-color="#480E8B"/>
</linearGradient>
<linearGradient id="paint28_linear_94_1481" x1="1690.97" y1="1053.59" x2="1391.61" y2="2254.46" gradientUnits="userSpaceOnUse">
<stop stop-color="#399780"/>
<stop offset="1" stop-color="#480E8B"/>
<stop offset="1" stop-color="#480E8B"/>
</linearGradient>
<linearGradient id="paint29_linear_94_1481" x1="1698.64" y1="1024.78" x2="1399.29" y2="2225.65" gradientUnits="userSpaceOnUse">
<stop stop-color="#399780"/>
<stop offset="1" stop-color="#480E8B"/>
<stop offset="1" stop-color="#480E8B"/>
</linearGradient>
<linearGradient id="paint30_linear_94_1481" x1="1706.32" y1="995.972" x2="1406.96" y2="2196.84" gradientUnits="userSpaceOnUse">
<stop stop-color="#399780"/>
<stop offset="1" stop-color="#480E8B"/>
<stop offset="1" stop-color="#480E8B"/>
</linearGradient>
<linearGradient id="paint31_linear_94_1481" x1="1714" y1="967.161" x2="1414.64" y2="2168.03" gradientUnits="userSpaceOnUse">
<stop stop-color="#399780"/>
<stop offset="1" stop-color="#480E8B"/>
<stop offset="1" stop-color="#480E8B"/>
</linearGradient>
<linearGradient id="paint32_linear_94_1481" x1="1721.68" y1="938.352" x2="1422.32" y2="2139.22" gradientUnits="userSpaceOnUse">
<stop stop-color="#399780"/>
<stop offset="1" stop-color="#480E8B"/>
<stop offset="1" stop-color="#480E8B"/>
</linearGradient>
<linearGradient id="paint33_linear_94_1481" x1="1729.35" y1="909.542" x2="1429.99" y2="2110.41" gradientUnits="userSpaceOnUse">
<stop stop-color="#399780"/>
<stop offset="1" stop-color="#480E8B"/>
<stop offset="1" stop-color="#480E8B"/>
</linearGradient>
<linearGradient id="paint34_linear_94_1481" x1="1737.03" y1="880.731" x2="1437.67" y2="2081.6" gradientUnits="userSpaceOnUse">
<stop stop-color="#399780"/>
<stop offset="1" stop-color="#480E8B"/>
<stop offset="1" stop-color="#480E8B"/>
</linearGradient>
<linearGradient id="paint35_linear_94_1481" x1="1744.71" y1="851.921" x2="1445.35" y2="2052.79" gradientUnits="userSpaceOnUse">
<stop stop-color="#399780"/>
<stop offset="1" stop-color="#480E8B"/>
<stop offset="1" stop-color="#480E8B"/>
</linearGradient>
<linearGradient id="paint36_linear_94_1481" x1="1752.38" y1="823.111" x2="1453.03" y2="2023.98" gradientUnits="userSpaceOnUse">
<stop stop-color="#399780"/>
<stop offset="1" stop-color="#480E8B"/>
<stop offset="1" stop-color="#480E8B"/>
</linearGradient>
<linearGradient id="paint37_linear_94_1481" x1="1760.06" y1="794.301" x2="1460.7" y2="1995.17" gradientUnits="userSpaceOnUse">
<stop stop-color="#399780"/>
<stop offset="1" stop-color="#480E8B"/>
<stop offset="1" stop-color="#480E8B"/>
</linearGradient>
<linearGradient id="paint38_linear_94_1481" x1="1767.74" y1="765.491" x2="1468.38" y2="1966.36" gradientUnits="userSpaceOnUse">
<stop stop-color="#399780"/>
<stop offset="1" stop-color="#480E8B"/>
<stop offset="1" stop-color="#480E8B"/>
</linearGradient>
<linearGradient id="paint39_linear_94_1481" x1="1775.41" y1="736.682" x2="1476.05" y2="1937.55" gradientUnits="userSpaceOnUse">
<stop stop-color="#399780"/>
<stop offset="1" stop-color="#480E8B"/>
<stop offset="1" stop-color="#480E8B"/>
</linearGradient>
<linearGradient id="paint40_linear_94_1481" x1="1783.09" y1="707.872" x2="1483.73" y2="1908.74" gradientUnits="userSpaceOnUse">
<stop stop-color="#399780"/>
<stop offset="1" stop-color="#480E8B"/>
<stop offset="1" stop-color="#480E8B"/>
</linearGradient>
<linearGradient id="paint41_linear_94_1481" x1="1790.77" y1="679.061" x2="1491.41" y2="1879.93" gradientUnits="userSpaceOnUse">
<stop stop-color="#399780"/>
<stop offset="1" stop-color="#480E8B"/>
<stop offset="1" stop-color="#480E8B"/>
</linearGradient>
<linearGradient id="paint42_linear_94_1481" x1="1798.44" y1="650.252" x2="1499.08" y2="1851.12" gradientUnits="userSpaceOnUse">
<stop stop-color="#399780"/>
<stop offset="1" stop-color="#480E8B"/>
<stop offset="1" stop-color="#480E8B"/>
</linearGradient>
<linearGradient id="paint43_linear_94_1481" x1="1806.12" y1="621.442" x2="1506.77" y2="1822.31" gradientUnits="userSpaceOnUse">
<stop stop-color="#399780"/>
<stop offset="1" stop-color="#480E8B"/>
<stop offset="1" stop-color="#480E8B"/>
</linearGradient>
<linearGradient id="paint44_linear_94_1481" x1="1813.8" y1="592.632" x2="1514.44" y2="1793.5" gradientUnits="userSpaceOnUse">
<stop stop-color="#399780"/>
<stop offset="1" stop-color="#480E8B"/>
<stop offset="1" stop-color="#480E8B"/>
</linearGradient>
<linearGradient id="paint45_linear_94_1481" x1="1821.48" y1="563.821" x2="1522.12" y2="1764.69" gradientUnits="userSpaceOnUse">
<stop stop-color="#399780"/>
<stop offset="1" stop-color="#480E8B"/>
<stop offset="1" stop-color="#480E8B"/>
</linearGradient>
<linearGradient id="paint46_linear_94_1481" x1="1829.15" y1="535.011" x2="1529.79" y2="1735.88" gradientUnits="userSpaceOnUse">
<stop stop-color="#399780"/>
<stop offset="1" stop-color="#480E8B"/>
<stop offset="1" stop-color="#480E8B"/>
</linearGradient>
<linearGradient id="paint47_linear_94_1481" x1="1836.83" y1="506.202" x2="1537.47" y2="1707.07" gradientUnits="userSpaceOnUse">
<stop stop-color="#399780"/>
<stop offset="1" stop-color="#480E8B"/>
<stop offset="1" stop-color="#480E8B"/>
</linearGradient>
<linearGradient id="paint48_linear_94_1481" x1="1844.51" y1="477.392" x2="1545.15" y2="1678.26" gradientUnits="userSpaceOnUse">
<stop stop-color="#399780"/>
<stop offset="1" stop-color="#480E8B"/>
<stop offset="1" stop-color="#480E8B"/>
</linearGradient>
<linearGradient id="paint49_linear_94_1481" x1="1852.19" y1="448.582" x2="1552.83" y2="1649.45" gradientUnits="userSpaceOnUse">
<stop stop-color="#399780"/>
<stop offset="1" stop-color="#480E8B"/>
<stop offset="1" stop-color="#480E8B"/>
</linearGradient>
<linearGradient id="paint50_linear_94_1481" x1="1859.86" y1="419.772" x2="1560.5" y2="1620.64" gradientUnits="userSpaceOnUse">
<stop stop-color="#399780"/>
<stop offset="1" stop-color="#480E8B"/>
<stop offset="1" stop-color="#480E8B"/>
</linearGradient>
<linearGradient id="paint51_linear_94_1481" x1="1867.54" y1="390.962" x2="1568.18" y2="1591.83" gradientUnits="userSpaceOnUse">
<stop stop-color="#399780"/>
<stop offset="1" stop-color="#480E8B"/>
<stop offset="1" stop-color="#480E8B"/>
</linearGradient>
<linearGradient id="paint52_linear_94_1481" x1="1875.22" y1="362.151" x2="1575.86" y2="1563.02" gradientUnits="userSpaceOnUse">
<stop stop-color="#399780"/>
<stop offset="1" stop-color="#480E8B"/>
<stop offset="1" stop-color="#480E8B"/>
</linearGradient>
<linearGradient id="paint53_linear_94_1481" x1="1882.89" y1="333.341" x2="1583.53" y2="1534.21" gradientUnits="userSpaceOnUse">
<stop stop-color="#399780"/>
<stop offset="1" stop-color="#480E8B"/>
<stop offset="1" stop-color="#480E8B"/>
</linearGradient>
<linearGradient id="paint54_linear_94_1481" x1="1890.57" y1="304.53" x2="1591.21" y2="1505.4" gradientUnits="userSpaceOnUse">
<stop stop-color="#399780"/>
<stop offset="1" stop-color="#480E8B"/>
<stop offset="1" stop-color="#480E8B"/>
</linearGradient>
</defs>
</svg>
