<svg width="3063" height="3267" viewBox="0 0 3063 3267" fill="none" xmlns="http://www.w3.org/2000/svg">
<g opacity="0.5">
<path d="M3.61082 2684.21C165.109 2476.75 260.617 2431.02 433.5 2465.53C606.383 2500.04 665.978 2663.38 1032.95 2610.03C1399.93 2556.67 1248.36 2349.67 1825.28 2398.49C2286.82 2437.55 2564.18 2207.5 2645.16 2087.6" stroke="url(#paint0_linear_707_1508)" stroke-opacity="0.4" stroke-width="1.25"/>
<path d="M11.2886 2656.35C172.787 2448.9 268.294 2403.16 441.177 2437.67C614.06 2472.18 673.656 2635.52 1040.63 2582.17C1407.61 2528.81 1256.04 2321.81 1832.96 2370.64C2294.5 2409.69 2571.85 2179.65 2652.84 2059.74" stroke="url(#paint1_linear_707_1508)" stroke-opacity="0.4" stroke-width="1.25"/>
<path d="M18.9663 2628.49C180.465 2421.04 275.972 2375.3 448.855 2409.81C621.738 2444.32 681.333 2607.67 1048.31 2554.31C1415.29 2500.96 1263.72 2293.96 1840.64 2342.78C2302.18 2381.83 2579.53 2151.79 2660.52 2031.88" stroke="url(#paint2_linear_707_1508)" stroke-opacity="0.4" stroke-width="1.25"/>
<path d="M26.6421 2600.64C188.141 2393.18 283.648 2347.44 456.531 2381.95C629.414 2416.46 689.009 2579.81 1055.99 2526.45C1422.96 2473.1 1271.39 2266.1 1848.31 2314.92C2309.85 2353.98 2587.21 2123.93 2668.19 2004.02" stroke="url(#paint3_linear_707_1508)" stroke-opacity="0.4" stroke-width="1.25"/>
<path d="M34.3198 2572.78C195.818 2365.32 291.326 2319.58 464.209 2354.1C637.092 2388.61 696.687 2551.95 1063.66 2498.59C1430.64 2445.24 1279.07 2238.24 1855.99 2287.06C2317.53 2326.12 2594.89 2096.07 2675.87 1976.16" stroke="url(#paint4_linear_707_1508)" stroke-opacity="0.4" stroke-width="1.25"/>
<path d="M41.9975 2544.92C203.496 2337.46 299.003 2291.73 471.886 2326.24C644.769 2360.75 704.365 2524.09 1071.34 2470.74C1438.32 2417.38 1286.75 2210.38 1863.67 2259.2C2325.21 2298.26 2602.56 2068.21 2683.55 1948.31" stroke="url(#paint5_linear_707_1508)" stroke-opacity="0.4" stroke-width="1.25"/>
<path d="M49.6753 2517.06C211.174 2309.6 306.681 2263.87 479.564 2298.38C652.447 2332.89 712.042 2496.23 1079.02 2442.88C1446 2389.52 1294.42 2182.52 1871.35 2231.34C2332.89 2270.4 2610.24 2040.35 2691.23 1920.45" stroke="url(#paint6_linear_707_1508)" stroke-opacity="0.4" stroke-width="1.25"/>
<path d="M57.3491 2489.2C218.848 2281.75 314.355 2236.01 487.238 2270.52C660.121 2305.03 719.716 2468.37 1086.69 2415.02C1453.67 2361.66 1302.1 2154.66 1879.02 2203.48C2340.56 2242.54 2617.92 2012.49 2698.9 1892.59" stroke="url(#paint7_linear_707_1508)" stroke-opacity="0.4" stroke-width="1.25"/>
<path d="M65.0288 2461.34C226.527 2253.89 322.035 2208.15 494.918 2242.66C667.8 2277.17 727.396 2440.51 1094.37 2387.16C1461.35 2333.8 1309.78 2126.8 1886.7 2175.63C2348.24 2214.68 2625.59 1984.64 2706.58 1864.73" stroke="url(#paint8_linear_707_1508)" stroke-opacity="0.4" stroke-width="1.25"/>
<path d="M72.7046 2433.48C234.203 2226.03 329.71 2180.29 502.593 2214.8C675.476 2249.31 735.072 2412.66 1102.05 2359.3C1469.03 2305.95 1317.45 2098.95 1894.38 2147.77C2355.92 2186.82 2633.27 1956.78 2714.26 1836.87" stroke="url(#paint9_linear_707_1508)" stroke-opacity="0.4" stroke-width="1.25"/>
<path d="M80.3823 2405.63C241.881 2198.17 337.388 2152.43 510.271 2186.94C683.154 2221.46 742.749 2384.8 1109.73 2331.44C1476.7 2278.09 1325.13 2071.09 1902.05 2119.91C2363.59 2158.97 2640.95 1928.92 2721.93 1809.01" stroke="url(#paint10_linear_707_1508)" stroke-opacity="0.4" stroke-width="1.25"/>
<path d="M88.06 2377.77C249.559 2170.31 345.066 2124.57 517.949 2159.09C690.832 2193.6 750.427 2356.94 1117.4 2303.58C1484.38 2250.23 1332.81 2043.23 1909.73 2092.05C2371.27 2131.11 2648.63 1901.06 2729.61 1781.15" stroke="url(#paint11_linear_707_1508)" stroke-opacity="0.4" stroke-width="1.25"/>
<path d="M95.7358 2349.91C257.234 2142.45 352.742 2096.72 525.625 2131.23C698.508 2165.74 758.103 2329.08 1125.08 2275.73C1492.06 2222.37 1340.49 2015.37 1917.41 2064.19C2378.95 2103.25 2656.3 1873.2 2737.29 1753.3" stroke="url(#paint12_linear_707_1508)" stroke-opacity="0.4" stroke-width="1.25"/>
<path d="M103.414 2322.05C264.912 2114.59 360.419 2068.86 533.302 2103.37C706.185 2137.88 765.781 2301.22 1132.76 2247.87C1499.73 2194.51 1348.16 1987.51 1925.09 2036.33C2386.62 2075.39 2663.98 1845.34 2744.97 1725.44" stroke="url(#paint13_linear_707_1508)" stroke-opacity="0.4" stroke-width="1.25"/>
<path d="M111.089 2294.19C272.588 2086.74 368.095 2041 540.978 2075.51C713.861 2110.02 773.456 2273.36 1140.43 2220.01C1507.41 2166.65 1355.84 1959.65 1932.76 2008.47C2394.3 2047.53 2671.66 1817.48 2752.64 1697.58" stroke="url(#paint14_linear_707_1508)" stroke-opacity="0.4" stroke-width="1.25"/>
<path d="M118.769 2266.33C280.267 2058.88 375.775 2013.14 548.658 2047.65C721.541 2082.16 781.136 2245.51 1148.11 2192.15C1515.09 2138.8 1363.52 1931.8 1940.44 1980.62C2401.98 2019.67 2679.34 1789.63 2760.32 1669.72" stroke="url(#paint15_linear_707_1508)" stroke-opacity="0.4" stroke-width="1.25"/>
<path d="M126.443 2238.48C287.941 2031.02 383.449 1985.28 556.332 2019.79C729.215 2054.3 788.81 2217.65 1155.79 2164.29C1522.76 2110.94 1371.19 1903.94 1948.12 1952.76C2409.65 1991.82 2687.01 1761.77 2767.99 1641.86" stroke="url(#paint16_linear_707_1508)" stroke-opacity="0.4" stroke-width="1.25"/>
<path d="M134.121 2210.62C295.619 2003.16 391.126 1957.42 564.009 1991.94C736.892 2026.45 796.488 2189.79 1163.46 2136.43C1530.44 2083.08 1378.87 1876.08 1955.79 1924.9C2417.33 1963.96 2694.69 1733.91 2775.67 1614" stroke="url(#paint17_linear_707_1508)" stroke-opacity="0.4" stroke-width="1.25"/>
<path d="M141.798 2182.76C303.297 1975.3 398.804 1929.57 571.687 1964.08C744.57 1998.59 804.165 2161.93 1171.14 2108.58C1538.12 2055.22 1386.55 1848.22 1963.47 1897.04C2425.01 1936.1 2702.36 1706.05 2783.35 1586.15" stroke="url(#paint18_linear_707_1508)" stroke-opacity="0.4" stroke-width="1.25"/>
<path d="M149.478 2154.9C310.976 1947.44 406.484 1901.71 579.367 1936.22C752.25 1970.73 811.845 2134.07 1178.82 2080.72C1545.8 2027.36 1394.23 1820.36 1971.15 1869.18C2432.69 1908.24 2710.04 1678.19 2791.03 1558.29" stroke="url(#paint19_linear_707_1508)" stroke-opacity="0.4" stroke-width="1.25"/>
<path d="M157.152 2127.04C318.65 1919.59 414.158 1873.85 587.041 1908.36C759.924 1942.87 819.519 2106.21 1186.5 2052.86C1553.47 1999.5 1401.9 1792.5 1978.82 1841.32C2440.36 1880.38 2717.72 1650.33 2798.7 1530.43" stroke="url(#paint20_linear_707_1508)" stroke-opacity="0.4" stroke-width="1.25"/>
<path d="M164.832 2099.18C326.33 1891.73 421.837 1845.99 594.72 1880.5C767.603 1915.01 827.198 2078.36 1194.18 2025C1561.15 1971.65 1409.58 1764.64 1986.5 1813.47C2448.04 1852.52 2725.4 1622.48 2806.38 1502.57" stroke="url(#paint21_linear_707_1508)" stroke-opacity="0.4" stroke-width="1.25"/>
<path d="M172.507 2071.33C334.006 1863.87 429.513 1818.13 602.396 1852.64C775.279 1887.15 834.874 2050.5 1201.85 1997.14C1568.83 1943.79 1417.26 1736.79 1994.18 1785.61C2455.72 1824.67 2733.07 1594.62 2814.06 1474.71" stroke="url(#paint22_linear_707_1508)" stroke-opacity="0.4" stroke-width="1.25"/>
<path d="M180.183 2043.47C341.682 1836.01 437.189 1790.27 610.072 1824.78C782.955 1859.3 842.55 2022.64 1209.53 1969.28C1576.5 1915.93 1424.93 1708.93 2001.86 1757.75C2463.39 1796.81 2740.75 1566.76 2821.73 1446.85" stroke="url(#paint23_linear_707_1508)" stroke-opacity="0.4" stroke-width="1.25"/>
<path d="M187.861 2015.61C349.359 1808.15 444.867 1762.42 617.75 1796.93C790.633 1831.44 850.228 1994.78 1217.2 1941.43C1584.18 1888.07 1432.61 1681.07 2009.53 1729.89C2471.07 1768.95 2748.43 1538.9 2829.41 1419" stroke="url(#paint24_linear_707_1508)" stroke-opacity="0.4" stroke-width="1.25"/>
<path d="M195.539 1987.75C357.037 1780.29 452.544 1734.56 625.427 1769.07C798.31 1803.58 857.906 1966.92 1224.88 1913.57C1591.86 1860.21 1440.29 1653.21 2017.21 1702.03C2478.75 1741.09 2756.1 1511.04 2837.09 1391.14" stroke="url(#paint25_linear_707_1508)" stroke-opacity="0.4" stroke-width="1.25"/>
<path d="M203.218 1959.89C364.717 1752.44 460.224 1706.7 633.107 1741.21C805.99 1775.72 865.585 1939.06 1232.56 1885.71C1599.54 1832.35 1447.97 1625.35 2024.89 1674.17C2486.43 1713.23 2763.78 1483.18 2844.77 1363.28" stroke="url(#paint26_linear_707_1508)" stroke-opacity="0.4" stroke-width="1.25"/>
<path d="M210.894 1932.03C372.393 1724.58 467.9 1678.84 640.783 1713.35C813.666 1747.86 873.261 1911.2 1240.24 1857.85C1607.22 1804.49 1455.64 1597.49 2032.57 1646.31C2494.1 1685.37 2771.46 1455.32 2852.45 1335.42" stroke="url(#paint27_linear_707_1508)" stroke-opacity="0.4" stroke-width="1.25"/>
<path d="M218.57 1904.17C380.068 1696.72 475.576 1650.98 648.459 1685.49C821.342 1720 880.937 1883.35 1247.91 1829.99C1614.89 1776.64 1463.32 1569.63 2040.24 1618.46C2501.78 1657.51 2779.14 1427.47 2860.12 1307.56" stroke="url(#paint28_linear_707_1508)" stroke-opacity="0.4" stroke-width="1.25"/>
<path d="M226.248 1876.32C387.746 1668.86 483.253 1623.12 656.136 1657.63C829.019 1692.15 888.615 1855.49 1255.59 1802.13C1622.57 1748.78 1471 1541.78 2047.92 1590.6C2509.46 1629.66 2786.81 1399.61 2867.8 1279.7" stroke="url(#paint29_linear_707_1508)" stroke-opacity="0.4" stroke-width="1.25"/>
<path d="M233.925 1848.46C395.424 1641 490.931 1595.26 663.814 1629.78C836.697 1664.29 896.292 1827.63 1263.27 1774.27C1630.25 1720.92 1478.67 1513.92 2055.6 1562.74C2517.14 1601.8 2794.49 1371.75 2875.48 1251.84" stroke="url(#paint30_linear_707_1508)" stroke-opacity="0.4" stroke-width="1.25"/>
<path d="M241.601 1820.6C403.1 1613.14 498.607 1567.41 671.49 1601.92C844.373 1636.43 903.968 1799.77 1270.95 1746.42C1637.92 1693.06 1486.35 1486.06 2063.27 1534.88C2524.81 1573.94 2802.17 1343.89 2883.15 1223.99" stroke="url(#paint31_linear_707_1508)" stroke-opacity="0.4" stroke-width="1.25"/>
<path d="M249.279 1792.74C410.777 1585.28 506.285 1539.55 679.168 1574.06C852.05 1608.57 911.646 1771.91 1278.62 1718.56C1645.6 1665.2 1494.03 1458.2 2070.95 1507.02C2532.49 1546.08 2809.84 1316.03 2890.83 1196.13" stroke="url(#paint32_linear_707_1508)" stroke-opacity="0.4" stroke-width="1.25"/>
<path d="M256.957 1764.88C418.455 1557.43 513.962 1511.69 686.845 1546.2C859.728 1580.71 919.323 1744.05 1286.3 1690.7C1653.28 1637.34 1501.71 1430.34 2078.63 1479.17C2540.17 1518.22 2817.52 1288.18 2898.51 1168.27" stroke="url(#paint33_linear_707_1508)" stroke-opacity="0.4" stroke-width="1.25"/>
<path d="M264.634 1737.02C426.133 1529.57 521.64 1483.83 694.523 1518.34C867.406 1552.85 927.001 1716.2 1293.98 1662.84C1660.96 1609.49 1509.38 1402.48 2086.31 1451.31C2547.84 1490.36 2825.2 1260.32 2906.19 1140.41" stroke="url(#paint34_linear_707_1508)" stroke-opacity="0.4" stroke-width="1.25"/>
<path d="M272.31 1709.17C433.809 1501.71 529.316 1455.97 702.199 1490.48C875.082 1525 934.677 1688.34 1301.65 1634.98C1668.63 1581.63 1517.06 1374.63 2093.98 1423.45C2555.52 1462.51 2832.88 1232.46 2913.86 1112.55" stroke="url(#paint35_linear_707_1508)" stroke-opacity="0.4" stroke-width="1.25"/>
<path d="M279.988 1681.31C441.486 1473.85 536.994 1428.11 709.877 1462.63C882.759 1497.14 942.355 1660.48 1309.33 1607.12C1676.31 1553.77 1524.74 1346.77 2101.66 1395.59C2563.2 1434.65 2840.55 1204.6 2921.54 1084.69" stroke="url(#paint36_linear_707_1508)" stroke-opacity="0.4" stroke-width="1.25"/>
<path d="M287.666 1653.45C449.164 1445.99 544.671 1400.26 717.554 1434.77C890.437 1469.28 950.032 1632.62 1317.01 1579.27C1683.99 1525.91 1532.41 1318.91 2109.34 1367.73C2570.88 1406.79 2848.23 1176.74 2929.22 1056.84" stroke="url(#paint37_linear_707_1508)" stroke-opacity="0.4" stroke-width="1.25"/>
<path d="M295.341 1625.59C456.84 1418.13 552.347 1372.4 725.23 1406.91C898.113 1441.42 957.708 1604.76 1324.69 1551.41C1691.66 1498.05 1540.09 1291.05 2117.01 1339.87C2578.55 1378.93 2855.91 1148.88 2936.89 1028.98" stroke="url(#paint38_linear_707_1508)" stroke-opacity="0.4" stroke-width="1.25"/>
<path d="M303.019 1597.73C464.518 1390.28 560.025 1344.54 732.908 1379.05C905.791 1413.56 965.386 1576.9 1332.36 1523.55C1699.34 1470.19 1547.77 1263.19 2124.69 1312.02C2586.23 1351.07 2863.59 1121.02 2944.57 1001.12" stroke="url(#paint39_linear_707_1508)" stroke-opacity="0.4" stroke-width="1.25"/>
<path d="M310.695 1569.87C472.193 1362.42 567.701 1316.68 740.584 1351.19C913.467 1385.7 973.062 1549.05 1340.04 1495.69C1707.02 1442.34 1555.44 1235.34 2132.37 1284.16C2593.91 1323.21 2871.26 1093.17 2952.25 973.262" stroke="url(#paint40_linear_707_1508)" stroke-opacity="0.4" stroke-width="1.25"/>
<path d="M318.371 1542.02C479.869 1334.56 575.376 1288.82 748.259 1323.33C921.142 1357.84 980.738 1521.19 1347.71 1467.83C1714.69 1414.48 1563.12 1207.48 2140.04 1256.3C2601.58 1295.36 2878.94 1065.31 2959.92 945.402" stroke="url(#paint41_linear_707_1508)" stroke-opacity="0.4" stroke-width="1.25"/>
<path d="M326.048 1514.16C487.547 1306.7 583.054 1260.96 755.937 1295.48C928.82 1329.99 988.415 1493.33 1355.39 1439.97C1722.37 1386.62 1570.8 1179.62 2147.72 1228.44C2609.26 1267.5 2886.61 1037.45 2967.6 917.544" stroke="url(#paint42_linear_707_1508)" stroke-opacity="0.4" stroke-width="1.25"/>
<path d="M333.726 1486.3C495.225 1278.84 590.732 1233.11 763.615 1267.62C936.498 1302.13 996.093 1465.47 1363.07 1412.12C1730.05 1358.76 1578.48 1151.76 2155.4 1200.58C2616.94 1239.64 2894.29 1009.59 2975.28 889.686" stroke="url(#paint43_linear_707_1508)" stroke-opacity="0.4" stroke-width="1.25"/>
<path d="M341.402 1458.44C502.9 1250.99 598.408 1205.25 771.291 1239.76C944.174 1274.27 1003.77 1437.61 1370.75 1384.26C1737.72 1330.9 1586.15 1123.9 2163.07 1172.72C2624.61 1211.78 2901.97 981.734 2982.95 861.828" stroke="url(#paint44_linear_707_1508)" stroke-opacity="0.4" stroke-width="1.25"/>
<path d="M349.08 1430.58C510.578 1223.13 606.085 1177.39 778.968 1211.9C951.851 1246.41 1011.45 1409.75 1378.42 1356.4C1745.4 1303.04 1593.83 1096.04 2170.75 1144.87C2632.29 1183.92 2909.65 953.875 2990.63 833.969" stroke="url(#paint45_linear_707_1508)" stroke-opacity="0.4" stroke-width="1.25"/>
<path d="M356.757 1402.72C518.256 1195.27 613.763 1149.53 786.646 1184.04C959.529 1218.55 1019.12 1381.9 1386.1 1328.54C1753.08 1275.19 1601.51 1068.19 2178.43 1117.01C2639.97 1156.06 2917.32 926.017 2998.31 806.111" stroke="url(#paint46_linear_707_1508)" stroke-opacity="0.4" stroke-width="1.25"/>
<path d="M364.437 1374.87C525.935 1167.41 621.443 1121.67 794.326 1156.18C967.209 1190.7 1026.8 1354.04 1393.78 1300.68C1760.76 1247.33 1609.19 1040.33 2186.11 1089.15C2647.65 1128.21 2925 898.159 3005.99 778.253" stroke="url(#paint47_linear_707_1508)" stroke-opacity="0.4" stroke-width="1.25"/>
<path d="M372.111 1347.01C533.609 1139.55 629.117 1093.81 802 1128.33C974.883 1162.84 1034.48 1326.18 1401.45 1272.82C1768.43 1219.47 1616.86 1012.47 2193.78 1061.29C2655.32 1100.35 2932.68 870.3 3013.66 750.394" stroke="url(#paint48_linear_707_1508)" stroke-opacity="0.4" stroke-width="1.25"/>
<path d="M379.791 1319.15C541.289 1111.69 636.796 1065.96 809.679 1100.47C982.562 1134.98 1042.16 1298.32 1409.13 1244.97C1776.11 1191.61 1624.54 984.611 2201.46 1033.43C2663 1072.49 2940.36 842.442 3021.34 722.537" stroke="url(#paint49_linear_707_1508)" stroke-opacity="0.4" stroke-width="1.25"/>
<path d="M387.466 1291.29C548.965 1083.83 644.472 1038.1 817.355 1072.61C990.238 1107.12 1049.83 1270.46 1416.81 1217.11C1783.79 1163.75 1632.22 956.752 2209.14 1005.57C2670.68 1044.63 2948.03 814.584 3029.02 694.678" stroke="url(#paint50_linear_707_1508)" stroke-opacity="0.4" stroke-width="1.25"/>
<path d="M395.146 1263.43C556.644 1055.98 652.152 1010.24 825.035 1044.75C997.918 1079.26 1057.51 1242.61 1424.49 1189.25C1791.47 1135.9 1639.9 928.895 2216.82 977.717C2678.36 1016.77 2955.71 786.727 3036.7 666.821" stroke="url(#paint51_linear_707_1508)" stroke-opacity="0.4" stroke-width="1.25"/>
<path d="M402.822 1235.57C564.32 1028.12 659.828 982.381 832.711 1016.89C1005.59 1051.4 1065.19 1214.75 1432.17 1161.39C1799.14 1108.04 1647.57 901.035 2224.49 949.857C2686.03 988.914 2963.39 758.867 3044.37 638.961" stroke="url(#paint52_linear_707_1508)" stroke-opacity="0.4" stroke-width="1.25"/>
<path d="M410.496 1207.72C571.994 1000.26 667.501 954.523 840.384 989.034C1013.27 1023.55 1072.86 1186.89 1439.84 1133.53C1806.82 1080.18 1655.24 873.177 2232.17 921.999C2693.71 961.056 2971.06 731.008 3052.05 611.102" stroke="url(#paint53_linear_707_1508)" stroke-opacity="0.4" stroke-width="1.25"/>
<path d="M418.175 1179.86C579.674 972.401 675.181 926.664 848.064 961.175C1020.95 995.686 1080.54 1159.03 1447.52 1105.67C1814.5 1052.32 1662.92 845.318 2239.85 894.14C2701.39 933.197 2978.74 703.149 3059.73 583.244" stroke="url(#paint54_linear_707_1508)" stroke-opacity="0.4" stroke-width="1.25"/>
</g>
<defs>
<linearGradient id="paint0_linear_707_1508" x1="1463.01" y1="1802.64" x2="1182.03" y2="2968.27" gradientUnits="userSpaceOnUse">
<stop stop-color="#399780"/>
<stop offset="1" stop-color="#480E8B"/>
<stop offset="1" stop-color="#480E8B"/>
</linearGradient>
<linearGradient id="paint1_linear_707_1508" x1="1470.68" y1="1774.78" x2="1189.71" y2="2940.41" gradientUnits="userSpaceOnUse">
<stop stop-color="#399780"/>
<stop offset="1" stop-color="#480E8B"/>
<stop offset="1" stop-color="#480E8B"/>
</linearGradient>
<linearGradient id="paint2_linear_707_1508" x1="1478.36" y1="1746.92" x2="1197.39" y2="2912.55" gradientUnits="userSpaceOnUse">
<stop stop-color="#399780"/>
<stop offset="1" stop-color="#480E8B"/>
<stop offset="1" stop-color="#480E8B"/>
</linearGradient>
<linearGradient id="paint3_linear_707_1508" x1="1486.04" y1="1719.06" x2="1205.06" y2="2884.69" gradientUnits="userSpaceOnUse">
<stop stop-color="#399780"/>
<stop offset="1" stop-color="#480E8B"/>
<stop offset="1" stop-color="#480E8B"/>
</linearGradient>
<linearGradient id="paint4_linear_707_1508" x1="1493.72" y1="1691.21" x2="1212.74" y2="2856.84" gradientUnits="userSpaceOnUse">
<stop stop-color="#399780"/>
<stop offset="1" stop-color="#480E8B"/>
<stop offset="1" stop-color="#480E8B"/>
</linearGradient>
<linearGradient id="paint5_linear_707_1508" x1="1501.39" y1="1663.35" x2="1220.42" y2="2828.98" gradientUnits="userSpaceOnUse">
<stop stop-color="#399780"/>
<stop offset="1" stop-color="#480E8B"/>
<stop offset="1" stop-color="#480E8B"/>
</linearGradient>
<linearGradient id="paint6_linear_707_1508" x1="1509.07" y1="1635.49" x2="1228.1" y2="2801.12" gradientUnits="userSpaceOnUse">
<stop stop-color="#399780"/>
<stop offset="1" stop-color="#480E8B"/>
<stop offset="1" stop-color="#480E8B"/>
</linearGradient>
<linearGradient id="paint7_linear_707_1508" x1="1516.75" y1="1607.63" x2="1235.77" y2="2773.26" gradientUnits="userSpaceOnUse">
<stop stop-color="#399780"/>
<stop offset="1" stop-color="#480E8B"/>
<stop offset="1" stop-color="#480E8B"/>
</linearGradient>
<linearGradient id="paint8_linear_707_1508" x1="1524.42" y1="1579.77" x2="1243.45" y2="2745.4" gradientUnits="userSpaceOnUse">
<stop stop-color="#399780"/>
<stop offset="1" stop-color="#480E8B"/>
<stop offset="1" stop-color="#480E8B"/>
</linearGradient>
<linearGradient id="paint9_linear_707_1508" x1="1532.1" y1="1551.91" x2="1251.13" y2="2717.54" gradientUnits="userSpaceOnUse">
<stop stop-color="#399780"/>
<stop offset="1" stop-color="#480E8B"/>
<stop offset="1" stop-color="#480E8B"/>
</linearGradient>
<linearGradient id="paint10_linear_707_1508" x1="1539.78" y1="1524.05" x2="1258.8" y2="2689.68" gradientUnits="userSpaceOnUse">
<stop stop-color="#399780"/>
<stop offset="1" stop-color="#480E8B"/>
<stop offset="1" stop-color="#480E8B"/>
</linearGradient>
<linearGradient id="paint11_linear_707_1508" x1="1547.46" y1="1496.2" x2="1266.48" y2="2661.83" gradientUnits="userSpaceOnUse">
<stop stop-color="#399780"/>
<stop offset="1" stop-color="#480E8B"/>
<stop offset="1" stop-color="#480E8B"/>
</linearGradient>
<linearGradient id="paint12_linear_707_1508" x1="1555.13" y1="1468.34" x2="1274.16" y2="2633.97" gradientUnits="userSpaceOnUse">
<stop stop-color="#399780"/>
<stop offset="1" stop-color="#480E8B"/>
<stop offset="1" stop-color="#480E8B"/>
</linearGradient>
<linearGradient id="paint13_linear_707_1508" x1="1562.81" y1="1440.48" x2="1281.83" y2="2606.11" gradientUnits="userSpaceOnUse">
<stop stop-color="#399780"/>
<stop offset="1" stop-color="#480E8B"/>
<stop offset="1" stop-color="#480E8B"/>
</linearGradient>
<linearGradient id="paint14_linear_707_1508" x1="1570.49" y1="1412.62" x2="1289.51" y2="2578.25" gradientUnits="userSpaceOnUse">
<stop stop-color="#399780"/>
<stop offset="1" stop-color="#480E8B"/>
<stop offset="1" stop-color="#480E8B"/>
</linearGradient>
<linearGradient id="paint15_linear_707_1508" x1="1578.17" y1="1384.76" x2="1297.19" y2="2550.39" gradientUnits="userSpaceOnUse">
<stop stop-color="#399780"/>
<stop offset="1" stop-color="#480E8B"/>
<stop offset="1" stop-color="#480E8B"/>
</linearGradient>
<linearGradient id="paint16_linear_707_1508" x1="1585.84" y1="1356.9" x2="1304.86" y2="2522.53" gradientUnits="userSpaceOnUse">
<stop stop-color="#399780"/>
<stop offset="1" stop-color="#480E8B"/>
<stop offset="1" stop-color="#480E8B"/>
</linearGradient>
<linearGradient id="paint17_linear_707_1508" x1="1593.52" y1="1329.04" x2="1312.54" y2="2494.68" gradientUnits="userSpaceOnUse">
<stop stop-color="#399780"/>
<stop offset="1" stop-color="#480E8B"/>
<stop offset="1" stop-color="#480E8B"/>
</linearGradient>
<linearGradient id="paint18_linear_707_1508" x1="1601.19" y1="1301.19" x2="1320.22" y2="2466.82" gradientUnits="userSpaceOnUse">
<stop stop-color="#399780"/>
<stop offset="1" stop-color="#480E8B"/>
<stop offset="1" stop-color="#480E8B"/>
</linearGradient>
<linearGradient id="paint19_linear_707_1508" x1="1608.87" y1="1273.33" x2="1327.9" y2="2438.96" gradientUnits="userSpaceOnUse">
<stop stop-color="#399780"/>
<stop offset="1" stop-color="#480E8B"/>
<stop offset="1" stop-color="#480E8B"/>
</linearGradient>
<linearGradient id="paint20_linear_707_1508" x1="1616.55" y1="1245.47" x2="1335.57" y2="2411.1" gradientUnits="userSpaceOnUse">
<stop stop-color="#399780"/>
<stop offset="1" stop-color="#480E8B"/>
<stop offset="1" stop-color="#480E8B"/>
</linearGradient>
<linearGradient id="paint21_linear_707_1508" x1="1624.23" y1="1217.61" x2="1343.25" y2="2383.24" gradientUnits="userSpaceOnUse">
<stop stop-color="#399780"/>
<stop offset="1" stop-color="#480E8B"/>
<stop offset="1" stop-color="#480E8B"/>
</linearGradient>
<linearGradient id="paint22_linear_707_1508" x1="1631.9" y1="1189.75" x2="1350.93" y2="2355.38" gradientUnits="userSpaceOnUse">
<stop stop-color="#399780"/>
<stop offset="1" stop-color="#480E8B"/>
<stop offset="1" stop-color="#480E8B"/>
</linearGradient>
<linearGradient id="paint23_linear_707_1508" x1="1639.58" y1="1161.89" x2="1358.6" y2="2327.52" gradientUnits="userSpaceOnUse">
<stop stop-color="#399780"/>
<stop offset="1" stop-color="#480E8B"/>
<stop offset="1" stop-color="#480E8B"/>
</linearGradient>
<linearGradient id="paint24_linear_707_1508" x1="1647.26" y1="1134.04" x2="1366.28" y2="2299.67" gradientUnits="userSpaceOnUse">
<stop stop-color="#399780"/>
<stop offset="1" stop-color="#480E8B"/>
<stop offset="1" stop-color="#480E8B"/>
</linearGradient>
<linearGradient id="paint25_linear_707_1508" x1="1654.93" y1="1106.18" x2="1373.96" y2="2271.81" gradientUnits="userSpaceOnUse">
<stop stop-color="#399780"/>
<stop offset="1" stop-color="#480E8B"/>
<stop offset="1" stop-color="#480E8B"/>
</linearGradient>
<linearGradient id="paint26_linear_707_1508" x1="1662.61" y1="1078.32" x2="1381.64" y2="2243.95" gradientUnits="userSpaceOnUse">
<stop stop-color="#399780"/>
<stop offset="1" stop-color="#480E8B"/>
<stop offset="1" stop-color="#480E8B"/>
</linearGradient>
<linearGradient id="paint27_linear_707_1508" x1="1670.29" y1="1050.46" x2="1389.31" y2="2216.09" gradientUnits="userSpaceOnUse">
<stop stop-color="#399780"/>
<stop offset="1" stop-color="#480E8B"/>
<stop offset="1" stop-color="#480E8B"/>
</linearGradient>
<linearGradient id="paint28_linear_707_1508" x1="1677.97" y1="1022.6" x2="1396.99" y2="2188.23" gradientUnits="userSpaceOnUse">
<stop stop-color="#399780"/>
<stop offset="1" stop-color="#480E8B"/>
<stop offset="1" stop-color="#480E8B"/>
</linearGradient>
<linearGradient id="paint29_linear_707_1508" x1="1685.64" y1="994.744" x2="1404.67" y2="2160.37" gradientUnits="userSpaceOnUse">
<stop stop-color="#399780"/>
<stop offset="1" stop-color="#480E8B"/>
<stop offset="1" stop-color="#480E8B"/>
</linearGradient>
<linearGradient id="paint30_linear_707_1508" x1="1693.32" y1="966.886" x2="1412.35" y2="2132.52" gradientUnits="userSpaceOnUse">
<stop stop-color="#399780"/>
<stop offset="1" stop-color="#480E8B"/>
<stop offset="1" stop-color="#480E8B"/>
</linearGradient>
<linearGradient id="paint31_linear_707_1508" x1="1701" y1="939.026" x2="1420.02" y2="2104.66" gradientUnits="userSpaceOnUse">
<stop stop-color="#399780"/>
<stop offset="1" stop-color="#480E8B"/>
<stop offset="1" stop-color="#480E8B"/>
</linearGradient>
<linearGradient id="paint32_linear_707_1508" x1="1708.67" y1="911.168" x2="1427.7" y2="2076.8" gradientUnits="userSpaceOnUse">
<stop stop-color="#399780"/>
<stop offset="1" stop-color="#480E8B"/>
<stop offset="1" stop-color="#480E8B"/>
</linearGradient>
<linearGradient id="paint33_linear_707_1508" x1="1716.35" y1="883.31" x2="1435.38" y2="2048.94" gradientUnits="userSpaceOnUse">
<stop stop-color="#399780"/>
<stop offset="1" stop-color="#480E8B"/>
<stop offset="1" stop-color="#480E8B"/>
</linearGradient>
<linearGradient id="paint34_linear_707_1508" x1="1724.03" y1="855.451" x2="1443.05" y2="2021.08" gradientUnits="userSpaceOnUse">
<stop stop-color="#399780"/>
<stop offset="1" stop-color="#480E8B"/>
<stop offset="1" stop-color="#480E8B"/>
</linearGradient>
<linearGradient id="paint35_linear_707_1508" x1="1731.71" y1="827.594" x2="1450.73" y2="1993.22" gradientUnits="userSpaceOnUse">
<stop stop-color="#399780"/>
<stop offset="1" stop-color="#480E8B"/>
<stop offset="1" stop-color="#480E8B"/>
</linearGradient>
<linearGradient id="paint36_linear_707_1508" x1="1739.38" y1="799.735" x2="1458.41" y2="1965.37" gradientUnits="userSpaceOnUse">
<stop stop-color="#399780"/>
<stop offset="1" stop-color="#480E8B"/>
<stop offset="1" stop-color="#480E8B"/>
</linearGradient>
<linearGradient id="paint37_linear_707_1508" x1="1747.06" y1="771.877" x2="1466.09" y2="1937.51" gradientUnits="userSpaceOnUse">
<stop stop-color="#399780"/>
<stop offset="1" stop-color="#480E8B"/>
<stop offset="1" stop-color="#480E8B"/>
</linearGradient>
<linearGradient id="paint38_linear_707_1508" x1="1754.74" y1="744.018" x2="1473.76" y2="1909.65" gradientUnits="userSpaceOnUse">
<stop stop-color="#399780"/>
<stop offset="1" stop-color="#480E8B"/>
<stop offset="1" stop-color="#480E8B"/>
</linearGradient>
<linearGradient id="paint39_linear_707_1508" x1="1762.42" y1="716.16" x2="1481.44" y2="1881.79" gradientUnits="userSpaceOnUse">
<stop stop-color="#399780"/>
<stop offset="1" stop-color="#480E8B"/>
<stop offset="1" stop-color="#480E8B"/>
</linearGradient>
<linearGradient id="paint40_linear_707_1508" x1="1770.09" y1="688.303" x2="1489.12" y2="1853.93" gradientUnits="userSpaceOnUse">
<stop stop-color="#399780"/>
<stop offset="1" stop-color="#480E8B"/>
<stop offset="1" stop-color="#480E8B"/>
</linearGradient>
<linearGradient id="paint41_linear_707_1508" x1="1777.77" y1="660.443" x2="1496.79" y2="1826.07" gradientUnits="userSpaceOnUse">
<stop stop-color="#399780"/>
<stop offset="1" stop-color="#480E8B"/>
<stop offset="1" stop-color="#480E8B"/>
</linearGradient>
<linearGradient id="paint42_linear_707_1508" x1="1785.44" y1="632.585" x2="1504.47" y2="1798.22" gradientUnits="userSpaceOnUse">
<stop stop-color="#399780"/>
<stop offset="1" stop-color="#480E8B"/>
<stop offset="1" stop-color="#480E8B"/>
</linearGradient>
<linearGradient id="paint43_linear_707_1508" x1="1793.12" y1="604.727" x2="1512.15" y2="1770.36" gradientUnits="userSpaceOnUse">
<stop stop-color="#399780"/>
<stop offset="1" stop-color="#480E8B"/>
<stop offset="1" stop-color="#480E8B"/>
</linearGradient>
<linearGradient id="paint44_linear_707_1508" x1="1800.8" y1="576.869" x2="1519.82" y2="1742.5" gradientUnits="userSpaceOnUse">
<stop stop-color="#399780"/>
<stop offset="1" stop-color="#480E8B"/>
<stop offset="1" stop-color="#480E8B"/>
</linearGradient>
<linearGradient id="paint45_linear_707_1508" x1="1808.48" y1="549.01" x2="1527.5" y2="1714.64" gradientUnits="userSpaceOnUse">
<stop stop-color="#399780"/>
<stop offset="1" stop-color="#480E8B"/>
<stop offset="1" stop-color="#480E8B"/>
</linearGradient>
<linearGradient id="paint46_linear_707_1508" x1="1816.15" y1="521.152" x2="1535.18" y2="1686.78" gradientUnits="userSpaceOnUse">
<stop stop-color="#399780"/>
<stop offset="1" stop-color="#480E8B"/>
<stop offset="1" stop-color="#480E8B"/>
</linearGradient>
<linearGradient id="paint47_linear_707_1508" x1="1823.83" y1="493.294" x2="1542.86" y2="1658.93" gradientUnits="userSpaceOnUse">
<stop stop-color="#399780"/>
<stop offset="1" stop-color="#480E8B"/>
<stop offset="1" stop-color="#480E8B"/>
</linearGradient>
<linearGradient id="paint48_linear_707_1508" x1="1831.51" y1="465.435" x2="1550.53" y2="1631.07" gradientUnits="userSpaceOnUse">
<stop stop-color="#399780"/>
<stop offset="1" stop-color="#480E8B"/>
<stop offset="1" stop-color="#480E8B"/>
</linearGradient>
<linearGradient id="paint49_linear_707_1508" x1="1839.19" y1="437.578" x2="1558.21" y2="1603.21" gradientUnits="userSpaceOnUse">
<stop stop-color="#399780"/>
<stop offset="1" stop-color="#480E8B"/>
<stop offset="1" stop-color="#480E8B"/>
</linearGradient>
<linearGradient id="paint50_linear_707_1508" x1="1846.86" y1="409.719" x2="1565.89" y2="1575.35" gradientUnits="userSpaceOnUse">
<stop stop-color="#399780"/>
<stop offset="1" stop-color="#480E8B"/>
<stop offset="1" stop-color="#480E8B"/>
</linearGradient>
<linearGradient id="paint51_linear_707_1508" x1="1854.54" y1="381.862" x2="1573.57" y2="1547.49" gradientUnits="userSpaceOnUse">
<stop stop-color="#399780"/>
<stop offset="1" stop-color="#480E8B"/>
<stop offset="1" stop-color="#480E8B"/>
</linearGradient>
<linearGradient id="paint52_linear_707_1508" x1="1862.22" y1="354.002" x2="1581.24" y2="1519.63" gradientUnits="userSpaceOnUse">
<stop stop-color="#399780"/>
<stop offset="1" stop-color="#480E8B"/>
<stop offset="1" stop-color="#480E8B"/>
</linearGradient>
<linearGradient id="paint53_linear_707_1508" x1="1869.89" y1="326.143" x2="1588.92" y2="1491.77" gradientUnits="userSpaceOnUse">
<stop stop-color="#399780"/>
<stop offset="1" stop-color="#480E8B"/>
<stop offset="1" stop-color="#480E8B"/>
</linearGradient>
<linearGradient id="paint54_linear_707_1508" x1="1877.57" y1="298.285" x2="1596.6" y2="1463.92" gradientUnits="userSpaceOnUse">
<stop stop-color="#399780"/>
<stop offset="1" stop-color="#480E8B"/>
<stop offset="1" stop-color="#480E8B"/>
</linearGradient>
</defs>
</svg>
