<svg width="3098" height="3407" viewBox="0 0 3098 3407" fill="none" xmlns="http://www.w3.org/2000/svg">
<g opacity="0.5">
<path d="M20.9468 2801.79C182.445 2584.92 277.953 2537.11 450.836 2573.18C623.719 2609.26 683.314 2780.02 1050.29 2724.24C1417.27 2668.47 1265.7 2452.07 1842.62 2503.1C2304.16 2543.94 2581.51 2303.44 2662.5 2178.09" stroke="url(#paint0_linear_707_352)" stroke-opacity="0.4" stroke-width="1.25"/>
<path d="M28.6225 2772.67C190.121 2555.79 285.628 2507.98 458.511 2544.06C631.394 2580.14 690.99 2750.9 1057.97 2695.12C1424.94 2639.34 1273.37 2422.94 1850.29 2473.98C2311.83 2514.81 2589.19 2274.32 2670.17 2148.97" stroke="url(#paint1_linear_707_352)" stroke-opacity="0.4" stroke-width="1.25"/>
<path d="M36.3022 2743.55C197.801 2526.67 293.308 2478.86 466.191 2514.94C639.074 2551.02 698.669 2721.77 1065.65 2666C1432.62 2610.22 1281.05 2393.82 1857.97 2444.86C2319.51 2485.69 2596.87 2245.2 2677.85 2119.84" stroke="url(#paint2_linear_707_352)" stroke-opacity="0.4" stroke-width="1.25"/>
<path d="M43.9761 2714.42C205.475 2497.55 300.982 2449.73 473.865 2485.81C646.748 2521.89 706.343 2692.65 1073.32 2636.87C1440.3 2581.09 1288.73 2364.69 1865.65 2415.73C2327.19 2456.56 2604.54 2216.07 2685.53 2090.72" stroke="url(#paint3_linear_707_352)" stroke-opacity="0.4" stroke-width="1.25"/>
<path d="M51.6557 2685.3C213.154 2468.43 308.662 2420.61 481.545 2456.69C654.428 2492.77 714.023 2663.53 1081 2607.75C1447.98 2551.97 1296.41 2335.57 1873.33 2386.61C2334.87 2427.44 2612.22 2186.95 2693.21 2061.6" stroke="url(#paint4_linear_707_352)" stroke-opacity="0.4" stroke-width="1.25"/>
<path d="M59.3315 2656.18C220.83 2439.3 316.337 2391.49 489.22 2427.57C662.103 2463.64 721.699 2634.4 1088.68 2578.63C1455.65 2522.85 1304.08 2306.45 1881 2357.49C2342.54 2398.32 2619.9 2157.82 2700.88 2032.47" stroke="url(#paint5_linear_707_352)" stroke-opacity="0.4" stroke-width="1.25"/>
<path d="M67.0093 2627.05C228.508 2410.18 324.015 2362.36 496.898 2398.44C669.781 2434.52 729.376 2605.28 1096.35 2549.5C1463.33 2493.73 1311.76 2277.33 1888.68 2328.36C2350.22 2369.19 2627.58 2128.7 2708.56 2003.35" stroke="url(#paint6_linear_707_352)" stroke-opacity="0.4" stroke-width="1.25"/>
<path d="M74.6851 2597.93C236.184 2381.06 331.691 2333.24 504.574 2369.32C677.457 2405.4 737.052 2576.16 1104.03 2520.38C1471.01 2464.6 1319.43 2248.2 1896.36 2299.24C2357.9 2340.07 2635.25 2099.58 2716.24 1974.23" stroke="url(#paint7_linear_707_352)" stroke-opacity="0.4" stroke-width="1.25"/>
<path d="M82.3628 2568.81C243.861 2351.93 339.369 2304.12 512.252 2340.2C685.135 2376.27 744.73 2547.03 1111.71 2491.26C1478.68 2435.48 1327.11 2219.08 1904.04 2270.12C2365.57 2310.95 2642.93 2070.45 2723.91 1945.1" stroke="url(#paint8_linear_707_352)" stroke-opacity="0.4" stroke-width="1.25"/>
<path d="M90.0386 2539.68C251.537 2322.81 347.044 2274.99 519.927 2311.07C692.81 2347.15 752.406 2517.91 1119.38 2462.13C1486.36 2406.35 1334.79 2189.95 1911.71 2240.99C2373.25 2281.82 2650.6 2041.33 2731.59 1915.98" stroke="url(#paint9_linear_707_352)" stroke-opacity="0.4" stroke-width="1.25"/>
<path d="M97.7182 2510.56C259.217 2293.68 354.724 2245.87 527.607 2281.95C700.49 2318.03 760.085 2488.79 1127.06 2433.01C1494.04 2377.23 1342.47 2160.83 1919.39 2211.87C2380.93 2252.7 2658.28 2012.21 2739.27 1886.86" stroke="url(#paint10_linear_707_352)" stroke-opacity="0.4" stroke-width="1.25"/>
<path d="M105.394 2481.44C266.893 2264.56 362.4 2216.75 535.283 2252.83C708.166 2288.9 767.761 2459.66 1134.74 2403.89C1501.72 2348.11 1350.14 2131.71 1927.07 2182.75C2388.6 2223.58 2665.96 1983.08 2746.95 1857.73" stroke="url(#paint11_linear_707_352)" stroke-opacity="0.4" stroke-width="1.25"/>
<path d="M113.072 2452.31C274.57 2235.44 370.078 2187.62 542.961 2223.7C715.844 2259.78 775.439 2430.54 1142.42 2374.76C1509.39 2318.98 1357.82 2102.58 1934.74 2153.62C2396.28 2194.45 2673.64 1953.96 2754.62 1828.61" stroke="url(#paint12_linear_707_352)" stroke-opacity="0.4" stroke-width="1.25"/>
<path d="M120.749 2423.19C282.248 2206.31 377.755 2158.5 550.638 2194.58C723.521 2230.66 783.117 2401.42 1150.09 2345.64C1517.07 2289.86 1365.5 2073.46 1942.42 2124.5C2403.96 2165.33 2681.32 1924.84 2762.3 1799.49" stroke="url(#paint13_linear_707_352)" stroke-opacity="0.4" stroke-width="1.25"/>
<path d="M128.425 2394.07C289.924 2177.19 385.431 2129.38 558.314 2165.45C731.197 2201.53 790.792 2372.29 1157.77 2316.51C1524.75 2260.74 1373.17 2044.34 1950.1 2095.37C2411.64 2136.21 2688.99 1895.71 2769.98 1770.36" stroke="url(#paint14_linear_707_352)" stroke-opacity="0.4" stroke-width="1.25"/>
<path d="M136.103 2364.94C297.602 2148.07 393.109 2100.25 565.992 2136.33C738.875 2172.41 798.47 2343.17 1165.45 2287.39C1532.42 2231.61 1380.85 2015.21 1957.78 2066.25C2419.31 2107.08 2696.67 1866.59 2777.65 1741.24" stroke="url(#paint15_linear_707_352)" stroke-opacity="0.4" stroke-width="1.25"/>
<path d="M143.779 2335.82C305.277 2118.94 400.785 2071.13 573.668 2107.21C746.551 2143.29 806.146 2314.05 1173.12 2258.27C1540.1 2202.49 1388.53 1986.09 1965.45 2037.13C2426.99 2077.96 2704.35 1837.47 2785.33 1712.12" stroke="url(#paint16_linear_707_352)" stroke-opacity="0.4" stroke-width="1.25"/>
<path d="M151.457 2306.7C312.955 2089.82 408.462 2042.01 581.345 2078.08C754.228 2114.16 813.824 2284.92 1180.8 2229.15C1547.78 2173.37 1396.21 1956.97 1973.13 2008.01C2434.67 2048.84 2712.02 1808.34 2793.01 1682.99" stroke="url(#paint17_linear_707_352)" stroke-opacity="0.4" stroke-width="1.25"/>
<path d="M159.134 2277.57C320.633 2060.7 416.14 2012.88 589.023 2048.96C761.906 2085.04 821.501 2255.8 1188.48 2200.02C1555.46 2144.24 1403.88 1927.84 1980.81 1978.88C2442.35 2019.71 2719.7 1779.22 2800.69 1653.87" stroke="url(#paint18_linear_707_352)" stroke-opacity="0.4" stroke-width="1.25"/>
<path d="M166.812 2248.45C328.311 2031.57 423.818 1983.76 596.701 2019.84C769.584 2055.92 829.179 2226.68 1196.16 2170.9C1563.13 2115.12 1411.56 1898.72 1988.48 1949.76C2450.02 1990.59 2727.38 1750.1 2808.36 1624.75" stroke="url(#paint19_linear_707_352)" stroke-opacity="0.4" stroke-width="1.25"/>
<path d="M174.486 2219.32C335.984 2002.45 431.492 1954.64 604.375 1990.71C777.258 2026.79 836.853 2197.55 1203.83 2141.77C1570.81 2086 1419.24 1869.6 1996.16 1920.63C2457.7 1961.46 2735.05 1720.97 2816.04 1595.62" stroke="url(#paint20_linear_707_352)" stroke-opacity="0.4" stroke-width="1.25"/>
<path d="M182.167 2190.2C343.666 1973.33 439.173 1925.51 612.056 1961.59C784.939 1997.67 844.535 2168.43 1211.51 2112.65C1578.49 2056.87 1426.92 1840.47 2003.84 1891.51C2465.38 1932.34 2742.73 1691.85 2823.72 1566.5" stroke="url(#paint21_linear_707_352)" stroke-opacity="0.4" stroke-width="1.25"/>
<path d="M189.843 2161.08C351.342 1944.2 446.849 1896.39 619.732 1932.47C792.615 1968.55 852.21 2139.31 1219.19 2083.53C1586.16 2027.75 1434.59 1811.35 2011.52 1862.39C2473.05 1903.22 2750.41 1662.73 2831.4 1537.38" stroke="url(#paint22_linear_707_352)" stroke-opacity="0.4" stroke-width="1.25"/>
<path d="M197.519 2131.95C359.018 1915.08 454.525 1867.27 627.408 1903.34C800.291 1939.42 859.886 2110.18 1226.86 2054.4C1593.84 1998.63 1442.27 1782.23 2019.19 1833.26C2480.73 1874.09 2758.09 1633.6 2839.07 1508.25" stroke="url(#paint23_linear_707_352)" stroke-opacity="0.4" stroke-width="1.25"/>
<path d="M205.197 2102.83C366.695 1885.96 462.203 1838.14 635.086 1874.22C807.969 1910.3 867.564 2081.06 1234.54 2025.28C1601.52 1969.5 1449.95 1753.1 2026.87 1804.14C2488.41 1844.97 2765.76 1604.48 2846.75 1479.13" stroke="url(#paint24_linear_707_352)" stroke-opacity="0.4" stroke-width="1.25"/>
<path d="M212.873 2073.71C374.371 1856.83 469.878 1809.02 642.761 1845.1C815.644 1881.17 875.24 2051.93 1242.22 1996.16C1609.19 1940.38 1457.62 1723.98 2034.54 1775.02C2496.08 1815.85 2773.44 1575.35 2854.42 1450" stroke="url(#paint25_linear_707_352)" stroke-opacity="0.4" stroke-width="1.25"/>
<path d="M220.552 2044.59C382.051 1827.71 477.558 1779.9 650.441 1815.97C823.324 1852.05 882.919 2022.81 1249.9 1967.03C1616.87 1911.26 1465.3 1694.86 2042.22 1745.89C2503.76 1786.73 2781.12 1546.23 2862.1 1420.88" stroke="url(#paint26_linear_707_352)" stroke-opacity="0.4" stroke-width="1.25"/>
<path d="M228.228 2015.46C389.727 1798.58 485.234 1750.77 658.117 1786.85C831 1822.93 890.595 1993.69 1257.57 1937.91C1624.55 1882.13 1472.98 1665.73 2049.9 1716.77C2511.44 1757.6 2788.79 1517.11 2869.78 1391.76" stroke="url(#paint27_linear_707_352)" stroke-opacity="0.4" stroke-width="1.25"/>
<path d="M235.906 1986.34C397.404 1769.46 492.912 1721.65 665.795 1757.73C838.678 1793.8 898.273 1964.56 1265.25 1908.79C1632.23 1853.01 1480.66 1636.61 2057.58 1687.65C2519.12 1728.48 2796.47 1487.98 2877.46 1362.63" stroke="url(#paint28_linear_707_352)" stroke-opacity="0.4" stroke-width="1.25"/>
<path d="M243.583 1957.21C405.082 1740.34 500.589 1692.52 673.472 1728.6C846.355 1764.68 905.951 1935.44 1272.93 1879.66C1639.9 1823.89 1488.33 1607.49 2065.26 1658.52C2526.79 1699.35 2804.15 1458.86 2885.14 1333.51" stroke="url(#paint29_linear_707_352)" stroke-opacity="0.4" stroke-width="1.25"/>
<path d="M251.259 1928.09C412.758 1711.22 508.265 1663.4 681.148 1699.48C854.031 1735.56 913.626 1906.32 1280.6 1850.54C1647.58 1794.76 1496.01 1578.36 2072.93 1629.4C2534.47 1670.23 2811.83 1429.74 2892.81 1304.39" stroke="url(#paint30_linear_707_352)" stroke-opacity="0.4" stroke-width="1.25"/>
<path d="M258.937 1898.97C420.435 1682.09 515.943 1634.28 688.826 1670.36C861.709 1706.43 921.304 1877.19 1288.28 1821.42C1655.26 1765.64 1503.69 1549.24 2080.61 1600.28C2542.15 1641.11 2819.5 1400.61 2900.49 1275.26" stroke="url(#paint31_linear_707_352)" stroke-opacity="0.4" stroke-width="1.25"/>
<path d="M266.615 1869.84C428.113 1652.97 523.621 1605.15 696.504 1641.23C869.387 1677.31 928.982 1848.07 1295.96 1792.29C1662.94 1736.52 1511.36 1520.12 2088.29 1571.15C2549.83 1611.98 2827.18 1371.49 2908.17 1246.14" stroke="url(#paint32_linear_707_352)" stroke-opacity="0.4" stroke-width="1.25"/>
<path d="M274.292 1840.72C435.791 1623.85 531.298 1576.03 704.181 1612.11C877.064 1648.19 936.66 1818.95 1303.64 1763.17C1670.61 1707.39 1519.04 1490.99 2095.96 1542.03C2557.5 1582.86 2834.86 1342.37 2915.84 1217.02" stroke="url(#paint33_linear_707_352)" stroke-opacity="0.4" stroke-width="1.25"/>
<path d="M281.968 1811.6C443.467 1594.72 538.974 1546.91 711.857 1582.99C884.74 1619.06 944.335 1789.82 1311.31 1734.05C1678.29 1678.27 1526.72 1461.87 2103.64 1512.91C2565.18 1553.74 2842.53 1313.24 2923.52 1187.89" stroke="url(#paint34_linear_707_352)" stroke-opacity="0.4" stroke-width="1.25"/>
<path d="M289.646 1782.47C451.144 1565.6 546.652 1517.79 719.535 1553.86C892.418 1589.94 952.013 1760.7 1318.99 1704.92C1685.97 1649.15 1534.4 1432.75 2111.32 1483.78C2572.86 1524.61 2850.21 1284.12 2931.2 1158.77" stroke="url(#paint35_linear_707_352)" stroke-opacity="0.4" stroke-width="1.25"/>
<path d="M297.322 1753.35C458.82 1536.47 554.328 1488.66 727.211 1524.74C900.094 1560.82 959.689 1731.58 1326.67 1675.8C1693.64 1620.02 1542.07 1403.62 2118.99 1454.66C2580.53 1495.49 2857.89 1255 2938.87 1129.65" stroke="url(#paint36_linear_707_352)" stroke-opacity="0.4" stroke-width="1.25"/>
<path d="M304.999 1724.23C466.498 1507.35 562.005 1459.54 734.888 1495.62C907.771 1531.69 967.367 1702.45 1334.34 1646.68C1701.32 1590.9 1549.75 1374.5 2126.67 1425.54C2588.21 1466.37 2865.57 1225.88 2946.55 1100.52" stroke="url(#paint37_linear_707_352)" stroke-opacity="0.4" stroke-width="1.25"/>
<path d="M312.677 1695.1C474.176 1478.23 569.683 1430.41 742.566 1466.49C915.449 1502.57 975.044 1673.33 1342.02 1617.55C1709 1561.78 1557.43 1345.38 2134.35 1396.41C2595.89 1437.24 2873.24 1196.75 2954.23 1071.4" stroke="url(#paint38_linear_707_352)" stroke-opacity="0.4" stroke-width="1.25"/>
<path d="M320.353 1665.98C481.852 1449.11 577.359 1401.29 750.242 1437.37C923.125 1473.45 982.72 1644.21 1349.7 1588.43C1716.67 1532.65 1565.1 1316.25 2142.03 1367.29C2603.56 1408.12 2880.92 1167.63 2961.9 1042.28" stroke="url(#paint39_linear_707_352)" stroke-opacity="0.4" stroke-width="1.25"/>
<path d="M328.031 1636.86C489.529 1419.98 585.037 1372.17 757.92 1408.25C930.803 1444.33 990.398 1615.09 1357.37 1559.31C1724.35 1503.53 1572.78 1287.13 2149.7 1338.17C2611.24 1379 2888.6 1138.51 2969.58 1013.16" stroke="url(#paint40_linear_707_352)" stroke-opacity="0.4" stroke-width="1.25"/>
<path d="M335.707 1607.73C497.205 1390.86 592.712 1343.05 765.595 1379.12C938.478 1415.2 998.074 1585.96 1365.05 1530.18C1732.03 1474.41 1580.46 1258.01 2157.38 1309.04C2618.92 1349.88 2896.27 1109.38 2977.26 984.031" stroke="url(#paint41_linear_707_352)" stroke-opacity="0.4" stroke-width="1.25"/>
<path d="M343.382 1578.61C504.881 1361.74 600.388 1313.92 773.271 1350C946.154 1386.08 1005.75 1556.84 1372.73 1501.06C1739.7 1445.28 1588.13 1228.88 2165.05 1279.92C2626.59 1320.75 2903.95 1080.26 2984.93 954.908" stroke="url(#paint42_linear_707_352)" stroke-opacity="0.4" stroke-width="1.25"/>
<path d="M351.062 1549.49C512.56 1332.61 608.068 1284.8 780.951 1320.88C953.834 1356.96 1013.43 1527.72 1380.41 1471.94C1747.38 1416.16 1595.81 1199.76 2172.73 1250.8C2634.27 1291.63 2911.63 1051.14 2992.61 925.786" stroke="url(#paint43_linear_707_352)" stroke-opacity="0.4" stroke-width="1.25"/>
<path d="M358.738 1520.37C520.236 1303.49 615.744 1255.68 788.627 1291.75C961.51 1327.83 1021.1 1498.59 1388.08 1442.81C1755.06 1387.04 1603.49 1170.64 2180.41 1221.68C2641.95 1262.51 2919.3 1022.01 3000.29 896.662" stroke="url(#paint44_linear_707_352)" stroke-opacity="0.4" stroke-width="1.25"/>
<path d="M366.416 1491.24C527.914 1274.37 623.421 1226.55 796.304 1262.63C969.187 1298.71 1028.78 1469.47 1395.76 1413.69C1762.74 1357.91 1611.16 1141.51 2188.09 1192.55C2649.63 1233.38 2926.98 992.889 3007.97 867.539" stroke="url(#paint45_linear_707_352)" stroke-opacity="0.4" stroke-width="1.25"/>
<path d="M374.091 1462.12C535.59 1245.24 631.097 1197.43 803.98 1233.51C976.863 1269.59 1036.46 1440.35 1403.44 1384.57C1770.41 1328.79 1618.84 1112.39 2195.76 1163.43C2657.3 1204.26 2934.66 963.766 3015.64 838.415" stroke="url(#paint46_linear_707_352)" stroke-opacity="0.4" stroke-width="1.25"/>
<path d="M381.771 1433C543.269 1216.12 638.777 1168.31 811.66 1204.38C984.543 1240.46 1044.14 1411.22 1411.12 1355.44C1778.09 1299.67 1626.52 1083.27 2203.44 1134.31C2664.98 1175.14 2942.34 934.643 3023.32 809.293" stroke="url(#paint47_linear_707_352)" stroke-opacity="0.4" stroke-width="1.25"/>
<path d="M389.447 1403.87C550.945 1187 646.453 1139.18 819.336 1175.26C992.219 1211.34 1051.81 1382.1 1418.79 1326.32C1785.77 1270.54 1634.2 1054.14 2211.12 1105.18C2672.66 1146.01 2950.01 905.52 3031 780.169" stroke="url(#paint48_linear_707_352)" stroke-opacity="0.4" stroke-width="1.25"/>
<path d="M397.124 1374.75C558.623 1157.87 654.13 1110.06 827.013 1146.14C999.896 1182.22 1059.49 1352.98 1426.47 1297.2C1793.45 1241.42 1641.87 1025.02 2218.8 1076.06C2680.34 1116.89 2957.69 876.397 3038.68 751.047" stroke="url(#paint49_linear_707_352)" stroke-opacity="0.4" stroke-width="1.25"/>
<path d="M404.8 1345.63C566.299 1128.75 661.806 1080.94 834.689 1117.01C1007.57 1153.09 1067.17 1323.85 1434.14 1268.07C1801.12 1212.3 1649.55 995.897 2226.47 1046.94C2688.01 1087.77 2965.37 847.273 3046.35 721.923" stroke="url(#paint50_linear_707_352)" stroke-opacity="0.4" stroke-width="1.25"/>
<path d="M412.48 1316.5C573.978 1099.63 669.486 1051.81 842.369 1087.89C1015.25 1123.97 1074.85 1294.73 1441.82 1238.95C1808.8 1183.17 1657.23 966.775 2234.15 1017.81C2695.69 1058.64 2973.05 818.151 3054.03 692.8" stroke="url(#paint51_linear_707_352)" stroke-opacity="0.4" stroke-width="1.25"/>
<path d="M420.156 1287.38C581.654 1070.5 677.162 1022.69 850.045 1058.77C1022.93 1094.85 1082.52 1265.61 1449.5 1209.83C1816.48 1154.05 1664.91 937.65 2241.83 988.688C2703.37 1029.52 2980.72 789.026 3061.71 663.675" stroke="url(#paint52_linear_707_352)" stroke-opacity="0.4" stroke-width="1.25"/>
<path d="M427.832 1258.26C589.33 1041.38 684.837 993.566 857.72 1029.64C1030.6 1065.72 1090.2 1236.48 1457.18 1180.7C1824.15 1124.93 1672.58 908.527 2249.5 959.565C2711.04 1000.4 2988.4 759.903 3069.38 634.552" stroke="url(#paint53_linear_707_352)" stroke-opacity="0.4" stroke-width="1.25"/>
<path d="M435.509 1229.13C597.008 1012.26 692.515 964.442 865.398 1000.52C1038.28 1036.6 1097.88 1207.36 1464.85 1151.58C1831.83 1095.8 1680.26 879.403 2257.18 930.441C2718.72 971.272 2996.08 730.779 3077.06 605.428" stroke="url(#paint54_linear_707_352)" stroke-opacity="0.4" stroke-width="1.25"/>
</g>
<defs>
<linearGradient id="paint0_linear_707_352" x1="1480.34" y1="1880.19" x2="1174.83" y2="3092.57" gradientUnits="userSpaceOnUse">
<stop stop-color="#399780"/>
<stop offset="1" stop-color="#480E8B"/>
<stop offset="1" stop-color="#480E8B"/>
</linearGradient>
<linearGradient id="paint1_linear_707_352" x1="1488.02" y1="1851.07" x2="1182.51" y2="3063.44" gradientUnits="userSpaceOnUse">
<stop stop-color="#399780"/>
<stop offset="1" stop-color="#480E8B"/>
<stop offset="1" stop-color="#480E8B"/>
</linearGradient>
<linearGradient id="paint2_linear_707_352" x1="1495.7" y1="1821.95" x2="1190.19" y2="3034.32" gradientUnits="userSpaceOnUse">
<stop stop-color="#399780"/>
<stop offset="1" stop-color="#480E8B"/>
<stop offset="1" stop-color="#480E8B"/>
</linearGradient>
<linearGradient id="paint3_linear_707_352" x1="1503.37" y1="1792.82" x2="1197.86" y2="3005.2" gradientUnits="userSpaceOnUse">
<stop stop-color="#399780"/>
<stop offset="1" stop-color="#480E8B"/>
<stop offset="1" stop-color="#480E8B"/>
</linearGradient>
<linearGradient id="paint4_linear_707_352" x1="1511.05" y1="1763.7" x2="1205.54" y2="2976.07" gradientUnits="userSpaceOnUse">
<stop stop-color="#399780"/>
<stop offset="1" stop-color="#480E8B"/>
<stop offset="1" stop-color="#480E8B"/>
</linearGradient>
<linearGradient id="paint5_linear_707_352" x1="1518.73" y1="1734.58" x2="1213.21" y2="2946.95" gradientUnits="userSpaceOnUse">
<stop stop-color="#399780"/>
<stop offset="1" stop-color="#480E8B"/>
<stop offset="1" stop-color="#480E8B"/>
</linearGradient>
<linearGradient id="paint6_linear_707_352" x1="1526.41" y1="1705.45" x2="1220.89" y2="2917.83" gradientUnits="userSpaceOnUse">
<stop stop-color="#399780"/>
<stop offset="1" stop-color="#480E8B"/>
<stop offset="1" stop-color="#480E8B"/>
</linearGradient>
<linearGradient id="paint7_linear_707_352" x1="1534.08" y1="1676.33" x2="1228.57" y2="2888.7" gradientUnits="userSpaceOnUse">
<stop stop-color="#399780"/>
<stop offset="1" stop-color="#480E8B"/>
<stop offset="1" stop-color="#480E8B"/>
</linearGradient>
<linearGradient id="paint8_linear_707_352" x1="1541.76" y1="1647.21" x2="1236.25" y2="2859.58" gradientUnits="userSpaceOnUse">
<stop stop-color="#399780"/>
<stop offset="1" stop-color="#480E8B"/>
<stop offset="1" stop-color="#480E8B"/>
</linearGradient>
<linearGradient id="paint9_linear_707_352" x1="1549.43" y1="1618.08" x2="1243.92" y2="2830.46" gradientUnits="userSpaceOnUse">
<stop stop-color="#399780"/>
<stop offset="1" stop-color="#480E8B"/>
<stop offset="1" stop-color="#480E8B"/>
</linearGradient>
<linearGradient id="paint10_linear_707_352" x1="1557.11" y1="1588.96" x2="1251.6" y2="2801.33" gradientUnits="userSpaceOnUse">
<stop stop-color="#399780"/>
<stop offset="1" stop-color="#480E8B"/>
<stop offset="1" stop-color="#480E8B"/>
</linearGradient>
<linearGradient id="paint11_linear_707_352" x1="1564.79" y1="1559.84" x2="1259.28" y2="2772.21" gradientUnits="userSpaceOnUse">
<stop stop-color="#399780"/>
<stop offset="1" stop-color="#480E8B"/>
<stop offset="1" stop-color="#480E8B"/>
</linearGradient>
<linearGradient id="paint12_linear_707_352" x1="1572.47" y1="1530.71" x2="1266.95" y2="2743.09" gradientUnits="userSpaceOnUse">
<stop stop-color="#399780"/>
<stop offset="1" stop-color="#480E8B"/>
<stop offset="1" stop-color="#480E8B"/>
</linearGradient>
<linearGradient id="paint13_linear_707_352" x1="1580.15" y1="1501.59" x2="1274.63" y2="2713.96" gradientUnits="userSpaceOnUse">
<stop stop-color="#399780"/>
<stop offset="1" stop-color="#480E8B"/>
<stop offset="1" stop-color="#480E8B"/>
</linearGradient>
<linearGradient id="paint14_linear_707_352" x1="1587.82" y1="1472.46" x2="1282.31" y2="2684.84" gradientUnits="userSpaceOnUse">
<stop stop-color="#399780"/>
<stop offset="1" stop-color="#480E8B"/>
<stop offset="1" stop-color="#480E8B"/>
</linearGradient>
<linearGradient id="paint15_linear_707_352" x1="1595.5" y1="1443.34" x2="1289.99" y2="2655.72" gradientUnits="userSpaceOnUse">
<stop stop-color="#399780"/>
<stop offset="1" stop-color="#480E8B"/>
<stop offset="1" stop-color="#480E8B"/>
</linearGradient>
<linearGradient id="paint16_linear_707_352" x1="1603.18" y1="1414.22" x2="1297.66" y2="2626.59" gradientUnits="userSpaceOnUse">
<stop stop-color="#399780"/>
<stop offset="1" stop-color="#480E8B"/>
<stop offset="1" stop-color="#480E8B"/>
</linearGradient>
<linearGradient id="paint17_linear_707_352" x1="1610.85" y1="1385.09" x2="1305.34" y2="2597.47" gradientUnits="userSpaceOnUse">
<stop stop-color="#399780"/>
<stop offset="1" stop-color="#480E8B"/>
<stop offset="1" stop-color="#480E8B"/>
</linearGradient>
<linearGradient id="paint18_linear_707_352" x1="1618.53" y1="1355.97" x2="1313.02" y2="2568.35" gradientUnits="userSpaceOnUse">
<stop stop-color="#399780"/>
<stop offset="1" stop-color="#480E8B"/>
<stop offset="1" stop-color="#480E8B"/>
</linearGradient>
<linearGradient id="paint19_linear_707_352" x1="1626.21" y1="1326.85" x2="1320.7" y2="2539.22" gradientUnits="userSpaceOnUse">
<stop stop-color="#399780"/>
<stop offset="1" stop-color="#480E8B"/>
<stop offset="1" stop-color="#480E8B"/>
</linearGradient>
<linearGradient id="paint20_linear_707_352" x1="1633.88" y1="1297.72" x2="1328.37" y2="2510.1" gradientUnits="userSpaceOnUse">
<stop stop-color="#399780"/>
<stop offset="1" stop-color="#480E8B"/>
<stop offset="1" stop-color="#480E8B"/>
</linearGradient>
<linearGradient id="paint21_linear_707_352" x1="1641.56" y1="1268.6" x2="1336.05" y2="2480.98" gradientUnits="userSpaceOnUse">
<stop stop-color="#399780"/>
<stop offset="1" stop-color="#480E8B"/>
<stop offset="1" stop-color="#480E8B"/>
</linearGradient>
<linearGradient id="paint22_linear_707_352" x1="1649.24" y1="1239.48" x2="1343.73" y2="2451.85" gradientUnits="userSpaceOnUse">
<stop stop-color="#399780"/>
<stop offset="1" stop-color="#480E8B"/>
<stop offset="1" stop-color="#480E8B"/>
</linearGradient>
<linearGradient id="paint23_linear_707_352" x1="1656.92" y1="1210.35" x2="1351.4" y2="2422.73" gradientUnits="userSpaceOnUse">
<stop stop-color="#399780"/>
<stop offset="1" stop-color="#480E8B"/>
<stop offset="1" stop-color="#480E8B"/>
</linearGradient>
<linearGradient id="paint24_linear_707_352" x1="1664.59" y1="1181.23" x2="1359.08" y2="2393.61" gradientUnits="userSpaceOnUse">
<stop stop-color="#399780"/>
<stop offset="1" stop-color="#480E8B"/>
<stop offset="1" stop-color="#480E8B"/>
</linearGradient>
<linearGradient id="paint25_linear_707_352" x1="1672.27" y1="1152.11" x2="1366.76" y2="2364.48" gradientUnits="userSpaceOnUse">
<stop stop-color="#399780"/>
<stop offset="1" stop-color="#480E8B"/>
<stop offset="1" stop-color="#480E8B"/>
</linearGradient>
<linearGradient id="paint26_linear_707_352" x1="1679.95" y1="1122.98" x2="1374.44" y2="2335.36" gradientUnits="userSpaceOnUse">
<stop stop-color="#399780"/>
<stop offset="1" stop-color="#480E8B"/>
<stop offset="1" stop-color="#480E8B"/>
</linearGradient>
<linearGradient id="paint27_linear_707_352" x1="1687.62" y1="1093.86" x2="1382.11" y2="2306.23" gradientUnits="userSpaceOnUse">
<stop stop-color="#399780"/>
<stop offset="1" stop-color="#480E8B"/>
<stop offset="1" stop-color="#480E8B"/>
</linearGradient>
<linearGradient id="paint28_linear_707_352" x1="1695.3" y1="1064.74" x2="1389.79" y2="2277.11" gradientUnits="userSpaceOnUse">
<stop stop-color="#399780"/>
<stop offset="1" stop-color="#480E8B"/>
<stop offset="1" stop-color="#480E8B"/>
</linearGradient>
<linearGradient id="paint29_linear_707_352" x1="1702.98" y1="1035.61" x2="1397.47" y2="2247.99" gradientUnits="userSpaceOnUse">
<stop stop-color="#399780"/>
<stop offset="1" stop-color="#480E8B"/>
<stop offset="1" stop-color="#480E8B"/>
</linearGradient>
<linearGradient id="paint30_linear_707_352" x1="1710.66" y1="1006.49" x2="1405.14" y2="2218.86" gradientUnits="userSpaceOnUse">
<stop stop-color="#399780"/>
<stop offset="1" stop-color="#480E8B"/>
<stop offset="1" stop-color="#480E8B"/>
</linearGradient>
<linearGradient id="paint31_linear_707_352" x1="1718.33" y1="977.366" x2="1412.82" y2="2189.74" gradientUnits="userSpaceOnUse">
<stop stop-color="#399780"/>
<stop offset="1" stop-color="#480E8B"/>
<stop offset="1" stop-color="#480E8B"/>
</linearGradient>
<linearGradient id="paint32_linear_707_352" x1="1726.01" y1="948.243" x2="1420.5" y2="2160.62" gradientUnits="userSpaceOnUse">
<stop stop-color="#399780"/>
<stop offset="1" stop-color="#480E8B"/>
<stop offset="1" stop-color="#480E8B"/>
</linearGradient>
<linearGradient id="paint33_linear_707_352" x1="1733.69" y1="919.12" x2="1428.18" y2="2131.5" gradientUnits="userSpaceOnUse">
<stop stop-color="#399780"/>
<stop offset="1" stop-color="#480E8B"/>
<stop offset="1" stop-color="#480E8B"/>
</linearGradient>
<linearGradient id="paint34_linear_707_352" x1="1741.36" y1="889.996" x2="1435.85" y2="2102.37" gradientUnits="userSpaceOnUse">
<stop stop-color="#399780"/>
<stop offset="1" stop-color="#480E8B"/>
<stop offset="1" stop-color="#480E8B"/>
</linearGradient>
<linearGradient id="paint35_linear_707_352" x1="1749.04" y1="860.873" x2="1443.53" y2="2073.25" gradientUnits="userSpaceOnUse">
<stop stop-color="#399780"/>
<stop offset="1" stop-color="#480E8B"/>
<stop offset="1" stop-color="#480E8B"/>
</linearGradient>
<linearGradient id="paint36_linear_707_352" x1="1756.72" y1="831.75" x2="1451.2" y2="2044.12" gradientUnits="userSpaceOnUse">
<stop stop-color="#399780"/>
<stop offset="1" stop-color="#480E8B"/>
<stop offset="1" stop-color="#480E8B"/>
</linearGradient>
<linearGradient id="paint37_linear_707_352" x1="1764.4" y1="802.627" x2="1458.88" y2="2015" gradientUnits="userSpaceOnUse">
<stop stop-color="#399780"/>
<stop offset="1" stop-color="#480E8B"/>
<stop offset="1" stop-color="#480E8B"/>
</linearGradient>
<linearGradient id="paint38_linear_707_352" x1="1772.07" y1="773.503" x2="1466.56" y2="1985.88" gradientUnits="userSpaceOnUse">
<stop stop-color="#399780"/>
<stop offset="1" stop-color="#480E8B"/>
<stop offset="1" stop-color="#480E8B"/>
</linearGradient>
<linearGradient id="paint39_linear_707_352" x1="1779.75" y1="744.38" x2="1474.24" y2="1956.76" gradientUnits="userSpaceOnUse">
<stop stop-color="#399780"/>
<stop offset="1" stop-color="#480E8B"/>
<stop offset="1" stop-color="#480E8B"/>
</linearGradient>
<linearGradient id="paint40_linear_707_352" x1="1787.43" y1="715.257" x2="1481.91" y2="1927.63" gradientUnits="userSpaceOnUse">
<stop stop-color="#399780"/>
<stop offset="1" stop-color="#480E8B"/>
<stop offset="1" stop-color="#480E8B"/>
</linearGradient>
<linearGradient id="paint41_linear_707_352" x1="1795.1" y1="686.133" x2="1489.59" y2="1898.51" gradientUnits="userSpaceOnUse">
<stop stop-color="#399780"/>
<stop offset="1" stop-color="#480E8B"/>
<stop offset="1" stop-color="#480E8B"/>
</linearGradient>
<linearGradient id="paint42_linear_707_352" x1="1802.78" y1="657.01" x2="1497.27" y2="1869.39" gradientUnits="userSpaceOnUse">
<stop stop-color="#399780"/>
<stop offset="1" stop-color="#480E8B"/>
<stop offset="1" stop-color="#480E8B"/>
</linearGradient>
<linearGradient id="paint43_linear_707_352" x1="1810.46" y1="627.888" x2="1504.95" y2="1840.26" gradientUnits="userSpaceOnUse">
<stop stop-color="#399780"/>
<stop offset="1" stop-color="#480E8B"/>
<stop offset="1" stop-color="#480E8B"/>
</linearGradient>
<linearGradient id="paint44_linear_707_352" x1="1818.13" y1="598.764" x2="1512.62" y2="1811.14" gradientUnits="userSpaceOnUse">
<stop stop-color="#399780"/>
<stop offset="1" stop-color="#480E8B"/>
<stop offset="1" stop-color="#480E8B"/>
</linearGradient>
<linearGradient id="paint45_linear_707_352" x1="1825.81" y1="569.641" x2="1520.3" y2="1782.02" gradientUnits="userSpaceOnUse">
<stop stop-color="#399780"/>
<stop offset="1" stop-color="#480E8B"/>
<stop offset="1" stop-color="#480E8B"/>
</linearGradient>
<linearGradient id="paint46_linear_707_352" x1="1833.49" y1="540.517" x2="1527.97" y2="1752.89" gradientUnits="userSpaceOnUse">
<stop stop-color="#399780"/>
<stop offset="1" stop-color="#480E8B"/>
<stop offset="1" stop-color="#480E8B"/>
</linearGradient>
<linearGradient id="paint47_linear_707_352" x1="1841.17" y1="511.395" x2="1535.65" y2="1723.77" gradientUnits="userSpaceOnUse">
<stop stop-color="#399780"/>
<stop offset="1" stop-color="#480E8B"/>
<stop offset="1" stop-color="#480E8B"/>
</linearGradient>
<linearGradient id="paint48_linear_707_352" x1="1848.84" y1="482.271" x2="1543.33" y2="1694.65" gradientUnits="userSpaceOnUse">
<stop stop-color="#399780"/>
<stop offset="1" stop-color="#480E8B"/>
<stop offset="1" stop-color="#480E8B"/>
</linearGradient>
<linearGradient id="paint49_linear_707_352" x1="1856.52" y1="453.149" x2="1551.01" y2="1665.52" gradientUnits="userSpaceOnUse">
<stop stop-color="#399780"/>
<stop offset="1" stop-color="#480E8B"/>
<stop offset="1" stop-color="#480E8B"/>
</linearGradient>
<linearGradient id="paint50_linear_707_352" x1="1864.2" y1="424.025" x2="1558.68" y2="1636.4" gradientUnits="userSpaceOnUse">
<stop stop-color="#399780"/>
<stop offset="1" stop-color="#480E8B"/>
<stop offset="1" stop-color="#480E8B"/>
</linearGradient>
<linearGradient id="paint51_linear_707_352" x1="1871.88" y1="394.902" x2="1566.36" y2="1607.28" gradientUnits="userSpaceOnUse">
<stop stop-color="#399780"/>
<stop offset="1" stop-color="#480E8B"/>
<stop offset="1" stop-color="#480E8B"/>
</linearGradient>
<linearGradient id="paint52_linear_707_352" x1="1879.55" y1="365.777" x2="1574.04" y2="1578.15" gradientUnits="userSpaceOnUse">
<stop stop-color="#399780"/>
<stop offset="1" stop-color="#480E8B"/>
<stop offset="1" stop-color="#480E8B"/>
</linearGradient>
<linearGradient id="paint53_linear_707_352" x1="1887.23" y1="336.654" x2="1581.71" y2="1549.03" gradientUnits="userSpaceOnUse">
<stop stop-color="#399780"/>
<stop offset="1" stop-color="#480E8B"/>
<stop offset="1" stop-color="#480E8B"/>
</linearGradient>
<linearGradient id="paint54_linear_707_352" x1="1894.91" y1="307.53" x2="1589.39" y2="1519.91" gradientUnits="userSpaceOnUse">
<stop stop-color="#399780"/>
<stop offset="1" stop-color="#480E8B"/>
<stop offset="1" stop-color="#480E8B"/>
</linearGradient>
</defs>
</svg>
