<svg width="26" height="32" viewBox="0 0 26 32" fill="none" xmlns="http://www.w3.org/2000/svg">
<path fill-rule="evenodd" clip-rule="evenodd" d="M14.9583 7.74992C14.9583 3.72284 11.6937 0.458252 7.66667 0.458252H0.375V1.91659C0.375 5.94366 3.63959 9.20825 7.66667 9.20825H12.0417V11.1544C10.2676 10.635 8.28158 10.8214 6.75256 11.5313C3.80128 12.9014 1.83476 15.7397 1.83476 19.4165C1.83476 23.7183 4.04372 27.654 7.55276 30.0327L7.55481 30.0341C8.54862 30.7054 9.71644 31.0831 10.9452 31.0831C11.8571 31.0831 12.7253 30.8816 13.4994 30.5191C14.2738 30.8816 15.1423 31.0831 16.0542 31.0831C17.2829 31.0831 18.4507 30.7054 19.4445 30.0341L19.4466 30.0327C22.9556 27.654 25.1646 23.7183 25.1646 19.4165C25.1646 15.7397 23.1981 12.9014 20.2468 11.5313C18.7181 10.8216 16.7324 10.6351 14.9583 11.1541V7.74992ZM3.54061 3.37492C4.14121 5.07416 5.76176 6.29158 7.66667 6.29158H11.7927C11.1921 4.59235 9.57157 3.37492 7.66667 3.37492H3.54061ZM12.0417 17.9583V14.3085C10.9379 13.6548 9.25756 13.584 7.98074 14.1767C6.04835 15.0739 4.75142 16.8869 4.75142 19.4165C4.75142 22.7021 6.43942 25.7538 9.18814 27.6177C9.72098 27.9773 10.3239 28.1665 10.9452 28.1665C11.603 28.1665 12.1993 27.9678 12.6763 27.6417L13.4994 27.079L14.3224 27.6417C14.7993 27.9677 15.3962 28.1665 16.0542 28.1665C16.6755 28.1665 17.2785 27.9773 17.8114 27.6176C20.56 25.7537 22.2479 22.7021 22.2479 19.4165C22.2479 16.8869 20.951 15.0739 19.0186 14.1767C17.7423 13.5842 16.0622 13.6547 14.9583 14.3078V17.9583H12.0417Z" fill="#1B1B1B"/>
</svg>
