<svg width="28" height="28" viewBox="0 0 28 28" fill="none" xmlns="http://www.w3.org/2000/svg">
<path fill-rule="evenodd" clip-rule="evenodd" d="M14 0C12.1435 0 10.363 0.819442 9.05025 2.27806C8.77809 2.58046 8.53066 2.9052 8.30939 3.2484C8.02874 3.18902 7.74437 3.14863 7.45782 3.12776C6.38641 3.04974 5.3132 3.24661 4.32122 3.70316C3.32923 4.15971 2.44507 4.86369 1.73712 5.76065C1.02917 6.6576 0.516417 7.72349 0.238519 8.87585C-0.0393783 10.0282 -0.0749679 11.2362 0.134503 12.4063C0.343974 13.5764 0.792892 14.6772 1.44653 15.6237C2.10016 16.5702 2.941 17.3369 3.90398 17.8646C4.00169 17.9181 4.10039 17.969 4.2 18.0173V26.4444C4.2 27.3036 4.8268 28 5.6 28H22.4C23.1732 28 23.8 27.3036 23.8 26.4444V18.0173C23.8996 17.969 23.9983 17.9181 24.096 17.8646C25.059 17.3369 25.8998 16.5702 26.5535 15.6237C27.2071 14.6772 27.656 13.5764 27.8655 12.4063C28.075 11.2362 28.0394 10.0282 27.7615 8.87585C27.4836 7.72349 26.9708 6.6576 26.2629 5.76065C25.5549 4.86369 24.6708 4.15971 23.6788 3.70316C22.6868 3.24661 21.6136 3.04974 20.5422 3.12776C20.2556 3.14863 19.9713 3.18902 19.6906 3.2484C19.4693 2.9052 19.2219 2.58046 18.9497 2.27806C17.637 0.819442 15.8565 0 14 0ZM20.8591 6.22485C20.9521 6.73221 21 7.25225 21 7.77778H18.2C18.2 6.5401 17.7575 5.35312 16.9698 4.47795C16.1822 3.60278 15.1139 3.11111 14 3.11111C12.8861 3.11111 11.8178 3.60278 11.0302 4.47795C10.2425 5.35312 9.8 6.5401 9.8 7.77778H7C7 7.25225 7.04787 6.73221 7.14092 6.22485C6.54274 6.20254 5.94663 6.32253 5.39273 6.57745C4.79754 6.85138 4.26704 7.27377 3.84227 7.81194C3.4175 8.35012 3.10985 8.98965 2.94311 9.68107C2.77637 10.3725 2.75502 11.0973 2.8807 11.7993C3.00638 12.5014 3.27573 13.1619 3.66792 13.7298C4.0601 14.2977 4.5646 14.7577 5.14239 15.0743C5.71918 15.3903 6.35357 15.555 6.99665 15.5556L7 15.5556V24.8889H21V15.5556H21.0033C21.6464 15.555 22.2808 15.3903 22.8576 15.0743C23.4354 14.7577 23.9399 14.2977 24.3321 13.7298C24.7243 13.1619 24.9936 12.5014 25.1193 11.7993C25.245 11.0973 25.2236 10.3725 25.0569 9.68107C24.8902 8.98965 24.5825 8.35012 24.1577 7.81194C23.733 7.27377 23.2025 6.85138 22.6073 6.57745C22.0534 6.32253 21.4573 6.20254 20.8591 6.22485Z" fill="#1B1B1B"/>
<path fill-rule="evenodd" clip-rule="evenodd" d="M9.8 20.2222V15.5556H12.6V20.2222H9.8Z" fill="#1B1B1B"/>
<path fill-rule="evenodd" clip-rule="evenodd" d="M15.4 20.2222V15.5556H18.2V20.2222H15.4Z" fill="#1B1B1B"/>
</svg>
